ISO-10303-21;
HEADER;
/* Generated by software containing ST-Developer
 * from STEP Tools, Inc. (www.steptools.com) 
 */
/* OPTION: using custom schema-name function */

FILE_DESCRIPTION(
/* description */ (''),
/* implementation_level */ '2;1');

FILE_NAME(
/* name */ 'node_SK8_support',
/* time_stamp */ '2025-11-18T13:48:30+08:00',
/* author */ (''),
/* organization */ (''),
/* preprocessor_version */ 'ST-DEVELOPER v19.2',
/* originating_system */ 'Rhino 8.7',
/* authorisation */ '');

FILE_SCHEMA (('CONFIG_CONTROL_DESIGN'));
ENDSEC;

DATA;
#10=SHAPE_REPRESENTATION_RELATIONSHIP('','',#418,#13);
#11=MANIFOLD_SOLID_BREP('brep_1',#14);
#12=MANIFOLD_SOLID_BREP('brep_2',#15);
#13=ADVANCED_BREP_SHAPE_REPRESENTATION('brep_rep_0',(#11,#12,#466),#417);
#14=CLOSED_SHELL('',(#16,#17,#18,#19,#20,#21));
#15=CLOSED_SHELL('',(#22,#23,#24,#25,#26,#27,#28,#29,#30,#31,#32,#33));
#16=ADVANCED_FACE('',(#44,#34),#328,.T.);
#17=ADVANCED_FACE('',(#45),#314,.T.);
#18=ADVANCED_FACE('',(#46,#35),#329,.T.);
#19=ADVANCED_FACE('',(#47),#315,.F.);
#20=ADVANCED_FACE('',(#48),#316,.T.);
#21=ADVANCED_FACE('',(#49),#317,.F.);
#22=ADVANCED_FACE('',(#50,#36,#37,#38,#39),#330,.T.);
#23=ADVANCED_FACE('',(#51),#318,.T.);
#24=ADVANCED_FACE('',(#52,#40,#41,#42,#43),#331,.T.);
#25=ADVANCED_FACE('',(#53),#319,.F.);
#26=ADVANCED_FACE('',(#54),#320,.F.);
#27=ADVANCED_FACE('',(#55),#321,.F.);
#28=ADVANCED_FACE('',(#56),#322,.F.);
#29=ADVANCED_FACE('',(#57),#323,.T.);
#30=ADVANCED_FACE('',(#58),#324,.F.);
#31=ADVANCED_FACE('',(#59),#325,.F.);
#32=ADVANCED_FACE('',(#60),#326,.F.);
#33=ADVANCED_FACE('',(#61),#327,.F.);
#34=FACE_BOUND('',#63,.T.);
#35=FACE_BOUND('',#66,.T.);
#36=FACE_BOUND('',#71,.T.);
#37=FACE_BOUND('',#72,.T.);
#38=FACE_BOUND('',#73,.T.);
#39=FACE_BOUND('',#74,.T.);
#40=FACE_BOUND('',#77,.T.);
#41=FACE_BOUND('',#78,.T.);
#42=FACE_BOUND('',#79,.T.);
#43=FACE_BOUND('',#80,.T.);
#44=FACE_OUTER_BOUND('',#62,.T.);
#45=FACE_OUTER_BOUND('',#64,.T.);
#46=FACE_OUTER_BOUND('',#65,.T.);
#47=FACE_OUTER_BOUND('',#67,.T.);
#48=FACE_OUTER_BOUND('',#68,.T.);
#49=FACE_OUTER_BOUND('',#69,.T.);
#50=FACE_OUTER_BOUND('',#70,.T.);
#51=FACE_OUTER_BOUND('',#75,.T.);
#52=FACE_OUTER_BOUND('',#76,.T.);
#53=FACE_OUTER_BOUND('',#81,.T.);
#54=FACE_OUTER_BOUND('',#82,.T.);
#55=FACE_OUTER_BOUND('',#83,.T.);
#56=FACE_OUTER_BOUND('',#84,.T.);
#57=FACE_OUTER_BOUND('',#85,.T.);
#58=FACE_OUTER_BOUND('',#86,.T.);
#59=FACE_OUTER_BOUND('',#87,.T.);
#60=FACE_OUTER_BOUND('',#88,.T.);
#61=FACE_OUTER_BOUND('',#89,.T.);
#62=EDGE_LOOP('',(#90,#91));
#63=EDGE_LOOP('',(#92,#93));
#64=EDGE_LOOP('',(#94,#95,#96,#97));
#65=EDGE_LOOP('',(#98,#99));
#66=EDGE_LOOP('',(#100,#101));
#67=EDGE_LOOP('',(#102,#103,#104,#105));
#68=EDGE_LOOP('',(#106,#107,#108,#109));
#69=EDGE_LOOP('',(#110,#111,#112,#113));
#70=EDGE_LOOP('',(#114,#115));
#71=EDGE_LOOP('',(#116,#117));
#72=EDGE_LOOP('',(#118,#119));
#73=EDGE_LOOP('',(#120,#121));
#74=EDGE_LOOP('',(#122,#123));
#75=EDGE_LOOP('',(#124,#125,#126,#127));
#76=EDGE_LOOP('',(#128,#129));
#77=EDGE_LOOP('',(#130,#131));
#78=EDGE_LOOP('',(#132,#133));
#79=EDGE_LOOP('',(#134,#135));
#80=EDGE_LOOP('',(#136,#137));
#81=EDGE_LOOP('',(#138,#139,#140,#141));
#82=EDGE_LOOP('',(#142,#143,#144,#145));
#83=EDGE_LOOP('',(#146,#147,#148,#149));
#84=EDGE_LOOP('',(#150,#151,#152,#153));
#85=EDGE_LOOP('',(#154,#155,#156,#157));
#86=EDGE_LOOP('',(#158,#159,#160,#161));
#87=EDGE_LOOP('',(#162,#163,#164,#165));
#88=EDGE_LOOP('',(#166,#167,#168,#169));
#89=EDGE_LOOP('',(#170,#171,#172,#173));
#90=ORIENTED_EDGE('',*,*,#181,.F.);
#91=ORIENTED_EDGE('',*,*,#174,.F.);
#92=ORIENTED_EDGE('',*,*,#177,.T.);
#93=ORIENTED_EDGE('',*,*,#184,.T.);
#94=ORIENTED_EDGE('',*,*,#181,.T.);
#95=ORIENTED_EDGE('',*,*,#175,.T.);
#96=ORIENTED_EDGE('',*,*,#182,.F.);
#97=ORIENTED_EDGE('',*,*,#180,.F.);
#98=ORIENTED_EDGE('',*,*,#176,.T.);
#99=ORIENTED_EDGE('',*,*,#182,.T.);
#100=ORIENTED_EDGE('',*,*,#185,.F.);
#101=ORIENTED_EDGE('',*,*,#179,.F.);
#102=ORIENTED_EDGE('',*,*,#183,.T.);
#103=ORIENTED_EDGE('',*,*,#185,.T.);
#104=ORIENTED_EDGE('',*,*,#178,.F.);
#105=ORIENTED_EDGE('',*,*,#184,.F.);
#106=ORIENTED_EDGE('',*,*,#180,.T.);
#107=ORIENTED_EDGE('',*,*,#176,.F.);
#108=ORIENTED_EDGE('',*,*,#175,.F.);
#109=ORIENTED_EDGE('',*,*,#174,.T.);
#110=ORIENTED_EDGE('',*,*,#177,.F.);
#111=ORIENTED_EDGE('',*,*,#178,.T.);
#112=ORIENTED_EDGE('',*,*,#179,.T.);
#113=ORIENTED_EDGE('',*,*,#183,.F.);
#114=ORIENTED_EDGE('',*,*,#186,.T.);
#115=ORIENTED_EDGE('',*,*,#202,.T.);
#116=ORIENTED_EDGE('',*,*,#189,.T.);
#117=ORIENTED_EDGE('',*,*,#205,.T.);
#118=ORIENTED_EDGE('',*,*,#192,.T.);
#119=ORIENTED_EDGE('',*,*,#208,.T.);
#120=ORIENTED_EDGE('',*,*,#211,.F.);
#121=ORIENTED_EDGE('',*,*,#195,.F.);
#122=ORIENTED_EDGE('',*,*,#214,.F.);
#123=ORIENTED_EDGE('',*,*,#198,.F.);
#124=ORIENTED_EDGE('',*,*,#201,.T.);
#125=ORIENTED_EDGE('',*,*,#203,.T.);
#126=ORIENTED_EDGE('',*,*,#187,.F.);
#127=ORIENTED_EDGE('',*,*,#202,.F.);
#128=ORIENTED_EDGE('',*,*,#203,.F.);
#129=ORIENTED_EDGE('',*,*,#188,.F.);
#130=ORIENTED_EDGE('',*,*,#206,.F.);
#131=ORIENTED_EDGE('',*,*,#190,.F.);
#132=ORIENTED_EDGE('',*,*,#209,.F.);
#133=ORIENTED_EDGE('',*,*,#193,.F.);
#134=ORIENTED_EDGE('',*,*,#196,.T.);
#135=ORIENTED_EDGE('',*,*,#212,.T.);
#136=ORIENTED_EDGE('',*,*,#199,.T.);
#137=ORIENTED_EDGE('',*,*,#215,.T.);
#138=ORIENTED_EDGE('',*,*,#189,.F.);
#139=ORIENTED_EDGE('',*,*,#191,.T.);
#140=ORIENTED_EDGE('',*,*,#190,.T.);
#141=ORIENTED_EDGE('',*,*,#204,.F.);
#142=ORIENTED_EDGE('',*,*,#192,.F.);
#143=ORIENTED_EDGE('',*,*,#194,.T.);
#144=ORIENTED_EDGE('',*,*,#193,.T.);
#145=ORIENTED_EDGE('',*,*,#207,.F.);
#146=ORIENTED_EDGE('',*,*,#210,.T.);
#147=ORIENTED_EDGE('',*,*,#196,.F.);
#148=ORIENTED_EDGE('',*,*,#197,.F.);
#149=ORIENTED_EDGE('',*,*,#195,.T.);
#150=ORIENTED_EDGE('',*,*,#213,.T.);
#151=ORIENTED_EDGE('',*,*,#199,.F.);
#152=ORIENTED_EDGE('',*,*,#200,.F.);
#153=ORIENTED_EDGE('',*,*,#198,.T.);
#154=ORIENTED_EDGE('',*,*,#186,.F.);
#155=ORIENTED_EDGE('',*,*,#187,.T.);
#156=ORIENTED_EDGE('',*,*,#188,.T.);
#157=ORIENTED_EDGE('',*,*,#201,.F.);
#158=ORIENTED_EDGE('',*,*,#204,.T.);
#159=ORIENTED_EDGE('',*,*,#206,.T.);
#160=ORIENTED_EDGE('',*,*,#191,.F.);
#161=ORIENTED_EDGE('',*,*,#205,.F.);
#162=ORIENTED_EDGE('',*,*,#207,.T.);
#163=ORIENTED_EDGE('',*,*,#209,.T.);
#164=ORIENTED_EDGE('',*,*,#194,.F.);
#165=ORIENTED_EDGE('',*,*,#208,.F.);
#166=ORIENTED_EDGE('',*,*,#211,.T.);
#167=ORIENTED_EDGE('',*,*,#197,.T.);
#168=ORIENTED_EDGE('',*,*,#212,.F.);
#169=ORIENTED_EDGE('',*,*,#210,.F.);
#170=ORIENTED_EDGE('',*,*,#214,.T.);
#171=ORIENTED_EDGE('',*,*,#200,.T.);
#172=ORIENTED_EDGE('',*,*,#215,.F.);
#173=ORIENTED_EDGE('',*,*,#213,.F.);
#174=EDGE_CURVE('',#286,#290,#230,.T.);
#175=EDGE_CURVE('',#286,#287,#216,.T.);
#176=EDGE_CURVE('',#287,#291,#231,.T.);
#177=EDGE_CURVE('',#288,#292,#232,.T.);
#178=EDGE_CURVE('',#288,#289,#217,.T.);
#179=EDGE_CURVE('',#289,#293,#233,.T.);
#180=EDGE_CURVE('',#290,#291,#218,.T.);
#181=EDGE_CURVE('',#290,#286,#234,.T.);
#182=EDGE_CURVE('',#291,#287,#235,.T.);
#183=EDGE_CURVE('',#292,#293,#219,.T.);
#184=EDGE_CURVE('',#292,#288,#236,.T.);
#185=EDGE_CURVE('',#293,#289,#237,.T.);
#186=EDGE_CURVE('',#294,#304,#238,.T.);
#187=EDGE_CURVE('',#294,#295,#220,.T.);
#188=EDGE_CURVE('',#295,#305,#239,.T.);
#189=EDGE_CURVE('',#296,#306,#240,.T.);
#190=EDGE_CURVE('',#297,#307,#241,.T.);
#191=EDGE_CURVE('',#296,#297,#221,.T.);
#192=EDGE_CURVE('',#298,#308,#242,.T.);
#193=EDGE_CURVE('',#299,#309,#243,.T.);
#194=EDGE_CURVE('',#298,#299,#222,.T.);
#195=EDGE_CURVE('',#300,#310,#244,.T.);
#196=EDGE_CURVE('',#301,#311,#245,.T.);
#197=EDGE_CURVE('',#300,#301,#223,.T.);
#198=EDGE_CURVE('',#302,#312,#246,.T.);
#199=EDGE_CURVE('',#303,#313,#247,.T.);
#200=EDGE_CURVE('',#302,#303,#224,.T.);
#201=EDGE_CURVE('',#304,#305,#225,.T.);
#202=EDGE_CURVE('',#304,#294,#248,.T.);
#203=EDGE_CURVE('',#305,#295,#249,.T.);
#204=EDGE_CURVE('',#306,#307,#226,.T.);
#205=EDGE_CURVE('',#306,#296,#250,.T.);
#206=EDGE_CURVE('',#307,#297,#251,.T.);
#207=EDGE_CURVE('',#308,#309,#227,.T.);
#208=EDGE_CURVE('',#308,#298,#252,.T.);
#209=EDGE_CURVE('',#309,#299,#253,.T.);
#210=EDGE_CURVE('',#310,#311,#228,.T.);
#211=EDGE_CURVE('',#310,#300,#254,.T.);
#212=EDGE_CURVE('',#311,#301,#255,.T.);
#213=EDGE_CURVE('',#312,#313,#229,.T.);
#214=EDGE_CURVE('',#312,#302,#256,.T.);
#215=EDGE_CURVE('',#313,#303,#257,.T.);
#216=B_SPLINE_CURVE_WITH_KNOTS('',1,(#563,#564),.UNSPECIFIED.,.F.,.F.,(2,
2),(0.,18.),.UNSPECIFIED.);
#217=B_SPLINE_CURVE_WITH_KNOTS('',1,(#571,#572),.UNSPECIFIED.,.F.,.F.,(2,
2),(0.,18.),.UNSPECIFIED.);
#218=B_SPLINE_CURVE_WITH_KNOTS('',1,(#576,#577),.UNSPECIFIED.,.F.,.F.,(2,
2),(0.,18.),.UNSPECIFIED.);
#219=B_SPLINE_CURVE_WITH_KNOTS('',1,(#584,#585),.UNSPECIFIED.,.F.,.F.,(2,
2),(0.,18.),.UNSPECIFIED.);
#220=B_SPLINE_CURVE_WITH_KNOTS('',1,(#627,#628),.UNSPECIFIED.,.F.,.F.,(2,
2),(0.,5.),.UNSPECIFIED.);
#221=B_SPLINE_CURVE_WITH_KNOTS('',1,(#638,#639),.UNSPECIFIED.,.F.,.F.,(2,
2),(4.,9.),.UNSPECIFIED.);
#222=B_SPLINE_CURVE_WITH_KNOTS('',1,(#646,#647),.UNSPECIFIED.,.F.,.F.,(2,
2),(4.,9.),.UNSPECIFIED.);
#223=B_SPLINE_CURVE_WITH_KNOTS('',1,(#654,#655),.UNSPECIFIED.,.F.,.F.,(2,
2),(4.00000000000002,9.00000000000002),.UNSPECIFIED.);
#224=B_SPLINE_CURVE_WITH_KNOTS('',1,(#662,#663),.UNSPECIFIED.,.F.,.F.,(2,
2),(3.99999999999998,8.99999999999998),.UNSPECIFIED.);
#225=B_SPLINE_CURVE_WITH_KNOTS('',1,(#664,#665),.UNSPECIFIED.,.F.,.F.,(2,
2),(0.,5.),.UNSPECIFIED.);
#226=B_SPLINE_CURVE_WITH_KNOTS('',1,(#672,#673),.UNSPECIFIED.,.F.,.F.,(2,
2),(4.,9.),.UNSPECIFIED.);
#227=B_SPLINE_CURVE_WITH_KNOTS('',1,(#680,#681),.UNSPECIFIED.,.F.,.F.,(2,
2),(4.,9.),.UNSPECIFIED.);
#228=B_SPLINE_CURVE_WITH_KNOTS('',1,(#688,#689),.UNSPECIFIED.,.F.,.F.,(2,
2),(4.00000000000002,9.00000000000002),.UNSPECIFIED.);
#229=B_SPLINE_CURVE_WITH_KNOTS('',1,(#696,#697),.UNSPECIFIED.,.F.,.F.,(2,
2),(3.99999999999998,8.99999999999998),.UNSPECIFIED.);
#230=TRIMMED_CURVE($,#258,(#561),(#562),.T.,.CARTESIAN.);
#231=TRIMMED_CURVE($,#259,(#566),(#567),.T.,.CARTESIAN.);
#232=TRIMMED_CURVE($,#260,(#569),(#570),.T.,.CARTESIAN.);
#233=TRIMMED_CURVE($,#261,(#574),(#575),.T.,.CARTESIAN.);
#234=TRIMMED_CURVE($,#262,(#579),(#580),.T.,.CARTESIAN.);
#235=TRIMMED_CURVE($,#263,(#582),(#583),.T.,.CARTESIAN.);
#236=TRIMMED_CURVE($,#264,(#587),(#588),.T.,.CARTESIAN.);
#237=TRIMMED_CURVE($,#265,(#590),(#591),.T.,.CARTESIAN.);
#238=TRIMMED_CURVE($,#266,(#625),(#626),.T.,.CARTESIAN.);
#239=TRIMMED_CURVE($,#267,(#630),(#631),.T.,.CARTESIAN.);
#240=TRIMMED_CURVE($,#268,(#633),(#634),.T.,.CARTESIAN.);
#241=TRIMMED_CURVE($,#269,(#636),(#637),.T.,.CARTESIAN.);
#242=TRIMMED_CURVE($,#270,(#641),(#642),.T.,.CARTESIAN.);
#243=TRIMMED_CURVE($,#271,(#644),(#645),.T.,.CARTESIAN.);
#244=TRIMMED_CURVE($,#272,(#649),(#650),.T.,.CARTESIAN.);
#245=TRIMMED_CURVE($,#273,(#652),(#653),.T.,.CARTESIAN.);
#246=TRIMMED_CURVE($,#274,(#657),(#658),.T.,.CARTESIAN.);
#247=TRIMMED_CURVE($,#275,(#660),(#661),.T.,.CARTESIAN.);
#248=TRIMMED_CURVE($,#276,(#667),(#668),.T.,.CARTESIAN.);
#249=TRIMMED_CURVE($,#277,(#670),(#671),.T.,.CARTESIAN.);
#250=TRIMMED_CURVE($,#278,(#675),(#676),.T.,.CARTESIAN.);
#251=TRIMMED_CURVE($,#279,(#678),(#679),.T.,.CARTESIAN.);
#252=TRIMMED_CURVE($,#280,(#683),(#684),.T.,.CARTESIAN.);
#253=TRIMMED_CURVE($,#281,(#686),(#687),.T.,.CARTESIAN.);
#254=TRIMMED_CURVE($,#282,(#691),(#692),.T.,.CARTESIAN.);
#255=TRIMMED_CURVE($,#283,(#694),(#695),.T.,.CARTESIAN.);
#256=TRIMMED_CURVE($,#284,(#699),(#700),.T.,.CARTESIAN.);
#257=TRIMMED_CURVE($,#285,(#702),(#703),.T.,.CARTESIAN.);
#258=CIRCLE('',#426,12.5);
#259=CIRCLE('',#427,12.5);
#260=CIRCLE('',#428,4.);
#261=CIRCLE('',#429,4.);
#262=CIRCLE('',#430,12.5);
#263=CIRCLE('',#431,12.5);
#264=CIRCLE('',#432,4.);
#265=CIRCLE('',#433,4.);
#266=CIRCLE('',#446,19.5);
#267=CIRCLE('',#447,19.5);
#268=CIRCLE('',#448,1.75);
#269=CIRCLE('',#449,1.75);
#270=CIRCLE('',#450,1.75);
#271=CIRCLE('',#451,1.75);
#272=CIRCLE('',#452,1.75);
#273=CIRCLE('',#453,1.75);
#274=CIRCLE('',#454,1.75);
#275=CIRCLE('',#455,1.75);
#276=CIRCLE('',#456,19.5);
#277=CIRCLE('',#457,19.5);
#278=CIRCLE('',#458,1.75);
#279=CIRCLE('',#459,1.75);
#280=CIRCLE('',#460,1.75);
#281=CIRCLE('',#461,1.75);
#282=CIRCLE('',#462,1.75);
#283=CIRCLE('',#463,1.75);
#284=CIRCLE('',#464,1.75);
#285=CIRCLE('',#465,1.75);
#286=VERTEX_POINT('',#552);
#287=VERTEX_POINT('',#553);
#288=VERTEX_POINT('',#554);
#289=VERTEX_POINT('',#555);
#290=VERTEX_POINT('',#556);
#291=VERTEX_POINT('',#557);
#292=VERTEX_POINT('',#558);
#293=VERTEX_POINT('',#559);
#294=VERTEX_POINT('',#604);
#295=VERTEX_POINT('',#605);
#296=VERTEX_POINT('',#606);
#297=VERTEX_POINT('',#607);
#298=VERTEX_POINT('',#608);
#299=VERTEX_POINT('',#609);
#300=VERTEX_POINT('',#610);
#301=VERTEX_POINT('',#611);
#302=VERTEX_POINT('',#612);
#303=VERTEX_POINT('',#613);
#304=VERTEX_POINT('',#614);
#305=VERTEX_POINT('',#615);
#306=VERTEX_POINT('',#616);
#307=VERTEX_POINT('',#617);
#308=VERTEX_POINT('',#618);
#309=VERTEX_POINT('',#619);
#310=VERTEX_POINT('',#620);
#311=VERTEX_POINT('',#621);
#312=VERTEX_POINT('',#622);
#313=VERTEX_POINT('',#623);
#314=CYLINDRICAL_SURFACE('',#421,12.5);
#315=CYLINDRICAL_SURFACE('',#423,4.);
#316=CYLINDRICAL_SURFACE('',#424,12.5);
#317=CYLINDRICAL_SURFACE('',#425,4.);
#318=CYLINDRICAL_SURFACE('',#435,19.5);
#319=CYLINDRICAL_SURFACE('',#437,1.75);
#320=CYLINDRICAL_SURFACE('',#438,1.75);
#321=CYLINDRICAL_SURFACE('',#439,1.75);
#322=CYLINDRICAL_SURFACE('',#440,1.75);
#323=CYLINDRICAL_SURFACE('',#441,19.5);
#324=CYLINDRICAL_SURFACE('',#442,1.75);
#325=CYLINDRICAL_SURFACE('',#443,1.75);
#326=CYLINDRICAL_SURFACE('',#444,1.75);
#327=CYLINDRICAL_SURFACE('',#445,1.75);
#328=PLANE('',#420);
#329=PLANE('',#422);
#330=PLANE('',#434);
#331=PLANE('',#436);
#332=SHAPE_DEFINITION_REPRESENTATION(#333,#418);
#333=PRODUCT_DEFINITION_SHAPE($,$,#335);
#334=PRODUCT_DEFINITION_CONTEXT('3D Mechanical Parts',#407,'design');
#335=PRODUCT_DEFINITION('A','First version',#377,#334);
#336=DATE_TIME_ROLE('classification_date');
#337=DATE_TIME_ROLE('creation_date');
#338=APPLIED_DATE_AND_TIME_ASSIGNMENT(#362,#336,(#341));
#339=APPLIED_DATE_AND_TIME_ASSIGNMENT(#364,#337,(#335));
#340=SECURITY_CLASSIFICATION_LEVEL('unclassified');
#341=SECURITY_CLASSIFICATION('A','Security for version',#340);
#342=APPLIED_SECURITY_CLASSIFICATION_ASSIGNMENT(#341,(#377));
#343=APPROVAL_ROLE('Version approval');
#344=APPROVAL_ROLE('Version Security approval');
#345=APPROVAL_ROLE('Definition approval');
#346=APPROVAL_PERSON_ORGANIZATION(#395,#371,#343);
#347=APPROVAL_PERSON_ORGANIZATION(#396,#372,#344);
#348=APPROVAL_PERSON_ORGANIZATION(#399,#373,#345);
#349=COORDINATED_UNIVERSAL_TIME_OFFSET(5,0,.BEHIND.);
#350=LOCAL_TIME(0,0,0.,#349);
#351=LOCAL_TIME(0,0,0.,#349);
#352=LOCAL_TIME(0,0,0.,#349);
#353=LOCAL_TIME(0,0,0.,#349);
#354=LOCAL_TIME(0,0,0.,#349);
#355=CALENDAR_DATE(1999,1,1);
#356=CALENDAR_DATE(1999,1,1);
#357=CALENDAR_DATE(1999,1,1);
#358=CALENDAR_DATE(1999,1,1);
#359=CALENDAR_DATE(1999,1,1);
#360=DATE_AND_TIME(#355,#350);
#361=DATE_AND_TIME(#356,#351);
#362=DATE_AND_TIME(#357,#352);
#363=DATE_AND_TIME(#358,#353);
#364=DATE_AND_TIME(#359,#354);
#365=APPROVAL_DATE_TIME(#360,#371);
#366=APPROVAL_DATE_TIME(#361,#372);
#367=APPROVAL_DATE_TIME(#363,#373);
#368=APPROVAL_STATUS('not_yet_approved');
#369=APPROVAL_STATUS('not_yet_approved');
#370=APPROVAL_STATUS('approved');
#371=APPROVAL(#368,'Version approval');
#372=APPROVAL(#369,'Version Security approval');
#373=APPROVAL(#370,'Definition approval');
#374=APPLIED_APPROVAL_ASSIGNMENT(#371,(#377));
#375=APPLIED_APPROVAL_ASSIGNMENT(#372,(#341));
#376=APPLIED_APPROVAL_ASSIGNMENT(#373,(#335));
#377=PRODUCT_DEFINITION_FORMATION_WITH_SPECIFIED_SOURCE('A',
'First version',#409,.MADE.);
#378=PERSON_AND_ORGANIZATION_ROLE('design_owner');
#379=PERSON_AND_ORGANIZATION_ROLE('creator');
#380=PERSON_AND_ORGANIZATION_ROLE('design_supplier');
#381=PERSON_AND_ORGANIZATION_ROLE('classification_officer');
#382=PERSON_AND_ORGANIZATION_ROLE('creator');
#383=ORGANIZATION('STI','lab','lab');
#384=ORGANIZATION('STI','unknown','unknown');
#385=ORGANIZATION('STI','unknown','unknown');
#386=ORGANIZATION('STI','unknown','unknown');
#387=ORGANIZATION('STI','unknown','unknown');
#388=ORGANIZATION('STI','unknown','unknown');
#389=ORGANIZATION('STI','unknown','unknown');
#390=PERSON('1','Box','vc60',$,$,$);
#391=PERSON('2','last','first',$,$,$);
#392=PERSON('3','President','Mr.',$,$,$);
#393=PERSON_AND_ORGANIZATION(#390,#383);
#394=PERSON_AND_ORGANIZATION(#391,#384);
#395=PERSON_AND_ORGANIZATION(#392,#385);
#396=PERSON_AND_ORGANIZATION(#392,#386);
#397=PERSON_AND_ORGANIZATION(#392,#387);
#398=PERSON_AND_ORGANIZATION(#391,#388);
#399=PERSON_AND_ORGANIZATION(#392,#389);
#400=APPLIED_PERSON_AND_ORGANIZATION_ASSIGNMENT(#393,#378,(#409));
#401=APPLIED_PERSON_AND_ORGANIZATION_ASSIGNMENT(#394,#379,(#377));
#402=APPLIED_PERSON_AND_ORGANIZATION_ASSIGNMENT(#394,#380,(#377));
#403=APPLIED_PERSON_AND_ORGANIZATION_ASSIGNMENT(#397,#381,(#341));
#404=APPLIED_PERSON_AND_ORGANIZATION_ASSIGNMENT(#398,#382,(#335));
#405=PRODUCT_RELATED_PRODUCT_CATEGORY('detail','detail',(#409));
#406=APPLICATION_PROTOCOL_DEFINITION('International Standard',
'config_control_design',1994,#407);
#407=APPLICATION_CONTEXT(
'configuration controlled 3d designs of mechanical parts and assemblie
s');
#408=PRODUCT_CONTEXT('3D Mechanical Parts',#407,'mechanical');
#409=PRODUCT('Document','Document','',(#408));
#410=(
LENGTH_UNIT()
NAMED_UNIT(*)
SI_UNIT(.MILLI.,.METRE.)
);
#411=(
NAMED_UNIT(*)
PLANE_ANGLE_UNIT()
SI_UNIT($,.RADIAN.)
);
#412=DIMENSIONAL_EXPONENTS(0.,0.,0.,0.,0.,0.,0.);
#413=PLANE_ANGLE_MEASURE_WITH_UNIT(PLANE_ANGLE_MEASURE(0.01745329252),#411);
#414=(
CONVERSION_BASED_UNIT('DEGREES',#413)
NAMED_UNIT(#412)
PLANE_ANGLE_UNIT()
);
#415=(
NAMED_UNIT(*)
SI_UNIT($,.STERADIAN.)
SOLID_ANGLE_UNIT()
);
#416=UNCERTAINTY_MEASURE_WITH_UNIT(LENGTH_MEASURE(0.001),#410,
'DISTANCE_ACCURACY_VALUE',
'Maximum model space distance between geometric entities at asserted c
onnectivities');
#417=(
GEOMETRIC_REPRESENTATION_CONTEXT(3)
GLOBAL_UNCERTAINTY_ASSIGNED_CONTEXT((#416))
GLOBAL_UNIT_ASSIGNED_CONTEXT((#415,#414,#410))
REPRESENTATION_CONTEXT('ID1','3D')
);
#418=SHAPE_REPRESENTATION('Document',(#419,#466),#417);
#419=AXIS2_PLACEMENT_3D($,#545,#467,#468);
#420=AXIS2_PLACEMENT_3D('',#546,#469,$);
#421=AXIS2_PLACEMENT_3D('',#547,#470,$);
#422=AXIS2_PLACEMENT_3D('',#548,#471,$);
#423=AXIS2_PLACEMENT_3D('',#549,#472,$);
#424=AXIS2_PLACEMENT_3D('',#550,#473,$);
#425=AXIS2_PLACEMENT_3D('',#551,#474,$);
#426=AXIS2_PLACEMENT_3D($,#560,#475,#476);
#427=AXIS2_PLACEMENT_3D($,#565,#477,#478);
#428=AXIS2_PLACEMENT_3D($,#568,#479,#480);
#429=AXIS2_PLACEMENT_3D($,#573,#481,#482);
#430=AXIS2_PLACEMENT_3D($,#578,#483,#484);
#431=AXIS2_PLACEMENT_3D($,#581,#485,#486);
#432=AXIS2_PLACEMENT_3D($,#586,#487,#488);
#433=AXIS2_PLACEMENT_3D($,#589,#489,#490);
#434=AXIS2_PLACEMENT_3D('',#592,#491,$);
#435=AXIS2_PLACEMENT_3D('',#593,#492,$);
#436=AXIS2_PLACEMENT_3D('',#594,#493,$);
#437=AXIS2_PLACEMENT_3D('',#595,#494,$);
#438=AXIS2_PLACEMENT_3D('',#596,#495,$);
#439=AXIS2_PLACEMENT_3D('',#597,#496,$);
#440=AXIS2_PLACEMENT_3D('',#598,#497,$);
#441=AXIS2_PLACEMENT_3D('',#599,#498,$);
#442=AXIS2_PLACEMENT_3D('',#600,#499,$);
#443=AXIS2_PLACEMENT_3D('',#601,#500,$);
#444=AXIS2_PLACEMENT_3D('',#602,#501,$);
#445=AXIS2_PLACEMENT_3D('',#603,#502,$);
#446=AXIS2_PLACEMENT_3D($,#624,#503,#504);
#447=AXIS2_PLACEMENT_3D($,#629,#505,#506);
#448=AXIS2_PLACEMENT_3D($,#632,#507,#508);
#449=AXIS2_PLACEMENT_3D($,#635,#509,#510);
#450=AXIS2_PLACEMENT_3D($,#640,#511,#512);
#451=AXIS2_PLACEMENT_3D($,#643,#513,#514);
#452=AXIS2_PLACEMENT_3D($,#648,#515,#516);
#453=AXIS2_PLACEMENT_3D($,#651,#517,#518);
#454=AXIS2_PLACEMENT_3D($,#656,#519,#520);
#455=AXIS2_PLACEMENT_3D($,#659,#521,#522);
#456=AXIS2_PLACEMENT_3D($,#666,#523,#524);
#457=AXIS2_PLACEMENT_3D($,#669,#525,#526);
#458=AXIS2_PLACEMENT_3D($,#674,#527,#528);
#459=AXIS2_PLACEMENT_3D($,#677,#529,#530);
#460=AXIS2_PLACEMENT_3D($,#682,#531,#532);
#461=AXIS2_PLACEMENT_3D($,#685,#533,#534);
#462=AXIS2_PLACEMENT_3D($,#690,#535,#536);
#463=AXIS2_PLACEMENT_3D($,#693,#537,#538);
#464=AXIS2_PLACEMENT_3D($,#698,#539,#540);
#465=AXIS2_PLACEMENT_3D($,#701,#541,#542);
#466=AXIS2_PLACEMENT_3D($,#704,#543,#544);
#467=DIRECTION('',(0.,0.,1.));
#468=DIRECTION('',(1.,0.,0.));
#469=DIRECTION('',(0.,0.,-1.));
#470=DIRECTION('',(0.,0.,-1.));
#471=DIRECTION('',(0.,0.,1.));
#472=DIRECTION('',(0.,0.,-1.));
#473=DIRECTION('',(0.,0.,-1.));
#474=DIRECTION('',(0.,0.,-1.));
#475=DIRECTION('',(0.,0.,1.));
#476=DIRECTION('',(1.,5.0242958678277E-17,0.));
#477=DIRECTION('',(0.,0.,1.));
#478=DIRECTION('',(1.,5.0242958678277E-17,0.));
#479=DIRECTION('',(0.,0.,1.));
#480=DIRECTION('',(1.,0.,0.));
#481=DIRECTION('',(0.,0.,1.));
#482=DIRECTION('',(1.,0.,0.));
#483=DIRECTION('',(0.,0.,1.));
#484=DIRECTION('',(-1.,-5.024295867776E-17,0.));
#485=DIRECTION('',(0.,0.,1.));
#486=DIRECTION('',(-1.,-5.024295867776E-17,0.));
#487=DIRECTION('',(0.,0.,1.));
#488=DIRECTION('',(-1.,0.,0.));
#489=DIRECTION('',(0.,0.,1.));
#490=DIRECTION('',(-1.,0.,0.));
#491=DIRECTION('',(0.,0.,1.));
#492=DIRECTION('',(0.,0.,-1.));
#493=DIRECTION('',(0.,0.,-1.));
#494=DIRECTION('',(0.,0.,-1.));
#495=DIRECTION('',(0.,0.,-1.));
#496=DIRECTION('',(0.,0.,1.));
#497=DIRECTION('',(0.,0.,1.));
#498=DIRECTION('',(0.,0.,-1.));
#499=DIRECTION('',(0.,0.,-1.));
#500=DIRECTION('',(0.,0.,-1.));
#501=DIRECTION('',(0.,0.,1.));
#502=DIRECTION('',(0.,0.,1.));
#503=DIRECTION('',(0.,0.,1.));
#504=DIRECTION('',(1.,0.,0.));
#505=DIRECTION('',(0.,0.,1.));
#506=DIRECTION('',(1.,0.,0.));
#507=DIRECTION('',(0.,0.,-1.));
#508=DIRECTION('',(1.,0.,0.));
#509=DIRECTION('',(0.,0.,-1.));
#510=DIRECTION('',(1.,0.,0.));
#511=DIRECTION('',(0.,0.,-1.));
#512=DIRECTION('',(2.25041936090739E-15,1.,0.));
#513=DIRECTION('',(0.,0.,-1.));
#514=DIRECTION('',(2.25041936090739E-15,1.,0.));
#515=DIRECTION('',(0.,0.,1.));
#516=DIRECTION('',(-1.,3.2887807804015E-12,0.));
#517=DIRECTION('',(0.,0.,1.));
#518=DIRECTION('',(-1.,3.2887807804015E-12,0.));
#519=DIRECTION('',(0.,0.,1.));
#520=DIRECTION('',(-3.31214420969315E-12,-1.,0.));
#521=DIRECTION('',(0.,0.,1.));
#522=DIRECTION('',(-3.31214420969315E-12,-1.,0.));
#523=DIRECTION('',(0.,0.,1.));
#524=DIRECTION('',(-1.,0.,0.));
#525=DIRECTION('',(0.,0.,1.));
#526=DIRECTION('',(-1.,0.,0.));
#527=DIRECTION('',(0.,0.,-1.));
#528=DIRECTION('',(-1.,0.,0.));
#529=DIRECTION('',(0.,0.,-1.));
#530=DIRECTION('',(-1.,0.,0.));
#531=DIRECTION('',(0.,0.,-1.));
#532=DIRECTION('',(-2.05611995433956E-15,-1.,0.));
#533=DIRECTION('',(0.,0.,-1.));
#534=DIRECTION('',(-2.05611995433956E-15,-1.,0.));
#535=DIRECTION('',(0.,0.,1.));
#536=DIRECTION('',(1.,-3.48368952732666E-12,0.));
#537=DIRECTION('',(0.,0.,1.));
#538=DIRECTION('',(1.,-3.48368952732666E-12,0.));
#539=DIRECTION('',(0.,0.,1.));
#540=DIRECTION('',(3.18334563101748E-12,1.,0.));
#541=DIRECTION('',(0.,0.,1.));
#542=DIRECTION('',(3.18334563101748E-12,1.,0.));
#543=DIRECTION('',(0.,0.,1.));
#544=DIRECTION('',(1.,0.,0.));
#545=CARTESIAN_POINT('',(0.,0.,0.));
#546=CARTESIAN_POINT('',(-12.7500000000496,-12.75,0.));
#547=CARTESIAN_POINT('',(-4.95678189206468E-11,6.28036983478463E-16,9.));
#548=CARTESIAN_POINT('',(-12.7500000000496,-12.75,18.));
#549=CARTESIAN_POINT('',(0.,0.,13.));
#550=CARTESIAN_POINT('',(-4.95678189206468E-11,-6.28036983472E-16,9.));
#551=CARTESIAN_POINT('',(0.,0.,13.));
#552=CARTESIAN_POINT('',(12.4999999999504,0.,0.));
#553=CARTESIAN_POINT('',(12.4999999999504,0.,18.));
#554=CARTESIAN_POINT('',(4.,0.,0.));
#555=CARTESIAN_POINT('',(4.,0.,18.));
#556=CARTESIAN_POINT('',(-12.5000000000496,0.,0.));
#557=CARTESIAN_POINT('',(-12.5000000000496,0.,18.));
#558=CARTESIAN_POINT('',(-4.,0.,0.));
#559=CARTESIAN_POINT('',(-4.,0.,18.));
#560=CARTESIAN_POINT('',(-4.95678189206468E-11,-6.28036983478463E-16,0.));
#561=CARTESIAN_POINT('',(12.4999999999504,0.,0.));
#562=CARTESIAN_POINT('',(-12.5000000000496,2.74734531977266E-16,0.));
#563=CARTESIAN_POINT('',(12.4999999999504,0.,0.));
#564=CARTESIAN_POINT('',(12.4999999999504,0.,18.));
#565=CARTESIAN_POINT('',(-4.95678189206468E-11,-6.28036983478463E-16,18.));
#566=CARTESIAN_POINT('',(12.4999999999504,0.,18.));
#567=CARTESIAN_POINT('',(-12.5000000000496,2.74734531977266E-16,18.));
#568=CARTESIAN_POINT('',(0.,0.,0.));
#569=CARTESIAN_POINT('',(4.,0.,0.));
#570=CARTESIAN_POINT('',(-4.,4.89858719658941E-16,0.));
#571=CARTESIAN_POINT('',(4.,0.,0.));
#572=CARTESIAN_POINT('',(4.,0.,18.));
#573=CARTESIAN_POINT('',(0.,0.,18.));
#574=CARTESIAN_POINT('',(4.,0.,18.));
#575=CARTESIAN_POINT('',(-4.,4.89858719658941E-16,18.));
#576=CARTESIAN_POINT('',(-12.5000000000496,0.,0.));
#577=CARTESIAN_POINT('',(-12.5000000000496,0.,18.));
#578=CARTESIAN_POINT('',(-4.95678189206468E-11,6.28036983472E-16,0.));
#579=CARTESIAN_POINT('',(-12.5000000000496,0.,0.));
#580=CARTESIAN_POINT('',(12.4999999999504,-2.74734531990191E-16,0.));
#581=CARTESIAN_POINT('',(-4.95678189206468E-11,6.28036983472E-16,18.));
#582=CARTESIAN_POINT('',(-12.5000000000496,0.,18.));
#583=CARTESIAN_POINT('',(12.4999999999504,-2.74734531990191E-16,18.));
#584=CARTESIAN_POINT('',(-4.,0.,0.));
#585=CARTESIAN_POINT('',(-4.,0.,18.));
#586=CARTESIAN_POINT('',(0.,0.,0.));
#587=CARTESIAN_POINT('',(-4.,0.,0.));
#588=CARTESIAN_POINT('',(4.,-4.89858719658941E-16,0.));
#589=CARTESIAN_POINT('',(0.,0.,18.));
#590=CARTESIAN_POINT('',(-4.,0.,18.));
#591=CARTESIAN_POINT('',(4.,-4.89858719658941E-16,18.));
#592=CARTESIAN_POINT('',(-19.89,-19.89,0.));
#593=CARTESIAN_POINT('',(0.,0.,-2.5));
#594=CARTESIAN_POINT('',(-19.89,-19.89,-5.));
#595=CARTESIAN_POINT('',(16.,0.,-6.5));
#596=CARTESIAN_POINT('',(1.58767749422104E-12,16.0000000000512,-6.5));
#597=CARTESIAN_POINT('',(-16.,5.22959453519434E-11,-6.5));
#598=CARTESIAN_POINT('',(-5.12727638124488E-11,-15.9999999999488,-6.5));
#599=CARTESIAN_POINT('',(0.,0.,-2.5));
#600=CARTESIAN_POINT('',(16.,0.,-6.5));
#601=CARTESIAN_POINT('',(1.59521393802272E-12,16.0000000000512,-6.5));
#602=CARTESIAN_POINT('',(-16.,5.22959453519434E-11,-6.5));
#603=CARTESIAN_POINT('',(-5.12727638124488E-11,-15.9999999999488,-6.5));
#604=CARTESIAN_POINT('',(19.5,0.,0.));
#605=CARTESIAN_POINT('',(19.5,0.,-5.));
#606=CARTESIAN_POINT('',(17.75,0.,0.));
#607=CARTESIAN_POINT('',(17.75,0.,-5.));
#608=CARTESIAN_POINT('',(1.59161572810262E-12,17.7500000000512,0.));
#609=CARTESIAN_POINT('',(1.47792889038101E-12,17.7500000000512,-5.));
#610=CARTESIAN_POINT('',(-17.75,5.84350345889106E-11,-7.105427357601E-15));
#611=CARTESIAN_POINT('',(-17.75,5.84350345889106E-11,-5.00000000000001));
#612=CARTESIAN_POINT('',(-5.6843418860808E-11,-17.7499999999488,7.105427357601E-15));
#613=CARTESIAN_POINT('',(-5.6843418860808E-11,-17.7499999999488,-4.99999999999999));
#614=CARTESIAN_POINT('',(-19.5,0.,0.));
#615=CARTESIAN_POINT('',(-19.5,0.,-5.));
#616=CARTESIAN_POINT('',(14.25,0.,0.));
#617=CARTESIAN_POINT('',(14.25,0.,-5.));
#618=CARTESIAN_POINT('',(1.59161572810262E-12,14.2500000000512,0.));
#619=CARTESIAN_POINT('',(1.59161572810262E-12,14.2500000000512,-5.));
#620=CARTESIAN_POINT('',(-14.25,4.65405491922866E-11,-3.5527136788005E-15));
#621=CARTESIAN_POINT('',(-14.25,4.65405491922866E-11,-5.));
#622=CARTESIAN_POINT('',(-4.54747350886464E-11,-14.2499999999488,3.5527136788005E-15));
#623=CARTESIAN_POINT('',(-4.54747350886464E-11,-14.2499999999488,-5.));
#624=CARTESIAN_POINT('',(0.,0.,0.));
#625=CARTESIAN_POINT('',(19.5,0.,0.));
#626=CARTESIAN_POINT('',(-19.5,2.38806125833734E-15,0.));
#627=CARTESIAN_POINT('',(19.5,0.,0.));
#628=CARTESIAN_POINT('',(19.5,0.,-5.));
#629=CARTESIAN_POINT('',(0.,0.,-5.));
#630=CARTESIAN_POINT('',(19.5,0.,-5.));
#631=CARTESIAN_POINT('',(-19.5,2.38806125833734E-15,-5.));
#632=CARTESIAN_POINT('',(16.,0.,0.));
#633=CARTESIAN_POINT('',(17.75,0.,0.));
#634=CARTESIAN_POINT('',(14.25,-2.14313189850787E-16,0.));
#635=CARTESIAN_POINT('',(16.,0.,-5.));
#636=CARTESIAN_POINT('',(17.75,0.,-5.));
#637=CARTESIAN_POINT('',(14.25,-2.14313189850787E-16,-5.));
#638=CARTESIAN_POINT('',(17.75,0.,0.));
#639=CARTESIAN_POINT('',(17.75,0.,-5.));
#640=CARTESIAN_POINT('',(1.58767749422104E-12,16.0000000000512,0.));
#641=CARTESIAN_POINT('',(1.59161572810262E-12,17.7500000000512,0.));
#642=CARTESIAN_POINT('',(1.59172513470168E-12,14.2500000000512,0.));
#643=CARTESIAN_POINT('',(1.58767749422104E-12,16.0000000000512,-5.));
#644=CARTESIAN_POINT('',(1.59161572810262E-12,17.7500000000512,-5.));
#645=CARTESIAN_POINT('',(1.59172513470168E-12,14.2500000000512,-5.));
#646=CARTESIAN_POINT('',(1.59161572810262E-12,17.7500000000512,0.));
#647=CARTESIAN_POINT('',(1.47792889038101E-12,17.7500000000512,-5.));
#648=CARTESIAN_POINT('',(-16.,5.26370356590624E-11,-3.5527136788005E-15));
#649=CARTESIAN_POINT('',(-17.75,5.8392402024765E-11,-3.5527136788005E-15));
#650=CARTESIAN_POINT('',(-14.25,4.65402834447026E-11,-3.5527136788005E-15));
#651=CARTESIAN_POINT('',(-16.,5.26370356590624E-11,-5.));
#652=CARTESIAN_POINT('',(-17.75,5.8392402024765E-11,-5.));
#653=CARTESIAN_POINT('',(-14.25,4.65402834447026E-11,-5.));
#654=CARTESIAN_POINT('',(-17.75,5.84350345889106E-11,-7.105427357601E-15));
#655=CARTESIAN_POINT('',(-17.75,5.84350345889106E-11,-5.00000000000001));
#656=CARTESIAN_POINT('',(-5.1047166493845E-11,-15.9999999999488,3.5527136788005E-15));
#657=CARTESIAN_POINT('',(-5.6843418860808E-11,-17.7499999999488,3.5527136788005E-15));
#658=CARTESIAN_POINT('',(-4.54745207754566E-11,-14.2499999999488,3.5527136788005E-15));
#659=CARTESIAN_POINT('',(-5.1047166493845E-11,-15.9999999999488,-5.));
#660=CARTESIAN_POINT('',(-5.6843418860808E-11,-17.7499999999488,-5.));
#661=CARTESIAN_POINT('',(-4.54745207754566E-11,-14.2499999999488,-5.));
#662=CARTESIAN_POINT('',(-5.6843418860808E-11,-17.7499999999488,7.105427357601E-15));
#663=CARTESIAN_POINT('',(-5.6843418860808E-11,-17.7499999999488,-4.99999999999999));
#664=CARTESIAN_POINT('',(-19.5,0.,0.));
#665=CARTESIAN_POINT('',(-19.5,0.,-5.));
#666=CARTESIAN_POINT('',(0.,0.,0.));
#667=CARTESIAN_POINT('',(-19.5,0.,0.));
#668=CARTESIAN_POINT('',(19.5,-2.38806125833734E-15,0.));
#669=CARTESIAN_POINT('',(0.,0.,-5.));
#670=CARTESIAN_POINT('',(-19.5,0.,-5.));
#671=CARTESIAN_POINT('',(19.5,-2.38806125833734E-15,-5.));
#672=CARTESIAN_POINT('',(14.25,0.,0.));
#673=CARTESIAN_POINT('',(14.25,0.,-5.));
#674=CARTESIAN_POINT('',(16.,0.,0.));
#675=CARTESIAN_POINT('',(14.25,0.,0.));
#676=CARTESIAN_POINT('',(17.75,2.14313189850787E-16,0.));
#677=CARTESIAN_POINT('',(16.,0.,-5.));
#678=CARTESIAN_POINT('',(14.25,0.,-5.));
#679=CARTESIAN_POINT('',(17.75,2.14313189850787E-16,-5.));
#680=CARTESIAN_POINT('',(1.59161572810262E-12,14.2500000000512,0.));
#681=CARTESIAN_POINT('',(1.59161572810262E-12,14.2500000000512,-5.));
#682=CARTESIAN_POINT('',(1.59521393802272E-12,16.0000000000512,0.));
#683=CARTESIAN_POINT('',(1.59161572810262E-12,14.2500000000512,0.));
#684=CARTESIAN_POINT('',(1.59160342969782E-12,17.7500000000512,0.));
#685=CARTESIAN_POINT('',(1.59521393802272E-12,16.0000000000512,-5.));
#686=CARTESIAN_POINT('',(1.59161572810262E-12,14.2500000000512,-5.));
#687=CARTESIAN_POINT('',(1.59160342969782E-12,17.7500000000512,-5.));
#688=CARTESIAN_POINT('',(-14.25,4.65405491922866E-11,-1.50990331349021E-14));
#689=CARTESIAN_POINT('',(-14.25,4.65405491922866E-11,-5.00000000000002));
#690=CARTESIAN_POINT('',(-16.,5.26370058651082E-11,-3.5527136788005E-15));
#691=CARTESIAN_POINT('',(-14.25,4.65405491922866E-11,-3.5527136788005E-15));
#692=CARTESIAN_POINT('',(-17.75,5.83925053156524E-11,-3.5527136788005E-15));
#693=CARTESIAN_POINT('',(-16.,5.26370058651082E-11,-5.));
#694=CARTESIAN_POINT('',(-14.25,4.65405491922866E-11,-5.));
#695=CARTESIAN_POINT('',(-17.75,5.83925053156524E-11,-5.));
#696=CARTESIAN_POINT('',(-4.54747350886464E-11,-14.2499999999488,1.59872115546023E-14));
#697=CARTESIAN_POINT('',(-4.54747350886464E-11,-14.2499999999488,-4.99999999999998));
#698=CARTESIAN_POINT('',(-5.1045589942927E-11,-15.9999999999488,3.5527136788005E-15));
#699=CARTESIAN_POINT('',(-4.54747350886464E-11,-14.2499999999488,3.5527136788005E-15));
#700=CARTESIAN_POINT('',(-5.68435886966308E-11,-17.7499999999488,3.5527136788005E-15));
#701=CARTESIAN_POINT('',(-5.1045589942927E-11,-15.9999999999488,-5.));
#702=CARTESIAN_POINT('',(-4.54747350886464E-11,-14.2499999999488,-5.));
#703=CARTESIAN_POINT('',(-5.68435886966308E-11,-17.7499999999488,-5.));
#704=CARTESIAN_POINT('',(0.,0.,0.));
ENDSEC;
END-ISO-10303-21;
