ISO-10303-21;
HEADER;
/* Generated by software containing ST-Developer
 * from STEP Tools, Inc. (www.steptools.com) 
 */
/* OPTION: using custom schema-name function */

FILE_DESCRIPTION(
/* description */ (''),
/* implementation_level */ '2;1');

FILE_NAME(
/* name */ 'node_SC6_ring',
/* time_stamp */ '2025-11-18T13:47:07+08:00',
/* author */ (''),
/* organization */ (''),
/* preprocessor_version */ 'ST-DEVELOPER v19.2',
/* originating_system */ 'Rhino 8.7',
/* authorisation */ '');

FILE_SCHEMA (('CONFIG_CONTROL_DESIGN'));
ENDSEC;

DATA;
#10=SHAPE_REPRESENTATION_RELATIONSHIP('','',#382,#12);
#11=MANIFOLD_SOLID_BREP('brep_1',#13);
#12=ADVANCED_BREP_SHAPE_REPRESENTATION('brep_rep_0',(#11,#414),#381);
#13=CLOSED_SHELL('',(#18,#19,#20,#21,#22,#23,#24,#25,#26,#27,#28,#29,#30,
#31,#32,#33));
#14=FACE_BOUND('',#54,.T.);
#15=FACE_BOUND('',#56,.T.);
#16=FACE_BOUND('',#58,.T.);
#17=FACE_BOUND('',#60,.T.);
#18=ADVANCED_FACE('',(#34),#289,.T.);
#19=ADVANCED_FACE('',(#35),#280,.F.);
#20=ADVANCED_FACE('',(#36),#281,.F.);
#21=ADVANCED_FACE('',(#37,#14),#290,.T.);
#22=ADVANCED_FACE('',(#38,#15),#282,.T.);
#23=ADVANCED_FACE('',(#39,#16),#283,.T.);
#24=ADVANCED_FACE('',(#40,#17),#291,.T.);
#25=ADVANCED_FACE('',(#41),#284,.F.);
#26=ADVANCED_FACE('',(#42),#292,.T.);
#27=ADVANCED_FACE('',(#43),#293,.T.);
#28=ADVANCED_FACE('',(#44),#294,.T.);
#29=ADVANCED_FACE('',(#45),#295,.T.);
#30=ADVANCED_FACE('',(#46),#285,.F.);
#31=ADVANCED_FACE('',(#47),#286,.F.);
#32=ADVANCED_FACE('',(#48),#287,.F.);
#33=ADVANCED_FACE('',(#49),#288,.F.);
#34=FACE_OUTER_BOUND('',#50,.T.);
#35=FACE_OUTER_BOUND('',#51,.T.);
#36=FACE_OUTER_BOUND('',#52,.T.);
#37=FACE_OUTER_BOUND('',#53,.T.);
#38=FACE_OUTER_BOUND('',#55,.T.);
#39=FACE_OUTER_BOUND('',#57,.T.);
#40=FACE_OUTER_BOUND('',#59,.T.);
#41=FACE_OUTER_BOUND('',#61,.T.);
#42=FACE_OUTER_BOUND('',#62,.T.);
#43=FACE_OUTER_BOUND('',#63,.T.);
#44=FACE_OUTER_BOUND('',#64,.T.);
#45=FACE_OUTER_BOUND('',#65,.T.);
#46=FACE_OUTER_BOUND('',#66,.T.);
#47=FACE_OUTER_BOUND('',#67,.T.);
#48=FACE_OUTER_BOUND('',#68,.T.);
#49=FACE_OUTER_BOUND('',#69,.T.);
#50=EDGE_LOOP('',(#70,#71,#72,#73,#74,#75,#76,#77,#78,#79));
#51=EDGE_LOOP('',(#80,#81,#82,#83));
#52=EDGE_LOOP('',(#84,#85,#86,#87));
#53=EDGE_LOOP('',(#88,#89,#90,#91));
#54=EDGE_LOOP('',(#92,#93));
#55=EDGE_LOOP('',(#94,#95,#96,#97));
#56=EDGE_LOOP('',(#98,#99));
#57=EDGE_LOOP('',(#100,#101,#102,#103));
#58=EDGE_LOOP('',(#104,#105));
#59=EDGE_LOOP('',(#106,#107,#108,#109));
#60=EDGE_LOOP('',(#110,#111));
#61=EDGE_LOOP('',(#112,#113,#114,#115));
#62=EDGE_LOOP('',(#116,#117,#118,#119));
#63=EDGE_LOOP('',(#120,#121,#122,#123));
#64=EDGE_LOOP('',(#124,#125,#126,#127));
#65=EDGE_LOOP('',(#128,#129,#130,#131,#132,#133,#134,#135,#136,#137));
#66=EDGE_LOOP('',(#138,#139,#140,#141));
#67=EDGE_LOOP('',(#142,#143,#144,#145));
#68=EDGE_LOOP('',(#146,#147,#148,#149));
#69=EDGE_LOOP('',(#150,#151,#152,#153));
#70=ORIENTED_EDGE('',*,*,#154,.T.);
#71=ORIENTED_EDGE('',*,*,#155,.T.);
#72=ORIENTED_EDGE('',*,*,#156,.T.);
#73=ORIENTED_EDGE('',*,*,#157,.T.);
#74=ORIENTED_EDGE('',*,*,#158,.T.);
#75=ORIENTED_EDGE('',*,*,#159,.T.);
#76=ORIENTED_EDGE('',*,*,#160,.T.);
#77=ORIENTED_EDGE('',*,*,#161,.T.);
#78=ORIENTED_EDGE('',*,*,#162,.T.);
#79=ORIENTED_EDGE('',*,*,#163,.T.);
#80=ORIENTED_EDGE('',*,*,#154,.F.);
#81=ORIENTED_EDGE('',*,*,#164,.T.);
#82=ORIENTED_EDGE('',*,*,#165,.T.);
#83=ORIENTED_EDGE('',*,*,#166,.T.);
#84=ORIENTED_EDGE('',*,*,#155,.F.);
#85=ORIENTED_EDGE('',*,*,#166,.F.);
#86=ORIENTED_EDGE('',*,*,#167,.T.);
#87=ORIENTED_EDGE('',*,*,#168,.T.);
#88=ORIENTED_EDGE('',*,*,#156,.F.);
#89=ORIENTED_EDGE('',*,*,#168,.F.);
#90=ORIENTED_EDGE('',*,*,#169,.T.);
#91=ORIENTED_EDGE('',*,*,#170,.T.);
#92=ORIENTED_EDGE('',*,*,#194,.F.);
#93=ORIENTED_EDGE('',*,*,#184,.F.);
#94=ORIENTED_EDGE('',*,*,#157,.F.);
#95=ORIENTED_EDGE('',*,*,#170,.F.);
#96=ORIENTED_EDGE('',*,*,#171,.T.);
#97=ORIENTED_EDGE('',*,*,#172,.T.);
#98=ORIENTED_EDGE('',*,*,#195,.F.);
#99=ORIENTED_EDGE('',*,*,#185,.F.);
#100=ORIENTED_EDGE('',*,*,#158,.F.);
#101=ORIENTED_EDGE('',*,*,#172,.F.);
#102=ORIENTED_EDGE('',*,*,#173,.T.);
#103=ORIENTED_EDGE('',*,*,#174,.T.);
#104=ORIENTED_EDGE('',*,*,#191,.F.);
#105=ORIENTED_EDGE('',*,*,#186,.F.);
#106=ORIENTED_EDGE('',*,*,#159,.F.);
#107=ORIENTED_EDGE('',*,*,#174,.F.);
#108=ORIENTED_EDGE('',*,*,#175,.T.);
#109=ORIENTED_EDGE('',*,*,#176,.T.);
#110=ORIENTED_EDGE('',*,*,#192,.F.);
#111=ORIENTED_EDGE('',*,*,#187,.F.);
#112=ORIENTED_EDGE('',*,*,#160,.F.);
#113=ORIENTED_EDGE('',*,*,#176,.F.);
#114=ORIENTED_EDGE('',*,*,#177,.T.);
#115=ORIENTED_EDGE('',*,*,#178,.T.);
#116=ORIENTED_EDGE('',*,*,#161,.F.);
#117=ORIENTED_EDGE('',*,*,#178,.F.);
#118=ORIENTED_EDGE('',*,*,#179,.T.);
#119=ORIENTED_EDGE('',*,*,#180,.T.);
#120=ORIENTED_EDGE('',*,*,#162,.F.);
#121=ORIENTED_EDGE('',*,*,#180,.F.);
#122=ORIENTED_EDGE('',*,*,#181,.T.);
#123=ORIENTED_EDGE('',*,*,#182,.T.);
#124=ORIENTED_EDGE('',*,*,#163,.F.);
#125=ORIENTED_EDGE('',*,*,#182,.F.);
#126=ORIENTED_EDGE('',*,*,#183,.T.);
#127=ORIENTED_EDGE('',*,*,#164,.F.);
#128=ORIENTED_EDGE('',*,*,#183,.F.);
#129=ORIENTED_EDGE('',*,*,#181,.F.);
#130=ORIENTED_EDGE('',*,*,#179,.F.);
#131=ORIENTED_EDGE('',*,*,#177,.F.);
#132=ORIENTED_EDGE('',*,*,#175,.F.);
#133=ORIENTED_EDGE('',*,*,#173,.F.);
#134=ORIENTED_EDGE('',*,*,#171,.F.);
#135=ORIENTED_EDGE('',*,*,#169,.F.);
#136=ORIENTED_EDGE('',*,*,#167,.F.);
#137=ORIENTED_EDGE('',*,*,#165,.F.);
#138=ORIENTED_EDGE('',*,*,#190,.T.);
#139=ORIENTED_EDGE('',*,*,#192,.T.);
#140=ORIENTED_EDGE('',*,*,#189,.F.);
#141=ORIENTED_EDGE('',*,*,#186,.T.);
#142=ORIENTED_EDGE('',*,*,#193,.T.);
#143=ORIENTED_EDGE('',*,*,#195,.T.);
#144=ORIENTED_EDGE('',*,*,#188,.F.);
#145=ORIENTED_EDGE('',*,*,#184,.T.);
#146=ORIENTED_EDGE('',*,*,#191,.T.);
#147=ORIENTED_EDGE('',*,*,#189,.T.);
#148=ORIENTED_EDGE('',*,*,#187,.T.);
#149=ORIENTED_EDGE('',*,*,#190,.F.);
#150=ORIENTED_EDGE('',*,*,#194,.T.);
#151=ORIENTED_EDGE('',*,*,#188,.T.);
#152=ORIENTED_EDGE('',*,*,#185,.T.);
#153=ORIENTED_EDGE('',*,*,#193,.F.);
#154=EDGE_CURVE('',#252,#253,#224,.T.);
#155=EDGE_CURVE('',#253,#254,#225,.T.);
#156=EDGE_CURVE('',#254,#255,#196,.T.);
#157=EDGE_CURVE('',#255,#256,#226,.T.);
#158=EDGE_CURVE('',#256,#257,#227,.T.);
#159=EDGE_CURVE('',#257,#258,#197,.T.);
#160=EDGE_CURVE('',#258,#259,#228,.T.);
#161=EDGE_CURVE('',#259,#260,#198,.T.);
#162=EDGE_CURVE('',#260,#261,#199,.T.);
#163=EDGE_CURVE('',#261,#252,#200,.T.);
#164=EDGE_CURVE('',#252,#262,#201,.T.);
#165=EDGE_CURVE('',#262,#263,#229,.T.);
#166=EDGE_CURVE('',#263,#253,#202,.T.);
#167=EDGE_CURVE('',#263,#264,#230,.T.);
#168=EDGE_CURVE('',#264,#254,#203,.T.);
#169=EDGE_CURVE('',#264,#265,#204,.T.);
#170=EDGE_CURVE('',#265,#255,#205,.T.);
#171=EDGE_CURVE('',#265,#266,#231,.T.);
#172=EDGE_CURVE('',#266,#256,#206,.T.);
#173=EDGE_CURVE('',#266,#267,#232,.T.);
#174=EDGE_CURVE('',#267,#257,#207,.T.);
#175=EDGE_CURVE('',#267,#268,#208,.T.);
#176=EDGE_CURVE('',#268,#258,#209,.T.);
#177=EDGE_CURVE('',#268,#269,#233,.T.);
#178=EDGE_CURVE('',#269,#259,#210,.T.);
#179=EDGE_CURVE('',#269,#270,#211,.T.);
#180=EDGE_CURVE('',#270,#260,#212,.T.);
#181=EDGE_CURVE('',#270,#271,#213,.T.);
#182=EDGE_CURVE('',#271,#261,#214,.T.);
#183=EDGE_CURVE('',#271,#262,#215,.T.);
#184=EDGE_CURVE('',#272,#278,#234,.T.);
#185=EDGE_CURVE('',#273,#279,#216,.T.);
#186=EDGE_CURVE('',#274,#276,#217,.T.);
#187=EDGE_CURVE('',#275,#277,#235,.T.);
#188=EDGE_CURVE('',#272,#273,#218,.T.);
#189=EDGE_CURVE('',#274,#275,#219,.T.);
#190=EDGE_CURVE('',#276,#277,#220,.T.);
#191=EDGE_CURVE('',#276,#274,#221,.T.);
#192=EDGE_CURVE('',#277,#275,#236,.T.);
#193=EDGE_CURVE('',#278,#279,#222,.T.);
#194=EDGE_CURVE('',#278,#272,#237,.T.);
#195=EDGE_CURVE('',#279,#273,#223,.T.);
#196=B_SPLINE_CURVE_WITH_KNOTS('',1,(#514,#515),.UNSPECIFIED.,.F.,.F.,(2,
2),(12.3857703711179,19.4152226572892),.UNSPECIFIED.);
#197=B_SPLINE_CURVE_WITH_KNOTS('',1,(#522,#523),.UNSPECIFIED.,.F.,.F.,(2,
2),(81.2466585929698,88.2761108791382),.UNSPECIFIED.);
#198=B_SPLINE_CURVE_WITH_KNOTS('',1,(#527,#528),.UNSPECIFIED.,.F.,.F.,(2,
2),(0.,3.04196010845018),.UNSPECIFIED.);
#199=B_SPLINE_CURVE_WITH_KNOTS('',1,(#529,#530),.UNSPECIFIED.,.F.,.F.,(2,
2),(0.,1.),.UNSPECIFIED.);
#200=B_SPLINE_CURVE_WITH_KNOTS('',1,(#531,#532),.UNSPECIFIED.,.F.,.F.,(2,
2),(0.,3.04196010845165),.UNSPECIFIED.);
#201=B_SPLINE_CURVE_WITH_KNOTS('',1,(#533,#534),.UNSPECIFIED.,.F.,.F.,(2,
2),(0.,8.),.UNSPECIFIED.);
#202=B_SPLINE_CURVE_WITH_KNOTS('',1,(#538,#539),.UNSPECIFIED.,.F.,.F.,(2,
2),(-8.,0.),.UNSPECIFIED.);
#203=B_SPLINE_CURVE_WITH_KNOTS('',1,(#543,#544),.UNSPECIFIED.,.F.,.F.,(2,
2),(-8.,0.),.UNSPECIFIED.);
#204=B_SPLINE_CURVE_WITH_KNOTS('',1,(#545,#546),.UNSPECIFIED.,.F.,.F.,(2,
2),(12.3857703711179,19.4152226572892),.UNSPECIFIED.);
#205=B_SPLINE_CURVE_WITH_KNOTS('',1,(#547,#548),.UNSPECIFIED.,.F.,.F.,(2,
2),(-8.,0.),.UNSPECIFIED.);
#206=B_SPLINE_CURVE_WITH_KNOTS('',1,(#552,#553),.UNSPECIFIED.,.F.,.F.,(2,
2),(-8.,0.),.UNSPECIFIED.);
#207=B_SPLINE_CURVE_WITH_KNOTS('',1,(#557,#558),.UNSPECIFIED.,.F.,.F.,(2,
2),(-8.,0.),.UNSPECIFIED.);
#208=B_SPLINE_CURVE_WITH_KNOTS('',1,(#559,#560),.UNSPECIFIED.,.F.,.F.,(2,
2),(81.2466585929698,88.2761108791382),.UNSPECIFIED.);
#209=B_SPLINE_CURVE_WITH_KNOTS('',1,(#561,#562),.UNSPECIFIED.,.F.,.F.,(2,
2),(-8.,0.),.UNSPECIFIED.);
#210=B_SPLINE_CURVE_WITH_KNOTS('',1,(#566,#567),.UNSPECIFIED.,.F.,.F.,(2,
2),(-8.,0.),.UNSPECIFIED.);
#211=B_SPLINE_CURVE_WITH_KNOTS('',1,(#568,#569),.UNSPECIFIED.,.F.,.F.,(2,
2),(0.,3.04196010845018),.UNSPECIFIED.);
#212=B_SPLINE_CURVE_WITH_KNOTS('',1,(#570,#571),.UNSPECIFIED.,.F.,.F.,(2,
2),(-8.,0.),.UNSPECIFIED.);
#213=B_SPLINE_CURVE_WITH_KNOTS('',1,(#572,#573),.UNSPECIFIED.,.F.,.F.,(2,
2),(0.,1.),.UNSPECIFIED.);
#214=B_SPLINE_CURVE_WITH_KNOTS('',1,(#574,#575),.UNSPECIFIED.,.F.,.F.,(2,
2),(-8.,0.),.UNSPECIFIED.);
#215=B_SPLINE_CURVE_WITH_KNOTS('',1,(#576,#577),.UNSPECIFIED.,.F.,.F.,(2,
2),(0.,3.04196010845165),.UNSPECIFIED.);
#216=B_SPLINE_CURVE_WITH_KNOTS('',3,(#581,#582,#583,#584,#585,#586,#587,
#588,#589,#590,#591,#592,#593,#594,#595,#596,#597,#598,#599),
 .UNSPECIFIED.,.F.,.F.,(4,2,2,2,3,2,2,2,4),(0.,0.642725886537093,1.28694429873444,
1.94133053082338,2.59666431530786,3.2519980997919,3.90638433188162,4.55060274407853,
5.19332863057416),.UNSPECIFIED.);
#217=B_SPLINE_CURVE_WITH_KNOTS('',3,(#600,#601,#602,#603,#604,#605,#606,
#607,#608,#609,#610,#611,#612,#613,#614,#615,#616,#617,#618),
 .UNSPECIFIED.,.F.,.F.,(4,2,2,2,3,2,2,2,4),(0.,0.690682698580006,1.37968658632207,
2.08180279382392,2.80061932301583,3.51943585220736,4.22155205970935,4.91055594745175,
5.60123864607033),.UNSPECIFIED.);
#218=B_SPLINE_CURVE_WITH_KNOTS('',1,(#622,#623),.UNSPECIFIED.,.F.,.F.,(2,
2),(10.9999999999999,18.509365606712),.UNSPECIFIED.);
#219=B_SPLINE_CURVE_WITH_KNOTS('',1,(#624,#625),.UNSPECIFIED.,.F.,.F.,(2,
2),(2.49063439331557,9.99999999999992),.UNSPECIFIED.);
#220=B_SPLINE_CURVE_WITH_KNOTS('',1,(#626,#627),.UNSPECIFIED.,.F.,.F.,(2,
2),(2.49063439328611,9.99999999999994),.UNSPECIFIED.);
#221=B_SPLINE_CURVE_WITH_KNOTS('',3,(#628,#629,#630,#631,#632,#633,#634,
#635,#636,#637,#638,#639,#640,#641,#642,#643,#644,#645,#646),
 .UNSPECIFIED.,.F.,.F.,(4,2,2,2,3,2,2,2,4),(5.60123864607033,6.24396453258187,
6.88818294478167,7.54256917686355,8.19790296133985,8.85323674581523,9.50762297789593,
10.1518413900967,10.7945672766481),.UNSPECIFIED.);
#222=B_SPLINE_CURVE_WITH_KNOTS('',1,(#650,#651),.UNSPECIFIED.,.F.,.F.,(2,
2),(10.9999999999999,18.5093656067442),.UNSPECIFIED.);
#223=B_SPLINE_CURVE_WITH_KNOTS('',3,(#655,#656,#657,#658,#659,#660,#661,
#662,#663,#664,#665,#666,#667,#668,#669,#670,#671,#672,#673,#674,#675),
 .UNSPECIFIED.,.F.,.F.,(4,2,3,2,3,2,3,2,4),(5.19332863057416,5.81321451751467,
6.43205990385826,7.20436200078474,7.99669400638637,8.78902601198808,9.5613281089145,
10.1801734952579,10.800059382157),.UNSPECIFIED.);
#224=TRIMMED_CURVE($,#238,(#509),(#510),.T.,.CARTESIAN.);
#225=TRIMMED_CURVE($,#239,(#512),(#513),.T.,.CARTESIAN.);
#226=TRIMMED_CURVE($,#240,(#517),(#518),.T.,.CARTESIAN.);
#227=TRIMMED_CURVE($,#241,(#520),(#521),.T.,.CARTESIAN.);
#228=TRIMMED_CURVE($,#242,(#525),(#526),.T.,.CARTESIAN.);
#229=TRIMMED_CURVE($,#243,(#536),(#537),.T.,.CARTESIAN.);
#230=TRIMMED_CURVE($,#244,(#541),(#542),.T.,.CARTESIAN.);
#231=TRIMMED_CURVE($,#245,(#550),(#551),.T.,.CARTESIAN.);
#232=TRIMMED_CURVE($,#246,(#555),(#556),.T.,.CARTESIAN.);
#233=TRIMMED_CURVE($,#247,(#564),(#565),.T.,.CARTESIAN.);
#234=TRIMMED_CURVE($,#248,(#579),(#580),.T.,.CARTESIAN.);
#235=TRIMMED_CURVE($,#249,(#620),(#621),.T.,.CARTESIAN.);
#236=TRIMMED_CURVE($,#250,(#648),(#649),.T.,.CARTESIAN.);
#237=TRIMMED_CURVE($,#251,(#653),(#654),.T.,.CARTESIAN.);
#238=CIRCLE('',#400,2.99999999999971);
#239=CIRCLE('',#401,2.9999999999998);
#240=CIRCLE('',#402,10.);
#241=CIRCLE('',#403,10.);
#242=CIRCLE('',#404,3.);
#243=CIRCLE('',#405,2.99999999999971);
#244=CIRCLE('',#406,2.99999999999984);
#245=CIRCLE('',#407,10.);
#246=CIRCLE('',#408,10.);
#247=CIRCLE('',#409,3.);
#248=CIRCLE('',#410,1.5);
#249=CIRCLE('',#411,1.5);
#250=CIRCLE('',#412,1.5);
#251=CIRCLE('',#413,1.5);
#252=VERTEX_POINT('',#480);
#253=VERTEX_POINT('',#481);
#254=VERTEX_POINT('',#482);
#255=VERTEX_POINT('',#483);
#256=VERTEX_POINT('',#484);
#257=VERTEX_POINT('',#485);
#258=VERTEX_POINT('',#486);
#259=VERTEX_POINT('',#487);
#260=VERTEX_POINT('',#488);
#261=VERTEX_POINT('',#489);
#262=VERTEX_POINT('',#490);
#263=VERTEX_POINT('',#491);
#264=VERTEX_POINT('',#492);
#265=VERTEX_POINT('',#493);
#266=VERTEX_POINT('',#494);
#267=VERTEX_POINT('',#495);
#268=VERTEX_POINT('',#496);
#269=VERTEX_POINT('',#497);
#270=VERTEX_POINT('',#498);
#271=VERTEX_POINT('',#499);
#272=VERTEX_POINT('',#500);
#273=VERTEX_POINT('',#501);
#274=VERTEX_POINT('',#502);
#275=VERTEX_POINT('',#503);
#276=VERTEX_POINT('',#504);
#277=VERTEX_POINT('',#505);
#278=VERTEX_POINT('',#506);
#279=VERTEX_POINT('',#507);
#280=CYLINDRICAL_SURFACE('',#385,2.99999999999995);
#281=CYLINDRICAL_SURFACE('',#386,2.99999999999978);
#282=CYLINDRICAL_SURFACE('',#388,10.);
#283=CYLINDRICAL_SURFACE('',#389,10.);
#284=CYLINDRICAL_SURFACE('',#391,2.99999999999999);
#285=CYLINDRICAL_SURFACE('',#396,1.5);
#286=CYLINDRICAL_SURFACE('',#397,1.5);
#287=CYLINDRICAL_SURFACE('',#398,1.5);
#288=CYLINDRICAL_SURFACE('',#399,1.5);
#289=PLANE('',#384);
#290=PLANE('',#387);
#291=PLANE('',#390);
#292=PLANE('',#392);
#293=PLANE('',#393);
#294=PLANE('',#394);
#295=PLANE('',#395);
#296=SHAPE_DEFINITION_REPRESENTATION(#297,#382);
#297=PRODUCT_DEFINITION_SHAPE($,$,#299);
#298=PRODUCT_DEFINITION_CONTEXT('3D Mechanical Parts',#371,'design');
#299=PRODUCT_DEFINITION('A','First version',#341,#298);
#300=DATE_TIME_ROLE('classification_date');
#301=DATE_TIME_ROLE('creation_date');
#302=APPLIED_DATE_AND_TIME_ASSIGNMENT(#326,#300,(#305));
#303=APPLIED_DATE_AND_TIME_ASSIGNMENT(#328,#301,(#299));
#304=SECURITY_CLASSIFICATION_LEVEL('unclassified');
#305=SECURITY_CLASSIFICATION('A','Security for version',#304);
#306=APPLIED_SECURITY_CLASSIFICATION_ASSIGNMENT(#305,(#341));
#307=APPROVAL_ROLE('Version approval');
#308=APPROVAL_ROLE('Version Security approval');
#309=APPROVAL_ROLE('Definition approval');
#310=APPROVAL_PERSON_ORGANIZATION(#359,#335,#307);
#311=APPROVAL_PERSON_ORGANIZATION(#360,#336,#308);
#312=APPROVAL_PERSON_ORGANIZATION(#363,#337,#309);
#313=COORDINATED_UNIVERSAL_TIME_OFFSET(5,0,.BEHIND.);
#314=LOCAL_TIME(0,0,0.,#313);
#315=LOCAL_TIME(0,0,0.,#313);
#316=LOCAL_TIME(0,0,0.,#313);
#317=LOCAL_TIME(0,0,0.,#313);
#318=LOCAL_TIME(0,0,0.,#313);
#319=CALENDAR_DATE(1999,1,1);
#320=CALENDAR_DATE(1999,1,1);
#321=CALENDAR_DATE(1999,1,1);
#322=CALENDAR_DATE(1999,1,1);
#323=CALENDAR_DATE(1999,1,1);
#324=DATE_AND_TIME(#319,#314);
#325=DATE_AND_TIME(#320,#315);
#326=DATE_AND_TIME(#321,#316);
#327=DATE_AND_TIME(#322,#317);
#328=DATE_AND_TIME(#323,#318);
#329=APPROVAL_DATE_TIME(#324,#335);
#330=APPROVAL_DATE_TIME(#325,#336);
#331=APPROVAL_DATE_TIME(#327,#337);
#332=APPROVAL_STATUS('not_yet_approved');
#333=APPROVAL_STATUS('not_yet_approved');
#334=APPROVAL_STATUS('approved');
#335=APPROVAL(#332,'Version approval');
#336=APPROVAL(#333,'Version Security approval');
#337=APPROVAL(#334,'Definition approval');
#338=APPLIED_APPROVAL_ASSIGNMENT(#335,(#341));
#339=APPLIED_APPROVAL_ASSIGNMENT(#336,(#305));
#340=APPLIED_APPROVAL_ASSIGNMENT(#337,(#299));
#341=PRODUCT_DEFINITION_FORMATION_WITH_SPECIFIED_SOURCE('A',
'First version',#373,.MADE.);
#342=PERSON_AND_ORGANIZATION_ROLE('design_owner');
#343=PERSON_AND_ORGANIZATION_ROLE('creator');
#344=PERSON_AND_ORGANIZATION_ROLE('design_supplier');
#345=PERSON_AND_ORGANIZATION_ROLE('classification_officer');
#346=PERSON_AND_ORGANIZATION_ROLE('creator');
#347=ORGANIZATION('STI','lab','lab');
#348=ORGANIZATION('STI','unknown','unknown');
#349=ORGANIZATION('STI','unknown','unknown');
#350=ORGANIZATION('STI','unknown','unknown');
#351=ORGANIZATION('STI','unknown','unknown');
#352=ORGANIZATION('STI','unknown','unknown');
#353=ORGANIZATION('STI','unknown','unknown');
#354=PERSON('1','Box','vc60',$,$,$);
#355=PERSON('2','last','first',$,$,$);
#356=PERSON('3','President','Mr.',$,$,$);
#357=PERSON_AND_ORGANIZATION(#354,#347);
#358=PERSON_AND_ORGANIZATION(#355,#348);
#359=PERSON_AND_ORGANIZATION(#356,#349);
#360=PERSON_AND_ORGANIZATION(#356,#350);
#361=PERSON_AND_ORGANIZATION(#356,#351);
#362=PERSON_AND_ORGANIZATION(#355,#352);
#363=PERSON_AND_ORGANIZATION(#356,#353);
#364=APPLIED_PERSON_AND_ORGANIZATION_ASSIGNMENT(#357,#342,(#373));
#365=APPLIED_PERSON_AND_ORGANIZATION_ASSIGNMENT(#358,#343,(#341));
#366=APPLIED_PERSON_AND_ORGANIZATION_ASSIGNMENT(#358,#344,(#341));
#367=APPLIED_PERSON_AND_ORGANIZATION_ASSIGNMENT(#361,#345,(#305));
#368=APPLIED_PERSON_AND_ORGANIZATION_ASSIGNMENT(#362,#346,(#299));
#369=PRODUCT_RELATED_PRODUCT_CATEGORY('detail','detail',(#373));
#370=APPLICATION_PROTOCOL_DEFINITION('International Standard',
'config_control_design',1994,#371);
#371=APPLICATION_CONTEXT(
'configuration controlled 3d designs of mechanical parts and assemblie
s');
#372=PRODUCT_CONTEXT('3D Mechanical Parts',#371,'mechanical');
#373=PRODUCT('Document','Document','',(#372));
#374=(
LENGTH_UNIT()
NAMED_UNIT(*)
SI_UNIT(.MILLI.,.METRE.)
);
#375=(
NAMED_UNIT(*)
PLANE_ANGLE_UNIT()
SI_UNIT($,.RADIAN.)
);
#376=DIMENSIONAL_EXPONENTS(0.,0.,0.,0.,0.,0.,0.);
#377=PLANE_ANGLE_MEASURE_WITH_UNIT(PLANE_ANGLE_MEASURE(0.01745329252),#375);
#378=(
CONVERSION_BASED_UNIT('DEGREES',#377)
NAMED_UNIT(#376)
PLANE_ANGLE_UNIT()
);
#379=(
NAMED_UNIT(*)
SI_UNIT($,.STERADIAN.)
SOLID_ANGLE_UNIT()
);
#380=UNCERTAINTY_MEASURE_WITH_UNIT(LENGTH_MEASURE(0.001),#374,
'DISTANCE_ACCURACY_VALUE',
'Maximum model space distance between geometric entities at asserted c
onnectivities');
#381=(
GEOMETRIC_REPRESENTATION_CONTEXT(3)
GLOBAL_UNCERTAINTY_ASSIGNED_CONTEXT((#380))
GLOBAL_UNIT_ASSIGNED_CONTEXT((#379,#378,#374))
REPRESENTATION_CONTEXT('ID1','3D')
);
#382=SHAPE_REPRESENTATION('Document',(#383,#414),#381);
#383=AXIS2_PLACEMENT_3D($,#463,#415,#416);
#384=AXIS2_PLACEMENT_3D('',#464,#417,$);
#385=AXIS2_PLACEMENT_3D('',#465,#418,$);
#386=AXIS2_PLACEMENT_3D('',#466,#419,$);
#387=AXIS2_PLACEMENT_3D('',#467,#420,$);
#388=AXIS2_PLACEMENT_3D('',#468,#421,$);
#389=AXIS2_PLACEMENT_3D('',#469,#422,$);
#390=AXIS2_PLACEMENT_3D('',#470,#423,$);
#391=AXIS2_PLACEMENT_3D('',#471,#424,$);
#392=AXIS2_PLACEMENT_3D('',#472,#425,$);
#393=AXIS2_PLACEMENT_3D('',#473,#426,$);
#394=AXIS2_PLACEMENT_3D('',#474,#427,$);
#395=AXIS2_PLACEMENT_3D('',#475,#428,$);
#396=AXIS2_PLACEMENT_3D('',#476,#429,$);
#397=AXIS2_PLACEMENT_3D('',#477,#430,$);
#398=AXIS2_PLACEMENT_3D('',#478,#431,$);
#399=AXIS2_PLACEMENT_3D('',#479,#432,$);
#400=AXIS2_PLACEMENT_3D($,#508,#433,#434);
#401=AXIS2_PLACEMENT_3D($,#511,#435,#436);
#402=AXIS2_PLACEMENT_3D($,#516,#437,#438);
#403=AXIS2_PLACEMENT_3D($,#519,#439,#440);
#404=AXIS2_PLACEMENT_3D($,#524,#441,#442);
#405=AXIS2_PLACEMENT_3D($,#535,#443,#444);
#406=AXIS2_PLACEMENT_3D($,#540,#445,#446);
#407=AXIS2_PLACEMENT_3D($,#549,#447,#448);
#408=AXIS2_PLACEMENT_3D($,#554,#449,#450);
#409=AXIS2_PLACEMENT_3D($,#563,#451,#452);
#410=AXIS2_PLACEMENT_3D($,#578,#453,#454);
#411=AXIS2_PLACEMENT_3D($,#619,#455,#456);
#412=AXIS2_PLACEMENT_3D($,#647,#457,#458);
#413=AXIS2_PLACEMENT_3D($,#652,#459,#460);
#414=AXIS2_PLACEMENT_3D($,#676,#461,#462);
#415=DIRECTION('',(0.,0.,1.));
#416=DIRECTION('',(1.,0.,0.));
#417=DIRECTION('',(0.,0.,1.));
#418=DIRECTION('',(5.06007200892816E-16,3.32709038430578E-16,1.));
#419=DIRECTION('',(1.57159762493761E-16,-1.13835221878207E-16,1.));
#420=DIRECTION('',(-1.,0.,0.));
#421=DIRECTION('',(3.01028779605853E-17,1.58309880409021E-17,-1.));
#422=DIRECTION('',(0.,0.,-1.));
#423=DIRECTION('',(1.,0.,0.));
#424=DIRECTION('',(-1.12340557707343E-16,-2.63350114421909E-30,1.));
#425=DIRECTION('',(1.,0.,0.));
#426=DIRECTION('',(0.,-1.,0.));
#427=DIRECTION('',(-1.,0.,0.));
#428=DIRECTION('',(0.,0.,-1.));
#429=DIRECTION('',(-1.,0.,0.));
#430=DIRECTION('',(-1.,0.,0.));
#431=DIRECTION('',(-1.,0.,0.));
#432=DIRECTION('',(-1.,0.,0.));
#433=DIRECTION('',(-4.78584620524737E-16,-4.04477828283489E-16,-1.));
#434=DIRECTION('',(0.166666666668082,0.98601329718303,-5.92118946466808E-16));
#435=DIRECTION('',(0.,0.,-1.));
#436=DIRECTION('',(1.,5.06943176563345E-14,0.));
#437=DIRECTION('',(-1.61234192061363E-16,6.44352349352214E-17,1.));
#438=DIRECTION('',(0.0499999999986135,-0.998749217771978,8.88178419700125E-17));
#439=DIRECTION('',(0.,0.,1.));
#440=DIRECTION('',(1.,-2.30640032405624E-16,0.));
#441=DIRECTION('',(-7.1054273575888E-16,6.82710170045664E-30,-1.));
#442=DIRECTION('',(-0.166666666665245,-0.98601329718351,0.));
#443=DIRECTION('',(1.10519897766615E-15,6.33804510147593E-16,-1.));
#444=DIRECTION('',(0.166666666668082,0.98601329718303,8.88178419700212E-16));
#445=DIRECTION('',(6.26614357141337E-16,-2.29326681864109E-16,-1.));
#446=DIRECTION('',(1.,3.33285005266197E-14,5.92118946466782E-16));
#447=DIRECTION('',(7.24163500913504E-17,-1.57810761452711E-16,1.));
#448=DIRECTION('',(0.0499999999986135,-0.998749217771978,-1.77635683940025E-16));
#449=DIRECTION('',(0.,0.,1.));
#450=DIRECTION('',(1.,-2.30640032405624E-16,0.));
#451=DIRECTION('',(-3.5527136787944E-16,3.41355085022832E-30,-1.));
#452=DIRECTION('',(-0.166666666665245,-0.98601329718351,0.));
#453=DIRECTION('',(-1.,0.,0.));
#454=DIRECTION('',(0.,5.9211894646675E-16,-1.));
#455=DIRECTION('',(1.,0.,0.));
#456=DIRECTION('',(0.,0.,-1.));
#457=DIRECTION('',(1.,0.,0.));
#458=DIRECTION('',(0.,0.,1.));
#459=DIRECTION('',(-1.,0.,0.));
#460=DIRECTION('',(0.,0.,1.));
#461=DIRECTION('',(0.,0.,1.));
#462=DIRECTION('',(1.,0.,0.));
#463=CARTESIAN_POINT('',(0.,0.,0.));
#464=CARTESIAN_POINT('',(-11.8848609637591,-10.2052542771944,4.));
#465=CARTESIAN_POINT('',(-9.49307473256142E-15,-2.26452897955931E-14,5.95891370117904E-15));
#466=CARTESIAN_POINT('',(5.63307741551242E-13,-2.69714248135795E-13,1.35965770718135E-15));
#467=CARTESIAN_POINT('',(0.500000000004263,-9.98749217771985,4.));
#468=CARTESIAN_POINT('',(1.81255729068699E-11,-5.95536273647593E-14,4.13986331889477E-15));
#469=CARTESIAN_POINT('',(1.8130371388516E-11,-3.32814338511359E-14,4.44089209850063E-15));
#470=CARTESIAN_POINT('',(-0.499999999996362,-2.95803989155059,4.));
#471=CARTESIAN_POINT('',(-1.76294886682767E-13,-4.66613033317292E-14,4.77791377162265E-15));
#472=CARTESIAN_POINT('',(-0.499999999996362,6.00000000000066,4.));
#473=CARTESIAN_POINT('',(0.500000000003638,6.00000000000066,4.));
#474=CARTESIAN_POINT('',(0.500000000003638,2.95803989154901,4.));
#475=CARTESIAN_POINT('',(-11.8848609637591,-10.2052542771944,-4.));
#476=CARTESIAN_POINT('',(1.50000000000415,-5.98749217771845,1.25607396694702E-15));
#477=CARTESIAN_POINT('',(1.50000000000415,-5.98749217771845,1.25607396694702E-15));
#478=CARTESIAN_POINT('',(1.50000000000415,-5.98749217771845,6.2803698347351E-16));
#479=CARTESIAN_POINT('',(1.50000000000415,-5.98749217771845,6.2803698347351E-16));
#480=CARTESIAN_POINT('',(0.50000000000432,2.95803989154901,4.));
#481=CARTESIAN_POINT('',(2.99999999999994,-6.3948846218409E-14,4.));
#482=CARTESIAN_POINT('',(0.500000000004263,-2.95803989154913,4.));
#483=CARTESIAN_POINT('',(0.500000000004263,-9.98749217771985,4.));
#484=CARTESIAN_POINT('',(10.0000000000181,-6.3948846218409E-14,4.));
#485=CARTESIAN_POINT('',(-0.499999999995623,-9.98749217771847,4.));
#486=CARTESIAN_POINT('',(-0.49999999999568,-2.95803989155059,4.));
#487=CARTESIAN_POINT('',(-0.499999999995737,2.95803989155048,4.));
#488=CARTESIAN_POINT('',(-0.49999999999568,6.00000000000066,4.));
#489=CARTESIAN_POINT('',(0.50000000000432,6.00000000000066,4.));
#490=CARTESIAN_POINT('',(0.50000000000432,2.95803989154901,-4.));
#491=CARTESIAN_POINT('',(2.99999999999994,-6.3948846218409E-14,-4.));
#492=CARTESIAN_POINT('',(0.500000000004206,-2.95803989154913,-4.));
#493=CARTESIAN_POINT('',(0.500000000004263,-9.98749217771985,-4.));
#494=CARTESIAN_POINT('',(10.0000000000181,-6.3948846218409E-14,-4.));
#495=CARTESIAN_POINT('',(-0.499999999995623,-9.98749217771847,-4.));
#496=CARTESIAN_POINT('',(-0.49999999999568,-2.95803989155059,-4.));
#497=CARTESIAN_POINT('',(-0.499999999995737,2.95803989155047,-4.));
#498=CARTESIAN_POINT('',(-0.49999999999568,6.00000000000066,-4.));
#499=CARTESIAN_POINT('',(0.50000000000432,6.00000000000066,-4.));
#500=CARTESIAN_POINT('',(0.500000000004263,-5.98749217771846,-1.5));
#501=CARTESIAN_POINT('',(8.00936560671636,-5.9874921777185,-1.5));
#502=CARTESIAN_POINT('',(-8.00936560668009,-5.98749217771847,-1.5));
#503=CARTESIAN_POINT('',(-0.499999999995737,-5.98749217771846,-1.5));
#504=CARTESIAN_POINT('',(-8.00936560670306,-5.9874921776877,1.5));
#505=CARTESIAN_POINT('',(-0.499999999995737,-5.98749217771846,1.5));
#506=CARTESIAN_POINT('',(0.500000000004263,-5.98749217771846,1.5));
#507=CARTESIAN_POINT('',(8.0093656067412,-5.9874921776854,1.5));
#508=CARTESIAN_POINT('',(1.23901103320253E-13,2.04710774267566E-13,4.));
#509=CARTESIAN_POINT('',(0.50000000000432,2.958039891549,4.));
#510=CARTESIAN_POINT('',(2.99999999999983,-6.05626659933023E-14,4.));
#511=CARTESIAN_POINT('',(1.428824452857E-13,-2.16031799187402E-13,4.));
#512=CARTESIAN_POINT('',(2.99999999999994,-6.3948846218409E-14,4.));
#513=CARTESIAN_POINT('',(0.500000000004206,-2.95803989154913,4.));
#514=CARTESIAN_POINT('',(0.500000000004263,-2.95803989154913,4.));
#515=CARTESIAN_POINT('',(0.500000000004263,-9.98749217771985,4.));
#516=CARTESIAN_POINT('',(1.8127819265043E-11,-5.80601616135342E-14,4.));
#517=CARTESIAN_POINT('',(0.500000000004263,-9.98749217771985,4.));
#518=CARTESIAN_POINT('',(10.0000000000181,-6.36157793110215E-14,4.));
#519=CARTESIAN_POINT('',(1.81305282715723E-11,-6.16424458943528E-14,4.));
#520=CARTESIAN_POINT('',(10.0000000000181,-6.3948846218409E-14,4.));
#521=CARTESIAN_POINT('',(-0.499999999995626,-9.98749217771847,4.));
#522=CARTESIAN_POINT('',(-0.499999999995623,-9.98749217771847,4.));
#523=CARTESIAN_POINT('',(-0.49999999999568,-2.95803989155059,4.));
#524=CARTESIAN_POINT('',(-3.43990022795847E-16,-5.11675351176575E-14,4.));
#525=CARTESIAN_POINT('',(-0.499999999995737,-2.95803989155058,4.));
#526=CARTESIAN_POINT('',(-0.49999999999568,2.95803989155049,4.));
#527=CARTESIAN_POINT('',(-0.499999999995737,2.95803989155048,4.));
#528=CARTESIAN_POINT('',(-0.49999999999568,6.00000000000066,4.));
#529=CARTESIAN_POINT('',(-0.49999999999568,6.00000000000066,4.));
#530=CARTESIAN_POINT('',(0.50000000000432,6.00000000000066,4.));
#531=CARTESIAN_POINT('',(0.50000000000432,6.00000000000066,4.));
#532=CARTESIAN_POINT('',(0.50000000000432,2.95803989154901,4.));
#533=CARTESIAN_POINT('',(0.50000000000432,2.95803989154901,4.));
#534=CARTESIAN_POINT('',(0.50000000000432,2.95803989154901,-4.));
#535=CARTESIAN_POINT('',(1.23901103320253E-13,2.04710774267566E-13,-4.));
#536=CARTESIAN_POINT('',(0.50000000000432,2.958039891549,-4.));
#537=CARTESIAN_POINT('',(2.99999999999983,-6.05626659933023E-14,-4.));
#538=CARTESIAN_POINT('',(2.99999999999994,-6.3948846218409E-14,-4.));
#539=CARTESIAN_POINT('',(2.99999999999994,-6.3948846218409E-14,4.));
#540=CARTESIAN_POINT('',(1.04225438738553E-13,-1.63934347798263E-13,-4.));
#541=CARTESIAN_POINT('',(2.99999999999994,-6.3948846218409E-14,-4.));
#542=CARTESIAN_POINT('',(0.500000000004093,-2.95803989154913,-4.));
#543=CARTESIAN_POINT('',(0.500000000004206,-2.95803989154913,-4.));
#544=CARTESIAN_POINT('',(0.500000000004263,-2.95803989154913,4.));
#545=CARTESIAN_POINT('',(0.500000000004206,-2.95803989154913,-4.));
#546=CARTESIAN_POINT('',(0.500000000004263,-9.98749217771985,-4.));
#547=CARTESIAN_POINT('',(0.500000000004263,-9.98749217771985,-4.));
#548=CARTESIAN_POINT('',(0.500000000004263,-9.98749217771985,4.));
#549=CARTESIAN_POINT('',(1.8127819265043E-11,-5.80601616135342E-14,-4.));
#550=CARTESIAN_POINT('',(0.500000000004263,-9.98749217771985,-4.));
#551=CARTESIAN_POINT('',(10.0000000000181,-6.36157793110215E-14,-4.));
#552=CARTESIAN_POINT('',(10.0000000000181,-6.3948846218409E-14,-4.));
#553=CARTESIAN_POINT('',(10.0000000000181,-6.3948846218409E-14,4.));
#554=CARTESIAN_POINT('',(1.81305282715723E-11,-6.16424458943528E-14,-4.));
#555=CARTESIAN_POINT('',(10.0000000000181,-6.3948846218409E-14,-4.));
#556=CARTESIAN_POINT('',(-0.499999999995626,-9.98749217771847,-4.));
#557=CARTESIAN_POINT('',(-0.499999999995623,-9.98749217771847,-4.));
#558=CARTESIAN_POINT('',(-0.499999999995623,-9.98749217771847,4.));
#559=CARTESIAN_POINT('',(-0.499999999995623,-9.98749217771847,-4.));
#560=CARTESIAN_POINT('',(-0.49999999999568,-2.95803989155059,-4.));
#561=CARTESIAN_POINT('',(-0.49999999999568,-2.95803989155059,-4.));
#562=CARTESIAN_POINT('',(-0.49999999999568,-2.95803989155059,4.));
#563=CARTESIAN_POINT('',(-1.7199501139794E-16,-5.10221728019824E-14,-4.));
#564=CARTESIAN_POINT('',(-0.499999999995737,-2.95803989155058,-4.));
#565=CARTESIAN_POINT('',(-0.499999999995679,2.95803989155049,-4.));
#566=CARTESIAN_POINT('',(-0.499999999995737,2.95803989155047,-4.));
#567=CARTESIAN_POINT('',(-0.499999999995737,2.95803989155048,4.));
#568=CARTESIAN_POINT('',(-0.499999999995737,2.95803989155047,-4.));
#569=CARTESIAN_POINT('',(-0.49999999999568,6.00000000000066,-4.));
#570=CARTESIAN_POINT('',(-0.49999999999568,6.00000000000066,-4.));
#571=CARTESIAN_POINT('',(-0.49999999999568,6.00000000000066,4.));
#572=CARTESIAN_POINT('',(-0.49999999999568,6.00000000000066,-4.));
#573=CARTESIAN_POINT('',(0.50000000000432,6.00000000000066,-4.));
#574=CARTESIAN_POINT('',(0.50000000000432,6.00000000000066,-4.));
#575=CARTESIAN_POINT('',(0.50000000000432,6.00000000000066,4.));
#576=CARTESIAN_POINT('',(0.50000000000432,6.00000000000066,-4.));
#577=CARTESIAN_POINT('',(0.50000000000432,2.95803989154901,-4.));
#578=CARTESIAN_POINT('',(0.500000000004263,-5.98749217771846,1.25607396694702E-15));
#579=CARTESIAN_POINT('',(0.500000000004263,-5.98749217771846,-1.5));
#580=CARTESIAN_POINT('',(0.500000000004263,-5.98749217771846,1.5));
#581=CARTESIAN_POINT('',(8.00936560671636,-5.9874921777185,-1.5));
#582=CARTESIAN_POINT('',(8.13683872299055,-5.8169735761136,-1.5));
#583=CARTESIAN_POINT('',(8.25887042746263,-5.64203833074644,-1.4709421916358));
#584=CARTESIAN_POINT('',(8.48215301997857,-5.30045380575643,-1.34578640655112));
#585=CARTESIAN_POINT('',(8.58243331384693,-5.13522260608236,-1.24993762494926));
#586=CARTESIAN_POINT('',(8.7527063385823,-4.83939219222903,-0.985801912051785));
#587=CARTESIAN_POINT('',(8.82018518554787,-4.71321339598949,-0.819494953439001));
#588=CARTESIAN_POINT('',(8.91295720098833,-4.53533574002038,-0.432124433344033));
#589=CARTESIAN_POINT('',(8.93657730651063,-4.48749217771846,-0.218477856749978));
#590=CARTESIAN_POINT('',(8.93657730651063,-4.48749217771846,8.88178419700125E-16));
#591=CARTESIAN_POINT('',(8.93657730651063,-4.48749217771846,0.218477856749685));
#592=CARTESIAN_POINT('',(8.91295720098827,-4.53533574002049,0.432124433344266));
#593=CARTESIAN_POINT('',(8.82018518554787,-4.71321339598952,0.819494953439085));
#594=CARTESIAN_POINT('',(8.75270633858241,-4.83939219222893,0.985801912051687));
#595=CARTESIAN_POINT('',(8.5824333138471,-5.13522260608214,1.24993762494907));
#596=CARTESIAN_POINT('',(8.48215301997857,-5.30045380575663,1.34578640655119));
#597=CARTESIAN_POINT('',(8.25887042747001,-5.64203833073531,1.47094219163173));
#598=CARTESIAN_POINT('',(8.13683872300635,-5.81697357609104,1.49999999999625));
#599=CARTESIAN_POINT('',(8.0093656067412,-5.9874921776854,1.5));
#600=CARTESIAN_POINT('',(-8.00936560668009,-5.98749217771847,-1.5));
#601=CARTESIAN_POINT('',(-7.87289602165384,-6.17004520129252,-1.5));
#602=CARTESIAN_POINT('',(-7.72956926378384,-6.34836651109386,-1.46672754337066));
#603=CARTESIAN_POINT('',(-7.44446631642984,-6.68039569000887,-1.34210716842825));
#604=CARTESIAN_POINT('',(-7.30002982395649,-6.83715539879244,-1.24969283485347));
#605=CARTESIAN_POINT('',(-7.02866078055439,-7.11593167921337,-1.00577204175529));
#606=CARTESIAN_POINT('',(-6.89679487221332,-7.24242683742072,-0.848216556814658));
#607=CARTESIAN_POINT('',(-6.69474806063602,-7.42965451407083,-0.465439743477795));
#608=CARTESIAN_POINT('',(-6.62853384153425,-7.48749217771846,-0.241681051905323));
#609=CARTESIAN_POINT('',(-6.62853384153425,-7.48749217771846,8.88178419700125E-16));
#610=CARTESIAN_POINT('',(-6.62853384153425,-7.48749217771846,0.241681051905124));
#611=CARTESIAN_POINT('',(-6.69474806063613,-7.42965451407072,0.465439743478004));
#612=CARTESIAN_POINT('',(-6.89679487221332,-7.24242683742077,0.848216556814564));
#613=CARTESIAN_POINT('',(-7.0286607805545,-7.11593167921327,1.00577204175538));
#614=CARTESIAN_POINT('',(-7.30002982395644,-6.83715539879248,1.24969283485343));
#615=CARTESIAN_POINT('',(-7.44446631642995,-6.68039569000882,1.34210716842827));
#616=CARTESIAN_POINT('',(-7.7295692637918,-6.3483665110847,1.4667275433741));
#617=CARTESIAN_POINT('',(-7.8728960216701,-6.17004520127245,1.50000000000372));
#618=CARTESIAN_POINT('',(-8.00936560670306,-5.9874921776877,1.5));
#619=CARTESIAN_POINT('',(-0.499999999995737,-5.98749217771846,6.2803698347351E-16));
#620=CARTESIAN_POINT('',(-0.499999999995737,-5.98749217771846,-1.5));
#621=CARTESIAN_POINT('',(-0.499999999995737,-5.98749217771846,1.5));
#622=CARTESIAN_POINT('',(0.500000000004263,-5.98749217771846,-1.5));
#623=CARTESIAN_POINT('',(8.00936560671636,-5.9874921777185,-1.5));
#624=CARTESIAN_POINT('',(-8.00936560668009,-5.98749217771847,-1.5));
#625=CARTESIAN_POINT('',(-0.499999999995737,-5.98749217771846,-1.5));
#626=CARTESIAN_POINT('',(-8.00936560670971,-5.98749217771846,1.5));
#627=CARTESIAN_POINT('',(-0.49999999999585,-5.98749217771846,1.5));
#628=CARTESIAN_POINT('',(-8.00936560670306,-5.9874921776877,1.5));
#629=CARTESIAN_POINT('',(-8.13683872297321,-5.81697357608689,1.49999999999651));
#630=CARTESIAN_POINT('',(-8.25887042742937,-5.64203833074189,1.47094219163413));
#631=CARTESIAN_POINT('',(-8.48215301994418,-5.30045380575361,1.34578640655009));
#632=CARTESIAN_POINT('',(-8.58243331380913,-5.13522260608478,1.24993762495142));
#633=CARTESIAN_POINT('',(-8.75270633854609,-4.8393921922287,0.985801912051467));
#634=CARTESIAN_POINT('',(-8.82018518551143,-4.71321339598968,0.819494953439405));
#635=CARTESIAN_POINT('',(-8.91295720095201,-4.53533574002034,0.432124433343938));
#636=CARTESIAN_POINT('',(-8.93657730647436,-4.48749217771846,0.218477856750085));
#637=CARTESIAN_POINT('',(-8.93657730647436,-4.48749217771846,8.88178419700125E-16));
#638=CARTESIAN_POINT('',(-8.93657730647436,-4.48749217771846,-0.218477856749713));
#639=CARTESIAN_POINT('',(-8.91295720095201,-4.53533574002048,-0.432124433344255));
#640=CARTESIAN_POINT('',(-8.8201851855116,-4.71321339598949,-0.819494953439007));
#641=CARTESIAN_POINT('',(-8.75270633854598,-4.83939219222902,-0.985801912051762));
#642=CARTESIAN_POINT('',(-8.58243331380908,-5.13522260608494,-1.24993762495157));
#643=CARTESIAN_POINT('',(-8.48215301994429,-5.30045380575341,-1.34578640655002));
#644=CARTESIAN_POINT('',(-8.25887042742249,-5.6420383307524,-1.47094219163798));
#645=CARTESIAN_POINT('',(-8.1368387229586,-5.81697357610759,-1.5));
#646=CARTESIAN_POINT('',(-8.00936560668009,-5.98749217771847,-1.5));
#647=CARTESIAN_POINT('',(-0.499999999995737,-5.98749217771846,1.25607396694702E-15));
#648=CARTESIAN_POINT('',(-0.499999999995737,-5.98749217771846,1.5));
#649=CARTESIAN_POINT('',(-0.499999999995737,-5.98749217771846,-1.5));
#650=CARTESIAN_POINT('',(0.50000000000415,-5.98749217771846,1.5));
#651=CARTESIAN_POINT('',(8.00936560674842,-5.98749217771846,1.5));
#652=CARTESIAN_POINT('',(0.500000000004263,-5.98749217771846,6.2803698347351E-16));
#653=CARTESIAN_POINT('',(0.500000000004263,-5.98749217771846,1.5));
#654=CARTESIAN_POINT('',(0.500000000004263,-5.98749217771846,-1.5));
#655=CARTESIAN_POINT('',(8.0093656067412,-5.9874921776854,1.5));
#656=CARTESIAN_POINT('',(7.88619657232709,-6.15225328279829,1.50000000000363));
#657=CARTESIAN_POINT('',(7.75752734819963,-6.31351238315837,1.47289048665849));
#658=CARTESIAN_POINT('',(7.50019699427583,-6.61714297540377,1.37082064603105));
#659=CARTESIAN_POINT('',(7.36981894190677,-6.76152405132485,1.29523609862971));
#660=CARTESIAN_POINT('',(7.24568837310812,-6.8920243760502,1.19658744025714));
#661=CARTESIAN_POINT('',(7.09269162481968,-7.0528721472865,1.07499834177733));
#662=CARTESIAN_POINT('',(6.94249535837724,-7.1990789092557,0.91297616825137));
#663=CARTESIAN_POINT('',(6.70853062492085,-7.41767539552012,0.508672928466249));
#664=CARTESIAN_POINT('',(6.62853384157057,-7.48749217771846,0.265712555074903));
#665=CARTESIAN_POINT('',(6.62853384157057,-7.48749217771846,2.66453525910038E-15));
#666=CARTESIAN_POINT('',(6.62853384157057,-7.48749217771846,-0.265712555074882));
#667=CARTESIAN_POINT('',(6.70853062492085,-7.41767539552011,-0.508672928466253));
#668=CARTESIAN_POINT('',(6.94249535837724,-7.19907890925573,-0.912976168251305));
#669=CARTESIAN_POINT('',(7.09269162481985,-7.05287214728644,-1.07499834177737));
#670=CARTESIAN_POINT('',(7.24568837310818,-6.8920243760502,-1.19658744025714));
#671=CARTESIAN_POINT('',(7.36981894190671,-6.76152405132498,-1.29523609862961));
#672=CARTESIAN_POINT('',(7.500196994276,-6.61714297540362,-1.3708206460311));
#673=CARTESIAN_POINT('',(7.75752734819093,-6.31351238316864,-1.47289048665503));
#674=CARTESIAN_POINT('',(7.88619657230976,-6.15225328281988,-1.5));
#675=CARTESIAN_POINT('',(8.00936560671636,-5.9874921777185,-1.5));
#676=CARTESIAN_POINT('',(0.,0.,0.));
ENDSEC;
END-ISO-10303-21;
