ISO-10303-21;
HEADER;
/* Generated by software containing ST-Developer
 * from STEP Tools, Inc. (www.steptools.com) 
 */
/* OPTION: using custom schema-name function */

FILE_DESCRIPTION(
/* description */ (''),
/* implementation_level */ '2;1');

FILE_NAME(
/* name */ 'node_SK6_support',
/* time_stamp */ '2025-11-18T13:48:06+08:00',
/* author */ (''),
/* organization */ (''),
/* preprocessor_version */ 'ST-DEVELOPER v19.2',
/* originating_system */ 'Rhino 8.7',
/* authorisation */ '');

FILE_SCHEMA (('CONFIG_CONTROL_DESIGN'));
ENDSEC;

DATA;
#10=SHAPE_REPRESENTATION_RELATIONSHIP('','',#522,#12);
#11=MANIFOLD_SOLID_BREP('brep_1',#13);
#12=ADVANCED_BREP_SHAPE_REPRESENTATION('brep_rep_0',(#11,#567),#521);
#13=CLOSED_SHELL('',(#22,#23,#24,#25,#26,#27,#28,#29,#30,#31,#32,#33,#34,
#35,#36,#37,#38,#39,#40,#41,#42,#43,#44));
#14=FACE_BOUND('',#70,.T.);
#15=FACE_BOUND('',#73,.T.);
#16=FACE_BOUND('',#75,.T.);
#17=FACE_BOUND('',#78,.T.);
#18=FACE_BOUND('',#79,.T.);
#19=FACE_BOUND('',#82,.T.);
#20=FACE_BOUND('',#86,.T.);
#21=FACE_BOUND('',#90,.T.);
#22=ADVANCED_FACE('',(#45),#423,.T.);
#23=ADVANCED_FACE('',(#46,#14),#424,.T.);
#24=ADVANCED_FACE('',(#47),#425,.T.);
#25=ADVANCED_FACE('',(#48,#15),#426,.T.);
#26=ADVANCED_FACE('',(#49,#16),#427,.T.);
#27=ADVANCED_FACE('',(#50),#428,.T.);
#28=ADVANCED_FACE('',(#51,#17,#18),#429,.T.);
#29=ADVANCED_FACE('',(#52),#430,.T.);
#30=ADVANCED_FACE('',(#53,#19),#431,.T.);
#31=ADVANCED_FACE('',(#54),#413,.F.);
#32=ADVANCED_FACE('',(#55),#432,.T.);
#33=ADVANCED_FACE('',(#56,#20),#433,.T.);
#34=ADVANCED_FACE('',(#57),#434,.T.);
#35=ADVANCED_FACE('',(#58),#414,.F.);
#36=ADVANCED_FACE('',(#59,#21),#435,.T.);
#37=ADVANCED_FACE('',(#60),#415,.F.);
#38=ADVANCED_FACE('',(#61),#416,.F.);
#39=ADVANCED_FACE('',(#62),#417,.F.);
#40=ADVANCED_FACE('',(#63),#418,.F.);
#41=ADVANCED_FACE('',(#64),#419,.F.);
#42=ADVANCED_FACE('',(#65),#420,.F.);
#43=ADVANCED_FACE('',(#66),#421,.F.);
#44=ADVANCED_FACE('',(#67),#422,.F.);
#45=FACE_OUTER_BOUND('',#68,.T.);
#46=FACE_OUTER_BOUND('',#69,.T.);
#47=FACE_OUTER_BOUND('',#71,.T.);
#48=FACE_OUTER_BOUND('',#72,.T.);
#49=FACE_OUTER_BOUND('',#74,.T.);
#50=FACE_OUTER_BOUND('',#76,.T.);
#51=FACE_OUTER_BOUND('',#77,.T.);
#52=FACE_OUTER_BOUND('',#80,.T.);
#53=FACE_OUTER_BOUND('',#81,.T.);
#54=FACE_OUTER_BOUND('',#83,.T.);
#55=FACE_OUTER_BOUND('',#84,.T.);
#56=FACE_OUTER_BOUND('',#85,.T.);
#57=FACE_OUTER_BOUND('',#87,.T.);
#58=FACE_OUTER_BOUND('',#88,.T.);
#59=FACE_OUTER_BOUND('',#89,.T.);
#60=FACE_OUTER_BOUND('',#91,.T.);
#61=FACE_OUTER_BOUND('',#92,.T.);
#62=FACE_OUTER_BOUND('',#93,.T.);
#63=FACE_OUTER_BOUND('',#94,.T.);
#64=FACE_OUTER_BOUND('',#95,.T.);
#65=FACE_OUTER_BOUND('',#96,.T.);
#66=FACE_OUTER_BOUND('',#97,.T.);
#67=FACE_OUTER_BOUND('',#98,.T.);
#68=EDGE_LOOP('',(#99,#100,#101,#102,#103,#104,#105,#106,#107,#108,#109,
#110,#111));
#69=EDGE_LOOP('',(#112,#113,#114,#115));
#70=EDGE_LOOP('',(#116,#117));
#71=EDGE_LOOP('',(#118,#119,#120,#121));
#72=EDGE_LOOP('',(#122,#123,#124,#125));
#73=EDGE_LOOP('',(#126,#127));
#74=EDGE_LOOP('',(#128,#129,#130,#131));
#75=EDGE_LOOP('',(#132,#133));
#76=EDGE_LOOP('',(#134,#135,#136,#137));
#77=EDGE_LOOP('',(#138,#139,#140,#141));
#78=EDGE_LOOP('',(#142,#143));
#79=EDGE_LOOP('',(#144,#145));
#80=EDGE_LOOP('',(#146,#147,#148,#149));
#81=EDGE_LOOP('',(#150,#151,#152,#153));
#82=EDGE_LOOP('',(#154,#155));
#83=EDGE_LOOP('',(#156,#157,#158,#159));
#84=EDGE_LOOP('',(#160,#161,#162,#163,#164,#165,#166,#167,#168,#169,#170,
#171,#172));
#85=EDGE_LOOP('',(#173,#174,#175,#176));
#86=EDGE_LOOP('',(#177,#178));
#87=EDGE_LOOP('',(#179,#180,#181,#182));
#88=EDGE_LOOP('',(#183,#184,#185,#186));
#89=EDGE_LOOP('',(#187,#188,#189,#190));
#90=EDGE_LOOP('',(#191,#192));
#91=EDGE_LOOP('',(#193,#194,#195,#196));
#92=EDGE_LOOP('',(#197,#198,#199,#200));
#93=EDGE_LOOP('',(#201,#202,#203,#204));
#94=EDGE_LOOP('',(#205,#206,#207,#208));
#95=EDGE_LOOP('',(#209,#210,#211,#212));
#96=EDGE_LOOP('',(#213,#214,#215,#216));
#97=EDGE_LOOP('',(#217,#218,#219,#220));
#98=EDGE_LOOP('',(#221,#222,#223,#224));
#99=ORIENTED_EDGE('',*,*,#253,.T.);
#100=ORIENTED_EDGE('',*,*,#233,.F.);
#101=ORIENTED_EDGE('',*,*,#261,.F.);
#102=ORIENTED_EDGE('',*,*,#252,.T.);
#103=ORIENTED_EDGE('',*,*,#260,.T.);
#104=ORIENTED_EDGE('',*,*,#227,.T.);
#105=ORIENTED_EDGE('',*,*,#228,.T.);
#106=ORIENTED_EDGE('',*,*,#229,.T.);
#107=ORIENTED_EDGE('',*,*,#230,.T.);
#108=ORIENTED_EDGE('',*,*,#231,.T.);
#109=ORIENTED_EDGE('',*,*,#232,.T.);
#110=ORIENTED_EDGE('',*,*,#225,.T.);
#111=ORIENTED_EDGE('',*,*,#226,.T.);
#112=ORIENTED_EDGE('',*,*,#225,.F.);
#113=ORIENTED_EDGE('',*,*,#234,.T.);
#114=ORIENTED_EDGE('',*,*,#235,.T.);
#115=ORIENTED_EDGE('',*,*,#236,.T.);
#116=ORIENTED_EDGE('',*,*,#272,.T.);
#117=ORIENTED_EDGE('',*,*,#283,.T.);
#118=ORIENTED_EDGE('',*,*,#255,.T.);
#119=ORIENTED_EDGE('',*,*,#226,.F.);
#120=ORIENTED_EDGE('',*,*,#236,.F.);
#121=ORIENTED_EDGE('',*,*,#237,.T.);
#122=ORIENTED_EDGE('',*,*,#227,.F.);
#123=ORIENTED_EDGE('',*,*,#238,.F.);
#124=ORIENTED_EDGE('',*,*,#239,.T.);
#125=ORIENTED_EDGE('',*,*,#240,.T.);
#126=ORIENTED_EDGE('',*,*,#286,.F.);
#127=ORIENTED_EDGE('',*,*,#270,.F.);
#128=ORIENTED_EDGE('',*,*,#228,.F.);
#129=ORIENTED_EDGE('',*,*,#240,.F.);
#130=ORIENTED_EDGE('',*,*,#241,.T.);
#131=ORIENTED_EDGE('',*,*,#242,.T.);
#132=ORIENTED_EDGE('',*,*,#266,.T.);
#133=ORIENTED_EDGE('',*,*,#278,.T.);
#134=ORIENTED_EDGE('',*,*,#229,.F.);
#135=ORIENTED_EDGE('',*,*,#242,.F.);
#136=ORIENTED_EDGE('',*,*,#243,.T.);
#137=ORIENTED_EDGE('',*,*,#244,.T.);
#138=ORIENTED_EDGE('',*,*,#230,.F.);
#139=ORIENTED_EDGE('',*,*,#244,.F.);
#140=ORIENTED_EDGE('',*,*,#245,.T.);
#141=ORIENTED_EDGE('',*,*,#246,.T.);
#142=ORIENTED_EDGE('',*,*,#277,.F.);
#143=ORIENTED_EDGE('',*,*,#264,.F.);
#144=ORIENTED_EDGE('',*,*,#280,.F.);
#145=ORIENTED_EDGE('',*,*,#267,.F.);
#146=ORIENTED_EDGE('',*,*,#231,.F.);
#147=ORIENTED_EDGE('',*,*,#246,.F.);
#148=ORIENTED_EDGE('',*,*,#247,.T.);
#149=ORIENTED_EDGE('',*,*,#248,.T.);
#150=ORIENTED_EDGE('',*,*,#232,.F.);
#151=ORIENTED_EDGE('',*,*,#248,.F.);
#152=ORIENTED_EDGE('',*,*,#249,.T.);
#153=ORIENTED_EDGE('',*,*,#234,.F.);
#154=ORIENTED_EDGE('',*,*,#269,.T.);
#155=ORIENTED_EDGE('',*,*,#281,.T.);
#156=ORIENTED_EDGE('',*,*,#257,.T.);
#157=ORIENTED_EDGE('',*,*,#263,.T.);
#158=ORIENTED_EDGE('',*,*,#250,.F.);
#159=ORIENTED_EDGE('',*,*,#233,.T.);
#160=ORIENTED_EDGE('',*,*,#237,.F.);
#161=ORIENTED_EDGE('',*,*,#235,.F.);
#162=ORIENTED_EDGE('',*,*,#249,.F.);
#163=ORIENTED_EDGE('',*,*,#247,.F.);
#164=ORIENTED_EDGE('',*,*,#245,.F.);
#165=ORIENTED_EDGE('',*,*,#243,.F.);
#166=ORIENTED_EDGE('',*,*,#241,.F.);
#167=ORIENTED_EDGE('',*,*,#239,.F.);
#168=ORIENTED_EDGE('',*,*,#262,.F.);
#169=ORIENTED_EDGE('',*,*,#258,.F.);
#170=ORIENTED_EDGE('',*,*,#251,.F.);
#171=ORIENTED_EDGE('',*,*,#263,.F.);
#172=ORIENTED_EDGE('',*,*,#259,.F.);
#173=ORIENTED_EDGE('',*,*,#255,.F.);
#174=ORIENTED_EDGE('',*,*,#259,.T.);
#175=ORIENTED_EDGE('',*,*,#257,.F.);
#176=ORIENTED_EDGE('',*,*,#253,.F.);
#177=ORIENTED_EDGE('',*,*,#284,.F.);
#178=ORIENTED_EDGE('',*,*,#273,.F.);
#179=ORIENTED_EDGE('',*,*,#254,.T.);
#180=ORIENTED_EDGE('',*,*,#262,.T.);
#181=ORIENTED_EDGE('',*,*,#238,.T.);
#182=ORIENTED_EDGE('',*,*,#260,.F.);
#183=ORIENTED_EDGE('',*,*,#256,.T.);
#184=ORIENTED_EDGE('',*,*,#261,.T.);
#185=ORIENTED_EDGE('',*,*,#250,.T.);
#186=ORIENTED_EDGE('',*,*,#251,.T.);
#187=ORIENTED_EDGE('',*,*,#258,.T.);
#188=ORIENTED_EDGE('',*,*,#254,.F.);
#189=ORIENTED_EDGE('',*,*,#252,.F.);
#190=ORIENTED_EDGE('',*,*,#256,.F.);
#191=ORIENTED_EDGE('',*,*,#287,.F.);
#192=ORIENTED_EDGE('',*,*,#274,.F.);
#193=ORIENTED_EDGE('',*,*,#277,.T.);
#194=ORIENTED_EDGE('',*,*,#265,.T.);
#195=ORIENTED_EDGE('',*,*,#278,.F.);
#196=ORIENTED_EDGE('',*,*,#276,.F.);
#197=ORIENTED_EDGE('',*,*,#280,.T.);
#198=ORIENTED_EDGE('',*,*,#268,.T.);
#199=ORIENTED_EDGE('',*,*,#281,.F.);
#200=ORIENTED_EDGE('',*,*,#279,.F.);
#201=ORIENTED_EDGE('',*,*,#284,.T.);
#202=ORIENTED_EDGE('',*,*,#275,.T.);
#203=ORIENTED_EDGE('',*,*,#283,.F.);
#204=ORIENTED_EDGE('',*,*,#282,.F.);
#205=ORIENTED_EDGE('',*,*,#286,.T.);
#206=ORIENTED_EDGE('',*,*,#271,.T.);
#207=ORIENTED_EDGE('',*,*,#274,.T.);
#208=ORIENTED_EDGE('',*,*,#285,.F.);
#209=ORIENTED_EDGE('',*,*,#276,.T.);
#210=ORIENTED_EDGE('',*,*,#266,.F.);
#211=ORIENTED_EDGE('',*,*,#265,.F.);
#212=ORIENTED_EDGE('',*,*,#264,.T.);
#213=ORIENTED_EDGE('',*,*,#279,.T.);
#214=ORIENTED_EDGE('',*,*,#269,.F.);
#215=ORIENTED_EDGE('',*,*,#268,.F.);
#216=ORIENTED_EDGE('',*,*,#267,.T.);
#217=ORIENTED_EDGE('',*,*,#282,.T.);
#218=ORIENTED_EDGE('',*,*,#272,.F.);
#219=ORIENTED_EDGE('',*,*,#275,.F.);
#220=ORIENTED_EDGE('',*,*,#273,.T.);
#221=ORIENTED_EDGE('',*,*,#285,.T.);
#222=ORIENTED_EDGE('',*,*,#287,.T.);
#223=ORIENTED_EDGE('',*,*,#271,.F.);
#224=ORIENTED_EDGE('',*,*,#270,.T.);
#225=EDGE_CURVE('',#371,#372,#328,.T.);
#226=EDGE_CURVE('',#372,#391,#329,.T.);
#227=EDGE_CURVE('',#373,#374,#330,.T.);
#228=EDGE_CURVE('',#374,#375,#331,.T.);
#229=EDGE_CURVE('',#375,#376,#332,.T.);
#230=EDGE_CURVE('',#376,#377,#333,.T.);
#231=EDGE_CURVE('',#377,#378,#334,.T.);
#232=EDGE_CURVE('',#378,#371,#335,.T.);
#233=EDGE_CURVE('',#379,#392,#288,.T.);
#234=EDGE_CURVE('',#371,#380,#336,.T.);
#235=EDGE_CURVE('',#380,#381,#337,.T.);
#236=EDGE_CURVE('',#381,#372,#338,.T.);
#237=EDGE_CURVE('',#381,#394,#339,.T.);
#238=EDGE_CURVE('',#382,#373,#340,.T.);
#239=EDGE_CURVE('',#382,#383,#341,.T.);
#240=EDGE_CURVE('',#383,#374,#342,.T.);
#241=EDGE_CURVE('',#383,#384,#343,.T.);
#242=EDGE_CURVE('',#384,#375,#344,.T.);
#243=EDGE_CURVE('',#384,#385,#345,.T.);
#244=EDGE_CURVE('',#385,#376,#346,.T.);
#245=EDGE_CURVE('',#385,#386,#347,.T.);
#246=EDGE_CURVE('',#386,#377,#348,.T.);
#247=EDGE_CURVE('',#386,#387,#349,.T.);
#248=EDGE_CURVE('',#387,#378,#350,.T.);
#249=EDGE_CURVE('',#387,#380,#351,.T.);
#250=EDGE_CURVE('',#379,#388,#352,.T.);
#251=EDGE_CURVE('',#388,#395,#289,.T.);
#252=EDGE_CURVE('',#389,#390,#353,.T.);
#253=EDGE_CURVE('',#391,#392,#354,.T.);
#254=EDGE_CURVE('',#390,#393,#355,.T.);
#255=EDGE_CURVE('',#394,#391,#356,.T.);
#256=EDGE_CURVE('',#395,#389,#357,.T.);
#257=EDGE_CURVE('',#392,#396,#358,.T.);
#258=EDGE_CURVE('',#395,#393,#359,.T.);
#259=EDGE_CURVE('',#394,#396,#360,.T.);
#260=EDGE_CURVE('',#390,#373,#361,.T.);
#261=EDGE_CURVE('',#389,#379,#290,.T.);
#262=EDGE_CURVE('',#393,#382,#362,.T.);
#263=EDGE_CURVE('',#396,#388,#291,.T.);
#264=EDGE_CURVE('',#398,#405,#292,.T.);
#265=EDGE_CURVE('',#398,#397,#363,.T.);
#266=EDGE_CURVE('',#397,#406,#293,.T.);
#267=EDGE_CURVE('',#399,#407,#294,.T.);
#268=EDGE_CURVE('',#399,#400,#364,.T.);
#269=EDGE_CURVE('',#400,#408,#295,.T.);
#270=EDGE_CURVE('',#402,#411,#296,.T.);
#271=EDGE_CURVE('',#402,#404,#365,.T.);
#272=EDGE_CURVE('',#401,#410,#297,.T.);
#273=EDGE_CURVE('',#403,#409,#298,.T.);
#274=EDGE_CURVE('',#404,#412,#299,.T.);
#275=EDGE_CURVE('',#403,#401,#366,.T.);
#276=EDGE_CURVE('',#405,#406,#367,.T.);
#277=EDGE_CURVE('',#405,#398,#300,.T.);
#278=EDGE_CURVE('',#406,#397,#301,.T.);
#279=EDGE_CURVE('',#407,#408,#368,.T.);
#280=EDGE_CURVE('',#407,#399,#302,.T.);
#281=EDGE_CURVE('',#408,#400,#303,.T.);
#282=EDGE_CURVE('',#409,#410,#369,.T.);
#283=EDGE_CURVE('',#410,#401,#304,.T.);
#284=EDGE_CURVE('',#409,#403,#305,.T.);
#285=EDGE_CURVE('',#411,#412,#370,.T.);
#286=EDGE_CURVE('',#411,#402,#306,.T.);
#287=EDGE_CURVE('',#412,#404,#307,.T.);
#288=TRIMMED_CURVE($,#308,(#718),(#719),.T.,.CARTESIAN.);
#289=TRIMMED_CURVE($,#309,(#755),(#756),.T.,.CARTESIAN.);
#290=TRIMMED_CURVE($,#310,(#776),(#777),.T.,.CARTESIAN.);
#291=TRIMMED_CURVE($,#311,(#781),(#782),.T.,.CARTESIAN.);
#292=TRIMMED_CURVE($,#312,(#784),(#785),.T.,.CARTESIAN.);
#293=TRIMMED_CURVE($,#313,(#789),(#790),.T.,.CARTESIAN.);
#294=TRIMMED_CURVE($,#314,(#792),(#793),.T.,.CARTESIAN.);
#295=TRIMMED_CURVE($,#315,(#797),(#798),.T.,.CARTESIAN.);
#296=TRIMMED_CURVE($,#316,(#800),(#801),.T.,.CARTESIAN.);
#297=TRIMMED_CURVE($,#317,(#805),(#806),.T.,.CARTESIAN.);
#298=TRIMMED_CURVE($,#318,(#808),(#809),.T.,.CARTESIAN.);
#299=TRIMMED_CURVE($,#319,(#811),(#812),.T.,.CARTESIAN.);
#300=TRIMMED_CURVE($,#320,(#818),(#819),.T.,.CARTESIAN.);
#301=TRIMMED_CURVE($,#321,(#821),(#822),.T.,.CARTESIAN.);
#302=TRIMMED_CURVE($,#322,(#826),(#827),.T.,.CARTESIAN.);
#303=TRIMMED_CURVE($,#323,(#829),(#830),.T.,.CARTESIAN.);
#304=TRIMMED_CURVE($,#324,(#834),(#835),.T.,.CARTESIAN.);
#305=TRIMMED_CURVE($,#325,(#837),(#838),.T.,.CARTESIAN.);
#306=TRIMMED_CURVE($,#326,(#842),(#843),.T.,.CARTESIAN.);
#307=TRIMMED_CURVE($,#327,(#845),(#846),.T.,.CARTESIAN.);
#308=CIRCLE('',#547,3.00000000000016);
#309=CIRCLE('',#548,3.);
#310=CIRCLE('',#549,3.00000000000003);
#311=CIRCLE('',#550,3.0000000000001);
#312=CIRCLE('',#551,2.75);
#313=CIRCLE('',#552,2.75);
#314=CIRCLE('',#553,2.75);
#315=CIRCLE('',#554,2.75);
#316=CIRCLE('',#555,2.);
#317=CIRCLE('',#556,2.);
#318=CIRCLE('',#557,2.);
#319=CIRCLE('',#558,2.);
#320=CIRCLE('',#559,2.75);
#321=CIRCLE('',#560,2.75);
#322=CIRCLE('',#561,2.75);
#323=CIRCLE('',#562,2.75);
#324=CIRCLE('',#563,2.);
#325=CIRCLE('',#564,2.);
#326=CIRCLE('',#565,2.);
#327=CIRCLE('',#566,2.);
#328=B_SPLINE_CURVE_WITH_KNOTS('',1,(#701,#702),.UNSPECIFIED.,.F.,.F.,(2,
2),(0.,26.8),.UNSPECIFIED.);
#329=B_SPLINE_CURVE_WITH_KNOTS('',1,(#703,#704),.UNSPECIFIED.,.F.,.F.,(2,
2),(0.,8.5),.UNSPECIFIED.);
#330=B_SPLINE_CURVE_WITH_KNOTS('',1,(#705,#706),.UNSPECIFIED.,.F.,.F.,(2,
2),(0.,26.8),.UNSPECIFIED.);
#331=B_SPLINE_CURVE_WITH_KNOTS('',1,(#707,#708),.UNSPECIFIED.,.F.,.F.,(2,
2),(0.,12.),.UNSPECIFIED.);
#332=B_SPLINE_CURVE_WITH_KNOTS('',1,(#709,#710),.UNSPECIFIED.,.F.,.F.,(2,
2),(0.,6.),.UNSPECIFIED.);
#333=B_SPLINE_CURVE_WITH_KNOTS('',1,(#711,#712),.UNSPECIFIED.,.F.,.F.,(2,
2),(0.,42.),.UNSPECIFIED.);
#334=B_SPLINE_CURVE_WITH_KNOTS('',1,(#713,#714),.UNSPECIFIED.,.F.,.F.,(2,
2),(0.,6.),.UNSPECIFIED.);
#335=B_SPLINE_CURVE_WITH_KNOTS('',1,(#715,#716),.UNSPECIFIED.,.F.,.F.,(2,
2),(0.,12.),.UNSPECIFIED.);
#336=B_SPLINE_CURVE_WITH_KNOTS('',1,(#720,#721),.UNSPECIFIED.,.F.,.F.,(2,
2),(0.,14.),.UNSPECIFIED.);
#337=B_SPLINE_CURVE_WITH_KNOTS('',1,(#722,#723),.UNSPECIFIED.,.F.,.F.,(2,
2),(0.,26.8),.UNSPECIFIED.);
#338=B_SPLINE_CURVE_WITH_KNOTS('',1,(#724,#725),.UNSPECIFIED.,.F.,.F.,(2,
2),(-14.,0.),.UNSPECIFIED.);
#339=B_SPLINE_CURVE_WITH_KNOTS('',1,(#726,#727),.UNSPECIFIED.,.F.,.F.,(2,
2),(0.,8.5),.UNSPECIFIED.);
#340=B_SPLINE_CURVE_WITH_KNOTS('',1,(#728,#729),.UNSPECIFIED.,.F.,.F.,(2,
2),(-14.,0.),.UNSPECIFIED.);
#341=B_SPLINE_CURVE_WITH_KNOTS('',1,(#730,#731),.UNSPECIFIED.,.F.,.F.,(2,
2),(0.,26.8),.UNSPECIFIED.);
#342=B_SPLINE_CURVE_WITH_KNOTS('',1,(#732,#733),.UNSPECIFIED.,.F.,.F.,(2,
2),(-14.,0.),.UNSPECIFIED.);
#343=B_SPLINE_CURVE_WITH_KNOTS('',1,(#734,#735),.UNSPECIFIED.,.F.,.F.,(2,
2),(0.,12.),.UNSPECIFIED.);
#344=B_SPLINE_CURVE_WITH_KNOTS('',1,(#736,#737),.UNSPECIFIED.,.F.,.F.,(2,
2),(-14.,0.),.UNSPECIFIED.);
#345=B_SPLINE_CURVE_WITH_KNOTS('',1,(#738,#739),.UNSPECIFIED.,.F.,.F.,(2,
2),(0.,6.),.UNSPECIFIED.);
#346=B_SPLINE_CURVE_WITH_KNOTS('',1,(#740,#741),.UNSPECIFIED.,.F.,.F.,(2,
2),(-14.,0.),.UNSPECIFIED.);
#347=B_SPLINE_CURVE_WITH_KNOTS('',1,(#742,#743),.UNSPECIFIED.,.F.,.F.,(2,
2),(0.,42.),.UNSPECIFIED.);
#348=B_SPLINE_CURVE_WITH_KNOTS('',1,(#744,#745),.UNSPECIFIED.,.F.,.F.,(2,
2),(-14.,0.),.UNSPECIFIED.);
#349=B_SPLINE_CURVE_WITH_KNOTS('',1,(#746,#747),.UNSPECIFIED.,.F.,.F.,(2,
2),(0.,6.),.UNSPECIFIED.);
#350=B_SPLINE_CURVE_WITH_KNOTS('',1,(#748,#749),.UNSPECIFIED.,.F.,.F.,(2,
2),(-14.,0.),.UNSPECIFIED.);
#351=B_SPLINE_CURVE_WITH_KNOTS('',1,(#750,#751),.UNSPECIFIED.,.F.,.F.,(2,
2),(0.,12.),.UNSPECIFIED.);
#352=B_SPLINE_CURVE_WITH_KNOTS('',1,(#752,#753),.UNSPECIFIED.,.F.,.F.,(2,
2),(0.,14.),.UNSPECIFIED.);
#353=B_SPLINE_CURVE_WITH_KNOTS('',1,(#757,#758),.UNSPECIFIED.,.F.,.F.,(2,
2),(-9.84196010843687,0.),.UNSPECIFIED.);
#354=B_SPLINE_CURVE_WITH_KNOTS('',1,(#759,#760),.UNSPECIFIED.,.F.,.F.,(2,
2),(0.,9.84196010846301),.UNSPECIFIED.);
#355=B_SPLINE_CURVE_WITH_KNOTS('',1,(#761,#762),.UNSPECIFIED.,.F.,.F.,(2,
2),(3.,17.),.UNSPECIFIED.);
#356=B_SPLINE_CURVE_WITH_KNOTS('',1,(#763,#764),.UNSPECIFIED.,.F.,.F.,(2,
2),(-17.,-3.),.UNSPECIFIED.);
#357=B_SPLINE_CURVE_WITH_KNOTS('',1,(#765,#766),.UNSPECIFIED.,.F.,.F.,(2,
2),(-14.,0.),.UNSPECIFIED.);
#358=B_SPLINE_CURVE_WITH_KNOTS('',1,(#767,#768),.UNSPECIFIED.,.F.,.F.,(2,
2),(0.,14.),.UNSPECIFIED.);
#359=B_SPLINE_CURVE_WITH_KNOTS('',1,(#769,#770),.UNSPECIFIED.,.F.,.F.,(2,
2),(16.9580398915631,26.8),.UNSPECIFIED.);
#360=B_SPLINE_CURVE_WITH_KNOTS('',1,(#771,#772),.UNSPECIFIED.,.F.,.F.,(2,
2),(-26.8,-16.958039891537),.UNSPECIFIED.);
#361=B_SPLINE_CURVE_WITH_KNOTS('',1,(#773,#774),.UNSPECIFIED.,.F.,.F.,(2,
2),(9.5,18.),.UNSPECIFIED.);
#362=B_SPLINE_CURVE_WITH_KNOTS('',1,(#778,#779),.UNSPECIFIED.,.F.,.F.,(2,
2),(9.5,18.),.UNSPECIFIED.);
#363=B_SPLINE_CURVE_WITH_KNOTS('',1,(#786,#787),.UNSPECIFIED.,.F.,.F.,(2,
2),(0.,6.00000000000001),.UNSPECIFIED.);
#364=B_SPLINE_CURVE_WITH_KNOTS('',1,(#794,#795),.UNSPECIFIED.,.F.,.F.,(2,
2),(0.,6.),.UNSPECIFIED.);
#365=B_SPLINE_CURVE_WITH_KNOTS('',1,(#802,#803),.UNSPECIFIED.,.F.,.F.,(2,
2),(0.,8.49999999999998),.UNSPECIFIED.);
#366=B_SPLINE_CURVE_WITH_KNOTS('',1,(#813,#814),.UNSPECIFIED.,.F.,.F.,(2,
2),(9.49999999999998,18.),.UNSPECIFIED.);
#367=B_SPLINE_CURVE_WITH_KNOTS('',1,(#815,#816),.UNSPECIFIED.,.F.,.F.,(2,
2),(0.,6.00000000000001),.UNSPECIFIED.);
#368=B_SPLINE_CURVE_WITH_KNOTS('',1,(#823,#824),.UNSPECIFIED.,.F.,.F.,(2,
2),(0.,6.),.UNSPECIFIED.);
#369=B_SPLINE_CURVE_WITH_KNOTS('',1,(#831,#832),.UNSPECIFIED.,.F.,.F.,(2,
2),(9.5,18.),.UNSPECIFIED.);
#370=B_SPLINE_CURVE_WITH_KNOTS('',1,(#839,#840),.UNSPECIFIED.,.F.,.F.,(2,
2),(0.,8.5),.UNSPECIFIED.);
#371=VERTEX_POINT('',#659);
#372=VERTEX_POINT('',#660);
#373=VERTEX_POINT('',#661);
#374=VERTEX_POINT('',#662);
#375=VERTEX_POINT('',#663);
#376=VERTEX_POINT('',#664);
#377=VERTEX_POINT('',#665);
#378=VERTEX_POINT('',#666);
#379=VERTEX_POINT('',#667);
#380=VERTEX_POINT('',#668);
#381=VERTEX_POINT('',#669);
#382=VERTEX_POINT('',#670);
#383=VERTEX_POINT('',#671);
#384=VERTEX_POINT('',#672);
#385=VERTEX_POINT('',#673);
#386=VERTEX_POINT('',#674);
#387=VERTEX_POINT('',#675);
#388=VERTEX_POINT('',#676);
#389=VERTEX_POINT('',#677);
#390=VERTEX_POINT('',#678);
#391=VERTEX_POINT('',#679);
#392=VERTEX_POINT('',#680);
#393=VERTEX_POINT('',#681);
#394=VERTEX_POINT('',#682);
#395=VERTEX_POINT('',#683);
#396=VERTEX_POINT('',#684);
#397=VERTEX_POINT('',#685);
#398=VERTEX_POINT('',#686);
#399=VERTEX_POINT('',#687);
#400=VERTEX_POINT('',#688);
#401=VERTEX_POINT('',#689);
#402=VERTEX_POINT('',#690);
#403=VERTEX_POINT('',#691);
#404=VERTEX_POINT('',#692);
#405=VERTEX_POINT('',#693);
#406=VERTEX_POINT('',#694);
#407=VERTEX_POINT('',#695);
#408=VERTEX_POINT('',#696);
#409=VERTEX_POINT('',#697);
#410=VERTEX_POINT('',#698);
#411=VERTEX_POINT('',#699);
#412=VERTEX_POINT('',#700);
#413=CYLINDRICAL_SURFACE('',#533,3.);
#414=CYLINDRICAL_SURFACE('',#537,3.);
#415=CYLINDRICAL_SURFACE('',#539,2.75);
#416=CYLINDRICAL_SURFACE('',#540,2.75);
#417=CYLINDRICAL_SURFACE('',#541,2.);
#418=CYLINDRICAL_SURFACE('',#542,2.);
#419=CYLINDRICAL_SURFACE('',#543,2.75);
#420=CYLINDRICAL_SURFACE('',#544,2.75);
#421=CYLINDRICAL_SURFACE('',#545,2.);
#422=CYLINDRICAL_SURFACE('',#546,2.);
#423=PLANE('',#524);
#424=PLANE('',#525);
#425=PLANE('',#526);
#426=PLANE('',#527);
#427=PLANE('',#528);
#428=PLANE('',#529);
#429=PLANE('',#530);
#430=PLANE('',#531);
#431=PLANE('',#532);
#432=PLANE('',#534);
#433=PLANE('',#535);
#434=PLANE('',#536);
#435=PLANE('',#538);
#436=SHAPE_DEFINITION_REPRESENTATION(#437,#522);
#437=PRODUCT_DEFINITION_SHAPE($,$,#439);
#438=PRODUCT_DEFINITION_CONTEXT('3D Mechanical Parts',#511,'design');
#439=PRODUCT_DEFINITION('A','First version',#481,#438);
#440=DATE_TIME_ROLE('classification_date');
#441=DATE_TIME_ROLE('creation_date');
#442=APPLIED_DATE_AND_TIME_ASSIGNMENT(#466,#440,(#445));
#443=APPLIED_DATE_AND_TIME_ASSIGNMENT(#468,#441,(#439));
#444=SECURITY_CLASSIFICATION_LEVEL('unclassified');
#445=SECURITY_CLASSIFICATION('A','Security for version',#444);
#446=APPLIED_SECURITY_CLASSIFICATION_ASSIGNMENT(#445,(#481));
#447=APPROVAL_ROLE('Version approval');
#448=APPROVAL_ROLE('Version Security approval');
#449=APPROVAL_ROLE('Definition approval');
#450=APPROVAL_PERSON_ORGANIZATION(#499,#475,#447);
#451=APPROVAL_PERSON_ORGANIZATION(#500,#476,#448);
#452=APPROVAL_PERSON_ORGANIZATION(#503,#477,#449);
#453=COORDINATED_UNIVERSAL_TIME_OFFSET(5,0,.BEHIND.);
#454=LOCAL_TIME(0,0,0.,#453);
#455=LOCAL_TIME(0,0,0.,#453);
#456=LOCAL_TIME(0,0,0.,#453);
#457=LOCAL_TIME(0,0,0.,#453);
#458=LOCAL_TIME(0,0,0.,#453);
#459=CALENDAR_DATE(1999,1,1);
#460=CALENDAR_DATE(1999,1,1);
#461=CALENDAR_DATE(1999,1,1);
#462=CALENDAR_DATE(1999,1,1);
#463=CALENDAR_DATE(1999,1,1);
#464=DATE_AND_TIME(#459,#454);
#465=DATE_AND_TIME(#460,#455);
#466=DATE_AND_TIME(#461,#456);
#467=DATE_AND_TIME(#462,#457);
#468=DATE_AND_TIME(#463,#458);
#469=APPROVAL_DATE_TIME(#464,#475);
#470=APPROVAL_DATE_TIME(#465,#476);
#471=APPROVAL_DATE_TIME(#467,#477);
#472=APPROVAL_STATUS('not_yet_approved');
#473=APPROVAL_STATUS('not_yet_approved');
#474=APPROVAL_STATUS('approved');
#475=APPROVAL(#472,'Version approval');
#476=APPROVAL(#473,'Version Security approval');
#477=APPROVAL(#474,'Definition approval');
#478=APPLIED_APPROVAL_ASSIGNMENT(#475,(#481));
#479=APPLIED_APPROVAL_ASSIGNMENT(#476,(#445));
#480=APPLIED_APPROVAL_ASSIGNMENT(#477,(#439));
#481=PRODUCT_DEFINITION_FORMATION_WITH_SPECIFIED_SOURCE('A',
'First version',#513,.MADE.);
#482=PERSON_AND_ORGANIZATION_ROLE('design_owner');
#483=PERSON_AND_ORGANIZATION_ROLE('creator');
#484=PERSON_AND_ORGANIZATION_ROLE('design_supplier');
#485=PERSON_AND_ORGANIZATION_ROLE('classification_officer');
#486=PERSON_AND_ORGANIZATION_ROLE('creator');
#487=ORGANIZATION('STI','lab','lab');
#488=ORGANIZATION('STI','unknown','unknown');
#489=ORGANIZATION('STI','unknown','unknown');
#490=ORGANIZATION('STI','unknown','unknown');
#491=ORGANIZATION('STI','unknown','unknown');
#492=ORGANIZATION('STI','unknown','unknown');
#493=ORGANIZATION('STI','unknown','unknown');
#494=PERSON('1','Box','vc60',$,$,$);
#495=PERSON('2','last','first',$,$,$);
#496=PERSON('3','President','Mr.',$,$,$);
#497=PERSON_AND_ORGANIZATION(#494,#487);
#498=PERSON_AND_ORGANIZATION(#495,#488);
#499=PERSON_AND_ORGANIZATION(#496,#489);
#500=PERSON_AND_ORGANIZATION(#496,#490);
#501=PERSON_AND_ORGANIZATION(#496,#491);
#502=PERSON_AND_ORGANIZATION(#495,#492);
#503=PERSON_AND_ORGANIZATION(#496,#493);
#504=APPLIED_PERSON_AND_ORGANIZATION_ASSIGNMENT(#497,#482,(#513));
#505=APPLIED_PERSON_AND_ORGANIZATION_ASSIGNMENT(#498,#483,(#481));
#506=APPLIED_PERSON_AND_ORGANIZATION_ASSIGNMENT(#498,#484,(#481));
#507=APPLIED_PERSON_AND_ORGANIZATION_ASSIGNMENT(#501,#485,(#445));
#508=APPLIED_PERSON_AND_ORGANIZATION_ASSIGNMENT(#502,#486,(#439));
#509=PRODUCT_RELATED_PRODUCT_CATEGORY('detail','detail',(#513));
#510=APPLICATION_PROTOCOL_DEFINITION('International Standard',
'config_control_design',1994,#511);
#511=APPLICATION_CONTEXT(
'configuration controlled 3d designs of mechanical parts and assemblie
s');
#512=PRODUCT_CONTEXT('3D Mechanical Parts',#511,'mechanical');
#513=PRODUCT('Document','Document','',(#512));
#514=(
LENGTH_UNIT()
NAMED_UNIT(*)
SI_UNIT(.MILLI.,.METRE.)
);
#515=(
NAMED_UNIT(*)
PLANE_ANGLE_UNIT()
SI_UNIT($,.RADIAN.)
);
#516=DIMENSIONAL_EXPONENTS(0.,0.,0.,0.,0.,0.,0.);
#517=PLANE_ANGLE_MEASURE_WITH_UNIT(PLANE_ANGLE_MEASURE(0.01745329252),#515);
#518=(
CONVERSION_BASED_UNIT('DEGREES',#517)
NAMED_UNIT(#516)
PLANE_ANGLE_UNIT()
);
#519=(
NAMED_UNIT(*)
SI_UNIT($,.STERADIAN.)
SOLID_ANGLE_UNIT()
);
#520=UNCERTAINTY_MEASURE_WITH_UNIT(LENGTH_MEASURE(0.001),#514,
'DISTANCE_ACCURACY_VALUE',
'Maximum model space distance between geometric entities at asserted c
onnectivities');
#521=(
GEOMETRIC_REPRESENTATION_CONTEXT(3)
GLOBAL_UNCERTAINTY_ASSIGNED_CONTEXT((#520))
GLOBAL_UNIT_ASSIGNED_CONTEXT((#519,#518,#514))
REPRESENTATION_CONTEXT('ID1','3D')
);
#522=SHAPE_REPRESENTATION('Document',(#523,#567),#521);
#523=AXIS2_PLACEMENT_3D($,#635,#568,#569);
#524=AXIS2_PLACEMENT_3D('',#636,#570,$);
#525=AXIS2_PLACEMENT_3D('',#637,#571,$);
#526=AXIS2_PLACEMENT_3D('',#638,#572,$);
#527=AXIS2_PLACEMENT_3D('',#639,#573,$);
#528=AXIS2_PLACEMENT_3D('',#640,#574,$);
#529=AXIS2_PLACEMENT_3D('',#641,#575,$);
#530=AXIS2_PLACEMENT_3D('',#642,#576,$);
#531=AXIS2_PLACEMENT_3D('',#643,#577,$);
#532=AXIS2_PLACEMENT_3D('',#644,#578,$);
#533=AXIS2_PLACEMENT_3D('',#645,#579,$);
#534=AXIS2_PLACEMENT_3D('',#646,#580,$);
#535=AXIS2_PLACEMENT_3D('',#647,#581,$);
#536=AXIS2_PLACEMENT_3D('',#648,#582,$);
#537=AXIS2_PLACEMENT_3D('',#649,#583,$);
#538=AXIS2_PLACEMENT_3D('',#650,#584,$);
#539=AXIS2_PLACEMENT_3D('',#651,#585,$);
#540=AXIS2_PLACEMENT_3D('',#652,#586,$);
#541=AXIS2_PLACEMENT_3D('',#653,#587,$);
#542=AXIS2_PLACEMENT_3D('',#654,#588,$);
#543=AXIS2_PLACEMENT_3D('',#655,#589,$);
#544=AXIS2_PLACEMENT_3D('',#656,#590,$);
#545=AXIS2_PLACEMENT_3D('',#657,#591,$);
#546=AXIS2_PLACEMENT_3D('',#658,#592,$);
#547=AXIS2_PLACEMENT_3D($,#717,#593,#594);
#548=AXIS2_PLACEMENT_3D($,#754,#595,#596);
#549=AXIS2_PLACEMENT_3D($,#775,#597,#598);
#550=AXIS2_PLACEMENT_3D($,#780,#599,#600);
#551=AXIS2_PLACEMENT_3D($,#783,#601,#602);
#552=AXIS2_PLACEMENT_3D($,#788,#603,#604);
#553=AXIS2_PLACEMENT_3D($,#791,#605,#606);
#554=AXIS2_PLACEMENT_3D($,#796,#607,#608);
#555=AXIS2_PLACEMENT_3D($,#799,#609,#610);
#556=AXIS2_PLACEMENT_3D($,#804,#611,#612);
#557=AXIS2_PLACEMENT_3D($,#807,#613,#614);
#558=AXIS2_PLACEMENT_3D($,#810,#615,#616);
#559=AXIS2_PLACEMENT_3D($,#817,#617,#618);
#560=AXIS2_PLACEMENT_3D($,#820,#619,#620);
#561=AXIS2_PLACEMENT_3D($,#825,#621,#622);
#562=AXIS2_PLACEMENT_3D($,#828,#623,#624);
#563=AXIS2_PLACEMENT_3D($,#833,#625,#626);
#564=AXIS2_PLACEMENT_3D($,#836,#627,#628);
#565=AXIS2_PLACEMENT_3D($,#841,#629,#630);
#566=AXIS2_PLACEMENT_3D($,#844,#631,#632);
#567=AXIS2_PLACEMENT_3D($,#847,#633,#634);
#568=DIRECTION('',(0.,0.,1.));
#569=DIRECTION('',(1.,0.,0.));
#570=DIRECTION('',(0.,0.,1.));
#571=DIRECTION('',(1.,0.,0.));
#572=DIRECTION('',(0.,1.,0.));
#573=DIRECTION('',(-1.,0.,0.));
#574=DIRECTION('',(0.,1.,0.));
#575=DIRECTION('',(-1.,0.,0.));
#576=DIRECTION('',(0.,-1.,0.));
#577=DIRECTION('',(1.,0.,0.));
#578=DIRECTION('',(0.,1.,0.));
#579=DIRECTION('',(0.,0.,1.));
#580=DIRECTION('',(0.,0.,-1.));
#581=DIRECTION('',(-1.,0.,0.));
#582=DIRECTION('',(0.,1.,0.));
#583=DIRECTION('',(0.,0.,1.));
#584=DIRECTION('',(1.,0.,0.));
#585=DIRECTION('',(0.,1.,0.));
#586=DIRECTION('',(0.,1.,0.));
#587=DIRECTION('',(1.,0.,0.));
#588=DIRECTION('',(1.,0.,0.));
#589=DIRECTION('',(0.,1.,0.));
#590=DIRECTION('',(0.,1.,0.));
#591=DIRECTION('',(1.,0.,0.));
#592=DIRECTION('',(1.,0.,0.));
#593=DIRECTION('',(-2.96059473233378E-16,3.50302292847494E-16,1.));
#594=DIRECTION('',(1.,4.36169585252839E-14,2.96059473233359E-16));
#595=DIRECTION('',(0.,0.,-1.));
#596=DIRECTION('',(1.,-1.04025743711181E-14,0.));
#597=DIRECTION('',(-1.1614293621751E-16,-1.37422175377604E-16,1.));
#598=DIRECTION('',(-0.166666666640867,0.98601329718763,0.));
#599=DIRECTION('',(3.30554883929174E-16,5.79628974715008E-16,-1.));
#600=DIRECTION('',(0.166666666692424,0.986013297178916,5.92118946466731E-16));
#601=DIRECTION('',(0.,-1.,0.));
#602=DIRECTION('',(-1.,0.,0.));
#603=DIRECTION('',(0.,-1.,0.));
#604=DIRECTION('',(-1.,0.,0.));
#605=DIRECTION('',(0.,-1.,0.));
#606=DIRECTION('',(-1.,0.,4.56754169798916E-16));
#607=DIRECTION('',(0.,-1.,0.));
#608=DIRECTION('',(-1.,0.,4.56754169798916E-16));
#609=DIRECTION('',(-1.,0.,0.));
#610=DIRECTION('',(0.,1.,0.));
#611=DIRECTION('',(-1.,0.,0.));
#612=DIRECTION('',(0.,1.,0.));
#613=DIRECTION('',(-1.,0.,0.));
#614=DIRECTION('',(0.,1.,0.));
#615=DIRECTION('',(1.,0.,0.));
#616=DIRECTION('',(0.,1.,0.));
#617=DIRECTION('',(0.,-1.,0.));
#618=DIRECTION('',(1.,0.,0.));
#619=DIRECTION('',(0.,-1.,0.));
#620=DIRECTION('',(1.,0.,0.));
#621=DIRECTION('',(0.,-1.,0.));
#622=DIRECTION('',(1.,0.,4.56754169798916E-16));
#623=DIRECTION('',(0.,-1.,0.));
#624=DIRECTION('',(1.,0.,4.56754169798916E-16));
#625=DIRECTION('',(-1.,0.,0.));
#626=DIRECTION('',(0.,-1.,0.));
#627=DIRECTION('',(-1.,0.,0.));
#628=DIRECTION('',(0.,-1.,0.));
#629=DIRECTION('',(-1.,0.,0.));
#630=DIRECTION('',(0.,-1.,0.));
#631=DIRECTION('',(1.,0.,0.));
#632=DIRECTION('',(0.,-1.,0.));
#633=DIRECTION('',(0.,0.,1.));
#634=DIRECTION('',(1.,0.,0.));
#635=CARTESIAN_POINT('',(0.,0.,0.));
#636=CARTESIAN_POINT('',(-21.4199999999227,-20.3279999999999,7.));
#637=CARTESIAN_POINT('',(9.00000000007731,12.8,7.));
#638=CARTESIAN_POINT('',(-8.99999999992269,12.8,7.));
#639=CARTESIAN_POINT('',(-8.99999999992269,-14.,7.));
#640=CARTESIAN_POINT('',(-20.9999999999227,-14.,7.));
#641=CARTESIAN_POINT('',(-20.9999999999227,-20.,7.));
#642=CARTESIAN_POINT('',(21.0000000000773,-20.,7.));
#643=CARTESIAN_POINT('',(21.0000000000773,-13.9999999999999,7.));
#644=CARTESIAN_POINT('',(9.00000000007731,-14.,7.));
#645=CARTESIAN_POINT('',(0.,4.27065148761987E-14,3.5527136788005E-15));
#646=CARTESIAN_POINT('',(-21.4199999999227,-20.3279999999999,-7.));
#647=CARTESIAN_POINT('',(0.500000000077307,12.8,10.));
#648=CARTESIAN_POINT('',(-8.99999999992269,12.8,7.));
#649=CARTESIAN_POINT('',(0.,4.27065148761987E-14,3.5527136788005E-15));
#650=CARTESIAN_POINT('',(-0.499999999922693,2.8421709430404E-14,10.));
#651=CARTESIAN_POINT('',(-15.9999999999226,5.50000000000006,0.));
#652=CARTESIAN_POINT('',(16.0000000000774,5.50000000000006,1.25607396694702E-15));
#653=CARTESIAN_POINT('',(8.00000000007731,7.80000000000005,0.));
#654=CARTESIAN_POINT('',(8.00000000007731,7.80000000000005,0.));
#655=CARTESIAN_POINT('',(-15.9999999999226,5.50000000000006,0.));
#656=CARTESIAN_POINT('',(16.0000000000774,5.50000000000006,1.25607396694702E-15));
#657=CARTESIAN_POINT('',(8.00000000007731,7.80000000000005,0.));
#658=CARTESIAN_POINT('',(8.00000000007731,7.80000000000005,0.));
#659=CARTESIAN_POINT('',(9.00000000007731,-13.9999999999999,7.));
#660=CARTESIAN_POINT('',(9.00000000007731,12.8000000000001,7.));
#661=CARTESIAN_POINT('',(-8.99999999992269,12.8000000000001,7.));
#662=CARTESIAN_POINT('',(-8.99999999992269,-13.9999999999999,7.));
#663=CARTESIAN_POINT('',(-20.9999999999227,-13.9999999999999,7.));
#664=CARTESIAN_POINT('',(-20.9999999999227,-19.9999999999999,7.));
#665=CARTESIAN_POINT('',(21.0000000000773,-19.9999999999999,7.));
#666=CARTESIAN_POINT('',(21.0000000000773,-13.9999999999999,7.));
#667=CARTESIAN_POINT('',(3.,7.105427357601E-14,7.));
#668=CARTESIAN_POINT('',(9.00000000007731,-13.9999999999999,-7.));
#669=CARTESIAN_POINT('',(9.00000000007731,12.8000000000001,-7.));
#670=CARTESIAN_POINT('',(-8.99999999992269,12.8000000000001,-7.));
#671=CARTESIAN_POINT('',(-8.99999999992269,-13.9999999999999,-7.));
#672=CARTESIAN_POINT('',(-20.9999999999227,-13.9999999999999,-7.));
#673=CARTESIAN_POINT('',(-20.9999999999227,-19.9999999999999,-7.));
#674=CARTESIAN_POINT('',(21.0000000000773,-19.9999999999999,-7.));
#675=CARTESIAN_POINT('',(21.0000000000773,-13.9999999999999,-7.));
#676=CARTESIAN_POINT('',(3.,7.105427357601E-14,-7.));
#677=CARTESIAN_POINT('',(-0.499999999922693,2.95803989156293,7.));
#678=CARTESIAN_POINT('',(-0.499999999922693,12.8000000000001,7.));
#679=CARTESIAN_POINT('',(0.500000000077307,12.8000000000001,7.));
#680=CARTESIAN_POINT('',(0.500000000077307,2.9580398915368,7.));
#681=CARTESIAN_POINT('',(-0.499999999922693,12.8000000000001,-7.));
#682=CARTESIAN_POINT('',(0.500000000077307,12.8000000000001,-7.));
#683=CARTESIAN_POINT('',(-0.499999999922693,2.95803989156295,-7.));
#684=CARTESIAN_POINT('',(0.50000000007725,2.95803989153683,-7.));
#685=CARTESIAN_POINT('',(-18.7499999999226,-13.9999999999999,0.));
#686=CARTESIAN_POINT('',(-18.7499999999226,-19.9999999999999,0.));
#687=CARTESIAN_POINT('',(13.2500000000774,-19.9999999999999,0.));
#688=CARTESIAN_POINT('',(13.2500000000774,-13.9999999999999,0.));
#689=CARTESIAN_POINT('',(9.00000000007731,9.80000000000005,0.));
#690=CARTESIAN_POINT('',(-8.99999999992269,9.80000000000005,0.));
#691=CARTESIAN_POINT('',(0.500000000077307,9.80000000000005,0.));
#692=CARTESIAN_POINT('',(-0.499999999922693,9.80000000000005,0.));
#693=CARTESIAN_POINT('',(-13.2499999999226,-19.9999999999999,0.));
#694=CARTESIAN_POINT('',(-13.2499999999226,-13.9999999999999,0.));
#695=CARTESIAN_POINT('',(18.7500000000774,-19.9999999999999,0.));
#696=CARTESIAN_POINT('',(18.7500000000774,-13.9999999999999,0.));
#697=CARTESIAN_POINT('',(0.500000000077307,5.80000000000005,0.));
#698=CARTESIAN_POINT('',(9.00000000007731,5.80000000000005,0.));
#699=CARTESIAN_POINT('',(-8.99999999992269,5.80000000000005,0.));
#700=CARTESIAN_POINT('',(-0.499999999922636,5.80000000000005,0.));
#701=CARTESIAN_POINT('',(9.00000000007731,-13.9999999999999,7.));
#702=CARTESIAN_POINT('',(9.00000000007731,12.8000000000001,7.));
#703=CARTESIAN_POINT('',(9.00000000007731,12.8000000000001,7.));
#704=CARTESIAN_POINT('',(0.500000000077307,12.8000000000001,7.));
#705=CARTESIAN_POINT('',(-8.99999999992269,12.8000000000001,7.));
#706=CARTESIAN_POINT('',(-8.99999999992269,-13.9999999999999,7.));
#707=CARTESIAN_POINT('',(-8.99999999992269,-13.9999999999999,7.));
#708=CARTESIAN_POINT('',(-20.9999999999227,-13.9999999999999,7.));
#709=CARTESIAN_POINT('',(-20.9999999999227,-13.9999999999999,7.));
#710=CARTESIAN_POINT('',(-20.9999999999227,-19.9999999999999,7.));
#711=CARTESIAN_POINT('',(-20.9999999999227,-19.9999999999999,7.));
#712=CARTESIAN_POINT('',(21.0000000000773,-19.9999999999999,7.));
#713=CARTESIAN_POINT('',(21.0000000000773,-19.9999999999999,7.));
#714=CARTESIAN_POINT('',(21.0000000000773,-13.9999999999999,7.));
#715=CARTESIAN_POINT('',(21.0000000000773,-13.9999999999999,7.));
#716=CARTESIAN_POINT('',(9.00000000007731,-13.9999999999999,7.));
#717=CARTESIAN_POINT('',(-1.62419683143047E-13,-5.97966019998489E-14,7.));
#718=CARTESIAN_POINT('',(3.,7.105427357601E-14,7.));
#719=CARTESIAN_POINT('',(0.50000000007725,2.95803989153683,7.));
#720=CARTESIAN_POINT('',(9.00000000007731,-13.9999999999999,7.));
#721=CARTESIAN_POINT('',(9.00000000007731,-13.9999999999999,-7.));
#722=CARTESIAN_POINT('',(9.00000000007731,-13.9999999999999,-7.));
#723=CARTESIAN_POINT('',(9.00000000007731,12.8000000000001,-7.));
#724=CARTESIAN_POINT('',(9.00000000007731,12.8000000000001,-7.));
#725=CARTESIAN_POINT('',(9.00000000007731,12.8000000000001,7.));
#726=CARTESIAN_POINT('',(9.00000000007731,12.8000000000001,-7.));
#727=CARTESIAN_POINT('',(0.500000000077307,12.8000000000001,-7.));
#728=CARTESIAN_POINT('',(-8.99999999992269,12.8000000000001,-7.));
#729=CARTESIAN_POINT('',(-8.99999999992269,12.8000000000001,7.));
#730=CARTESIAN_POINT('',(-8.99999999992269,12.8000000000001,-7.));
#731=CARTESIAN_POINT('',(-8.99999999992269,-13.9999999999999,-7.));
#732=CARTESIAN_POINT('',(-8.99999999992269,-13.9999999999999,-7.));
#733=CARTESIAN_POINT('',(-8.99999999992269,-13.9999999999999,7.));
#734=CARTESIAN_POINT('',(-8.99999999992269,-13.9999999999999,-7.));
#735=CARTESIAN_POINT('',(-20.9999999999227,-13.9999999999999,-7.));
#736=CARTESIAN_POINT('',(-20.9999999999227,-13.9999999999999,-7.));
#737=CARTESIAN_POINT('',(-20.9999999999227,-13.9999999999999,7.));
#738=CARTESIAN_POINT('',(-20.9999999999227,-13.9999999999999,-7.));
#739=CARTESIAN_POINT('',(-20.9999999999227,-19.9999999999999,-7.));
#740=CARTESIAN_POINT('',(-20.9999999999227,-19.9999999999999,-7.));
#741=CARTESIAN_POINT('',(-20.9999999999227,-19.9999999999999,7.));
#742=CARTESIAN_POINT('',(-20.9999999999227,-19.9999999999999,-7.));
#743=CARTESIAN_POINT('',(21.0000000000773,-19.9999999999999,-7.));
#744=CARTESIAN_POINT('',(21.0000000000773,-19.9999999999999,-7.));
#745=CARTESIAN_POINT('',(21.0000000000773,-19.9999999999999,7.));
#746=CARTESIAN_POINT('',(21.0000000000773,-19.9999999999999,-7.));
#747=CARTESIAN_POINT('',(21.0000000000773,-13.9999999999999,-7.));
#748=CARTESIAN_POINT('',(21.0000000000773,-13.9999999999999,-7.));
#749=CARTESIAN_POINT('',(21.0000000000773,-13.9999999999999,7.));
#750=CARTESIAN_POINT('',(21.0000000000773,-13.9999999999999,-7.));
#751=CARTESIAN_POINT('',(9.00000000007731,-13.9999999999999,-7.));
#752=CARTESIAN_POINT('',(3.,7.105427357601E-14,7.));
#753=CARTESIAN_POINT('',(3.,7.105427357601E-14,-7.));
#754=CARTESIAN_POINT('',(-2.69654307490419E-15,1.02261996689364E-13,-7.));
#755=CARTESIAN_POINT('',(3.,7.105427357601E-14,-7.));
#756=CARTESIAN_POINT('',(-0.499999999922809,2.95803989156296,-7.));
#757=CARTESIAN_POINT('',(-0.499999999922693,2.95803989156293,7.));
#758=CARTESIAN_POINT('',(-0.499999999922693,12.8000000000001,7.));
#759=CARTESIAN_POINT('',(0.500000000077307,12.8000000000001,7.));
#760=CARTESIAN_POINT('',(0.500000000077307,2.9580398915368,7.));
#761=CARTESIAN_POINT('',(-0.499999999922693,12.8000000000001,7.));
#762=CARTESIAN_POINT('',(-0.499999999922693,12.8000000000001,-7.));
#763=CARTESIAN_POINT('',(0.500000000077307,12.8000000000001,-7.));
#764=CARTESIAN_POINT('',(0.500000000077307,12.8000000000001,7.));
#765=CARTESIAN_POINT('',(-0.499999999922693,2.95803989156295,-7.));
#766=CARTESIAN_POINT('',(-0.499999999922693,2.95803989156293,7.));
#767=CARTESIAN_POINT('',(0.500000000077307,2.9580398915368,7.));
#768=CARTESIAN_POINT('',(0.50000000007725,2.95803989153683,-7.));
#769=CARTESIAN_POINT('',(-0.499999999922693,2.95803989156295,-7.));
#770=CARTESIAN_POINT('',(-0.499999999922693,12.8000000000001,-7.));
#771=CARTESIAN_POINT('',(0.500000000077307,12.8000000000001,-7.));
#772=CARTESIAN_POINT('',(0.50000000007725,2.95803989153683,-7.));
#773=CARTESIAN_POINT('',(-0.499999999922693,12.8000000000001,7.));
#774=CARTESIAN_POINT('',(-8.99999999992269,12.8000000000001,7.));
#775=CARTESIAN_POINT('',(-2.89879170350042E-14,1.37344159440986E-14,7.));
#776=CARTESIAN_POINT('',(-0.499999999922636,2.95803989156293,7.));
#777=CARTESIAN_POINT('',(3.,6.94444501903035E-14,7.));
#778=CARTESIAN_POINT('',(-0.499999999922693,12.8000000000001,-7.));
#779=CARTESIAN_POINT('',(-8.99999999992269,12.8000000000001,-7.));
#780=CARTESIAN_POINT('',(-9.46976350157455E-14,-1.23128816472092E-14,-7.));
#781=CARTESIAN_POINT('',(0.500000000077193,2.95803989153683,-7.));
#782=CARTESIAN_POINT('',(3.,7.13318293321663E-14,-7.));
#783=CARTESIAN_POINT('',(-15.9999999999226,-19.9999999999999,0.));
#784=CARTESIAN_POINT('',(-18.7499999999226,-19.9999999999999,0.));
#785=CARTESIAN_POINT('',(-13.2499999999226,-19.9999999999999,-3.36777869765522E-16));
#786=CARTESIAN_POINT('',(-18.7499999999226,-19.9999999999999,0.));
#787=CARTESIAN_POINT('',(-18.7499999999226,-13.9999999999999,0.));
#788=CARTESIAN_POINT('',(-15.9999999999226,-13.9999999999999,0.));
#789=CARTESIAN_POINT('',(-18.7499999999226,-13.9999999999999,0.));
#790=CARTESIAN_POINT('',(-13.2499999999226,-13.9999999999999,-3.36777869765522E-16));
#791=CARTESIAN_POINT('',(16.0000000000774,-19.9999999999999,-1.25607396694702E-15));
#792=CARTESIAN_POINT('',(13.2500000000774,-19.9999999999999,0.));
#793=CARTESIAN_POINT('',(18.7500000000774,-19.9999999999999,-4.06435149484218E-16));
#794=CARTESIAN_POINT('',(13.2500000000774,-19.9999999999999,0.));
#795=CARTESIAN_POINT('',(13.2500000000774,-13.9999999999999,0.));
#796=CARTESIAN_POINT('',(16.0000000000774,-13.9999999999999,-1.25607396694702E-15));
#797=CARTESIAN_POINT('',(13.2500000000774,-13.9999999999999,0.));
#798=CARTESIAN_POINT('',(18.7500000000774,-13.9999999999999,-4.06435149484218E-16));
#799=CARTESIAN_POINT('',(-8.99999999992269,7.80000000000005,0.));
#800=CARTESIAN_POINT('',(-8.99999999992269,9.80000000000005,0.));
#801=CARTESIAN_POINT('',(-8.99999999992269,5.80000000000005,-2.44929359829471E-16));
#802=CARTESIAN_POINT('',(-8.99999999992269,9.80000000000005,0.));
#803=CARTESIAN_POINT('',(-0.499999999922693,9.80000000000005,0.));
#804=CARTESIAN_POINT('',(9.00000000007731,7.80000000000005,0.));
#805=CARTESIAN_POINT('',(9.00000000007731,9.80000000000005,0.));
#806=CARTESIAN_POINT('',(9.00000000007731,5.80000000000005,-2.44929359829471E-16));
#807=CARTESIAN_POINT('',(0.500000000077307,7.80000000000005,0.));
#808=CARTESIAN_POINT('',(0.500000000077307,9.80000000000005,0.));
#809=CARTESIAN_POINT('',(0.500000000077307,5.80000000000005,-2.44929359829471E-16));
#810=CARTESIAN_POINT('',(-0.499999999922636,7.80000000000005,0.));
#811=CARTESIAN_POINT('',(-0.499999999922636,9.80000000000005,0.));
#812=CARTESIAN_POINT('',(-0.499999999922636,5.80000000000005,2.44929359829471E-16));
#813=CARTESIAN_POINT('',(0.500000000077307,9.80000000000005,0.));
#814=CARTESIAN_POINT('',(9.00000000007731,9.80000000000005,0.));
#815=CARTESIAN_POINT('',(-13.2499999999226,-19.9999999999999,0.));
#816=CARTESIAN_POINT('',(-13.2499999999226,-13.9999999999999,0.));
#817=CARTESIAN_POINT('',(-15.9999999999226,-19.9999999999999,0.));
#818=CARTESIAN_POINT('',(-13.2499999999226,-19.9999999999999,0.));
#819=CARTESIAN_POINT('',(-18.7499999999226,-19.9999999999999,3.36777869765522E-16));
#820=CARTESIAN_POINT('',(-15.9999999999226,-13.9999999999999,0.));
#821=CARTESIAN_POINT('',(-13.2499999999226,-13.9999999999999,0.));
#822=CARTESIAN_POINT('',(-18.7499999999226,-13.9999999999999,3.36777869765522E-16));
#823=CARTESIAN_POINT('',(18.7500000000774,-19.9999999999999,0.));
#824=CARTESIAN_POINT('',(18.7500000000774,-13.9999999999999,0.));
#825=CARTESIAN_POINT('',(16.0000000000774,-19.9999999999999,-1.25607396694702E-15));
#826=CARTESIAN_POINT('',(18.7500000000774,-19.9999999999999,0.));
#827=CARTESIAN_POINT('',(13.2500000000774,-19.9999999999999,2.67120590046826E-16));
#828=CARTESIAN_POINT('',(16.0000000000774,-13.9999999999999,-1.25607396694702E-15));
#829=CARTESIAN_POINT('',(18.7500000000774,-13.9999999999999,0.));
#830=CARTESIAN_POINT('',(13.2500000000774,-13.9999999999999,2.67120590046826E-16));
#831=CARTESIAN_POINT('',(0.500000000077307,5.80000000000005,0.));
#832=CARTESIAN_POINT('',(9.00000000007731,5.80000000000005,0.));
#833=CARTESIAN_POINT('',(9.00000000007731,7.80000000000005,0.));
#834=CARTESIAN_POINT('',(9.00000000007731,5.80000000000005,0.));
#835=CARTESIAN_POINT('',(9.00000000007731,9.80000000000005,2.44929359829471E-16));
#836=CARTESIAN_POINT('',(0.500000000077307,7.80000000000005,0.));
#837=CARTESIAN_POINT('',(0.500000000077307,5.80000000000005,0.));
#838=CARTESIAN_POINT('',(0.500000000077307,9.80000000000005,2.44929359829471E-16));
#839=CARTESIAN_POINT('',(-8.99999999992269,5.80000000000005,0.));
#840=CARTESIAN_POINT('',(-0.499999999922693,5.80000000000005,0.));
#841=CARTESIAN_POINT('',(-8.99999999992269,7.80000000000005,0.));
#842=CARTESIAN_POINT('',(-8.99999999992269,5.80000000000005,0.));
#843=CARTESIAN_POINT('',(-8.99999999992269,9.80000000000005,2.44929359829471E-16));
#844=CARTESIAN_POINT('',(-0.499999999922636,7.80000000000005,0.));
#845=CARTESIAN_POINT('',(-0.499999999922636,5.80000000000005,0.));
#846=CARTESIAN_POINT('',(-0.499999999922636,9.80000000000005,-2.44929359829471E-16));
#847=CARTESIAN_POINT('',(0.,0.,0.));
ENDSEC;
END-ISO-10303-21;
