ISO-10303-21;
HEADER;
/* Generated by software containing ST-Developer
 * from STEP Tools, Inc. (www.steptools.com) 
 */
/* OPTION: using custom schema-name function */

FILE_DESCRIPTION(
/* description */ (''),
/* implementation_level */ '2;1');

FILE_NAME(
/* name */ 'node_parallel_6x6_c10',
/* time_stamp */ '2025-11-18T13:46:11+08:00',
/* author */ (''),
/* organization */ (''),
/* preprocessor_version */ 'ST-DEVELOPER v19.2',
/* originating_system */ 'Rhino 8.7',
/* authorisation */ '');

FILE_SCHEMA (('CONFIG_CONTROL_DESIGN'));
ENDSEC;

DATA;
#10=SHAPE_REPRESENTATION_RELATIONSHIP('','',#680,#12);
#11=MANIFOLD_SOLID_BREP('brep_1',#13);
#12=ADVANCED_BREP_SHAPE_REPRESENTATION('brep_rep_0',(#11,#748),#679);
#13=CLOSED_SHELL('',(#30,#31,#32,#33,#34,#35,#36,#37,#38,#39,#40,#41,#42,
#43,#44,#45,#46,#47,#48,#49,#50,#51,#52,#53,#54,#55,#56,#57,#58,#59));
#14=FACE_BOUND('',#98,.T.);
#15=FACE_BOUND('',#99,.T.);
#16=FACE_BOUND('',#101,.T.);
#17=FACE_BOUND('',#102,.T.);
#18=FACE_BOUND('',#111,.T.);
#19=FACE_BOUND('',#112,.T.);
#20=FACE_BOUND('',#114,.T.);
#21=FACE_BOUND('',#115,.T.);
#22=FACE_BOUND('',#117,.T.);
#23=FACE_BOUND('',#118,.T.);
#24=FACE_BOUND('',#119,.T.);
#25=FACE_BOUND('',#120,.T.);
#26=FACE_BOUND('',#122,.T.);
#27=FACE_BOUND('',#123,.T.);
#28=FACE_BOUND('',#124,.T.);
#29=FACE_BOUND('',#125,.T.);
#30=ADVANCED_FACE('',(#60),#582,.T.);
#31=ADVANCED_FACE('',(#61),#583,.T.);
#32=ADVANCED_FACE('',(#62),#564,.F.);
#33=ADVANCED_FACE('',(#63),#565,.F.);
#34=ADVANCED_FACE('',(#64),#566,.F.);
#35=ADVANCED_FACE('',(#65),#567,.F.);
#36=ADVANCED_FACE('',(#66),#568,.F.);
#37=ADVANCED_FACE('',(#67,#14,#15),#584,.T.);
#38=ADVANCED_FACE('',(#68,#16,#17),#585,.T.);
#39=ADVANCED_FACE('',(#69),#586,.T.);
#40=ADVANCED_FACE('',(#70),#587,.T.);
#41=ADVANCED_FACE('',(#71),#569,.F.);
#42=ADVANCED_FACE('',(#72),#570,.F.);
#43=ADVANCED_FACE('',(#73),#571,.F.);
#44=ADVANCED_FACE('',(#74),#572,.F.);
#45=ADVANCED_FACE('',(#75),#573,.F.);
#46=ADVANCED_FACE('',(#76,#18,#19),#588,.T.);
#47=ADVANCED_FACE('',(#77,#20,#21),#589,.T.);
#48=ADVANCED_FACE('',(#78,#22,#23,#24,#25),#590,.T.);
#49=ADVANCED_FACE('',(#79,#26,#27,#28,#29),#591,.T.);
#50=ADVANCED_FACE('',(#80),#592,.T.);
#51=ADVANCED_FACE('',(#81),#593,.T.);
#52=ADVANCED_FACE('',(#82),#574,.F.);
#53=ADVANCED_FACE('',(#83),#575,.F.);
#54=ADVANCED_FACE('',(#84),#576,.F.);
#55=ADVANCED_FACE('',(#85),#577,.F.);
#56=ADVANCED_FACE('',(#86),#578,.F.);
#57=ADVANCED_FACE('',(#87),#579,.F.);
#58=ADVANCED_FACE('',(#88),#580,.F.);
#59=ADVANCED_FACE('',(#89),#581,.F.);
#60=FACE_OUTER_BOUND('',#90,.T.);
#61=FACE_OUTER_BOUND('',#91,.T.);
#62=FACE_OUTER_BOUND('',#92,.T.);
#63=FACE_OUTER_BOUND('',#93,.T.);
#64=FACE_OUTER_BOUND('',#94,.T.);
#65=FACE_OUTER_BOUND('',#95,.T.);
#66=FACE_OUTER_BOUND('',#96,.T.);
#67=FACE_OUTER_BOUND('',#97,.T.);
#68=FACE_OUTER_BOUND('',#100,.T.);
#69=FACE_OUTER_BOUND('',#103,.T.);
#70=FACE_OUTER_BOUND('',#104,.T.);
#71=FACE_OUTER_BOUND('',#105,.T.);
#72=FACE_OUTER_BOUND('',#106,.T.);
#73=FACE_OUTER_BOUND('',#107,.T.);
#74=FACE_OUTER_BOUND('',#108,.T.);
#75=FACE_OUTER_BOUND('',#109,.T.);
#76=FACE_OUTER_BOUND('',#110,.T.);
#77=FACE_OUTER_BOUND('',#113,.T.);
#78=FACE_OUTER_BOUND('',#116,.T.);
#79=FACE_OUTER_BOUND('',#121,.T.);
#80=FACE_OUTER_BOUND('',#126,.T.);
#81=FACE_OUTER_BOUND('',#127,.T.);
#82=FACE_OUTER_BOUND('',#128,.T.);
#83=FACE_OUTER_BOUND('',#129,.T.);
#84=FACE_OUTER_BOUND('',#130,.T.);
#85=FACE_OUTER_BOUND('',#131,.T.);
#86=FACE_OUTER_BOUND('',#132,.T.);
#87=FACE_OUTER_BOUND('',#133,.T.);
#88=FACE_OUTER_BOUND('',#134,.T.);
#89=FACE_OUTER_BOUND('',#135,.T.);
#90=EDGE_LOOP('',(#136,#137,#138,#139));
#91=EDGE_LOOP('',(#140,#141,#142,#143));
#92=EDGE_LOOP('',(#144,#145,#146,#147));
#93=EDGE_LOOP('',(#148,#149,#150,#151));
#94=EDGE_LOOP('',(#152,#153,#154,#155));
#95=EDGE_LOOP('',(#156,#157,#158,#159));
#96=EDGE_LOOP('',(#160,#161,#162,#163));
#97=EDGE_LOOP('',(#164,#165,#166,#167));
#98=EDGE_LOOP('',(#168,#169));
#99=EDGE_LOOP('',(#170,#171));
#100=EDGE_LOOP('',(#172,#173,#174,#175));
#101=EDGE_LOOP('',(#176,#177));
#102=EDGE_LOOP('',(#178,#179));
#103=EDGE_LOOP('',(#180,#181,#182,#183));
#104=EDGE_LOOP('',(#184,#185,#186,#187));
#105=EDGE_LOOP('',(#188,#189,#190,#191));
#106=EDGE_LOOP('',(#192,#193,#194,#195));
#107=EDGE_LOOP('',(#196,#197,#198,#199));
#108=EDGE_LOOP('',(#200,#201,#202,#203));
#109=EDGE_LOOP('',(#204,#205,#206,#207));
#110=EDGE_LOOP('',(#208,#209,#210,#211));
#111=EDGE_LOOP('',(#212,#213));
#112=EDGE_LOOP('',(#214,#215));
#113=EDGE_LOOP('',(#216,#217,#218,#219));
#114=EDGE_LOOP('',(#220,#221));
#115=EDGE_LOOP('',(#222,#223));
#116=EDGE_LOOP('',(#224,#225,#226,#227));
#117=EDGE_LOOP('',(#228,#229));
#118=EDGE_LOOP('',(#230,#231));
#119=EDGE_LOOP('',(#232,#233));
#120=EDGE_LOOP('',(#234,#235));
#121=EDGE_LOOP('',(#236,#237,#238,#239));
#122=EDGE_LOOP('',(#240,#241));
#123=EDGE_LOOP('',(#242,#243));
#124=EDGE_LOOP('',(#244,#245));
#125=EDGE_LOOP('',(#246,#247));
#126=EDGE_LOOP('',(#248,#249,#250,#251,#252,#253,#254,#255,#256,#257,#258,
#259));
#127=EDGE_LOOP('',(#260,#261,#262,#263,#264,#265,#266,#267,#268,#269,#270,
#271));
#128=EDGE_LOOP('',(#272,#273,#274,#275));
#129=EDGE_LOOP('',(#276,#277,#278,#279));
#130=EDGE_LOOP('',(#280,#281,#282,#283));
#131=EDGE_LOOP('',(#284,#285,#286,#287));
#132=EDGE_LOOP('',(#288,#289,#290,#291));
#133=EDGE_LOOP('',(#292,#293,#294,#295));
#134=EDGE_LOOP('',(#296,#297,#298,#299));
#135=EDGE_LOOP('',(#300,#301,#302,#303));
#136=ORIENTED_EDGE('',*,*,#305,.F.);
#137=ORIENTED_EDGE('',*,*,#306,.T.);
#138=ORIENTED_EDGE('',*,*,#307,.T.);
#139=ORIENTED_EDGE('',*,*,#317,.F.);
#140=ORIENTED_EDGE('',*,*,#327,.T.);
#141=ORIENTED_EDGE('',*,*,#304,.F.);
#142=ORIENTED_EDGE('',*,*,#326,.F.);
#143=ORIENTED_EDGE('',*,*,#316,.F.);
#144=ORIENTED_EDGE('',*,*,#329,.F.);
#145=ORIENTED_EDGE('',*,*,#320,.F.);
#146=ORIENTED_EDGE('',*,*,#328,.F.);
#147=ORIENTED_EDGE('',*,*,#321,.F.);
#148=ORIENTED_EDGE('',*,*,#364,.T.);
#149=ORIENTED_EDGE('',*,*,#323,.F.);
#150=ORIENTED_EDGE('',*,*,#309,.F.);
#151=ORIENTED_EDGE('',*,*,#365,.F.);
#152=ORIENTED_EDGE('',*,*,#367,.T.);
#153=ORIENTED_EDGE('',*,*,#310,.F.);
#154=ORIENTED_EDGE('',*,*,#330,.F.);
#155=ORIENTED_EDGE('',*,*,#369,.F.);
#156=ORIENTED_EDGE('',*,*,#370,.T.);
#157=ORIENTED_EDGE('',*,*,#325,.F.);
#158=ORIENTED_EDGE('',*,*,#312,.F.);
#159=ORIENTED_EDGE('',*,*,#371,.F.);
#160=ORIENTED_EDGE('',*,*,#373,.T.);
#161=ORIENTED_EDGE('',*,*,#313,.F.);
#162=ORIENTED_EDGE('',*,*,#331,.F.);
#163=ORIENTED_EDGE('',*,*,#375,.F.);
#164=ORIENTED_EDGE('',*,*,#320,.T.);
#165=ORIENTED_EDGE('',*,*,#318,.T.);
#166=ORIENTED_EDGE('',*,*,#316,.T.);
#167=ORIENTED_EDGE('',*,*,#314,.T.);
#168=ORIENTED_EDGE('',*,*,#324,.T.);
#169=ORIENTED_EDGE('',*,*,#375,.T.);
#170=ORIENTED_EDGE('',*,*,#322,.T.);
#171=ORIENTED_EDGE('',*,*,#369,.T.);
#172=ORIENTED_EDGE('',*,*,#315,.T.);
#173=ORIENTED_EDGE('',*,*,#317,.T.);
#174=ORIENTED_EDGE('',*,*,#319,.T.);
#175=ORIENTED_EDGE('',*,*,#321,.T.);
#176=ORIENTED_EDGE('',*,*,#325,.T.);
#177=ORIENTED_EDGE('',*,*,#372,.T.);
#178=ORIENTED_EDGE('',*,*,#323,.T.);
#179=ORIENTED_EDGE('',*,*,#366,.T.);
#180=ORIENTED_EDGE('',*,*,#345,.T.);
#181=ORIENTED_EDGE('',*,*,#335,.F.);
#182=ORIENTED_EDGE('',*,*,#334,.F.);
#183=ORIENTED_EDGE('',*,*,#333,.T.);
#184=ORIENTED_EDGE('',*,*,#344,.T.);
#185=ORIENTED_EDGE('',*,*,#354,.T.);
#186=ORIENTED_EDGE('',*,*,#332,.T.);
#187=ORIENTED_EDGE('',*,*,#355,.F.);
#188=ORIENTED_EDGE('',*,*,#349,.T.);
#189=ORIENTED_EDGE('',*,*,#356,.T.);
#190=ORIENTED_EDGE('',*,*,#348,.T.);
#191=ORIENTED_EDGE('',*,*,#357,.T.);
#192=ORIENTED_EDGE('',*,*,#377,.T.);
#193=ORIENTED_EDGE('',*,*,#337,.T.);
#194=ORIENTED_EDGE('',*,*,#351,.T.);
#195=ORIENTED_EDGE('',*,*,#376,.F.);
#196=ORIENTED_EDGE('',*,*,#381,.T.);
#197=ORIENTED_EDGE('',*,*,#358,.T.);
#198=ORIENTED_EDGE('',*,*,#338,.T.);
#199=ORIENTED_EDGE('',*,*,#379,.F.);
#200=ORIENTED_EDGE('',*,*,#383,.T.);
#201=ORIENTED_EDGE('',*,*,#340,.T.);
#202=ORIENTED_EDGE('',*,*,#353,.T.);
#203=ORIENTED_EDGE('',*,*,#382,.F.);
#204=ORIENTED_EDGE('',*,*,#387,.T.);
#205=ORIENTED_EDGE('',*,*,#359,.T.);
#206=ORIENTED_EDGE('',*,*,#341,.T.);
#207=ORIENTED_EDGE('',*,*,#385,.F.);
#208=ORIENTED_EDGE('',*,*,#342,.F.);
#209=ORIENTED_EDGE('',*,*,#344,.F.);
#210=ORIENTED_EDGE('',*,*,#346,.F.);
#211=ORIENTED_EDGE('',*,*,#348,.F.);
#212=ORIENTED_EDGE('',*,*,#387,.F.);
#213=ORIENTED_EDGE('',*,*,#352,.F.);
#214=ORIENTED_EDGE('',*,*,#381,.F.);
#215=ORIENTED_EDGE('',*,*,#350,.F.);
#216=ORIENTED_EDGE('',*,*,#349,.F.);
#217=ORIENTED_EDGE('',*,*,#347,.F.);
#218=ORIENTED_EDGE('',*,*,#345,.F.);
#219=ORIENTED_EDGE('',*,*,#343,.F.);
#220=ORIENTED_EDGE('',*,*,#384,.F.);
#221=ORIENTED_EDGE('',*,*,#353,.F.);
#222=ORIENTED_EDGE('',*,*,#378,.F.);
#223=ORIENTED_EDGE('',*,*,#351,.F.);
#224=ORIENTED_EDGE('',*,*,#334,.T.);
#225=ORIENTED_EDGE('',*,*,#363,.F.);
#226=ORIENTED_EDGE('',*,*,#306,.F.);
#227=ORIENTED_EDGE('',*,*,#360,.F.);
#228=ORIENTED_EDGE('',*,*,#308,.T.);
#229=ORIENTED_EDGE('',*,*,#365,.T.);
#230=ORIENTED_EDGE('',*,*,#311,.T.);
#231=ORIENTED_EDGE('',*,*,#371,.T.);
#232=ORIENTED_EDGE('',*,*,#377,.F.);
#233=ORIENTED_EDGE('',*,*,#336,.F.);
#234=ORIENTED_EDGE('',*,*,#383,.F.);
#235=ORIENTED_EDGE('',*,*,#339,.F.);
#236=ORIENTED_EDGE('',*,*,#361,.T.);
#237=ORIENTED_EDGE('',*,*,#304,.T.);
#238=ORIENTED_EDGE('',*,*,#362,.T.);
#239=ORIENTED_EDGE('',*,*,#332,.F.);
#240=ORIENTED_EDGE('',*,*,#310,.T.);
#241=ORIENTED_EDGE('',*,*,#368,.T.);
#242=ORIENTED_EDGE('',*,*,#313,.T.);
#243=ORIENTED_EDGE('',*,*,#374,.T.);
#244=ORIENTED_EDGE('',*,*,#380,.F.);
#245=ORIENTED_EDGE('',*,*,#338,.F.);
#246=ORIENTED_EDGE('',*,*,#386,.F.);
#247=ORIENTED_EDGE('',*,*,#341,.F.);
#248=ORIENTED_EDGE('',*,*,#360,.T.);
#249=ORIENTED_EDGE('',*,*,#305,.T.);
#250=ORIENTED_EDGE('',*,*,#315,.F.);
#251=ORIENTED_EDGE('',*,*,#328,.T.);
#252=ORIENTED_EDGE('',*,*,#314,.F.);
#253=ORIENTED_EDGE('',*,*,#326,.T.);
#254=ORIENTED_EDGE('',*,*,#361,.F.);
#255=ORIENTED_EDGE('',*,*,#354,.F.);
#256=ORIENTED_EDGE('',*,*,#342,.T.);
#257=ORIENTED_EDGE('',*,*,#356,.F.);
#258=ORIENTED_EDGE('',*,*,#343,.T.);
#259=ORIENTED_EDGE('',*,*,#333,.F.);
#260=ORIENTED_EDGE('',*,*,#362,.F.);
#261=ORIENTED_EDGE('',*,*,#327,.F.);
#262=ORIENTED_EDGE('',*,*,#318,.F.);
#263=ORIENTED_EDGE('',*,*,#329,.T.);
#264=ORIENTED_EDGE('',*,*,#319,.F.);
#265=ORIENTED_EDGE('',*,*,#307,.F.);
#266=ORIENTED_EDGE('',*,*,#363,.T.);
#267=ORIENTED_EDGE('',*,*,#335,.T.);
#268=ORIENTED_EDGE('',*,*,#347,.T.);
#269=ORIENTED_EDGE('',*,*,#357,.F.);
#270=ORIENTED_EDGE('',*,*,#346,.T.);
#271=ORIENTED_EDGE('',*,*,#355,.T.);
#272=ORIENTED_EDGE('',*,*,#308,.F.);
#273=ORIENTED_EDGE('',*,*,#309,.T.);
#274=ORIENTED_EDGE('',*,*,#366,.F.);
#275=ORIENTED_EDGE('',*,*,#364,.F.);
#276=ORIENTED_EDGE('',*,*,#322,.F.);
#277=ORIENTED_EDGE('',*,*,#330,.T.);
#278=ORIENTED_EDGE('',*,*,#368,.F.);
#279=ORIENTED_EDGE('',*,*,#367,.F.);
#280=ORIENTED_EDGE('',*,*,#311,.F.);
#281=ORIENTED_EDGE('',*,*,#312,.T.);
#282=ORIENTED_EDGE('',*,*,#372,.F.);
#283=ORIENTED_EDGE('',*,*,#370,.F.);
#284=ORIENTED_EDGE('',*,*,#324,.F.);
#285=ORIENTED_EDGE('',*,*,#331,.T.);
#286=ORIENTED_EDGE('',*,*,#374,.F.);
#287=ORIENTED_EDGE('',*,*,#373,.F.);
#288=ORIENTED_EDGE('',*,*,#376,.T.);
#289=ORIENTED_EDGE('',*,*,#378,.T.);
#290=ORIENTED_EDGE('',*,*,#337,.F.);
#291=ORIENTED_EDGE('',*,*,#336,.T.);
#292=ORIENTED_EDGE('',*,*,#379,.T.);
#293=ORIENTED_EDGE('',*,*,#380,.T.);
#294=ORIENTED_EDGE('',*,*,#358,.F.);
#295=ORIENTED_EDGE('',*,*,#350,.T.);
#296=ORIENTED_EDGE('',*,*,#382,.T.);
#297=ORIENTED_EDGE('',*,*,#384,.T.);
#298=ORIENTED_EDGE('',*,*,#340,.F.);
#299=ORIENTED_EDGE('',*,*,#339,.T.);
#300=ORIENTED_EDGE('',*,*,#385,.T.);
#301=ORIENTED_EDGE('',*,*,#386,.T.);
#302=ORIENTED_EDGE('',*,*,#359,.F.);
#303=ORIENTED_EDGE('',*,*,#352,.T.);
#304=EDGE_CURVE('',#508,#509,#460,.T.);
#305=EDGE_CURVE('',#510,#519,#461,.T.);
#306=EDGE_CURVE('',#510,#511,#462,.T.);
#307=EDGE_CURVE('',#511,#521,#463,.T.);
#308=EDGE_CURVE('',#513,#548,#388,.T.);
#309=EDGE_CURVE('',#513,#525,#464,.T.);
#310=EDGE_CURVE('',#512,#551,#389,.T.);
#311=EDGE_CURVE('',#515,#552,#390,.T.);
#312=EDGE_CURVE('',#515,#527,#465,.T.);
#313=EDGE_CURVE('',#514,#555,#391,.T.);
#314=EDGE_CURVE('',#516,#517,#466,.T.);
#315=EDGE_CURVE('',#518,#519,#467,.T.);
#316=EDGE_CURVE('',#520,#516,#468,.T.);
#317=EDGE_CURVE('',#519,#521,#469,.T.);
#318=EDGE_CURVE('',#522,#520,#470,.T.);
#319=EDGE_CURVE('',#521,#523,#471,.T.);
#320=EDGE_CURVE('',#517,#522,#472,.T.);
#321=EDGE_CURVE('',#523,#518,#473,.T.);
#322=EDGE_CURVE('',#524,#550,#392,.T.);
#323=EDGE_CURVE('',#525,#549,#393,.T.);
#324=EDGE_CURVE('',#526,#554,#394,.T.);
#325=EDGE_CURVE('',#527,#553,#395,.T.);
#326=EDGE_CURVE('',#516,#508,#474,.T.);
#327=EDGE_CURVE('',#520,#509,#475,.T.);
#328=EDGE_CURVE('',#518,#517,#396,.T.);
#329=EDGE_CURVE('',#522,#523,#397,.T.);
#330=EDGE_CURVE('',#524,#512,#476,.T.);
#331=EDGE_CURVE('',#526,#514,#477,.T.);
#332=EDGE_CURVE('',#528,#529,#478,.T.);
#333=EDGE_CURVE('',#530,#539,#479,.T.);
#334=EDGE_CURVE('',#530,#531,#480,.T.);
#335=EDGE_CURVE('',#531,#541,#481,.T.);
#336=EDGE_CURVE('',#533,#556,#398,.T.);
#337=EDGE_CURVE('',#533,#545,#482,.T.);
#338=EDGE_CURVE('',#532,#559,#399,.T.);
#339=EDGE_CURVE('',#535,#560,#400,.T.);
#340=EDGE_CURVE('',#535,#547,#483,.T.);
#341=EDGE_CURVE('',#534,#563,#401,.T.);
#342=EDGE_CURVE('',#536,#537,#484,.T.);
#343=EDGE_CURVE('',#538,#539,#485,.T.);
#344=EDGE_CURVE('',#540,#536,#486,.T.);
#345=EDGE_CURVE('',#539,#541,#487,.T.);
#346=EDGE_CURVE('',#542,#540,#488,.T.);
#347=EDGE_CURVE('',#541,#543,#489,.T.);
#348=EDGE_CURVE('',#537,#542,#490,.T.);
#349=EDGE_CURVE('',#543,#538,#491,.T.);
#350=EDGE_CURVE('',#544,#558,#402,.T.);
#351=EDGE_CURVE('',#545,#557,#403,.T.);
#352=EDGE_CURVE('',#546,#562,#404,.T.);
#353=EDGE_CURVE('',#547,#561,#405,.T.);
#354=EDGE_CURVE('',#536,#528,#492,.T.);
#355=EDGE_CURVE('',#540,#529,#493,.T.);
#356=EDGE_CURVE('',#538,#537,#406,.T.);
#357=EDGE_CURVE('',#542,#543,#407,.T.);
#358=EDGE_CURVE('',#544,#532,#494,.T.);
#359=EDGE_CURVE('',#546,#534,#495,.T.);
#360=EDGE_CURVE('',#530,#510,#496,.T.);
#361=EDGE_CURVE('',#528,#508,#497,.T.);
#362=EDGE_CURVE('',#509,#529,#498,.T.);
#363=EDGE_CURVE('',#511,#531,#499,.T.);
#364=EDGE_CURVE('',#548,#549,#500,.T.);
#365=EDGE_CURVE('',#548,#513,#408,.T.);
#366=EDGE_CURVE('',#549,#525,#409,.T.);
#367=EDGE_CURVE('',#550,#551,#501,.T.);
#368=EDGE_CURVE('',#551,#512,#410,.T.);
#369=EDGE_CURVE('',#550,#524,#411,.T.);
#370=EDGE_CURVE('',#552,#553,#502,.T.);
#371=EDGE_CURVE('',#552,#515,#412,.T.);
#372=EDGE_CURVE('',#553,#527,#413,.T.);
#373=EDGE_CURVE('',#554,#555,#503,.T.);
#374=EDGE_CURVE('',#555,#514,#414,.T.);
#375=EDGE_CURVE('',#554,#526,#415,.T.);
#376=EDGE_CURVE('',#556,#557,#504,.T.);
#377=EDGE_CURVE('',#556,#533,#416,.T.);
#378=EDGE_CURVE('',#557,#545,#417,.T.);
#379=EDGE_CURVE('',#558,#559,#505,.T.);
#380=EDGE_CURVE('',#559,#532,#418,.T.);
#381=EDGE_CURVE('',#558,#544,#419,.T.);
#382=EDGE_CURVE('',#560,#561,#506,.T.);
#383=EDGE_CURVE('',#560,#535,#420,.T.);
#384=EDGE_CURVE('',#561,#547,#421,.T.);
#385=EDGE_CURVE('',#562,#563,#507,.T.);
#386=EDGE_CURVE('',#563,#534,#422,.T.);
#387=EDGE_CURVE('',#562,#546,#423,.T.);
#388=TRIMMED_CURVE($,#424,(#951),(#952),.T.,.CARTESIAN.);
#389=TRIMMED_CURVE($,#425,(#956),(#957),.T.,.CARTESIAN.);
#390=TRIMMED_CURVE($,#426,(#959),(#960),.T.,.CARTESIAN.);
#391=TRIMMED_CURVE($,#427,(#964),(#965),.T.,.CARTESIAN.);
#392=TRIMMED_CURVE($,#428,(#983),(#984),.T.,.CARTESIAN.);
#393=TRIMMED_CURVE($,#429,(#986),(#987),.T.,.CARTESIAN.);
#394=TRIMMED_CURVE($,#430,(#989),(#990),.T.,.CARTESIAN.);
#395=TRIMMED_CURVE($,#431,(#992),(#993),.T.,.CARTESIAN.);
#396=TRIMMED_CURVE($,#432,(#999),(#1000),.T.,.CARTESIAN.);
#397=TRIMMED_CURVE($,#433,(#1002),(#1003),.T.,.CARTESIAN.);
#398=TRIMMED_CURVE($,#434,(#1017),(#1018),.T.,.CARTESIAN.);
#399=TRIMMED_CURVE($,#435,(#1022),(#1023),.T.,.CARTESIAN.);
#400=TRIMMED_CURVE($,#436,(#1025),(#1026),.T.,.CARTESIAN.);
#401=TRIMMED_CURVE($,#437,(#1030),(#1031),.T.,.CARTESIAN.);
#402=TRIMMED_CURVE($,#438,(#1049),(#1050),.T.,.CARTESIAN.);
#403=TRIMMED_CURVE($,#439,(#1052),(#1053),.T.,.CARTESIAN.);
#404=TRIMMED_CURVE($,#440,(#1055),(#1056),.T.,.CARTESIAN.);
#405=TRIMMED_CURVE($,#441,(#1058),(#1059),.T.,.CARTESIAN.);
#406=TRIMMED_CURVE($,#442,(#1065),(#1066),.T.,.CARTESIAN.);
#407=TRIMMED_CURVE($,#443,(#1068),(#1069),.T.,.CARTESIAN.);
#408=TRIMMED_CURVE($,#444,(#1085),(#1086),.T.,.CARTESIAN.);
#409=TRIMMED_CURVE($,#445,(#1088),(#1089),.T.,.CARTESIAN.);
#410=TRIMMED_CURVE($,#446,(#1093),(#1094),.T.,.CARTESIAN.);
#411=TRIMMED_CURVE($,#447,(#1096),(#1097),.T.,.CARTESIAN.);
#412=TRIMMED_CURVE($,#448,(#1101),(#1102),.T.,.CARTESIAN.);
#413=TRIMMED_CURVE($,#449,(#1104),(#1105),.T.,.CARTESIAN.);
#414=TRIMMED_CURVE($,#450,(#1109),(#1110),.T.,.CARTESIAN.);
#415=TRIMMED_CURVE($,#451,(#1112),(#1113),.T.,.CARTESIAN.);
#416=TRIMMED_CURVE($,#452,(#1117),(#1118),.T.,.CARTESIAN.);
#417=TRIMMED_CURVE($,#453,(#1120),(#1121),.T.,.CARTESIAN.);
#418=TRIMMED_CURVE($,#454,(#1125),(#1126),.T.,.CARTESIAN.);
#419=TRIMMED_CURVE($,#455,(#1128),(#1129),.T.,.CARTESIAN.);
#420=TRIMMED_CURVE($,#456,(#1133),(#1134),.T.,.CARTESIAN.);
#421=TRIMMED_CURVE($,#457,(#1136),(#1137),.T.,.CARTESIAN.);
#422=TRIMMED_CURVE($,#458,(#1141),(#1142),.T.,.CARTESIAN.);
#423=TRIMMED_CURVE($,#459,(#1144),(#1145),.T.,.CARTESIAN.);
#424=CIRCLE('',#712,1.5);
#425=CIRCLE('',#713,1.5);
#426=CIRCLE('',#714,1.5);
#427=CIRCLE('',#715,1.5);
#428=CIRCLE('',#716,1.5);
#429=CIRCLE('',#717,1.5);
#430=CIRCLE('',#718,1.5);
#431=CIRCLE('',#719,1.5);
#432=CIRCLE('',#720,3.00000000000102);
#433=CIRCLE('',#721,3.00000000000097);
#434=CIRCLE('',#722,1.5);
#435=CIRCLE('',#723,1.5);
#436=CIRCLE('',#724,1.5);
#437=CIRCLE('',#725,1.5);
#438=CIRCLE('',#726,1.5);
#439=CIRCLE('',#727,1.5);
#440=CIRCLE('',#728,1.5);
#441=CIRCLE('',#729,1.5);
#442=CIRCLE('',#730,3.00000000000102);
#443=CIRCLE('',#731,3.00000000000096);
#444=CIRCLE('',#732,1.5);
#445=CIRCLE('',#733,1.5);
#446=CIRCLE('',#734,1.5);
#447=CIRCLE('',#735,1.5);
#448=CIRCLE('',#736,1.5);
#449=CIRCLE('',#737,1.5);
#450=CIRCLE('',#738,1.5);
#451=CIRCLE('',#739,1.5);
#452=CIRCLE('',#740,1.5);
#453=CIRCLE('',#741,1.5);
#454=CIRCLE('',#742,1.5);
#455=CIRCLE('',#743,1.5);
#456=CIRCLE('',#744,1.5);
#457=CIRCLE('',#745,1.5);
#458=CIRCLE('',#746,1.5);
#459=CIRCLE('',#747,1.5);
#460=B_SPLINE_CURVE_WITH_KNOTS('',1,(#942,#943),.UNSPECIFIED.,.F.,.F.,(2,
2),(0.,12.),.UNSPECIFIED.);
#461=B_SPLINE_CURVE_WITH_KNOTS('',1,(#944,#945),.UNSPECIFIED.,.F.,.F.,(2,
2),(-12.,-6.5),.UNSPECIFIED.);
#462=B_SPLINE_CURVE_WITH_KNOTS('',1,(#946,#947),.UNSPECIFIED.,.F.,.F.,(2,
2),(0.,12.),.UNSPECIFIED.);
#463=B_SPLINE_CURVE_WITH_KNOTS('',1,(#948,#949),.UNSPECIFIED.,.F.,.F.,(2,
2),(-12.,-6.5),.UNSPECIFIED.);
#464=B_SPLINE_CURVE_WITH_KNOTS('',1,(#953,#954),.UNSPECIFIED.,.F.,.F.,(2,
2),(0.,5.5),.UNSPECIFIED.);
#465=B_SPLINE_CURVE_WITH_KNOTS('',1,(#961,#962),.UNSPECIFIED.,.F.,.F.,(2,
2),(0.,5.5),.UNSPECIFIED.);
#466=B_SPLINE_CURVE_WITH_KNOTS('',1,(#966,#967),.UNSPECIFIED.,.F.,.F.,(2,
2),(6.27272727272731,8.73871639320632),.UNSPECIFIED.);
#467=B_SPLINE_CURVE_WITH_KNOTS('',1,(#968,#969),.UNSPECIFIED.,.F.,.F.,(2,
2),(-8.73871639320632,-6.27272727272731),.UNSPECIFIED.);
#468=B_SPLINE_CURVE_WITH_KNOTS('',1,(#970,#971),.UNSPECIFIED.,.F.,.F.,(2,
2),(-12.,0.),.UNSPECIFIED.);
#469=B_SPLINE_CURVE_WITH_KNOTS('',1,(#972,#973),.UNSPECIFIED.,.F.,.F.,(2,
2),(3.,15.),.UNSPECIFIED.);
#470=B_SPLINE_CURVE_WITH_KNOTS('',1,(#974,#975),.UNSPECIFIED.,.F.,.F.,(2,
2),(-9.04196010842296,0.),.UNSPECIFIED.);
#471=B_SPLINE_CURVE_WITH_KNOTS('',1,(#976,#977),.UNSPECIFIED.,.F.,.F.,(2,
2),(0.,9.04196010842296),.UNSPECIFIED.);
#472=B_SPLINE_CURVE_WITH_KNOTS('',1,(#978,#979),.UNSPECIFIED.,.F.,.F.,(2,
2),(2.99999999999998,15.),.UNSPECIFIED.);
#473=B_SPLINE_CURVE_WITH_KNOTS('',1,(#980,#981),.UNSPECIFIED.,.F.,.F.,(2,
2),(-12.,0.),.UNSPECIFIED.);
#474=B_SPLINE_CURVE_WITH_KNOTS('',1,(#994,#995),.UNSPECIFIED.,.F.,.F.,(2,
2),(-5.5,0.),.UNSPECIFIED.);
#475=B_SPLINE_CURVE_WITH_KNOTS('',1,(#996,#997),.UNSPECIFIED.,.F.,.F.,(2,
2),(-5.5,0.),.UNSPECIFIED.);
#476=B_SPLINE_CURVE_WITH_KNOTS('',1,(#1004,#1005),.UNSPECIFIED.,.F.,.F.,
(2,2),(6.5,12.),.UNSPECIFIED.);
#477=B_SPLINE_CURVE_WITH_KNOTS('',1,(#1006,#1007),.UNSPECIFIED.,.F.,.F.,
(2,2),(6.5,12.),.UNSPECIFIED.);
#478=B_SPLINE_CURVE_WITH_KNOTS('',1,(#1008,#1009),.UNSPECIFIED.,.F.,.F.,
(2,2),(0.,12.),.UNSPECIFIED.);
#479=B_SPLINE_CURVE_WITH_KNOTS('',1,(#1010,#1011),.UNSPECIFIED.,.F.,.F.,
(2,2),(-12.,-6.5),.UNSPECIFIED.);
#480=B_SPLINE_CURVE_WITH_KNOTS('',1,(#1012,#1013),.UNSPECIFIED.,.F.,.F.,
(2,2),(0.,12.),.UNSPECIFIED.);
#481=B_SPLINE_CURVE_WITH_KNOTS('',1,(#1014,#1015),.UNSPECIFIED.,.F.,.F.,
(2,2),(-12.,-6.5),.UNSPECIFIED.);
#482=B_SPLINE_CURVE_WITH_KNOTS('',1,(#1019,#1020),.UNSPECIFIED.,.F.,.F.,
(2,2),(0.,5.5),.UNSPECIFIED.);
#483=B_SPLINE_CURVE_WITH_KNOTS('',1,(#1027,#1028),.UNSPECIFIED.,.F.,.F.,
(2,2),(0.,5.5),.UNSPECIFIED.);
#484=B_SPLINE_CURVE_WITH_KNOTS('',1,(#1032,#1033),.UNSPECIFIED.,.F.,.F.,
(2,2),(6.27272727272731,8.73871639320632),.UNSPECIFIED.);
#485=B_SPLINE_CURVE_WITH_KNOTS('',1,(#1034,#1035),.UNSPECIFIED.,.F.,.F.,
(2,2),(-8.73871639320632,-6.27272727272731),.UNSPECIFIED.);
#486=B_SPLINE_CURVE_WITH_KNOTS('',1,(#1036,#1037),.UNSPECIFIED.,.F.,.F.,
(2,2),(-12.,0.),.UNSPECIFIED.);
#487=B_SPLINE_CURVE_WITH_KNOTS('',1,(#1038,#1039),.UNSPECIFIED.,.F.,.F.,
(2,2),(3.,15.),.UNSPECIFIED.);
#488=B_SPLINE_CURVE_WITH_KNOTS('',1,(#1040,#1041),.UNSPECIFIED.,.F.,.F.,
(2,2),(-9.04196010842296,0.),.UNSPECIFIED.);
#489=B_SPLINE_CURVE_WITH_KNOTS('',1,(#1042,#1043),.UNSPECIFIED.,.F.,.F.,
(2,2),(0.,9.04196010842296),.UNSPECIFIED.);
#490=B_SPLINE_CURVE_WITH_KNOTS('',1,(#1044,#1045),.UNSPECIFIED.,.F.,.F.,
(2,2),(2.99999999999998,15.),.UNSPECIFIED.);
#491=B_SPLINE_CURVE_WITH_KNOTS('',1,(#1046,#1047),.UNSPECIFIED.,.F.,.F.,
(2,2),(-12.,0.),.UNSPECIFIED.);
#492=B_SPLINE_CURVE_WITH_KNOTS('',1,(#1060,#1061),.UNSPECIFIED.,.F.,.F.,
(2,2),(-5.5,0.),.UNSPECIFIED.);
#493=B_SPLINE_CURVE_WITH_KNOTS('',1,(#1062,#1063),.UNSPECIFIED.,.F.,.F.,
(2,2),(-5.5,0.),.UNSPECIFIED.);
#494=B_SPLINE_CURVE_WITH_KNOTS('',1,(#1070,#1071),.UNSPECIFIED.,.F.,.F.,
(2,2),(6.5,12.),.UNSPECIFIED.);
#495=B_SPLINE_CURVE_WITH_KNOTS('',1,(#1072,#1073),.UNSPECIFIED.,.F.,.F.,
(2,2),(6.5,12.),.UNSPECIFIED.);
#496=B_SPLINE_CURVE_WITH_KNOTS('',1,(#1074,#1075),.UNSPECIFIED.,.F.,.F.,
(2,2),(0.,34.),.UNSPECIFIED.);
#497=B_SPLINE_CURVE_WITH_KNOTS('',1,(#1076,#1077),.UNSPECIFIED.,.F.,.F.,
(2,2),(0.,34.),.UNSPECIFIED.);
#498=B_SPLINE_CURVE_WITH_KNOTS('',1,(#1078,#1079),.UNSPECIFIED.,.F.,.F.,
(2,2),(0.,34.),.UNSPECIFIED.);
#499=B_SPLINE_CURVE_WITH_KNOTS('',1,(#1080,#1081),.UNSPECIFIED.,.F.,.F.,
(2,2),(0.,34.),.UNSPECIFIED.);
#500=B_SPLINE_CURVE_WITH_KNOTS('',1,(#1082,#1083),.UNSPECIFIED.,.F.,.F.,
(2,2),(0.,5.5),.UNSPECIFIED.);
#501=B_SPLINE_CURVE_WITH_KNOTS('',1,(#1090,#1091),.UNSPECIFIED.,.F.,.F.,
(2,2),(6.5,12.),.UNSPECIFIED.);
#502=B_SPLINE_CURVE_WITH_KNOTS('',1,(#1098,#1099),.UNSPECIFIED.,.F.,.F.,
(2,2),(0.,5.5),.UNSPECIFIED.);
#503=B_SPLINE_CURVE_WITH_KNOTS('',1,(#1106,#1107),.UNSPECIFIED.,.F.,.F.,
(2,2),(6.5,12.),.UNSPECIFIED.);
#504=B_SPLINE_CURVE_WITH_KNOTS('',1,(#1114,#1115),.UNSPECIFIED.,.F.,.F.,
(2,2),(0.,5.5),.UNSPECIFIED.);
#505=B_SPLINE_CURVE_WITH_KNOTS('',1,(#1122,#1123),.UNSPECIFIED.,.F.,.F.,
(2,2),(6.5,12.),.UNSPECIFIED.);
#506=B_SPLINE_CURVE_WITH_KNOTS('',1,(#1130,#1131),.UNSPECIFIED.,.F.,.F.,
(2,2),(0.,5.5),.UNSPECIFIED.);
#507=B_SPLINE_CURVE_WITH_KNOTS('',1,(#1138,#1139),.UNSPECIFIED.,.F.,.F.,
(2,2),(6.5,12.),.UNSPECIFIED.);
#508=VERTEX_POINT('',#886);
#509=VERTEX_POINT('',#887);
#510=VERTEX_POINT('',#888);
#511=VERTEX_POINT('',#889);
#512=VERTEX_POINT('',#890);
#513=VERTEX_POINT('',#891);
#514=VERTEX_POINT('',#892);
#515=VERTEX_POINT('',#893);
#516=VERTEX_POINT('',#894);
#517=VERTEX_POINT('',#895);
#518=VERTEX_POINT('',#896);
#519=VERTEX_POINT('',#897);
#520=VERTEX_POINT('',#898);
#521=VERTEX_POINT('',#899);
#522=VERTEX_POINT('',#900);
#523=VERTEX_POINT('',#901);
#524=VERTEX_POINT('',#902);
#525=VERTEX_POINT('',#903);
#526=VERTEX_POINT('',#904);
#527=VERTEX_POINT('',#905);
#528=VERTEX_POINT('',#906);
#529=VERTEX_POINT('',#907);
#530=VERTEX_POINT('',#908);
#531=VERTEX_POINT('',#909);
#532=VERTEX_POINT('',#910);
#533=VERTEX_POINT('',#911);
#534=VERTEX_POINT('',#912);
#535=VERTEX_POINT('',#913);
#536=VERTEX_POINT('',#914);
#537=VERTEX_POINT('',#915);
#538=VERTEX_POINT('',#916);
#539=VERTEX_POINT('',#917);
#540=VERTEX_POINT('',#918);
#541=VERTEX_POINT('',#919);
#542=VERTEX_POINT('',#920);
#543=VERTEX_POINT('',#921);
#544=VERTEX_POINT('',#922);
#545=VERTEX_POINT('',#923);
#546=VERTEX_POINT('',#924);
#547=VERTEX_POINT('',#925);
#548=VERTEX_POINT('',#926);
#549=VERTEX_POINT('',#927);
#550=VERTEX_POINT('',#928);
#551=VERTEX_POINT('',#929);
#552=VERTEX_POINT('',#930);
#553=VERTEX_POINT('',#931);
#554=VERTEX_POINT('',#932);
#555=VERTEX_POINT('',#933);
#556=VERTEX_POINT('',#934);
#557=VERTEX_POINT('',#935);
#558=VERTEX_POINT('',#936);
#559=VERTEX_POINT('',#937);
#560=VERTEX_POINT('',#938);
#561=VERTEX_POINT('',#939);
#562=VERTEX_POINT('',#940);
#563=VERTEX_POINT('',#941);
#564=CYLINDRICAL_SURFACE('',#684,3.);
#565=CYLINDRICAL_SURFACE('',#685,1.5);
#566=CYLINDRICAL_SURFACE('',#686,1.5);
#567=CYLINDRICAL_SURFACE('',#687,1.5);
#568=CYLINDRICAL_SURFACE('',#688,1.5);
#569=CYLINDRICAL_SURFACE('',#693,3.);
#570=CYLINDRICAL_SURFACE('',#694,1.5);
#571=CYLINDRICAL_SURFACE('',#695,1.5);
#572=CYLINDRICAL_SURFACE('',#696,1.5);
#573=CYLINDRICAL_SURFACE('',#697,1.5);
#574=CYLINDRICAL_SURFACE('',#704,1.5);
#575=CYLINDRICAL_SURFACE('',#705,1.5);
#576=CYLINDRICAL_SURFACE('',#706,1.5);
#577=CYLINDRICAL_SURFACE('',#707,1.5);
#578=CYLINDRICAL_SURFACE('',#708,1.5);
#579=CYLINDRICAL_SURFACE('',#709,1.5);
#580=CYLINDRICAL_SURFACE('',#710,1.5);
#581=CYLINDRICAL_SURFACE('',#711,1.5);
#582=PLANE('',#682);
#583=PLANE('',#683);
#584=PLANE('',#689);
#585=PLANE('',#690);
#586=PLANE('',#691);
#587=PLANE('',#692);
#588=PLANE('',#698);
#589=PLANE('',#699);
#590=PLANE('',#700);
#591=PLANE('',#701);
#592=PLANE('',#702);
#593=PLANE('',#703);
#594=SHAPE_DEFINITION_REPRESENTATION(#595,#680);
#595=PRODUCT_DEFINITION_SHAPE($,$,#597);
#596=PRODUCT_DEFINITION_CONTEXT('3D Mechanical Parts',#669,'design');
#597=PRODUCT_DEFINITION('A','First version',#639,#596);
#598=DATE_TIME_ROLE('classification_date');
#599=DATE_TIME_ROLE('creation_date');
#600=APPLIED_DATE_AND_TIME_ASSIGNMENT(#624,#598,(#603));
#601=APPLIED_DATE_AND_TIME_ASSIGNMENT(#626,#599,(#597));
#602=SECURITY_CLASSIFICATION_LEVEL('unclassified');
#603=SECURITY_CLASSIFICATION('A','Security for version',#602);
#604=APPLIED_SECURITY_CLASSIFICATION_ASSIGNMENT(#603,(#639));
#605=APPROVAL_ROLE('Version approval');
#606=APPROVAL_ROLE('Version Security approval');
#607=APPROVAL_ROLE('Definition approval');
#608=APPROVAL_PERSON_ORGANIZATION(#657,#633,#605);
#609=APPROVAL_PERSON_ORGANIZATION(#658,#634,#606);
#610=APPROVAL_PERSON_ORGANIZATION(#661,#635,#607);
#611=COORDINATED_UNIVERSAL_TIME_OFFSET(5,0,.BEHIND.);
#612=LOCAL_TIME(0,0,0.,#611);
#613=LOCAL_TIME(0,0,0.,#611);
#614=LOCAL_TIME(0,0,0.,#611);
#615=LOCAL_TIME(0,0,0.,#611);
#616=LOCAL_TIME(0,0,0.,#611);
#617=CALENDAR_DATE(1999,1,1);
#618=CALENDAR_DATE(1999,1,1);
#619=CALENDAR_DATE(1999,1,1);
#620=CALENDAR_DATE(1999,1,1);
#621=CALENDAR_DATE(1999,1,1);
#622=DATE_AND_TIME(#617,#612);
#623=DATE_AND_TIME(#618,#613);
#624=DATE_AND_TIME(#619,#614);
#625=DATE_AND_TIME(#620,#615);
#626=DATE_AND_TIME(#621,#616);
#627=APPROVAL_DATE_TIME(#622,#633);
#628=APPROVAL_DATE_TIME(#623,#634);
#629=APPROVAL_DATE_TIME(#625,#635);
#630=APPROVAL_STATUS('not_yet_approved');
#631=APPROVAL_STATUS('not_yet_approved');
#632=APPROVAL_STATUS('approved');
#633=APPROVAL(#630,'Version approval');
#634=APPROVAL(#631,'Version Security approval');
#635=APPROVAL(#632,'Definition approval');
#636=APPLIED_APPROVAL_ASSIGNMENT(#633,(#639));
#637=APPLIED_APPROVAL_ASSIGNMENT(#634,(#603));
#638=APPLIED_APPROVAL_ASSIGNMENT(#635,(#597));
#639=PRODUCT_DEFINITION_FORMATION_WITH_SPECIFIED_SOURCE('A',
'First version',#671,.MADE.);
#640=PERSON_AND_ORGANIZATION_ROLE('design_owner');
#641=PERSON_AND_ORGANIZATION_ROLE('creator');
#642=PERSON_AND_ORGANIZATION_ROLE('design_supplier');
#643=PERSON_AND_ORGANIZATION_ROLE('classification_officer');
#644=PERSON_AND_ORGANIZATION_ROLE('creator');
#645=ORGANIZATION('STI','lab','lab');
#646=ORGANIZATION('STI','unknown','unknown');
#647=ORGANIZATION('STI','unknown','unknown');
#648=ORGANIZATION('STI','unknown','unknown');
#649=ORGANIZATION('STI','unknown','unknown');
#650=ORGANIZATION('STI','unknown','unknown');
#651=ORGANIZATION('STI','unknown','unknown');
#652=PERSON('1','Box','vc60',$,$,$);
#653=PERSON('2','last','first',$,$,$);
#654=PERSON('3','President','Mr.',$,$,$);
#655=PERSON_AND_ORGANIZATION(#652,#645);
#656=PERSON_AND_ORGANIZATION(#653,#646);
#657=PERSON_AND_ORGANIZATION(#654,#647);
#658=PERSON_AND_ORGANIZATION(#654,#648);
#659=PERSON_AND_ORGANIZATION(#654,#649);
#660=PERSON_AND_ORGANIZATION(#653,#650);
#661=PERSON_AND_ORGANIZATION(#654,#651);
#662=APPLIED_PERSON_AND_ORGANIZATION_ASSIGNMENT(#655,#640,(#671));
#663=APPLIED_PERSON_AND_ORGANIZATION_ASSIGNMENT(#656,#641,(#639));
#664=APPLIED_PERSON_AND_ORGANIZATION_ASSIGNMENT(#656,#642,(#639));
#665=APPLIED_PERSON_AND_ORGANIZATION_ASSIGNMENT(#659,#643,(#603));
#666=APPLIED_PERSON_AND_ORGANIZATION_ASSIGNMENT(#660,#644,(#597));
#667=PRODUCT_RELATED_PRODUCT_CATEGORY('detail','detail',(#671));
#668=APPLICATION_PROTOCOL_DEFINITION('International Standard',
'config_control_design',1994,#669);
#669=APPLICATION_CONTEXT(
'configuration controlled 3d designs of mechanical parts and assemblie
s');
#670=PRODUCT_CONTEXT('3D Mechanical Parts',#669,'mechanical');
#671=PRODUCT('Document','Document','',(#670));
#672=(
LENGTH_UNIT()
NAMED_UNIT(*)
SI_UNIT(.MILLI.,.METRE.)
);
#673=(
NAMED_UNIT(*)
PLANE_ANGLE_UNIT()
SI_UNIT($,.RADIAN.)
);
#674=DIMENSIONAL_EXPONENTS(0.,0.,0.,0.,0.,0.,0.);
#675=PLANE_ANGLE_MEASURE_WITH_UNIT(PLANE_ANGLE_MEASURE(0.01745329252),#673);
#676=(
CONVERSION_BASED_UNIT('DEGREES',#675)
NAMED_UNIT(#674)
PLANE_ANGLE_UNIT()
);
#677=(
NAMED_UNIT(*)
SI_UNIT($,.STERADIAN.)
SOLID_ANGLE_UNIT()
);
#678=UNCERTAINTY_MEASURE_WITH_UNIT(LENGTH_MEASURE(0.001),#672,
'DISTANCE_ACCURACY_VALUE',
'Maximum model space distance between geometric entities at asserted c
onnectivities');
#679=(
GEOMETRIC_REPRESENTATION_CONTEXT(3)
GLOBAL_UNCERTAINTY_ASSIGNED_CONTEXT((#678))
GLOBAL_UNIT_ASSIGNED_CONTEXT((#677,#676,#672))
REPRESENTATION_CONTEXT('ID1','3D')
);
#680=SHAPE_REPRESENTATION('Document',(#681,#748),#679);
#681=AXIS2_PLACEMENT_3D($,#855,#749,#750);
#682=AXIS2_PLACEMENT_3D('',#856,#751,$);
#683=AXIS2_PLACEMENT_3D('',#857,#752,$);
#684=AXIS2_PLACEMENT_3D('',#858,#753,$);
#685=AXIS2_PLACEMENT_3D('',#859,#754,$);
#686=AXIS2_PLACEMENT_3D('',#860,#755,$);
#687=AXIS2_PLACEMENT_3D('',#861,#756,$);
#688=AXIS2_PLACEMENT_3D('',#862,#757,$);
#689=AXIS2_PLACEMENT_3D('',#863,#758,$);
#690=AXIS2_PLACEMENT_3D('',#864,#759,$);
#691=AXIS2_PLACEMENT_3D('',#865,#760,$);
#692=AXIS2_PLACEMENT_3D('',#866,#761,$);
#693=AXIS2_PLACEMENT_3D('',#867,#762,$);
#694=AXIS2_PLACEMENT_3D('',#868,#763,$);
#695=AXIS2_PLACEMENT_3D('',#869,#764,$);
#696=AXIS2_PLACEMENT_3D('',#870,#765,$);
#697=AXIS2_PLACEMENT_3D('',#871,#766,$);
#698=AXIS2_PLACEMENT_3D('',#872,#767,$);
#699=AXIS2_PLACEMENT_3D('',#873,#768,$);
#700=AXIS2_PLACEMENT_3D('',#874,#769,$);
#701=AXIS2_PLACEMENT_3D('',#875,#770,$);
#702=AXIS2_PLACEMENT_3D('',#876,#771,$);
#703=AXIS2_PLACEMENT_3D('',#877,#772,$);
#704=AXIS2_PLACEMENT_3D('',#878,#773,$);
#705=AXIS2_PLACEMENT_3D('',#879,#774,$);
#706=AXIS2_PLACEMENT_3D('',#880,#775,$);
#707=AXIS2_PLACEMENT_3D('',#881,#776,$);
#708=AXIS2_PLACEMENT_3D('',#882,#777,$);
#709=AXIS2_PLACEMENT_3D('',#883,#778,$);
#710=AXIS2_PLACEMENT_3D('',#884,#779,$);
#711=AXIS2_PLACEMENT_3D('',#885,#780,$);
#712=AXIS2_PLACEMENT_3D($,#950,#781,#782);
#713=AXIS2_PLACEMENT_3D($,#955,#783,#784);
#714=AXIS2_PLACEMENT_3D($,#958,#785,#786);
#715=AXIS2_PLACEMENT_3D($,#963,#787,#788);
#716=AXIS2_PLACEMENT_3D($,#982,#789,#790);
#717=AXIS2_PLACEMENT_3D($,#985,#791,#792);
#718=AXIS2_PLACEMENT_3D($,#988,#793,#794);
#719=AXIS2_PLACEMENT_3D($,#991,#795,#796);
#720=AXIS2_PLACEMENT_3D($,#998,#797,#798);
#721=AXIS2_PLACEMENT_3D($,#1001,#799,#800);
#722=AXIS2_PLACEMENT_3D($,#1016,#801,#802);
#723=AXIS2_PLACEMENT_3D($,#1021,#803,#804);
#724=AXIS2_PLACEMENT_3D($,#1024,#805,#806);
#725=AXIS2_PLACEMENT_3D($,#1029,#807,#808);
#726=AXIS2_PLACEMENT_3D($,#1048,#809,#810);
#727=AXIS2_PLACEMENT_3D($,#1051,#811,#812);
#728=AXIS2_PLACEMENT_3D($,#1054,#813,#814);
#729=AXIS2_PLACEMENT_3D($,#1057,#815,#816);
#730=AXIS2_PLACEMENT_3D($,#1064,#817,#818);
#731=AXIS2_PLACEMENT_3D($,#1067,#819,#820);
#732=AXIS2_PLACEMENT_3D($,#1084,#821,#822);
#733=AXIS2_PLACEMENT_3D($,#1087,#823,#824);
#734=AXIS2_PLACEMENT_3D($,#1092,#825,#826);
#735=AXIS2_PLACEMENT_3D($,#1095,#827,#828);
#736=AXIS2_PLACEMENT_3D($,#1100,#829,#830);
#737=AXIS2_PLACEMENT_3D($,#1103,#831,#832);
#738=AXIS2_PLACEMENT_3D($,#1108,#833,#834);
#739=AXIS2_PLACEMENT_3D($,#1111,#835,#836);
#740=AXIS2_PLACEMENT_3D($,#1116,#837,#838);
#741=AXIS2_PLACEMENT_3D($,#1119,#839,#840);
#742=AXIS2_PLACEMENT_3D($,#1124,#841,#842);
#743=AXIS2_PLACEMENT_3D($,#1127,#843,#844);
#744=AXIS2_PLACEMENT_3D($,#1132,#845,#846);
#745=AXIS2_PLACEMENT_3D($,#1135,#847,#848);
#746=AXIS2_PLACEMENT_3D($,#1140,#849,#850);
#747=AXIS2_PLACEMENT_3D($,#1143,#851,#852);
#748=AXIS2_PLACEMENT_3D($,#1146,#853,#854);
#749=DIRECTION('',(0.,0.,1.));
#750=DIRECTION('',(1.,0.,0.));
#751=DIRECTION('',(-1.,0.,0.));
#752=DIRECTION('',(-1.,0.,0.));
#753=DIRECTION('',(0.,-1.,0.));
#754=DIRECTION('',(0.,0.,1.));
#755=DIRECTION('',(0.,0.,1.));
#756=DIRECTION('',(0.,0.,1.));
#757=DIRECTION('',(0.,0.,1.));
#758=DIRECTION('',(0.,0.,1.));
#759=DIRECTION('',(0.,0.,-1.));
#760=DIRECTION('',(1.,0.,0.));
#761=DIRECTION('',(1.,0.,0.));
#762=DIRECTION('',(0.,1.,0.));
#763=DIRECTION('',(0.,0.,-1.));
#764=DIRECTION('',(0.,0.,-1.));
#765=DIRECTION('',(0.,0.,-1.));
#766=DIRECTION('',(0.,0.,-1.));
#767=DIRECTION('',(0.,0.,1.));
#768=DIRECTION('',(0.,0.,-1.));
#769=DIRECTION('',(0.,0.,1.));
#770=DIRECTION('',(0.,0.,-1.));
#771=DIRECTION('',(0.,-1.,0.));
#772=DIRECTION('',(0.,1.,0.));
#773=DIRECTION('',(0.,0.,1.));
#774=DIRECTION('',(0.,0.,1.));
#775=DIRECTION('',(0.,0.,1.));
#776=DIRECTION('',(0.,0.,1.));
#777=DIRECTION('',(0.,0.,-1.));
#778=DIRECTION('',(0.,0.,-1.));
#779=DIRECTION('',(0.,0.,-1.));
#780=DIRECTION('',(0.,0.,-1.));
#781=DIRECTION('',(0.,0.,-1.));
#782=DIRECTION('',(-1.,0.,0.));
#783=DIRECTION('',(0.,0.,1.));
#784=DIRECTION('',(-1.,0.,0.));
#785=DIRECTION('',(0.,0.,-1.));
#786=DIRECTION('',(-1.,0.,0.));
#787=DIRECTION('',(0.,0.,1.));
#788=DIRECTION('',(-1.,0.,0.));
#789=DIRECTION('',(0.,0.,-1.));
#790=DIRECTION('',(-1.,0.,0.));
#791=DIRECTION('',(0.,0.,1.));
#792=DIRECTION('',(-1.,0.,0.));
#793=DIRECTION('',(0.,0.,-1.));
#794=DIRECTION('',(-1.,0.,0.));
#795=DIRECTION('',(0.,0.,1.));
#796=DIRECTION('',(-1.,0.,0.));
#797=DIRECTION('',(0.,1.,0.));
#798=DIRECTION('',(-0.986013297183289,0.,0.166666666666552));
#799=DIRECTION('',(0.,-1.,0.));
#800=DIRECTION('',(-0.986013297183287,0.,-0.166666666666561));
#801=DIRECTION('',(0.,0.,1.));
#802=DIRECTION('',(1.,-5.9211894646675E-16,0.));
#803=DIRECTION('',(0.,0.,-1.));
#804=DIRECTION('',(1.,5.9211894646675E-16,0.));
#805=DIRECTION('',(0.,0.,1.));
#806=DIRECTION('',(1.,-5.9211894646675E-16,0.));
#807=DIRECTION('',(0.,0.,-1.));
#808=DIRECTION('',(1.,5.9211894646675E-16,0.));
#809=DIRECTION('',(0.,0.,1.));
#810=DIRECTION('',(1.,-5.9211894646675E-16,0.));
#811=DIRECTION('',(0.,0.,-1.));
#812=DIRECTION('',(1.,5.9211894646675E-16,0.));
#813=DIRECTION('',(0.,0.,1.));
#814=DIRECTION('',(1.,-5.9211894646675E-16,0.));
#815=DIRECTION('',(0.,0.,-1.));
#816=DIRECTION('',(1.,5.9211894646675E-16,0.));
#817=DIRECTION('',(0.,-1.,0.));
#818=DIRECTION('',(0.986013297183289,0.,0.166666666666552));
#819=DIRECTION('',(0.,1.,0.));
#820=DIRECTION('',(0.986013297183288,0.,-0.166666666666557));
#821=DIRECTION('',(0.,0.,-1.));
#822=DIRECTION('',(1.,0.,0.));
#823=DIRECTION('',(0.,0.,1.));
#824=DIRECTION('',(1.,0.,0.));
#825=DIRECTION('',(0.,0.,1.));
#826=DIRECTION('',(1.,0.,0.));
#827=DIRECTION('',(0.,0.,-1.));
#828=DIRECTION('',(1.,0.,0.));
#829=DIRECTION('',(0.,0.,-1.));
#830=DIRECTION('',(1.,0.,0.));
#831=DIRECTION('',(0.,0.,1.));
#832=DIRECTION('',(1.,0.,0.));
#833=DIRECTION('',(0.,0.,1.));
#834=DIRECTION('',(1.,0.,0.));
#835=DIRECTION('',(0.,0.,-1.));
#836=DIRECTION('',(1.,0.,0.));
#837=DIRECTION('',(0.,0.,1.));
#838=DIRECTION('',(-1.,0.,0.));
#839=DIRECTION('',(0.,0.,-1.));
#840=DIRECTION('',(-1.,0.,0.));
#841=DIRECTION('',(0.,0.,-1.));
#842=DIRECTION('',(-1.,0.,0.));
#843=DIRECTION('',(0.,0.,1.));
#844=DIRECTION('',(-1.,0.,0.));
#845=DIRECTION('',(0.,0.,1.));
#846=DIRECTION('',(-1.,0.,0.));
#847=DIRECTION('',(0.,0.,-1.));
#848=DIRECTION('',(-1.,0.,0.));
#849=DIRECTION('',(0.,0.,-1.));
#850=DIRECTION('',(-1.,0.,0.));
#851=DIRECTION('',(0.,0.,1.));
#852=DIRECTION('',(-1.,0.,0.));
#853=DIRECTION('',(0.,0.,1.));
#854=DIRECTION('',(1.,0.,0.));
#855=CARTESIAN_POINT('',(0.,0.,0.));
#856=CARTESIAN_POINT('',(-22.000000000026,6.,-6.00000000000017));
#857=CARTESIAN_POINT('',(-22.000000000026,6.,-6.00000000000017));
#858=CARTESIAN_POINT('',(-10.000000000053,14.5,-1.75850355372583E-13));
#859=CARTESIAN_POINT('',(-17.000000000026,-2.5,-4.50000000000017));
#860=CARTESIAN_POINT('',(-17.000000000026,-2.5,-4.50000000000017));
#861=CARTESIAN_POINT('',(-17.000000000026,2.5,-4.50000000000017));
#862=CARTESIAN_POINT('',(-17.000000000026,2.5,-4.50000000000017));
#863=CARTESIAN_POINT('',(-12.000000000026,-9.,-0.500000000000175));
#864=CARTESIAN_POINT('',(-45.000000000026,-9.,0.499999999999825));
#865=CARTESIAN_POINT('',(11.999999999974,6.,-6.00000000000017));
#866=CARTESIAN_POINT('',(11.999999999974,6.,-6.00000000000017));
#867=CARTESIAN_POINT('',(1.02307224607835E-12,14.5,-1.74908299897373E-13));
#868=CARTESIAN_POINT('',(6.99999999997402,-2.5,-4.50000000000017));
#869=CARTESIAN_POINT('',(6.99999999997402,-2.5,-4.50000000000017));
#870=CARTESIAN_POINT('',(6.99999999997402,2.5,-4.50000000000017));
#871=CARTESIAN_POINT('',(6.99999999997402,2.5,-4.50000000000017));
#872=CARTESIAN_POINT('',(1.99999999997402,-9.,-0.500000000000175));
#873=CARTESIAN_POINT('',(34.999999999974,-9.,0.499999999999825));
#874=CARTESIAN_POINT('',(11.999999999974,-6.,5.99999999999983));
#875=CARTESIAN_POINT('',(11.999999999974,-6.,-6.00000000000017));
#876=CARTESIAN_POINT('',(-22.000000000026,-6.,-6.00000000000017));
#877=CARTESIAN_POINT('',(11.999999999974,6.,-6.00000000000017));
#878=CARTESIAN_POINT('',(-17.000000000026,-2.5,-4.50000000000017));
#879=CARTESIAN_POINT('',(-17.000000000026,-2.5,-4.50000000000017));
#880=CARTESIAN_POINT('',(-17.000000000026,2.5,-4.50000000000017));
#881=CARTESIAN_POINT('',(-17.000000000026,2.5,-4.50000000000017));
#882=CARTESIAN_POINT('',(6.99999999997402,-2.5,-4.50000000000017));
#883=CARTESIAN_POINT('',(6.99999999997402,-2.5,-4.50000000000017));
#884=CARTESIAN_POINT('',(6.99999999997402,2.5,-4.50000000000017));
#885=CARTESIAN_POINT('',(6.99999999997402,2.5,-4.50000000000017));
#886=CARTESIAN_POINT('',(-22.000000000026,-6.,-6.00000000000017));
#887=CARTESIAN_POINT('',(-22.000000000026,6.,-6.00000000000017));
#888=CARTESIAN_POINT('',(-22.000000000026,-6.,5.99999999999983));
#889=CARTESIAN_POINT('',(-22.000000000026,6.,5.99999999999983));
#890=CARTESIAN_POINT('',(-18.500000000026,-2.5,-6.00000000000017));
#891=CARTESIAN_POINT('',(-18.500000000026,-2.5,5.99999999999983));
#892=CARTESIAN_POINT('',(-18.500000000026,2.5,-6.00000000000017));
#893=CARTESIAN_POINT('',(-18.500000000026,2.5,5.99999999999983));
#894=CARTESIAN_POINT('',(-22.000000000026,-6.,-0.500000000000175));
#895=CARTESIAN_POINT('',(-12.9580398916028,-6.,-0.50000000000017));
#896=CARTESIAN_POINT('',(-12.9580398916028,-6.,0.499999999999827));
#897=CARTESIAN_POINT('',(-22.000000000026,-6.,0.499999999999825));
#898=CARTESIAN_POINT('',(-22.000000000026,6.,-0.500000000000175));
#899=CARTESIAN_POINT('',(-22.000000000026,6.,0.499999999999825));
#900=CARTESIAN_POINT('',(-12.9580398916028,6.,-0.500000000000173));
#901=CARTESIAN_POINT('',(-12.9580398916027,6.,0.499999999999826));
#902=CARTESIAN_POINT('',(-18.500000000026,-2.5,-0.500000000000175));
#903=CARTESIAN_POINT('',(-18.500000000026,-2.5,0.499999999999825));
#904=CARTESIAN_POINT('',(-18.500000000026,2.5,-0.500000000000175));
#905=CARTESIAN_POINT('',(-18.500000000026,2.5,0.499999999999825));
#906=CARTESIAN_POINT('',(11.999999999974,-6.,-6.00000000000017));
#907=CARTESIAN_POINT('',(11.999999999974,6.,-6.00000000000017));
#908=CARTESIAN_POINT('',(11.999999999974,-6.,5.99999999999983));
#909=CARTESIAN_POINT('',(11.999999999974,6.,5.99999999999983));
#910=CARTESIAN_POINT('',(8.49999999997402,-2.5,-6.00000000000017));
#911=CARTESIAN_POINT('',(8.49999999997402,-2.5,5.99999999999983));
#912=CARTESIAN_POINT('',(8.49999999997402,2.5,-6.00000000000017));
#913=CARTESIAN_POINT('',(8.49999999997402,2.5,5.99999999999983));
#914=CARTESIAN_POINT('',(11.999999999974,-6.,-0.500000000000175));
#915=CARTESIAN_POINT('',(2.95803989155087,-6.,-0.50000000000017));
#916=CARTESIAN_POINT('',(2.95803989155087,-6.,0.499999999999827));
#917=CARTESIAN_POINT('',(11.999999999974,-6.,0.499999999999825));
#918=CARTESIAN_POINT('',(11.999999999974,6.,-0.500000000000175));
#919=CARTESIAN_POINT('',(11.999999999974,6.,0.499999999999825));
#920=CARTESIAN_POINT('',(2.95803989155087,6.,-0.500000000000173));
#921=CARTESIAN_POINT('',(2.95803989155075,6.,0.499999999999826));
#922=CARTESIAN_POINT('',(8.49999999997402,-2.5,-0.500000000000175));
#923=CARTESIAN_POINT('',(8.49999999997402,-2.5,0.499999999999825));
#924=CARTESIAN_POINT('',(8.49999999997402,2.5,-0.500000000000175));
#925=CARTESIAN_POINT('',(8.49999999997402,2.5,0.499999999999825));
#926=CARTESIAN_POINT('',(-15.500000000026,-2.5,5.99999999999983));
#927=CARTESIAN_POINT('',(-15.500000000026,-2.5,0.499999999999826));
#928=CARTESIAN_POINT('',(-15.500000000026,-2.5,-0.500000000000176));
#929=CARTESIAN_POINT('',(-15.500000000026,-2.5,-6.00000000000017));
#930=CARTESIAN_POINT('',(-15.500000000026,2.5,5.99999999999983));
#931=CARTESIAN_POINT('',(-15.500000000026,2.5,0.499999999999826));
#932=CARTESIAN_POINT('',(-15.500000000026,2.5,-0.500000000000176));
#933=CARTESIAN_POINT('',(-15.500000000026,2.5,-6.00000000000017));
#934=CARTESIAN_POINT('',(5.49999999997402,-2.5,5.99999999999983));
#935=CARTESIAN_POINT('',(5.49999999997402,-2.5,0.499999999999826));
#936=CARTESIAN_POINT('',(5.49999999997402,-2.5,-0.500000000000176));
#937=CARTESIAN_POINT('',(5.49999999997402,-2.5,-6.00000000000017));
#938=CARTESIAN_POINT('',(5.49999999997402,2.5,5.99999999999983));
#939=CARTESIAN_POINT('',(5.49999999997402,2.5,0.499999999999826));
#940=CARTESIAN_POINT('',(5.49999999997402,2.5,-0.500000000000176));
#941=CARTESIAN_POINT('',(5.49999999997402,2.5,-6.00000000000017));
#942=CARTESIAN_POINT('',(-22.000000000026,-6.,-6.00000000000017));
#943=CARTESIAN_POINT('',(-22.000000000026,6.,-6.00000000000017));
#944=CARTESIAN_POINT('',(-22.000000000026,-6.,5.99999999999983));
#945=CARTESIAN_POINT('',(-22.000000000026,-6.,0.499999999999825));
#946=CARTESIAN_POINT('',(-22.000000000026,-6.,5.99999999999983));
#947=CARTESIAN_POINT('',(-22.000000000026,6.,5.99999999999983));
#948=CARTESIAN_POINT('',(-22.000000000026,6.,5.99999999999983));
#949=CARTESIAN_POINT('',(-22.000000000026,6.,0.499999999999825));
#950=CARTESIAN_POINT('',(-17.000000000026,-2.5,5.99999999999983));
#951=CARTESIAN_POINT('',(-18.500000000026,-2.5,5.99999999999983));
#952=CARTESIAN_POINT('',(-15.500000000026,-2.5,5.99999999999983));
#953=CARTESIAN_POINT('',(-18.500000000026,-2.5,5.99999999999983));
#954=CARTESIAN_POINT('',(-18.500000000026,-2.5,0.499999999999825));
#955=CARTESIAN_POINT('',(-17.000000000026,-2.5,-6.00000000000017));
#956=CARTESIAN_POINT('',(-18.500000000026,-2.5,-6.00000000000017));
#957=CARTESIAN_POINT('',(-15.500000000026,-2.5,-6.00000000000017));
#958=CARTESIAN_POINT('',(-17.000000000026,2.5,5.99999999999983));
#959=CARTESIAN_POINT('',(-18.500000000026,2.5,5.99999999999983));
#960=CARTESIAN_POINT('',(-15.500000000026,2.5,5.99999999999983));
#961=CARTESIAN_POINT('',(-18.500000000026,2.5,5.99999999999983));
#962=CARTESIAN_POINT('',(-18.500000000026,2.5,0.499999999999825));
#963=CARTESIAN_POINT('',(-17.000000000026,2.5,-6.00000000000017));
#964=CARTESIAN_POINT('',(-18.500000000026,2.5,-6.00000000000017));
#965=CARTESIAN_POINT('',(-15.500000000026,2.5,-6.00000000000017));
#966=CARTESIAN_POINT('',(-22.000000000026,-6.,-0.500000000000175));
#967=CARTESIAN_POINT('',(-12.9580398916028,-6.,-0.50000000000017));
#968=CARTESIAN_POINT('',(-12.9580398916028,-6.,0.499999999999827));
#969=CARTESIAN_POINT('',(-22.000000000026,-6.,0.499999999999825));
#970=CARTESIAN_POINT('',(-22.000000000026,6.,-0.500000000000175));
#971=CARTESIAN_POINT('',(-22.000000000026,-6.,-0.500000000000175));
#972=CARTESIAN_POINT('',(-22.000000000026,-6.,0.499999999999825));
#973=CARTESIAN_POINT('',(-22.000000000026,6.,0.499999999999825));
#974=CARTESIAN_POINT('',(-12.9580398916028,6.,-0.500000000000173));
#975=CARTESIAN_POINT('',(-22.000000000026,6.,-0.500000000000175));
#976=CARTESIAN_POINT('',(-22.000000000026,6.,0.499999999999825));
#977=CARTESIAN_POINT('',(-12.9580398916027,6.,0.499999999999826));
#978=CARTESIAN_POINT('',(-12.9580398916028,-6.,-0.50000000000017));
#979=CARTESIAN_POINT('',(-12.9580398916028,6.,-0.500000000000173));
#980=CARTESIAN_POINT('',(-12.9580398916027,6.,0.499999999999826));
#981=CARTESIAN_POINT('',(-12.9580398916028,-6.,0.499999999999827));
#982=CARTESIAN_POINT('',(-17.000000000026,-2.5,-0.500000000000176));
#983=CARTESIAN_POINT('',(-18.500000000026,-2.5,-0.500000000000176));
#984=CARTESIAN_POINT('',(-15.500000000026,-2.5,-0.500000000000176));
#985=CARTESIAN_POINT('',(-17.000000000026,-2.5,0.499999999999826));
#986=CARTESIAN_POINT('',(-18.500000000026,-2.5,0.499999999999826));
#987=CARTESIAN_POINT('',(-15.500000000026,-2.5,0.499999999999826));
#988=CARTESIAN_POINT('',(-17.000000000026,2.5,-0.500000000000176));
#989=CARTESIAN_POINT('',(-18.500000000026,2.5,-0.500000000000176));
#990=CARTESIAN_POINT('',(-15.500000000026,2.5,-0.500000000000176));
#991=CARTESIAN_POINT('',(-17.000000000026,2.5,0.499999999999826));
#992=CARTESIAN_POINT('',(-18.500000000026,2.5,0.499999999999826));
#993=CARTESIAN_POINT('',(-15.500000000026,2.5,0.499999999999826));
#994=CARTESIAN_POINT('',(-22.000000000026,-6.,-0.500000000000175));
#995=CARTESIAN_POINT('',(-22.000000000026,-6.,-6.00000000000017));
#996=CARTESIAN_POINT('',(-22.000000000026,6.,-0.500000000000175));
#997=CARTESIAN_POINT('',(-22.000000000026,6.,-6.00000000000017));
#998=CARTESIAN_POINT('',(-10.000000000052,-6.,0.));
#999=CARTESIAN_POINT('',(-12.9580398916028,-6.,0.499999999999827));
#1000=CARTESIAN_POINT('',(-12.9580398916028,-6.,-0.500000000000164));
#1001=CARTESIAN_POINT('',(-10.000000000052,6.,-3.29245035215357E-13));
#1002=CARTESIAN_POINT('',(-12.9580398916028,6.,-0.500000000000173));
#1003=CARTESIAN_POINT('',(-12.9580398916028,6.,0.499999999999829));
#1004=CARTESIAN_POINT('',(-18.500000000026,-2.5,-0.500000000000175));
#1005=CARTESIAN_POINT('',(-18.500000000026,-2.5,-6.00000000000017));
#1006=CARTESIAN_POINT('',(-18.500000000026,2.5,-0.500000000000175));
#1007=CARTESIAN_POINT('',(-18.500000000026,2.5,-6.00000000000017));
#1008=CARTESIAN_POINT('',(11.999999999974,-6.,-6.00000000000017));
#1009=CARTESIAN_POINT('',(11.999999999974,6.,-6.00000000000017));
#1010=CARTESIAN_POINT('',(11.999999999974,-6.,5.99999999999983));
#1011=CARTESIAN_POINT('',(11.999999999974,-6.,0.499999999999825));
#1012=CARTESIAN_POINT('',(11.999999999974,-6.,5.99999999999983));
#1013=CARTESIAN_POINT('',(11.999999999974,6.,5.99999999999983));
#1014=CARTESIAN_POINT('',(11.999999999974,6.,5.99999999999983));
#1015=CARTESIAN_POINT('',(11.999999999974,6.,0.499999999999825));
#1016=CARTESIAN_POINT('',(6.99999999997402,-2.5,5.99999999999983));
#1017=CARTESIAN_POINT('',(8.49999999997402,-2.5,5.99999999999983));
#1018=CARTESIAN_POINT('',(5.49999999997402,-2.5,5.99999999999983));
#1019=CARTESIAN_POINT('',(8.49999999997402,-2.5,5.99999999999983));
#1020=CARTESIAN_POINT('',(8.49999999997402,-2.5,0.499999999999825));
#1021=CARTESIAN_POINT('',(6.99999999997402,-2.5,-6.00000000000017));
#1022=CARTESIAN_POINT('',(8.49999999997402,-2.5,-6.00000000000017));
#1023=CARTESIAN_POINT('',(5.49999999997402,-2.5,-6.00000000000017));
#1024=CARTESIAN_POINT('',(6.99999999997402,2.5,5.99999999999983));
#1025=CARTESIAN_POINT('',(8.49999999997402,2.5,5.99999999999983));
#1026=CARTESIAN_POINT('',(5.49999999997402,2.5,5.99999999999983));
#1027=CARTESIAN_POINT('',(8.49999999997402,2.5,5.99999999999983));
#1028=CARTESIAN_POINT('',(8.49999999997402,2.5,0.499999999999825));
#1029=CARTESIAN_POINT('',(6.99999999997402,2.5,-6.00000000000017));
#1030=CARTESIAN_POINT('',(8.49999999997402,2.5,-6.00000000000017));
#1031=CARTESIAN_POINT('',(5.49999999997402,2.5,-6.00000000000017));
#1032=CARTESIAN_POINT('',(11.999999999974,-6.,-0.500000000000175));
#1033=CARTESIAN_POINT('',(2.95803989155087,-6.,-0.50000000000017));
#1034=CARTESIAN_POINT('',(2.95803989155087,-6.,0.499999999999827));
#1035=CARTESIAN_POINT('',(11.999999999974,-6.,0.499999999999825));
#1036=CARTESIAN_POINT('',(11.999999999974,6.,-0.500000000000175));
#1037=CARTESIAN_POINT('',(11.999999999974,-6.,-0.500000000000175));
#1038=CARTESIAN_POINT('',(11.999999999974,-6.,0.499999999999825));
#1039=CARTESIAN_POINT('',(11.999999999974,6.,0.499999999999825));
#1040=CARTESIAN_POINT('',(2.95803989155087,6.,-0.500000000000173));
#1041=CARTESIAN_POINT('',(11.999999999974,6.,-0.500000000000175));
#1042=CARTESIAN_POINT('',(11.999999999974,6.,0.499999999999825));
#1043=CARTESIAN_POINT('',(2.95803989155075,6.,0.499999999999826));
#1044=CARTESIAN_POINT('',(2.95803989155087,-6.,-0.50000000000017));
#1045=CARTESIAN_POINT('',(2.95803989155087,6.,-0.500000000000173));
#1046=CARTESIAN_POINT('',(2.95803989155075,6.,0.499999999999826));
#1047=CARTESIAN_POINT('',(2.95803989155087,-6.,0.499999999999827));
#1048=CARTESIAN_POINT('',(6.99999999997402,-2.5,-0.500000000000176));
#1049=CARTESIAN_POINT('',(8.49999999997402,-2.5,-0.500000000000176));
#1050=CARTESIAN_POINT('',(5.49999999997402,-2.5,-0.500000000000176));
#1051=CARTESIAN_POINT('',(6.99999999997402,-2.5,0.499999999999826));
#1052=CARTESIAN_POINT('',(8.49999999997402,-2.5,0.499999999999826));
#1053=CARTESIAN_POINT('',(5.49999999997402,-2.5,0.499999999999826));
#1054=CARTESIAN_POINT('',(6.99999999997402,2.5,-0.500000000000176));
#1055=CARTESIAN_POINT('',(8.49999999997402,2.5,-0.500000000000176));
#1056=CARTESIAN_POINT('',(5.49999999997402,2.5,-0.500000000000176));
#1057=CARTESIAN_POINT('',(6.99999999997402,2.5,0.499999999999826));
#1058=CARTESIAN_POINT('',(8.49999999997402,2.5,0.499999999999826));
#1059=CARTESIAN_POINT('',(5.49999999997402,2.5,0.499999999999826));
#1060=CARTESIAN_POINT('',(11.999999999974,-6.,-0.500000000000175));
#1061=CARTESIAN_POINT('',(11.999999999974,-6.,-6.00000000000017));
#1062=CARTESIAN_POINT('',(11.999999999974,6.,-0.500000000000175));
#1063=CARTESIAN_POINT('',(11.999999999974,6.,-6.00000000000017));
#1064=CARTESIAN_POINT('',(-3.40330553003325E-15,-6.,-1.86693883375458E-16));
#1065=CARTESIAN_POINT('',(2.95803989155087,-6.,0.499999999999827));
#1066=CARTESIAN_POINT('',(2.95803989155081,-6.,-0.500000000000164));
#1067=CARTESIAN_POINT('',(5.42439899313931E-14,6.,-3.4135939386995E-13));
#1068=CARTESIAN_POINT('',(2.95803989155087,6.,-0.500000000000173));
#1069=CARTESIAN_POINT('',(2.95803989155081,6.,0.499999999999828));
#1070=CARTESIAN_POINT('',(8.49999999997402,-2.5,-0.500000000000175));
#1071=CARTESIAN_POINT('',(8.49999999997402,-2.5,-6.00000000000017));
#1072=CARTESIAN_POINT('',(8.49999999997402,2.5,-0.500000000000175));
#1073=CARTESIAN_POINT('',(8.49999999997402,2.5,-6.00000000000017));
#1074=CARTESIAN_POINT('',(11.999999999974,-6.,5.99999999999983));
#1075=CARTESIAN_POINT('',(-22.000000000026,-6.,5.99999999999983));
#1076=CARTESIAN_POINT('',(11.999999999974,-6.,-6.00000000000017));
#1077=CARTESIAN_POINT('',(-22.000000000026,-6.,-6.00000000000017));
#1078=CARTESIAN_POINT('',(-22.000000000026,6.,-6.00000000000017));
#1079=CARTESIAN_POINT('',(11.999999999974,6.,-6.00000000000017));
#1080=CARTESIAN_POINT('',(-22.000000000026,6.,5.99999999999983));
#1081=CARTESIAN_POINT('',(11.999999999974,6.,5.99999999999983));
#1082=CARTESIAN_POINT('',(-15.500000000026,-2.5,5.99999999999983));
#1083=CARTESIAN_POINT('',(-15.500000000026,-2.5,0.499999999999823));
#1084=CARTESIAN_POINT('',(-17.000000000026,-2.5,5.99999999999983));
#1085=CARTESIAN_POINT('',(-15.500000000026,-2.5,5.99999999999983));
#1086=CARTESIAN_POINT('',(-18.500000000026,-2.5,5.99999999999983));
#1087=CARTESIAN_POINT('',(-17.000000000026,-2.5,0.499999999999826));
#1088=CARTESIAN_POINT('',(-15.500000000026,-2.5,0.499999999999826));
#1089=CARTESIAN_POINT('',(-18.500000000026,-2.5,0.499999999999826));
#1090=CARTESIAN_POINT('',(-15.500000000026,-2.5,-0.500000000000174));
#1091=CARTESIAN_POINT('',(-15.500000000026,-2.5,-6.00000000000017));
#1092=CARTESIAN_POINT('',(-17.000000000026,-2.5,-6.00000000000017));
#1093=CARTESIAN_POINT('',(-15.500000000026,-2.5,-6.00000000000017));
#1094=CARTESIAN_POINT('',(-18.500000000026,-2.5,-6.00000000000017));
#1095=CARTESIAN_POINT('',(-17.000000000026,-2.5,-0.500000000000176));
#1096=CARTESIAN_POINT('',(-15.500000000026,-2.5,-0.500000000000176));
#1097=CARTESIAN_POINT('',(-18.500000000026,-2.5,-0.500000000000176));
#1098=CARTESIAN_POINT('',(-15.500000000026,2.5,5.99999999999983));
#1099=CARTESIAN_POINT('',(-15.500000000026,2.5,0.499999999999823));
#1100=CARTESIAN_POINT('',(-17.000000000026,2.5,5.99999999999983));
#1101=CARTESIAN_POINT('',(-15.500000000026,2.5,5.99999999999983));
#1102=CARTESIAN_POINT('',(-18.500000000026,2.5,5.99999999999983));
#1103=CARTESIAN_POINT('',(-17.000000000026,2.5,0.499999999999826));
#1104=CARTESIAN_POINT('',(-15.500000000026,2.5,0.499999999999826));
#1105=CARTESIAN_POINT('',(-18.500000000026,2.5,0.499999999999826));
#1106=CARTESIAN_POINT('',(-15.500000000026,2.5,-0.500000000000174));
#1107=CARTESIAN_POINT('',(-15.500000000026,2.5,-6.00000000000017));
#1108=CARTESIAN_POINT('',(-17.000000000026,2.5,-6.00000000000017));
#1109=CARTESIAN_POINT('',(-15.500000000026,2.5,-6.00000000000017));
#1110=CARTESIAN_POINT('',(-18.500000000026,2.5,-6.00000000000017));
#1111=CARTESIAN_POINT('',(-17.000000000026,2.5,-0.500000000000176));
#1112=CARTESIAN_POINT('',(-15.500000000026,2.5,-0.500000000000176));
#1113=CARTESIAN_POINT('',(-18.500000000026,2.5,-0.500000000000176));
#1114=CARTESIAN_POINT('',(5.49999999997402,-2.5,5.99999999999983));
#1115=CARTESIAN_POINT('',(5.49999999997402,-2.5,0.499999999999823));
#1116=CARTESIAN_POINT('',(6.99999999997402,-2.5,5.99999999999983));
#1117=CARTESIAN_POINT('',(5.49999999997402,-2.5,5.99999999999983));
#1118=CARTESIAN_POINT('',(8.49999999997402,-2.5,5.99999999999983));
#1119=CARTESIAN_POINT('',(6.99999999997402,-2.5,0.499999999999826));
#1120=CARTESIAN_POINT('',(5.49999999997402,-2.5,0.499999999999826));
#1121=CARTESIAN_POINT('',(8.49999999997402,-2.5,0.499999999999826));
#1122=CARTESIAN_POINT('',(5.49999999997402,-2.5,-0.500000000000174));
#1123=CARTESIAN_POINT('',(5.49999999997402,-2.5,-6.00000000000017));
#1124=CARTESIAN_POINT('',(6.99999999997402,-2.5,-6.00000000000017));
#1125=CARTESIAN_POINT('',(5.49999999997402,-2.5,-6.00000000000017));
#1126=CARTESIAN_POINT('',(8.49999999997402,-2.5,-6.00000000000017));
#1127=CARTESIAN_POINT('',(6.99999999997402,-2.5,-0.500000000000176));
#1128=CARTESIAN_POINT('',(5.49999999997402,-2.5,-0.500000000000176));
#1129=CARTESIAN_POINT('',(8.49999999997402,-2.5,-0.500000000000176));
#1130=CARTESIAN_POINT('',(5.49999999997402,2.5,5.99999999999983));
#1131=CARTESIAN_POINT('',(5.49999999997402,2.5,0.499999999999823));
#1132=CARTESIAN_POINT('',(6.99999999997402,2.5,5.99999999999983));
#1133=CARTESIAN_POINT('',(5.49999999997402,2.5,5.99999999999983));
#1134=CARTESIAN_POINT('',(8.49999999997402,2.5,5.99999999999983));
#1135=CARTESIAN_POINT('',(6.99999999997402,2.5,0.499999999999826));
#1136=CARTESIAN_POINT('',(5.49999999997402,2.5,0.499999999999826));
#1137=CARTESIAN_POINT('',(8.49999999997402,2.5,0.499999999999826));
#1138=CARTESIAN_POINT('',(5.49999999997402,2.5,-0.500000000000174));
#1139=CARTESIAN_POINT('',(5.49999999997402,2.5,-6.00000000000017));
#1140=CARTESIAN_POINT('',(6.99999999997402,2.5,-6.00000000000017));
#1141=CARTESIAN_POINT('',(5.49999999997402,2.5,-6.00000000000017));
#1142=CARTESIAN_POINT('',(8.49999999997402,2.5,-6.00000000000017));
#1143=CARTESIAN_POINT('',(6.99999999997402,2.5,-0.500000000000176));
#1144=CARTESIAN_POINT('',(5.49999999997402,2.5,-0.500000000000176));
#1145=CARTESIAN_POINT('',(8.49999999997402,2.5,-0.500000000000176));
#1146=CARTESIAN_POINT('',(0.,0.,0.));
ENDSEC;
END-ISO-10303-21;
