ISO-10303-21;
HEADER;
/* Generated by software containing ST-Developer
 * from STEP Tools, Inc. (www.steptools.com) 
 */
/* OPTION: using custom schema-name function */

FILE_DESCRIPTION(
/* description */ (''),
/* implementation_level */ '2;1');

FILE_NAME(
/* name */ 'node_cross_6x6',
/* time_stamp */ '2025-11-18T13:44:35+08:00',
/* author */ (''),
/* organization */ (''),
/* preprocessor_version */ 'ST-DEVELOPER v19.2',
/* originating_system */ 'Rhino 8.7',
/* authorisation */ '');

FILE_SCHEMA (('CONFIG_CONTROL_DESIGN'));
ENDSEC;

DATA;
#10=SHAPE_REPRESENTATION_RELATIONSHIP('','',#700,#12);
#11=MANIFOLD_SOLID_BREP('brep_1',#13);
#12=ADVANCED_BREP_SHAPE_REPRESENTATION('brep_rep_0',(#11,#771),#699);
#13=CLOSED_SHELL('',(#14,#15,#16,#17,#18,#19,#20,#21,#22,#23,#24,#25,#26,
#27,#28,#29,#30,#31,#32,#33,#34,#35,#36,#37,#38,#39,#40,#41,#42,#43,#44));
#14=ADVANCED_FACE('',(#61,#45,#46),#602,.T.);
#15=ADVANCED_FACE('',(#62,#47,#48),#603,.T.);
#16=ADVANCED_FACE('',(#63),#604,.T.);
#17=ADVANCED_FACE('',(#64),#605,.T.);
#18=ADVANCED_FACE('',(#65),#583,.F.);
#19=ADVANCED_FACE('',(#66),#584,.F.);
#20=ADVANCED_FACE('',(#67),#585,.F.);
#21=ADVANCED_FACE('',(#68),#586,.F.);
#22=ADVANCED_FACE('',(#69),#587,.F.);
#23=ADVANCED_FACE('',(#70),#588,.F.);
#24=ADVANCED_FACE('',(#71,#49,#50),#606,.T.);
#25=ADVANCED_FACE('',(#72,#51,#52),#607,.T.);
#26=ADVANCED_FACE('',(#73,#53,#54),#608,.T.);
#27=ADVANCED_FACE('',(#74),#609,.T.);
#28=ADVANCED_FACE('',(#75),#610,.T.);
#29=ADVANCED_FACE('',(#76,#55,#56),#611,.T.);
#30=ADVANCED_FACE('',(#77),#589,.F.);
#31=ADVANCED_FACE('',(#78),#590,.F.);
#32=ADVANCED_FACE('',(#79),#591,.F.);
#33=ADVANCED_FACE('',(#80),#592,.F.);
#34=ADVANCED_FACE('',(#81),#593,.F.);
#35=ADVANCED_FACE('',(#82,#57,#58),#612,.T.);
#36=ADVANCED_FACE('',(#83,#59,#60),#613,.T.);
#37=ADVANCED_FACE('',(#84),#594,.F.);
#38=ADVANCED_FACE('',(#85),#595,.F.);
#39=ADVANCED_FACE('',(#86),#596,.F.);
#40=ADVANCED_FACE('',(#87),#597,.F.);
#41=ADVANCED_FACE('',(#88),#598,.F.);
#42=ADVANCED_FACE('',(#89),#599,.F.);
#43=ADVANCED_FACE('',(#90),#600,.F.);
#44=ADVANCED_FACE('',(#91),#601,.F.);
#45=FACE_BOUND('',#93,.T.);
#46=FACE_BOUND('',#94,.T.);
#47=FACE_BOUND('',#96,.T.);
#48=FACE_BOUND('',#97,.T.);
#49=FACE_BOUND('',#107,.T.);
#50=FACE_BOUND('',#108,.T.);
#51=FACE_BOUND('',#110,.T.);
#52=FACE_BOUND('',#111,.T.);
#53=FACE_BOUND('',#113,.T.);
#54=FACE_BOUND('',#114,.T.);
#55=FACE_BOUND('',#118,.T.);
#56=FACE_BOUND('',#119,.T.);
#57=FACE_BOUND('',#126,.T.);
#58=FACE_BOUND('',#127,.T.);
#59=FACE_BOUND('',#129,.T.);
#60=FACE_BOUND('',#130,.T.);
#61=FACE_OUTER_BOUND('',#92,.T.);
#62=FACE_OUTER_BOUND('',#95,.T.);
#63=FACE_OUTER_BOUND('',#98,.T.);
#64=FACE_OUTER_BOUND('',#99,.T.);
#65=FACE_OUTER_BOUND('',#100,.T.);
#66=FACE_OUTER_BOUND('',#101,.T.);
#67=FACE_OUTER_BOUND('',#102,.T.);
#68=FACE_OUTER_BOUND('',#103,.T.);
#69=FACE_OUTER_BOUND('',#104,.T.);
#70=FACE_OUTER_BOUND('',#105,.T.);
#71=FACE_OUTER_BOUND('',#106,.T.);
#72=FACE_OUTER_BOUND('',#109,.T.);
#73=FACE_OUTER_BOUND('',#112,.T.);
#74=FACE_OUTER_BOUND('',#115,.T.);
#75=FACE_OUTER_BOUND('',#116,.T.);
#76=FACE_OUTER_BOUND('',#117,.T.);
#77=FACE_OUTER_BOUND('',#120,.T.);
#78=FACE_OUTER_BOUND('',#121,.T.);
#79=FACE_OUTER_BOUND('',#122,.T.);
#80=FACE_OUTER_BOUND('',#123,.T.);
#81=FACE_OUTER_BOUND('',#124,.T.);
#82=FACE_OUTER_BOUND('',#125,.T.);
#83=FACE_OUTER_BOUND('',#128,.T.);
#84=FACE_OUTER_BOUND('',#131,.T.);
#85=FACE_OUTER_BOUND('',#132,.T.);
#86=FACE_OUTER_BOUND('',#133,.T.);
#87=FACE_OUTER_BOUND('',#134,.T.);
#88=FACE_OUTER_BOUND('',#135,.T.);
#89=FACE_OUTER_BOUND('',#136,.T.);
#90=FACE_OUTER_BOUND('',#137,.T.);
#91=FACE_OUTER_BOUND('',#138,.T.);
#92=EDGE_LOOP('',(#139,#140,#141,#142,#143,#144,#145,#146,#147));
#93=EDGE_LOOP('',(#148,#149));
#94=EDGE_LOOP('',(#150,#151));
#95=EDGE_LOOP('',(#152,#153,#154,#155,#156,#157,#158,#159,#160));
#96=EDGE_LOOP('',(#161,#162));
#97=EDGE_LOOP('',(#163,#164));
#98=EDGE_LOOP('',(#165,#166,#167,#168));
#99=EDGE_LOOP('',(#169,#170,#171,#172));
#100=EDGE_LOOP('',(#173,#174,#175,#176));
#101=EDGE_LOOP('',(#177,#178,#179,#180));
#102=EDGE_LOOP('',(#181,#182,#183,#184));
#103=EDGE_LOOP('',(#185,#186,#187,#188));
#104=EDGE_LOOP('',(#189,#190,#191,#192));
#105=EDGE_LOOP('',(#193,#194,#195,#196));
#106=EDGE_LOOP('',(#197,#198,#199,#200));
#107=EDGE_LOOP('',(#201,#202));
#108=EDGE_LOOP('',(#203,#204));
#109=EDGE_LOOP('',(#205,#206,#207,#208));
#110=EDGE_LOOP('',(#209,#210));
#111=EDGE_LOOP('',(#211,#212));
#112=EDGE_LOOP('',(#213,#214,#215,#216,#217,#218,#219,#220));
#113=EDGE_LOOP('',(#221,#222));
#114=EDGE_LOOP('',(#223,#224));
#115=EDGE_LOOP('',(#225,#226,#227,#228));
#116=EDGE_LOOP('',(#229,#230,#231,#232));
#117=EDGE_LOOP('',(#233,#234,#235,#236,#237,#238,#239,#240));
#118=EDGE_LOOP('',(#241,#242));
#119=EDGE_LOOP('',(#243,#244));
#120=EDGE_LOOP('',(#245,#246,#247,#248));
#121=EDGE_LOOP('',(#249,#250,#251,#252));
#122=EDGE_LOOP('',(#253,#254,#255,#256));
#123=EDGE_LOOP('',(#257,#258,#259,#260));
#124=EDGE_LOOP('',(#261,#262,#263,#264));
#125=EDGE_LOOP('',(#265,#266,#267,#268));
#126=EDGE_LOOP('',(#269,#270));
#127=EDGE_LOOP('',(#271,#272));
#128=EDGE_LOOP('',(#273,#274,#275,#276));
#129=EDGE_LOOP('',(#277,#278));
#130=EDGE_LOOP('',(#279,#280));
#131=EDGE_LOOP('',(#281,#282,#283,#284));
#132=EDGE_LOOP('',(#285,#286,#287,#288));
#133=EDGE_LOOP('',(#289,#290,#291,#292));
#134=EDGE_LOOP('',(#293,#294,#295,#296));
#135=EDGE_LOOP('',(#297,#298,#299,#300));
#136=EDGE_LOOP('',(#301,#302,#303,#304));
#137=EDGE_LOOP('',(#305,#306,#307,#308));
#138=EDGE_LOOP('',(#309,#310,#311,#312));
#139=ORIENTED_EDGE('',*,*,#344,.T.);
#140=ORIENTED_EDGE('',*,*,#353,.T.);
#141=ORIENTED_EDGE('',*,*,#318,.T.);
#142=ORIENTED_EDGE('',*,*,#320,.T.);
#143=ORIENTED_EDGE('',*,*,#322,.T.);
#144=ORIENTED_EDGE('',*,*,#324,.T.);
#145=ORIENTED_EDGE('',*,*,#345,.F.);
#146=ORIENTED_EDGE('',*,*,#325,.F.);
#147=ORIENTED_EDGE('',*,*,#354,.F.);
#148=ORIENTED_EDGE('',*,*,#389,.F.);
#149=ORIENTED_EDGE('',*,*,#328,.F.);
#150=ORIENTED_EDGE('',*,*,#395,.F.);
#151=ORIENTED_EDGE('',*,*,#331,.F.);
#152=ORIENTED_EDGE('',*,*,#340,.T.);
#153=ORIENTED_EDGE('',*,*,#327,.F.);
#154=ORIENTED_EDGE('',*,*,#355,.F.);
#155=ORIENTED_EDGE('',*,*,#341,.T.);
#156=ORIENTED_EDGE('',*,*,#316,.F.);
#157=ORIENTED_EDGE('',*,*,#315,.F.);
#158=ORIENTED_EDGE('',*,*,#314,.F.);
#159=ORIENTED_EDGE('',*,*,#313,.F.);
#160=ORIENTED_EDGE('',*,*,#352,.F.);
#161=ORIENTED_EDGE('',*,*,#392,.F.);
#162=ORIENTED_EDGE('',*,*,#330,.F.);
#163=ORIENTED_EDGE('',*,*,#398,.F.);
#164=ORIENTED_EDGE('',*,*,#333,.F.);
#165=ORIENTED_EDGE('',*,*,#343,.T.);
#166=ORIENTED_EDGE('',*,*,#324,.F.);
#167=ORIENTED_EDGE('',*,*,#323,.T.);
#168=ORIENTED_EDGE('',*,*,#316,.T.);
#169=ORIENTED_EDGE('',*,*,#342,.T.);
#170=ORIENTED_EDGE('',*,*,#352,.T.);
#171=ORIENTED_EDGE('',*,*,#317,.T.);
#172=ORIENTED_EDGE('',*,*,#353,.F.);
#173=ORIENTED_EDGE('',*,*,#346,.T.);
#174=ORIENTED_EDGE('',*,*,#354,.T.);
#175=ORIENTED_EDGE('',*,*,#326,.T.);
#176=ORIENTED_EDGE('',*,*,#327,.T.);
#177=ORIENTED_EDGE('',*,*,#347,.T.);
#178=ORIENTED_EDGE('',*,*,#355,.T.);
#179=ORIENTED_EDGE('',*,*,#326,.F.);
#180=ORIENTED_EDGE('',*,*,#325,.T.);
#181=ORIENTED_EDGE('',*,*,#378,.T.);
#182=ORIENTED_EDGE('',*,*,#356,.T.);
#183=ORIENTED_EDGE('',*,*,#336,.T.);
#184=ORIENTED_EDGE('',*,*,#376,.F.);
#185=ORIENTED_EDGE('',*,*,#380,.T.);
#186=ORIENTED_EDGE('',*,*,#335,.T.);
#187=ORIENTED_EDGE('',*,*,#348,.T.);
#188=ORIENTED_EDGE('',*,*,#379,.F.);
#189=ORIENTED_EDGE('',*,*,#384,.T.);
#190=ORIENTED_EDGE('',*,*,#357,.T.);
#191=ORIENTED_EDGE('',*,*,#339,.T.);
#192=ORIENTED_EDGE('',*,*,#382,.F.);
#193=ORIENTED_EDGE('',*,*,#386,.T.);
#194=ORIENTED_EDGE('',*,*,#338,.T.);
#195=ORIENTED_EDGE('',*,*,#350,.T.);
#196=ORIENTED_EDGE('',*,*,#385,.F.);
#197=ORIENTED_EDGE('',*,*,#342,.F.);
#198=ORIENTED_EDGE('',*,*,#344,.F.);
#199=ORIENTED_EDGE('',*,*,#346,.F.);
#200=ORIENTED_EDGE('',*,*,#340,.F.);
#201=ORIENTED_EDGE('',*,*,#381,.F.);
#202=ORIENTED_EDGE('',*,*,#348,.F.);
#203=ORIENTED_EDGE('',*,*,#387,.F.);
#204=ORIENTED_EDGE('',*,*,#350,.F.);
#205=ORIENTED_EDGE('',*,*,#347,.F.);
#206=ORIENTED_EDGE('',*,*,#345,.T.);
#207=ORIENTED_EDGE('',*,*,#343,.F.);
#208=ORIENTED_EDGE('',*,*,#341,.F.);
#209=ORIENTED_EDGE('',*,*,#384,.F.);
#210=ORIENTED_EDGE('',*,*,#351,.F.);
#211=ORIENTED_EDGE('',*,*,#378,.F.);
#212=ORIENTED_EDGE('',*,*,#349,.F.);
#213=ORIENTED_EDGE('',*,*,#358,.T.);
#214=ORIENTED_EDGE('',*,*,#372,.F.);
#215=ORIENTED_EDGE('',*,*,#359,.T.);
#216=ORIENTED_EDGE('',*,*,#319,.F.);
#217=ORIENTED_EDGE('',*,*,#318,.F.);
#218=ORIENTED_EDGE('',*,*,#317,.F.);
#219=ORIENTED_EDGE('',*,*,#313,.T.);
#220=ORIENTED_EDGE('',*,*,#370,.F.);
#221=ORIENTED_EDGE('',*,*,#380,.F.);
#222=ORIENTED_EDGE('',*,*,#334,.F.);
#223=ORIENTED_EDGE('',*,*,#386,.F.);
#224=ORIENTED_EDGE('',*,*,#337,.F.);
#225=ORIENTED_EDGE('',*,*,#361,.T.);
#226=ORIENTED_EDGE('',*,*,#321,.F.);
#227=ORIENTED_EDGE('',*,*,#320,.F.);
#228=ORIENTED_EDGE('',*,*,#319,.T.);
#229=ORIENTED_EDGE('',*,*,#360,.T.);
#230=ORIENTED_EDGE('',*,*,#370,.T.);
#231=ORIENTED_EDGE('',*,*,#314,.T.);
#232=ORIENTED_EDGE('',*,*,#371,.F.);
#233=ORIENTED_EDGE('',*,*,#362,.T.);
#234=ORIENTED_EDGE('',*,*,#371,.T.);
#235=ORIENTED_EDGE('',*,*,#315,.T.);
#236=ORIENTED_EDGE('',*,*,#323,.F.);
#237=ORIENTED_EDGE('',*,*,#322,.F.);
#238=ORIENTED_EDGE('',*,*,#321,.T.);
#239=ORIENTED_EDGE('',*,*,#363,.T.);
#240=ORIENTED_EDGE('',*,*,#373,.F.);
#241=ORIENTED_EDGE('',*,*,#377,.F.);
#242=ORIENTED_EDGE('',*,*,#336,.F.);
#243=ORIENTED_EDGE('',*,*,#383,.F.);
#244=ORIENTED_EDGE('',*,*,#339,.F.);
#245=ORIENTED_EDGE('',*,*,#365,.T.);
#246=ORIENTED_EDGE('',*,*,#372,.T.);
#247=ORIENTED_EDGE('',*,*,#364,.T.);
#248=ORIENTED_EDGE('',*,*,#373,.T.);
#249=ORIENTED_EDGE('',*,*,#389,.T.);
#250=ORIENTED_EDGE('',*,*,#329,.T.);
#251=ORIENTED_EDGE('',*,*,#367,.T.);
#252=ORIENTED_EDGE('',*,*,#388,.F.);
#253=ORIENTED_EDGE('',*,*,#393,.T.);
#254=ORIENTED_EDGE('',*,*,#374,.T.);
#255=ORIENTED_EDGE('',*,*,#330,.T.);
#256=ORIENTED_EDGE('',*,*,#391,.F.);
#257=ORIENTED_EDGE('',*,*,#395,.T.);
#258=ORIENTED_EDGE('',*,*,#332,.T.);
#259=ORIENTED_EDGE('',*,*,#369,.T.);
#260=ORIENTED_EDGE('',*,*,#394,.F.);
#261=ORIENTED_EDGE('',*,*,#399,.T.);
#262=ORIENTED_EDGE('',*,*,#375,.T.);
#263=ORIENTED_EDGE('',*,*,#333,.T.);
#264=ORIENTED_EDGE('',*,*,#397,.F.);
#265=ORIENTED_EDGE('',*,*,#358,.F.);
#266=ORIENTED_EDGE('',*,*,#360,.F.);
#267=ORIENTED_EDGE('',*,*,#362,.F.);
#268=ORIENTED_EDGE('',*,*,#364,.F.);
#269=ORIENTED_EDGE('',*,*,#399,.F.);
#270=ORIENTED_EDGE('',*,*,#368,.F.);
#271=ORIENTED_EDGE('',*,*,#393,.F.);
#272=ORIENTED_EDGE('',*,*,#366,.F.);
#273=ORIENTED_EDGE('',*,*,#365,.F.);
#274=ORIENTED_EDGE('',*,*,#363,.F.);
#275=ORIENTED_EDGE('',*,*,#361,.F.);
#276=ORIENTED_EDGE('',*,*,#359,.F.);
#277=ORIENTED_EDGE('',*,*,#396,.F.);
#278=ORIENTED_EDGE('',*,*,#369,.F.);
#279=ORIENTED_EDGE('',*,*,#390,.F.);
#280=ORIENTED_EDGE('',*,*,#367,.F.);
#281=ORIENTED_EDGE('',*,*,#376,.T.);
#282=ORIENTED_EDGE('',*,*,#377,.T.);
#283=ORIENTED_EDGE('',*,*,#356,.F.);
#284=ORIENTED_EDGE('',*,*,#349,.T.);
#285=ORIENTED_EDGE('',*,*,#379,.T.);
#286=ORIENTED_EDGE('',*,*,#381,.T.);
#287=ORIENTED_EDGE('',*,*,#335,.F.);
#288=ORIENTED_EDGE('',*,*,#334,.T.);
#289=ORIENTED_EDGE('',*,*,#382,.T.);
#290=ORIENTED_EDGE('',*,*,#383,.T.);
#291=ORIENTED_EDGE('',*,*,#357,.F.);
#292=ORIENTED_EDGE('',*,*,#351,.T.);
#293=ORIENTED_EDGE('',*,*,#385,.T.);
#294=ORIENTED_EDGE('',*,*,#387,.T.);
#295=ORIENTED_EDGE('',*,*,#338,.F.);
#296=ORIENTED_EDGE('',*,*,#337,.T.);
#297=ORIENTED_EDGE('',*,*,#388,.T.);
#298=ORIENTED_EDGE('',*,*,#390,.T.);
#299=ORIENTED_EDGE('',*,*,#329,.F.);
#300=ORIENTED_EDGE('',*,*,#328,.T.);
#301=ORIENTED_EDGE('',*,*,#391,.T.);
#302=ORIENTED_EDGE('',*,*,#392,.T.);
#303=ORIENTED_EDGE('',*,*,#374,.F.);
#304=ORIENTED_EDGE('',*,*,#366,.T.);
#305=ORIENTED_EDGE('',*,*,#394,.T.);
#306=ORIENTED_EDGE('',*,*,#396,.T.);
#307=ORIENTED_EDGE('',*,*,#332,.F.);
#308=ORIENTED_EDGE('',*,*,#331,.T.);
#309=ORIENTED_EDGE('',*,*,#397,.T.);
#310=ORIENTED_EDGE('',*,*,#398,.T.);
#311=ORIENTED_EDGE('',*,*,#375,.F.);
#312=ORIENTED_EDGE('',*,*,#368,.T.);
#313=EDGE_CURVE('',#525,#526,#476,.T.);
#314=EDGE_CURVE('',#526,#527,#477,.T.);
#315=EDGE_CURVE('',#527,#528,#478,.T.);
#316=EDGE_CURVE('',#528,#546,#479,.T.);
#317=EDGE_CURVE('',#525,#529,#480,.T.);
#318=EDGE_CURVE('',#529,#530,#481,.T.);
#319=EDGE_CURVE('',#530,#558,#482,.T.);
#320=EDGE_CURVE('',#530,#531,#483,.T.);
#321=EDGE_CURVE('',#531,#560,#484,.T.);
#322=EDGE_CURVE('',#531,#532,#485,.T.);
#323=EDGE_CURVE('',#532,#528,#486,.T.);
#324=EDGE_CURVE('',#532,#547,#487,.T.);
#325=EDGE_CURVE('',#534,#549,#400,.T.);
#326=EDGE_CURVE('',#534,#533,#488,.T.);
#327=EDGE_CURVE('',#533,#544,#401,.T.);
#328=EDGE_CURVE('',#536,#575,#402,.T.);
#329=EDGE_CURVE('',#536,#564,#489,.T.);
#330=EDGE_CURVE('',#535,#578,#403,.T.);
#331=EDGE_CURVE('',#538,#579,#404,.T.);
#332=EDGE_CURVE('',#538,#566,#490,.T.);
#333=EDGE_CURVE('',#537,#582,#405,.T.);
#334=EDGE_CURVE('',#539,#569,#406,.T.);
#335=EDGE_CURVE('',#539,#551,#491,.T.);
#336=EDGE_CURVE('',#540,#568,#407,.T.);
#337=EDGE_CURVE('',#541,#573,#408,.T.);
#338=EDGE_CURVE('',#541,#553,#492,.T.);
#339=EDGE_CURVE('',#542,#572,#409,.T.);
#340=EDGE_CURVE('',#543,#544,#493,.T.);
#341=EDGE_CURVE('',#545,#546,#494,.T.);
#342=EDGE_CURVE('',#548,#543,#495,.T.);
#343=EDGE_CURVE('',#546,#547,#496,.T.);
#344=EDGE_CURVE('',#550,#548,#497,.T.);
#345=EDGE_CURVE('',#549,#547,#498,.T.);
#346=EDGE_CURVE('',#544,#550,#499,.T.);
#347=EDGE_CURVE('',#549,#545,#500,.T.);
#348=EDGE_CURVE('',#551,#570,#410,.T.);
#349=EDGE_CURVE('',#552,#567,#411,.T.);
#350=EDGE_CURVE('',#553,#574,#412,.T.);
#351=EDGE_CURVE('',#554,#571,#413,.T.);
#352=EDGE_CURVE('',#543,#525,#501,.T.);
#353=EDGE_CURVE('',#548,#529,#502,.T.);
#354=EDGE_CURVE('',#550,#534,#414,.T.);
#355=EDGE_CURVE('',#545,#533,#415,.T.);
#356=EDGE_CURVE('',#552,#540,#503,.T.);
#357=EDGE_CURVE('',#554,#542,#504,.T.);
#358=EDGE_CURVE('',#555,#556,#505,.T.);
#359=EDGE_CURVE('',#557,#558,#506,.T.);
#360=EDGE_CURVE('',#559,#555,#507,.T.);
#361=EDGE_CURVE('',#558,#560,#508,.T.);
#362=EDGE_CURVE('',#561,#559,#509,.T.);
#363=EDGE_CURVE('',#560,#562,#510,.T.);
#364=EDGE_CURVE('',#556,#561,#511,.T.);
#365=EDGE_CURVE('',#562,#557,#512,.T.);
#366=EDGE_CURVE('',#563,#577,#416,.T.);
#367=EDGE_CURVE('',#564,#576,#417,.T.);
#368=EDGE_CURVE('',#565,#581,#418,.T.);
#369=EDGE_CURVE('',#566,#580,#419,.T.);
#370=EDGE_CURVE('',#555,#526,#513,.T.);
#371=EDGE_CURVE('',#559,#527,#514,.T.);
#372=EDGE_CURVE('',#557,#556,#420,.T.);
#373=EDGE_CURVE('',#561,#562,#421,.T.);
#374=EDGE_CURVE('',#563,#535,#515,.T.);
#375=EDGE_CURVE('',#565,#537,#516,.T.);
#376=EDGE_CURVE('',#567,#568,#517,.T.);
#377=EDGE_CURVE('',#568,#540,#422,.T.);
#378=EDGE_CURVE('',#567,#552,#423,.T.);
#379=EDGE_CURVE('',#569,#570,#518,.T.);
#380=EDGE_CURVE('',#569,#539,#424,.T.);
#381=EDGE_CURVE('',#570,#551,#425,.T.);
#382=EDGE_CURVE('',#571,#572,#519,.T.);
#383=EDGE_CURVE('',#572,#542,#426,.T.);
#384=EDGE_CURVE('',#571,#554,#427,.T.);
#385=EDGE_CURVE('',#573,#574,#520,.T.);
#386=EDGE_CURVE('',#573,#541,#428,.T.);
#387=EDGE_CURVE('',#574,#553,#429,.T.);
#388=EDGE_CURVE('',#575,#576,#521,.T.);
#389=EDGE_CURVE('',#575,#536,#430,.T.);
#390=EDGE_CURVE('',#576,#564,#431,.T.);
#391=EDGE_CURVE('',#577,#578,#522,.T.);
#392=EDGE_CURVE('',#578,#535,#432,.T.);
#393=EDGE_CURVE('',#577,#563,#433,.T.);
#394=EDGE_CURVE('',#579,#580,#523,.T.);
#395=EDGE_CURVE('',#579,#538,#434,.T.);
#396=EDGE_CURVE('',#580,#566,#435,.T.);
#397=EDGE_CURVE('',#581,#582,#524,.T.);
#398=EDGE_CURVE('',#582,#537,#436,.T.);
#399=EDGE_CURVE('',#581,#565,#437,.T.);
#400=TRIMMED_CURVE($,#438,(#998),(#999),.T.,.CARTESIAN.);
#401=TRIMMED_CURVE($,#439,(#1003),(#1004),.T.,.CARTESIAN.);
#402=TRIMMED_CURVE($,#440,(#1006),(#1007),.T.,.CARTESIAN.);
#403=TRIMMED_CURVE($,#441,(#1011),(#1012),.T.,.CARTESIAN.);
#404=TRIMMED_CURVE($,#442,(#1014),(#1015),.T.,.CARTESIAN.);
#405=TRIMMED_CURVE($,#443,(#1019),(#1020),.T.,.CARTESIAN.);
#406=TRIMMED_CURVE($,#444,(#1022),(#1023),.T.,.CARTESIAN.);
#407=TRIMMED_CURVE($,#445,(#1027),(#1028),.T.,.CARTESIAN.);
#408=TRIMMED_CURVE($,#446,(#1030),(#1031),.T.,.CARTESIAN.);
#409=TRIMMED_CURVE($,#447,(#1035),(#1036),.T.,.CARTESIAN.);
#410=TRIMMED_CURVE($,#448,(#1054),(#1055),.T.,.CARTESIAN.);
#411=TRIMMED_CURVE($,#449,(#1057),(#1058),.T.,.CARTESIAN.);
#412=TRIMMED_CURVE($,#450,(#1060),(#1061),.T.,.CARTESIAN.);
#413=TRIMMED_CURVE($,#451,(#1063),(#1064),.T.,.CARTESIAN.);
#414=TRIMMED_CURVE($,#452,(#1070),(#1071),.T.,.CARTESIAN.);
#415=TRIMMED_CURVE($,#453,(#1073),(#1074),.T.,.CARTESIAN.);
#416=TRIMMED_CURVE($,#454,(#1096),(#1097),.T.,.CARTESIAN.);
#417=TRIMMED_CURVE($,#455,(#1099),(#1100),.T.,.CARTESIAN.);
#418=TRIMMED_CURVE($,#456,(#1102),(#1103),.T.,.CARTESIAN.);
#419=TRIMMED_CURVE($,#457,(#1105),(#1106),.T.,.CARTESIAN.);
#420=TRIMMED_CURVE($,#458,(#1112),(#1113),.T.,.CARTESIAN.);
#421=TRIMMED_CURVE($,#459,(#1115),(#1116),.T.,.CARTESIAN.);
#422=TRIMMED_CURVE($,#460,(#1124),(#1125),.T.,.CARTESIAN.);
#423=TRIMMED_CURVE($,#461,(#1127),(#1128),.T.,.CARTESIAN.);
#424=TRIMMED_CURVE($,#462,(#1132),(#1133),.T.,.CARTESIAN.);
#425=TRIMMED_CURVE($,#463,(#1135),(#1136),.T.,.CARTESIAN.);
#426=TRIMMED_CURVE($,#464,(#1140),(#1141),.T.,.CARTESIAN.);
#427=TRIMMED_CURVE($,#465,(#1143),(#1144),.T.,.CARTESIAN.);
#428=TRIMMED_CURVE($,#466,(#1148),(#1149),.T.,.CARTESIAN.);
#429=TRIMMED_CURVE($,#467,(#1151),(#1152),.T.,.CARTESIAN.);
#430=TRIMMED_CURVE($,#468,(#1156),(#1157),.T.,.CARTESIAN.);
#431=TRIMMED_CURVE($,#469,(#1159),(#1160),.T.,.CARTESIAN.);
#432=TRIMMED_CURVE($,#470,(#1164),(#1165),.T.,.CARTESIAN.);
#433=TRIMMED_CURVE($,#471,(#1167),(#1168),.T.,.CARTESIAN.);
#434=TRIMMED_CURVE($,#472,(#1172),(#1173),.T.,.CARTESIAN.);
#435=TRIMMED_CURVE($,#473,(#1175),(#1176),.T.,.CARTESIAN.);
#436=TRIMMED_CURVE($,#474,(#1180),(#1181),.T.,.CARTESIAN.);
#437=TRIMMED_CURVE($,#475,(#1183),(#1184),.T.,.CARTESIAN.);
#438=CIRCLE('',#733,3.);
#439=CIRCLE('',#734,2.99999999999998);
#440=CIRCLE('',#735,1.5);
#441=CIRCLE('',#736,1.5);
#442=CIRCLE('',#737,1.5);
#443=CIRCLE('',#738,1.5);
#444=CIRCLE('',#739,1.5);
#445=CIRCLE('',#740,1.5);
#446=CIRCLE('',#741,1.5);
#447=CIRCLE('',#742,1.5);
#448=CIRCLE('',#743,1.5);
#449=CIRCLE('',#744,1.5);
#450=CIRCLE('',#745,1.5);
#451=CIRCLE('',#746,1.5);
#452=CIRCLE('',#747,3.);
#453=CIRCLE('',#748,3.00000000000006);
#454=CIRCLE('',#749,1.5);
#455=CIRCLE('',#750,1.5);
#456=CIRCLE('',#751,1.5);
#457=CIRCLE('',#752,1.5);
#458=CIRCLE('',#753,3.00000000000102);
#459=CIRCLE('',#754,3.00000000000096);
#460=CIRCLE('',#755,1.5);
#461=CIRCLE('',#756,1.5);
#462=CIRCLE('',#757,1.5);
#463=CIRCLE('',#758,1.5);
#464=CIRCLE('',#759,1.5);
#465=CIRCLE('',#760,1.5);
#466=CIRCLE('',#761,1.5);
#467=CIRCLE('',#762,1.5);
#468=CIRCLE('',#763,1.5);
#469=CIRCLE('',#764,1.5);
#470=CIRCLE('',#765,1.5);
#471=CIRCLE('',#766,1.5);
#472=CIRCLE('',#767,1.5);
#473=CIRCLE('',#768,1.5);
#474=CIRCLE('',#769,1.5);
#475=CIRCLE('',#770,1.5);
#476=B_SPLINE_CURVE_WITH_KNOTS('',1,(#973,#974),.UNSPECIFIED.,.F.,.F.,(2,
2),(0.,34.),.UNSPECIFIED.);
#477=B_SPLINE_CURVE_WITH_KNOTS('',1,(#975,#976),.UNSPECIFIED.,.F.,.F.,(2,
2),(0.,12.),.UNSPECIFIED.);
#478=B_SPLINE_CURVE_WITH_KNOTS('',1,(#977,#978),.UNSPECIFIED.,.F.,.F.,(2,
2),(0.,34.),.UNSPECIFIED.);
#479=B_SPLINE_CURVE_WITH_KNOTS('',1,(#979,#980),.UNSPECIFIED.,.F.,.F.,(2,
2),(0.,5.50000000004491),.UNSPECIFIED.);
#480=B_SPLINE_CURVE_WITH_KNOTS('',1,(#981,#982),.UNSPECIFIED.,.F.,.F.,(2,
2),(0.,12.),.UNSPECIFIED.);
#481=B_SPLINE_CURVE_WITH_KNOTS('',1,(#983,#984),.UNSPECIFIED.,.F.,.F.,(2,
2),(0.,34.),.UNSPECIFIED.);
#482=B_SPLINE_CURVE_WITH_KNOTS('',1,(#985,#986),.UNSPECIFIED.,.F.,.F.,(2,
2),(-12.,-6.5),.UNSPECIFIED.);
#483=B_SPLINE_CURVE_WITH_KNOTS('',1,(#987,#988),.UNSPECIFIED.,.F.,.F.,(2,
2),(0.,12.),.UNSPECIFIED.);
#484=B_SPLINE_CURVE_WITH_KNOTS('',1,(#989,#990),.UNSPECIFIED.,.F.,.F.,(2,
2),(-12.,-6.5),.UNSPECIFIED.);
#485=B_SPLINE_CURVE_WITH_KNOTS('',1,(#991,#992),.UNSPECIFIED.,.F.,.F.,(2,
2),(0.,34.),.UNSPECIFIED.);
#486=B_SPLINE_CURVE_WITH_KNOTS('',1,(#993,#994),.UNSPECIFIED.,.F.,.F.,(2,
2),(-12.,0.),.UNSPECIFIED.);
#487=B_SPLINE_CURVE_WITH_KNOTS('',1,(#995,#996),.UNSPECIFIED.,.F.,.F.,(2,
2),(0.,5.50000000004491),.UNSPECIFIED.);
#488=B_SPLINE_CURVE_WITH_KNOTS('',1,(#1000,#1001),.UNSPECIFIED.,.F.,.F.,
(2,2),(0.,12.),.UNSPECIFIED.);
#489=B_SPLINE_CURVE_WITH_KNOTS('',1,(#1008,#1009),.UNSPECIFIED.,.F.,.F.,
(2,2),(0.,5.5),.UNSPECIFIED.);
#490=B_SPLINE_CURVE_WITH_KNOTS('',1,(#1016,#1017),.UNSPECIFIED.,.F.,.F.,
(2,2),(0.,5.5),.UNSPECIFIED.);
#491=B_SPLINE_CURVE_WITH_KNOTS('',1,(#1024,#1025),.UNSPECIFIED.,.F.,.F.,
(2,2),(0.,5.49999999995508),.UNSPECIFIED.);
#492=B_SPLINE_CURVE_WITH_KNOTS('',1,(#1032,#1033),.UNSPECIFIED.,.F.,.F.,
(2,2),(0.,5.49999999995509),.UNSPECIFIED.);
#493=B_SPLINE_CURVE_WITH_KNOTS('',1,(#1037,#1038),.UNSPECIFIED.,.F.,.F.,
(2,2),(0.,9.04196010845001),.UNSPECIFIED.);
#494=B_SPLINE_CURVE_WITH_KNOTS('',1,(#1039,#1040),.UNSPECIFIED.,.F.,.F.,
(2,2),(-9.04196010845001,0.),.UNSPECIFIED.);
#495=B_SPLINE_CURVE_WITH_KNOTS('',1,(#1041,#1042),.UNSPECIFIED.,.F.,.F.,
(2,2),(-12.,0.),.UNSPECIFIED.);
#496=B_SPLINE_CURVE_WITH_KNOTS('',1,(#1043,#1044),.UNSPECIFIED.,.F.,.F.,
(2,2),(0.,12.),.UNSPECIFIED.);
#497=B_SPLINE_CURVE_WITH_KNOTS('',1,(#1045,#1046),.UNSPECIFIED.,.F.,.F.,
(2,2),(1.35556607876544,7.6153846153847),.UNSPECIFIED.);
#498=B_SPLINE_CURVE_WITH_KNOTS('',1,(#1047,#1048),.UNSPECIFIED.,.F.,.F.,
(2,2),(1.35556607876544,7.6153846153847),.UNSPECIFIED.);
#499=B_SPLINE_CURVE_WITH_KNOTS('',1,(#1049,#1050),.UNSPECIFIED.,.F.,.F.,
(2,2),(-12.,0.),.UNSPECIFIED.);
#500=B_SPLINE_CURVE_WITH_KNOTS('',1,(#1051,#1052),.UNSPECIFIED.,.F.,.F.,
(2,2),(0.,12.),.UNSPECIFIED.);
#501=B_SPLINE_CURVE_WITH_KNOTS('',1,(#1065,#1066),.UNSPECIFIED.,.F.,.F.,
(2,2),(6.50000000004492,12.),.UNSPECIFIED.);
#502=B_SPLINE_CURVE_WITH_KNOTS('',1,(#1067,#1068),.UNSPECIFIED.,.F.,.F.,
(2,2),(6.50000000004491,12.),.UNSPECIFIED.);
#503=B_SPLINE_CURVE_WITH_KNOTS('',1,(#1075,#1076),.UNSPECIFIED.,.F.,.F.,
(2,2),(6.49999999995508,12.),.UNSPECIFIED.);
#504=B_SPLINE_CURVE_WITH_KNOTS('',1,(#1077,#1078),.UNSPECIFIED.,.F.,.F.,
(2,2),(6.49999999995508,12.),.UNSPECIFIED.);
#505=B_SPLINE_CURVE_WITH_KNOTS('',1,(#1079,#1080),.UNSPECIFIED.,.F.,.F.,
(2,2),(6.27272727272731,8.73871639320632),.UNSPECIFIED.);
#506=B_SPLINE_CURVE_WITH_KNOTS('',1,(#1081,#1082),.UNSPECIFIED.,.F.,.F.,
(2,2),(-8.73871639320632,-6.27272727272731),.UNSPECIFIED.);
#507=B_SPLINE_CURVE_WITH_KNOTS('',1,(#1083,#1084),.UNSPECIFIED.,.F.,.F.,
(2,2),(-12.,0.),.UNSPECIFIED.);
#508=B_SPLINE_CURVE_WITH_KNOTS('',1,(#1085,#1086),.UNSPECIFIED.,.F.,.F.,
(2,2),(3.,15.),.UNSPECIFIED.);
#509=B_SPLINE_CURVE_WITH_KNOTS('',1,(#1087,#1088),.UNSPECIFIED.,.F.,.F.,
(2,2),(-9.04196010842296,0.),.UNSPECIFIED.);
#510=B_SPLINE_CURVE_WITH_KNOTS('',1,(#1089,#1090),.UNSPECIFIED.,.F.,.F.,
(2,2),(0.,9.04196010842296),.UNSPECIFIED.);
#511=B_SPLINE_CURVE_WITH_KNOTS('',1,(#1091,#1092),.UNSPECIFIED.,.F.,.F.,
(2,2),(2.99999999999998,15.),.UNSPECIFIED.);
#512=B_SPLINE_CURVE_WITH_KNOTS('',1,(#1093,#1094),.UNSPECIFIED.,.F.,.F.,
(2,2),(-12.,0.),.UNSPECIFIED.);
#513=B_SPLINE_CURVE_WITH_KNOTS('',1,(#1107,#1108),.UNSPECIFIED.,.F.,.F.,
(2,2),(-5.5,0.),.UNSPECIFIED.);
#514=B_SPLINE_CURVE_WITH_KNOTS('',1,(#1109,#1110),.UNSPECIFIED.,.F.,.F.,
(2,2),(-5.5,0.),.UNSPECIFIED.);
#515=B_SPLINE_CURVE_WITH_KNOTS('',1,(#1117,#1118),.UNSPECIFIED.,.F.,.F.,
(2,2),(6.5,12.),.UNSPECIFIED.);
#516=B_SPLINE_CURVE_WITH_KNOTS('',1,(#1119,#1120),.UNSPECIFIED.,.F.,.F.,
(2,2),(6.5,12.),.UNSPECIFIED.);
#517=B_SPLINE_CURVE_WITH_KNOTS('',1,(#1121,#1122),.UNSPECIFIED.,.F.,.F.,
(2,2),(6.49999999995509,12.),.UNSPECIFIED.);
#518=B_SPLINE_CURVE_WITH_KNOTS('',1,(#1129,#1130),.UNSPECIFIED.,.F.,.F.,
(2,2),(0.,5.49999999995509),.UNSPECIFIED.);
#519=B_SPLINE_CURVE_WITH_KNOTS('',1,(#1137,#1138),.UNSPECIFIED.,.F.,.F.,
(2,2),(6.49999999995509,12.),.UNSPECIFIED.);
#520=B_SPLINE_CURVE_WITH_KNOTS('',1,(#1145,#1146),.UNSPECIFIED.,.F.,.F.,
(2,2),(0.,5.4999999999551),.UNSPECIFIED.);
#521=B_SPLINE_CURVE_WITH_KNOTS('',1,(#1153,#1154),.UNSPECIFIED.,.F.,.F.,
(2,2),(0.,5.5),.UNSPECIFIED.);
#522=B_SPLINE_CURVE_WITH_KNOTS('',1,(#1161,#1162),.UNSPECIFIED.,.F.,.F.,
(2,2),(6.5,12.),.UNSPECIFIED.);
#523=B_SPLINE_CURVE_WITH_KNOTS('',1,(#1169,#1170),.UNSPECIFIED.,.F.,.F.,
(2,2),(0.,5.5),.UNSPECIFIED.);
#524=B_SPLINE_CURVE_WITH_KNOTS('',1,(#1177,#1178),.UNSPECIFIED.,.F.,.F.,
(2,2),(6.5,12.),.UNSPECIFIED.);
#525=VERTEX_POINT('',#915);
#526=VERTEX_POINT('',#916);
#527=VERTEX_POINT('',#917);
#528=VERTEX_POINT('',#918);
#529=VERTEX_POINT('',#919);
#530=VERTEX_POINT('',#920);
#531=VERTEX_POINT('',#921);
#532=VERTEX_POINT('',#922);
#533=VERTEX_POINT('',#923);
#534=VERTEX_POINT('',#924);
#535=VERTEX_POINT('',#925);
#536=VERTEX_POINT('',#926);
#537=VERTEX_POINT('',#927);
#538=VERTEX_POINT('',#928);
#539=VERTEX_POINT('',#929);
#540=VERTEX_POINT('',#930);
#541=VERTEX_POINT('',#931);
#542=VERTEX_POINT('',#932);
#543=VERTEX_POINT('',#933);
#544=VERTEX_POINT('',#934);
#545=VERTEX_POINT('',#935);
#546=VERTEX_POINT('',#936);
#547=VERTEX_POINT('',#937);
#548=VERTEX_POINT('',#938);
#549=VERTEX_POINT('',#939);
#550=VERTEX_POINT('',#940);
#551=VERTEX_POINT('',#941);
#552=VERTEX_POINT('',#942);
#553=VERTEX_POINT('',#943);
#554=VERTEX_POINT('',#944);
#555=VERTEX_POINT('',#945);
#556=VERTEX_POINT('',#946);
#557=VERTEX_POINT('',#947);
#558=VERTEX_POINT('',#948);
#559=VERTEX_POINT('',#949);
#560=VERTEX_POINT('',#950);
#561=VERTEX_POINT('',#951);
#562=VERTEX_POINT('',#952);
#563=VERTEX_POINT('',#953);
#564=VERTEX_POINT('',#954);
#565=VERTEX_POINT('',#955);
#566=VERTEX_POINT('',#956);
#567=VERTEX_POINT('',#957);
#568=VERTEX_POINT('',#958);
#569=VERTEX_POINT('',#959);
#570=VERTEX_POINT('',#960);
#571=VERTEX_POINT('',#961);
#572=VERTEX_POINT('',#962);
#573=VERTEX_POINT('',#963);
#574=VERTEX_POINT('',#964);
#575=VERTEX_POINT('',#965);
#576=VERTEX_POINT('',#966);
#577=VERTEX_POINT('',#967);
#578=VERTEX_POINT('',#968);
#579=VERTEX_POINT('',#969);
#580=VERTEX_POINT('',#970);
#581=VERTEX_POINT('',#971);
#582=VERTEX_POINT('',#972);
#583=CYLINDRICAL_SURFACE('',#706,3.);
#584=CYLINDRICAL_SURFACE('',#707,3.);
#585=CYLINDRICAL_SURFACE('',#708,1.5);
#586=CYLINDRICAL_SURFACE('',#709,1.5);
#587=CYLINDRICAL_SURFACE('',#710,1.5);
#588=CYLINDRICAL_SURFACE('',#711,1.5);
#589=CYLINDRICAL_SURFACE('',#718,3.);
#590=CYLINDRICAL_SURFACE('',#719,1.5);
#591=CYLINDRICAL_SURFACE('',#720,1.5);
#592=CYLINDRICAL_SURFACE('',#721,1.5);
#593=CYLINDRICAL_SURFACE('',#722,1.5);
#594=CYLINDRICAL_SURFACE('',#725,1.5);
#595=CYLINDRICAL_SURFACE('',#726,1.5);
#596=CYLINDRICAL_SURFACE('',#727,1.5);
#597=CYLINDRICAL_SURFACE('',#728,1.5);
#598=CYLINDRICAL_SURFACE('',#729,1.5);
#599=CYLINDRICAL_SURFACE('',#730,1.5);
#600=CYLINDRICAL_SURFACE('',#731,1.5);
#601=CYLINDRICAL_SURFACE('',#732,1.5);
#602=PLANE('',#702);
#603=PLANE('',#703);
#604=PLANE('',#704);
#605=PLANE('',#705);
#606=PLANE('',#712);
#607=PLANE('',#713);
#608=PLANE('',#714);
#609=PLANE('',#715);
#610=PLANE('',#716);
#611=PLANE('',#717);
#612=PLANE('',#723);
#613=PLANE('',#724);
#614=SHAPE_DEFINITION_REPRESENTATION(#615,#700);
#615=PRODUCT_DEFINITION_SHAPE($,$,#617);
#616=PRODUCT_DEFINITION_CONTEXT('3D Mechanical Parts',#689,'design');
#617=PRODUCT_DEFINITION('A','First version',#659,#616);
#618=DATE_TIME_ROLE('classification_date');
#619=DATE_TIME_ROLE('creation_date');
#620=APPLIED_DATE_AND_TIME_ASSIGNMENT(#644,#618,(#623));
#621=APPLIED_DATE_AND_TIME_ASSIGNMENT(#646,#619,(#617));
#622=SECURITY_CLASSIFICATION_LEVEL('unclassified');
#623=SECURITY_CLASSIFICATION('A','Security for version',#622);
#624=APPLIED_SECURITY_CLASSIFICATION_ASSIGNMENT(#623,(#659));
#625=APPROVAL_ROLE('Version approval');
#626=APPROVAL_ROLE('Version Security approval');
#627=APPROVAL_ROLE('Definition approval');
#628=APPROVAL_PERSON_ORGANIZATION(#677,#653,#625);
#629=APPROVAL_PERSON_ORGANIZATION(#678,#654,#626);
#630=APPROVAL_PERSON_ORGANIZATION(#681,#655,#627);
#631=COORDINATED_UNIVERSAL_TIME_OFFSET(5,0,.BEHIND.);
#632=LOCAL_TIME(0,0,0.,#631);
#633=LOCAL_TIME(0,0,0.,#631);
#634=LOCAL_TIME(0,0,0.,#631);
#635=LOCAL_TIME(0,0,0.,#631);
#636=LOCAL_TIME(0,0,0.,#631);
#637=CALENDAR_DATE(1999,1,1);
#638=CALENDAR_DATE(1999,1,1);
#639=CALENDAR_DATE(1999,1,1);
#640=CALENDAR_DATE(1999,1,1);
#641=CALENDAR_DATE(1999,1,1);
#642=DATE_AND_TIME(#637,#632);
#643=DATE_AND_TIME(#638,#633);
#644=DATE_AND_TIME(#639,#634);
#645=DATE_AND_TIME(#640,#635);
#646=DATE_AND_TIME(#641,#636);
#647=APPROVAL_DATE_TIME(#642,#653);
#648=APPROVAL_DATE_TIME(#643,#654);
#649=APPROVAL_DATE_TIME(#645,#655);
#650=APPROVAL_STATUS('not_yet_approved');
#651=APPROVAL_STATUS('not_yet_approved');
#652=APPROVAL_STATUS('approved');
#653=APPROVAL(#650,'Version approval');
#654=APPROVAL(#651,'Version Security approval');
#655=APPROVAL(#652,'Definition approval');
#656=APPLIED_APPROVAL_ASSIGNMENT(#653,(#659));
#657=APPLIED_APPROVAL_ASSIGNMENT(#654,(#623));
#658=APPLIED_APPROVAL_ASSIGNMENT(#655,(#617));
#659=PRODUCT_DEFINITION_FORMATION_WITH_SPECIFIED_SOURCE('A',
'First version',#691,.MADE.);
#660=PERSON_AND_ORGANIZATION_ROLE('design_owner');
#661=PERSON_AND_ORGANIZATION_ROLE('creator');
#662=PERSON_AND_ORGANIZATION_ROLE('design_supplier');
#663=PERSON_AND_ORGANIZATION_ROLE('classification_officer');
#664=PERSON_AND_ORGANIZATION_ROLE('creator');
#665=ORGANIZATION('STI','lab','lab');
#666=ORGANIZATION('STI','unknown','unknown');
#667=ORGANIZATION('STI','unknown','unknown');
#668=ORGANIZATION('STI','unknown','unknown');
#669=ORGANIZATION('STI','unknown','unknown');
#670=ORGANIZATION('STI','unknown','unknown');
#671=ORGANIZATION('STI','unknown','unknown');
#672=PERSON('1','Box','vc60',$,$,$);
#673=PERSON('2','last','first',$,$,$);
#674=PERSON('3','President','Mr.',$,$,$);
#675=PERSON_AND_ORGANIZATION(#672,#665);
#676=PERSON_AND_ORGANIZATION(#673,#666);
#677=PERSON_AND_ORGANIZATION(#674,#667);
#678=PERSON_AND_ORGANIZATION(#674,#668);
#679=PERSON_AND_ORGANIZATION(#674,#669);
#680=PERSON_AND_ORGANIZATION(#673,#670);
#681=PERSON_AND_ORGANIZATION(#674,#671);
#682=APPLIED_PERSON_AND_ORGANIZATION_ASSIGNMENT(#675,#660,(#691));
#683=APPLIED_PERSON_AND_ORGANIZATION_ASSIGNMENT(#676,#661,(#659));
#684=APPLIED_PERSON_AND_ORGANIZATION_ASSIGNMENT(#676,#662,(#659));
#685=APPLIED_PERSON_AND_ORGANIZATION_ASSIGNMENT(#679,#663,(#623));
#686=APPLIED_PERSON_AND_ORGANIZATION_ASSIGNMENT(#680,#664,(#617));
#687=PRODUCT_RELATED_PRODUCT_CATEGORY('detail','detail',(#691));
#688=APPLICATION_PROTOCOL_DEFINITION('International Standard',
'config_control_design',1994,#689);
#689=APPLICATION_CONTEXT(
'configuration controlled 3d designs of mechanical parts and assemblie
s');
#690=PRODUCT_CONTEXT('3D Mechanical Parts',#689,'mechanical');
#691=PRODUCT('Document','Document','',(#690));
#692=(
LENGTH_UNIT()
NAMED_UNIT(*)
SI_UNIT(.MILLI.,.METRE.)
);
#693=(
NAMED_UNIT(*)
PLANE_ANGLE_UNIT()
SI_UNIT($,.RADIAN.)
);
#694=DIMENSIONAL_EXPONENTS(0.,0.,0.,0.,0.,0.,0.);
#695=PLANE_ANGLE_MEASURE_WITH_UNIT(PLANE_ANGLE_MEASURE(0.01745329252),#693);
#696=(
CONVERSION_BASED_UNIT('DEGREES',#695)
NAMED_UNIT(#694)
PLANE_ANGLE_UNIT()
);
#697=(
NAMED_UNIT(*)
SI_UNIT($,.STERADIAN.)
SOLID_ANGLE_UNIT()
);
#698=UNCERTAINTY_MEASURE_WITH_UNIT(LENGTH_MEASURE(0.001),#692,
'DISTANCE_ACCURACY_VALUE',
'Maximum model space distance between geometric entities at asserted c
onnectivities');
#699=(
GEOMETRIC_REPRESENTATION_CONTEXT(3)
GLOBAL_UNCERTAINTY_ASSIGNED_CONTEXT((#698))
GLOBAL_UNIT_ASSIGNED_CONTEXT((#697,#696,#692))
REPRESENTATION_CONTEXT('ID1','3D')
);
#700=SHAPE_REPRESENTATION('Document',(#701,#771),#699);
#701=AXIS2_PLACEMENT_3D($,#883,#772,#773);
#702=AXIS2_PLACEMENT_3D('',#884,#774,$);
#703=AXIS2_PLACEMENT_3D('',#885,#775,$);
#704=AXIS2_PLACEMENT_3D('',#886,#776,$);
#705=AXIS2_PLACEMENT_3D('',#887,#777,$);
#706=AXIS2_PLACEMENT_3D('',#888,#778,$);
#707=AXIS2_PLACEMENT_3D('',#889,#779,$);
#708=AXIS2_PLACEMENT_3D('',#890,#780,$);
#709=AXIS2_PLACEMENT_3D('',#891,#781,$);
#710=AXIS2_PLACEMENT_3D('',#892,#782,$);
#711=AXIS2_PLACEMENT_3D('',#893,#783,$);
#712=AXIS2_PLACEMENT_3D('',#894,#784,$);
#713=AXIS2_PLACEMENT_3D('',#895,#785,$);
#714=AXIS2_PLACEMENT_3D('',#896,#786,$);
#715=AXIS2_PLACEMENT_3D('',#897,#787,$);
#716=AXIS2_PLACEMENT_3D('',#898,#788,$);
#717=AXIS2_PLACEMENT_3D('',#899,#789,$);
#718=AXIS2_PLACEMENT_3D('',#900,#790,$);
#719=AXIS2_PLACEMENT_3D('',#901,#791,$);
#720=AXIS2_PLACEMENT_3D('',#902,#792,$);
#721=AXIS2_PLACEMENT_3D('',#903,#793,$);
#722=AXIS2_PLACEMENT_3D('',#904,#794,$);
#723=AXIS2_PLACEMENT_3D('',#905,#795,$);
#724=AXIS2_PLACEMENT_3D('',#906,#796,$);
#725=AXIS2_PLACEMENT_3D('',#907,#797,$);
#726=AXIS2_PLACEMENT_3D('',#908,#798,$);
#727=AXIS2_PLACEMENT_3D('',#909,#799,$);
#728=AXIS2_PLACEMENT_3D('',#910,#800,$);
#729=AXIS2_PLACEMENT_3D('',#911,#801,$);
#730=AXIS2_PLACEMENT_3D('',#912,#802,$);
#731=AXIS2_PLACEMENT_3D('',#913,#803,$);
#732=AXIS2_PLACEMENT_3D('',#914,#804,$);
#733=AXIS2_PLACEMENT_3D($,#997,#805,#806);
#734=AXIS2_PLACEMENT_3D($,#1002,#807,#808);
#735=AXIS2_PLACEMENT_3D($,#1005,#809,#810);
#736=AXIS2_PLACEMENT_3D($,#1010,#811,#812);
#737=AXIS2_PLACEMENT_3D($,#1013,#813,#814);
#738=AXIS2_PLACEMENT_3D($,#1018,#815,#816);
#739=AXIS2_PLACEMENT_3D($,#1021,#817,#818);
#740=AXIS2_PLACEMENT_3D($,#1026,#819,#820);
#741=AXIS2_PLACEMENT_3D($,#1029,#821,#822);
#742=AXIS2_PLACEMENT_3D($,#1034,#823,#824);
#743=AXIS2_PLACEMENT_3D($,#1053,#825,#826);
#744=AXIS2_PLACEMENT_3D($,#1056,#827,#828);
#745=AXIS2_PLACEMENT_3D($,#1059,#829,#830);
#746=AXIS2_PLACEMENT_3D($,#1062,#831,#832);
#747=AXIS2_PLACEMENT_3D($,#1069,#833,#834);
#748=AXIS2_PLACEMENT_3D($,#1072,#835,#836);
#749=AXIS2_PLACEMENT_3D($,#1095,#837,#838);
#750=AXIS2_PLACEMENT_3D($,#1098,#839,#840);
#751=AXIS2_PLACEMENT_3D($,#1101,#841,#842);
#752=AXIS2_PLACEMENT_3D($,#1104,#843,#844);
#753=AXIS2_PLACEMENT_3D($,#1111,#845,#846);
#754=AXIS2_PLACEMENT_3D($,#1114,#847,#848);
#755=AXIS2_PLACEMENT_3D($,#1123,#849,#850);
#756=AXIS2_PLACEMENT_3D($,#1126,#851,#852);
#757=AXIS2_PLACEMENT_3D($,#1131,#853,#854);
#758=AXIS2_PLACEMENT_3D($,#1134,#855,#856);
#759=AXIS2_PLACEMENT_3D($,#1139,#857,#858);
#760=AXIS2_PLACEMENT_3D($,#1142,#859,#860);
#761=AXIS2_PLACEMENT_3D($,#1147,#861,#862);
#762=AXIS2_PLACEMENT_3D($,#1150,#863,#864);
#763=AXIS2_PLACEMENT_3D($,#1155,#865,#866);
#764=AXIS2_PLACEMENT_3D($,#1158,#867,#868);
#765=AXIS2_PLACEMENT_3D($,#1163,#869,#870);
#766=AXIS2_PLACEMENT_3D($,#1166,#871,#872);
#767=AXIS2_PLACEMENT_3D($,#1171,#873,#874);
#768=AXIS2_PLACEMENT_3D($,#1174,#875,#876);
#769=AXIS2_PLACEMENT_3D($,#1179,#877,#878);
#770=AXIS2_PLACEMENT_3D($,#1182,#879,#880);
#771=AXIS2_PLACEMENT_3D($,#1185,#881,#882);
#772=DIRECTION('',(0.,0.,1.));
#773=DIRECTION('',(1.,0.,0.));
#774=DIRECTION('',(0.,0.,1.));
#775=DIRECTION('',(0.,0.,-1.));
#776=DIRECTION('',(-1.,0.,0.));
#777=DIRECTION('',(-1.,0.,0.));
#778=DIRECTION('',(0.,0.,-1.));
#779=DIRECTION('',(0.,0.,-1.));
#780=DIRECTION('',(0.,1.,0.));
#781=DIRECTION('',(0.,1.,0.));
#782=DIRECTION('',(0.,1.,0.));
#783=DIRECTION('',(0.,1.,0.));
#784=DIRECTION('',(0.,1.,0.));
#785=DIRECTION('',(0.,-1.,0.));
#786=DIRECTION('',(0.,-1.,0.));
#787=DIRECTION('',(1.,0.,0.));
#788=DIRECTION('',(1.,0.,0.));
#789=DIRECTION('',(0.,1.,0.));
#790=DIRECTION('',(0.,1.,0.));
#791=DIRECTION('',(0.,0.,-1.));
#792=DIRECTION('',(0.,0.,-1.));
#793=DIRECTION('',(0.,0.,-1.));
#794=DIRECTION('',(0.,0.,-1.));
#795=DIRECTION('',(0.,0.,1.));
#796=DIRECTION('',(0.,0.,-1.));
#797=DIRECTION('',(0.,1.,0.));
#798=DIRECTION('',(0.,1.,0.));
#799=DIRECTION('',(0.,1.,0.));
#800=DIRECTION('',(0.,1.,0.));
#801=DIRECTION('',(0.,0.,-1.));
#802=DIRECTION('',(0.,0.,-1.));
#803=DIRECTION('',(0.,0.,-1.));
#804=DIRECTION('',(0.,0.,-1.));
#805=DIRECTION('',(0.,0.,1.));
#806=DIRECTION('',(1.,-7.72071980970153E-17,0.));
#807=DIRECTION('',(1.91087770649476E-15,3.22467705865391E-16,-1.));
#808=DIRECTION('',(1.,2.18024628530318E-15,2.07241631263364E-15));
#809=DIRECTION('',(0.,0.,1.));
#810=DIRECTION('',(1.,0.,0.));
#811=DIRECTION('',(0.,0.,-1.));
#812=DIRECTION('',(1.,0.,0.));
#813=DIRECTION('',(0.,0.,1.));
#814=DIRECTION('',(1.,0.,0.));
#815=DIRECTION('',(0.,0.,-1.));
#816=DIRECTION('',(1.,0.,0.));
#817=DIRECTION('',(0.,-1.,0.));
#818=DIRECTION('',(1.,0.,0.));
#819=DIRECTION('',(0.,1.,0.));
#820=DIRECTION('',(1.,0.,8.88178419700125E-16));
#821=DIRECTION('',(0.,-1.,0.));
#822=DIRECTION('',(1.,0.,-2.96059473233375E-16));
#823=DIRECTION('',(0.,1.,0.));
#824=DIRECTION('',(1.,0.,-2.96059473233375E-16));
#825=DIRECTION('',(0.,1.,0.));
#826=DIRECTION('',(1.,0.,8.88178419700125E-16));
#827=DIRECTION('',(0.,-1.,0.));
#828=DIRECTION('',(1.,0.,0.));
#829=DIRECTION('',(0.,1.,0.));
#830=DIRECTION('',(1.,0.,-2.96059473233375E-16));
#831=DIRECTION('',(0.,-1.,0.));
#832=DIRECTION('',(1.,0.,-2.96059473233375E-16));
#833=DIRECTION('',(0.,0.,1.));
#834=DIRECTION('',(-0.986013297183268,-0.166666666666672,0.));
#835=DIRECTION('',(-1.34520867094498E-16,1.73395454610436E-16,-1.));
#836=DIRECTION('',(-0.986013297183269,0.166666666666665,0.));
#837=DIRECTION('',(0.,0.,1.));
#838=DIRECTION('',(1.,0.,0.));
#839=DIRECTION('',(0.,0.,-1.));
#840=DIRECTION('',(1.,0.,0.));
#841=DIRECTION('',(0.,0.,1.));
#842=DIRECTION('',(1.,0.,0.));
#843=DIRECTION('',(0.,0.,-1.));
#844=DIRECTION('',(1.,0.,0.));
#845=DIRECTION('',(0.,-1.,0.));
#846=DIRECTION('',(0.986013297183289,0.,0.166666666666553));
#847=DIRECTION('',(0.,1.,0.));
#848=DIRECTION('',(0.986013297183288,0.,-0.166666666666557));
#849=DIRECTION('',(0.,1.,0.));
#850=DIRECTION('',(-1.,0.,0.));
#851=DIRECTION('',(0.,-1.,0.));
#852=DIRECTION('',(-1.,0.,8.88178419700127E-16));
#853=DIRECTION('',(0.,-1.,0.));
#854=DIRECTION('',(-1.,0.,8.88178419700127E-16));
#855=DIRECTION('',(0.,1.,0.));
#856=DIRECTION('',(-1.,0.,0.));
#857=DIRECTION('',(0.,1.,0.));
#858=DIRECTION('',(-1.,0.,-2.96059473233375E-16));
#859=DIRECTION('',(0.,-1.,0.));
#860=DIRECTION('',(-1.,0.,-2.96059473233375E-16));
#861=DIRECTION('',(0.,-1.,0.));
#862=DIRECTION('',(-1.,0.,-2.96059473233375E-16));
#863=DIRECTION('',(0.,1.,0.));
#864=DIRECTION('',(-1.,0.,-2.96059473233375E-16));
#865=DIRECTION('',(0.,0.,1.));
#866=DIRECTION('',(-1.,0.,0.));
#867=DIRECTION('',(0.,0.,-1.));
#868=DIRECTION('',(-1.,-5.9211894646675E-16,0.));
#869=DIRECTION('',(0.,0.,-1.));
#870=DIRECTION('',(-1.,-5.9211894646675E-16,0.));
#871=DIRECTION('',(0.,0.,1.));
#872=DIRECTION('',(-1.,0.,0.));
#873=DIRECTION('',(0.,0.,1.));
#874=DIRECTION('',(-1.,5.9211894646675E-16,0.));
#875=DIRECTION('',(0.,0.,-1.));
#876=DIRECTION('',(-1.,0.,0.));
#877=DIRECTION('',(0.,0.,-1.));
#878=DIRECTION('',(-1.,0.,0.));
#879=DIRECTION('',(0.,0.,1.));
#880=DIRECTION('',(-1.,5.9211894646675E-16,0.));
#881=DIRECTION('',(0.,0.,1.));
#882=DIRECTION('',(1.,0.,0.));
#883=CARTESIAN_POINT('',(0.,0.,0.));
#884=CARTESIAN_POINT('',(-22.000000000026,-6.,6.00000000000017));
#885=CARTESIAN_POINT('',(-22.000000000026,-6.,-5.99999999999983));
#886=CARTESIAN_POINT('',(-22.000000000026,-6.,-5.99999999999983));
#887=CARTESIAN_POINT('',(-22.000000000026,-6.,-5.99999999999983));
#888=CARTESIAN_POINT('',(-10.000000000026,-4.49209732799263E-11,-5.49999999999983));
#889=CARTESIAN_POINT('',(-10.000000000026,-4.49209732799263E-11,-5.49999999999983));
#890=CARTESIAN_POINT('',(-17.000000000026,4.5,2.50000000000017));
#891=CARTESIAN_POINT('',(-17.000000000026,4.5,2.50000000000017));
#892=CARTESIAN_POINT('',(-17.000000000026,4.5,-2.49999999999983));
#893=CARTESIAN_POINT('',(-17.000000000026,4.5,-2.49999999999983));
#894=CARTESIAN_POINT('',(-24.000000000026,-0.500000000044921,6.00000000000017));
#895=CARTESIAN_POINT('',(-11.000000000026,0.499999999955079,6.00000000000017));
#896=CARTESIAN_POINT('',(11.999999999974,-6.,-5.99999999999983));
#897=CARTESIAN_POINT('',(11.999999999974,6.,-5.99999999999983));
#898=CARTESIAN_POINT('',(11.999999999974,6.,-5.99999999999983));
#899=CARTESIAN_POINT('',(-22.000000000026,6.,-5.99999999999983));
#900=CARTESIAN_POINT('',(9.66234899073995E-13,14.5,1.66115782128743E-13));
#901=CARTESIAN_POINT('',(6.99999999997397,-2.5,-4.49999999999983));
#902=CARTESIAN_POINT('',(6.99999999997397,-2.5,-4.49999999999983));
#903=CARTESIAN_POINT('',(6.99999999997397,2.5,-4.49999999999983));
#904=CARTESIAN_POINT('',(6.99999999997397,2.5,-4.49999999999983));
#905=CARTESIAN_POINT('',(1.99999999997397,-9.,-0.499999999999834));
#906=CARTESIAN_POINT('',(34.999999999974,-9.,0.500000000000166));
#907=CARTESIAN_POINT('',(-17.000000000026,4.5,2.50000000000017));
#908=CARTESIAN_POINT('',(-17.000000000026,4.5,2.50000000000017));
#909=CARTESIAN_POINT('',(-17.000000000026,4.5,-2.49999999999983));
#910=CARTESIAN_POINT('',(-17.000000000026,4.5,-2.49999999999983));
#911=CARTESIAN_POINT('',(6.99999999997397,-2.5,-4.49999999999983));
#912=CARTESIAN_POINT('',(6.99999999997397,-2.5,-4.49999999999983));
#913=CARTESIAN_POINT('',(6.99999999997397,2.5,-4.49999999999983));
#914=CARTESIAN_POINT('',(6.99999999997397,2.5,-4.49999999999983));
#915=CARTESIAN_POINT('',(-22.000000000026,-6.,-5.99999999999983));
#916=CARTESIAN_POINT('',(11.999999999974,-6.,-5.99999999999983));
#917=CARTESIAN_POINT('',(11.999999999974,6.,-5.99999999999983));
#918=CARTESIAN_POINT('',(-22.000000000026,6.,-5.99999999999983));
#919=CARTESIAN_POINT('',(-22.000000000026,-6.,6.00000000000017));
#920=CARTESIAN_POINT('',(11.999999999974,-6.,6.00000000000017));
#921=CARTESIAN_POINT('',(11.999999999974,6.,6.00000000000017));
#922=CARTESIAN_POINT('',(-22.000000000026,6.,6.00000000000017));
#923=CARTESIAN_POINT('',(-7.00000000002598,-4.49205117547535E-11,-5.99999999999981));
#924=CARTESIAN_POINT('',(-7.00000000002598,-4.49205117547535E-11,6.00000000000017));
#925=CARTESIAN_POINT('',(8.49999999997397,-2.5,-5.99999999999983));
#926=CARTESIAN_POINT('',(8.49999999997397,-2.5,6.00000000000017));
#927=CARTESIAN_POINT('',(8.49999999997397,2.5,-5.99999999999983));
#928=CARTESIAN_POINT('',(8.49999999997397,2.5,6.00000000000017));
#929=CARTESIAN_POINT('',(-15.500000000026,-6.,2.50000000000017));
#930=CARTESIAN_POINT('',(-15.500000000026,6.,2.50000000000017));
#931=CARTESIAN_POINT('',(-15.500000000026,-6.,-2.49999999999983));
#932=CARTESIAN_POINT('',(-15.500000000026,6.,-2.49999999999983));
#933=CARTESIAN_POINT('',(-22.000000000026,-0.500000000044921,-5.99999999999983));
#934=CARTESIAN_POINT('',(-12.9580398915758,-0.500000000044921,-5.99999999999982));
#935=CARTESIAN_POINT('',(-12.9580398915758,0.499999999955079,-5.99999999999982));
#936=CARTESIAN_POINT('',(-22.000000000026,0.499999999955094,-5.99999999999983));
#937=CARTESIAN_POINT('',(-22.000000000026,0.499999999955079,6.00000000000017));
#938=CARTESIAN_POINT('',(-22.000000000026,-0.500000000044921,6.00000000000017));
#939=CARTESIAN_POINT('',(-12.9580398915758,0.499999999955136,6.00000000000017));
#940=CARTESIAN_POINT('',(-12.9580398915758,-0.500000000044921,6.00000000000017));
#941=CARTESIAN_POINT('',(-15.500000000026,-0.500000000044921,2.50000000000017));
#942=CARTESIAN_POINT('',(-15.500000000026,0.499999999955079,2.50000000000017));
#943=CARTESIAN_POINT('',(-15.500000000026,-0.500000000044906,-2.49999999999984));
#944=CARTESIAN_POINT('',(-15.500000000026,0.499999999955079,-2.49999999999984));
#945=CARTESIAN_POINT('',(11.999999999974,-6.,-0.499999999999834));
#946=CARTESIAN_POINT('',(2.95803989155081,-6.,-0.499999999999829));
#947=CARTESIAN_POINT('',(2.95803989155081,-6.,0.500000000000168));
#948=CARTESIAN_POINT('',(11.999999999974,-6.,0.500000000000166));
#949=CARTESIAN_POINT('',(11.999999999974,6.,-0.499999999999834));
#950=CARTESIAN_POINT('',(11.999999999974,6.,0.500000000000166));
#951=CARTESIAN_POINT('',(2.95803989155081,6.,-0.499999999999832));
#952=CARTESIAN_POINT('',(2.9580398915507,6.,0.500000000000167));
#953=CARTESIAN_POINT('',(8.49999999997397,-2.5,-0.499999999999834));
#954=CARTESIAN_POINT('',(8.49999999997397,-2.5,0.500000000000166));
#955=CARTESIAN_POINT('',(8.49999999997397,2.5,-0.499999999999834));
#956=CARTESIAN_POINT('',(8.49999999997397,2.5,0.500000000000166));
#957=CARTESIAN_POINT('',(-18.500000000026,0.499999999955079,2.50000000000017));
#958=CARTESIAN_POINT('',(-18.500000000026,5.99999999999999,2.50000000000017));
#959=CARTESIAN_POINT('',(-18.500000000026,-6.,2.50000000000017));
#960=CARTESIAN_POINT('',(-18.500000000026,-0.500000000044921,2.50000000000017));
#961=CARTESIAN_POINT('',(-18.500000000026,0.499999999955079,-2.49999999999983));
#962=CARTESIAN_POINT('',(-18.500000000026,6.,-2.49999999999983));
#963=CARTESIAN_POINT('',(-18.500000000026,-6.,-2.49999999999983));
#964=CARTESIAN_POINT('',(-18.500000000026,-0.500000000044921,-2.49999999999983));
#965=CARTESIAN_POINT('',(5.49999999997397,-2.5,6.00000000000017));
#966=CARTESIAN_POINT('',(5.49999999997397,-2.5,0.500000000000167));
#967=CARTESIAN_POINT('',(5.49999999997397,-2.5,-0.499999999999835));
#968=CARTESIAN_POINT('',(5.49999999997397,-2.5,-5.99999999999983));
#969=CARTESIAN_POINT('',(5.49999999997397,2.5,6.00000000000017));
#970=CARTESIAN_POINT('',(5.49999999997397,2.5,0.500000000000167));
#971=CARTESIAN_POINT('',(5.49999999997397,2.5,-0.499999999999835));
#972=CARTESIAN_POINT('',(5.49999999997397,2.5,-5.99999999999983));
#973=CARTESIAN_POINT('',(-22.000000000026,-6.,-5.99999999999983));
#974=CARTESIAN_POINT('',(11.999999999974,-6.,-5.99999999999983));
#975=CARTESIAN_POINT('',(11.999999999974,-6.,-5.99999999999983));
#976=CARTESIAN_POINT('',(11.999999999974,6.,-5.99999999999983));
#977=CARTESIAN_POINT('',(11.999999999974,6.,-5.99999999999983));
#978=CARTESIAN_POINT('',(-22.000000000026,6.,-5.99999999999983));
#979=CARTESIAN_POINT('',(-22.000000000026,6.,-5.99999999999983));
#980=CARTESIAN_POINT('',(-22.000000000026,0.499999999955094,-5.99999999999983));
#981=CARTESIAN_POINT('',(-22.000000000026,-6.,-5.99999999999983));
#982=CARTESIAN_POINT('',(-22.000000000026,-6.,6.00000000000017));
#983=CARTESIAN_POINT('',(-22.000000000026,-6.,6.00000000000017));
#984=CARTESIAN_POINT('',(11.999999999974,-6.,6.00000000000017));
#985=CARTESIAN_POINT('',(11.999999999974,-6.,6.00000000000017));
#986=CARTESIAN_POINT('',(11.999999999974,-6.,0.500000000000166));
#987=CARTESIAN_POINT('',(11.999999999974,-6.,6.00000000000017));
#988=CARTESIAN_POINT('',(11.999999999974,6.,6.00000000000017));
#989=CARTESIAN_POINT('',(11.999999999974,6.,6.00000000000017));
#990=CARTESIAN_POINT('',(11.999999999974,6.,0.500000000000166));
#991=CARTESIAN_POINT('',(11.999999999974,6.,6.00000000000017));
#992=CARTESIAN_POINT('',(-22.000000000026,6.,6.00000000000017));
#993=CARTESIAN_POINT('',(-22.000000000026,6.,6.00000000000017));
#994=CARTESIAN_POINT('',(-22.000000000026,6.,-5.99999999999983));
#995=CARTESIAN_POINT('',(-22.000000000026,6.,6.00000000000017));
#996=CARTESIAN_POINT('',(-22.000000000026,0.499999999955079,6.00000000000017));
#997=CARTESIAN_POINT('',(-10.000000000026,-4.49202801331592E-11,6.00000000000017));
#998=CARTESIAN_POINT('',(-7.00000000002598,-4.49205117547535E-11,6.00000000000017));
#999=CARTESIAN_POINT('',(-12.9580398915758,0.499999999955078,6.00000000000017));
#1000=CARTESIAN_POINT('',(-7.00000000002598,-4.49205117547535E-11,6.00000000000017));
#1001=CARTESIAN_POINT('',(-7.00000000002598,-4.49205117547535E-11,-5.99999999999981));
#1002=CARTESIAN_POINT('',(-10.000000000026,-4.49202801331592E-11,-5.99999999999982));
#1003=CARTESIAN_POINT('',(-7.000000000026,-4.49137393943033E-11,-5.99999999999981));
#1004=CARTESIAN_POINT('',(-12.9580398915758,-0.500000000044913,-5.99999999999982));
#1005=CARTESIAN_POINT('',(6.99999999997397,-2.5,6.00000000000017));
#1006=CARTESIAN_POINT('',(8.49999999997397,-2.5,6.00000000000017));
#1007=CARTESIAN_POINT('',(5.49999999997397,-2.5,6.00000000000017));
#1008=CARTESIAN_POINT('',(8.49999999997397,-2.5,6.00000000000017));
#1009=CARTESIAN_POINT('',(8.49999999997397,-2.5,0.500000000000166));
#1010=CARTESIAN_POINT('',(6.99999999997397,-2.5,-5.99999999999983));
#1011=CARTESIAN_POINT('',(8.49999999997397,-2.5,-5.99999999999983));
#1012=CARTESIAN_POINT('',(5.49999999997397,-2.5,-5.99999999999983));
#1013=CARTESIAN_POINT('',(6.99999999997397,2.5,6.00000000000017));
#1014=CARTESIAN_POINT('',(8.49999999997397,2.5,6.00000000000017));
#1015=CARTESIAN_POINT('',(5.49999999997397,2.5,6.00000000000017));
#1016=CARTESIAN_POINT('',(8.49999999997397,2.5,6.00000000000017));
#1017=CARTESIAN_POINT('',(8.49999999997397,2.5,0.500000000000166));
#1018=CARTESIAN_POINT('',(6.99999999997397,2.5,-5.99999999999983));
#1019=CARTESIAN_POINT('',(8.49999999997397,2.5,-5.99999999999983));
#1020=CARTESIAN_POINT('',(5.49999999997397,2.5,-5.99999999999983));
#1021=CARTESIAN_POINT('',(-17.000000000026,-6.,2.50000000000017));
#1022=CARTESIAN_POINT('',(-15.500000000026,-6.,2.50000000000017));
#1023=CARTESIAN_POINT('',(-18.500000000026,-6.,2.50000000000017));
#1024=CARTESIAN_POINT('',(-15.500000000026,-6.,2.50000000000017));
#1025=CARTESIAN_POINT('',(-15.500000000026,-0.500000000044921,2.50000000000017));
#1026=CARTESIAN_POINT('',(-17.000000000026,5.99999999999999,2.50000000000016));
#1027=CARTESIAN_POINT('',(-15.500000000026,5.99999999999999,2.50000000000017));
#1028=CARTESIAN_POINT('',(-18.500000000026,5.99999999999999,2.50000000000017));
#1029=CARTESIAN_POINT('',(-17.000000000026,-6.,-2.49999999999983));
#1030=CARTESIAN_POINT('',(-15.500000000026,-6.,-2.49999999999983));
#1031=CARTESIAN_POINT('',(-18.500000000026,-6.,-2.49999999999983));
#1032=CARTESIAN_POINT('',(-15.500000000026,-6.,-2.49999999999983));
#1033=CARTESIAN_POINT('',(-15.500000000026,-0.500000000044906,-2.49999999999984));
#1034=CARTESIAN_POINT('',(-17.000000000026,6.,-2.49999999999983));
#1035=CARTESIAN_POINT('',(-15.500000000026,6.,-2.49999999999983));
#1036=CARTESIAN_POINT('',(-18.500000000026,6.,-2.49999999999983));
#1037=CARTESIAN_POINT('',(-22.000000000026,-0.500000000044921,-5.99999999999983));
#1038=CARTESIAN_POINT('',(-12.9580398915758,-0.500000000044921,-5.99999999999982));
#1039=CARTESIAN_POINT('',(-12.9580398915758,0.499999999955079,-5.99999999999982));
#1040=CARTESIAN_POINT('',(-22.000000000026,0.499999999955094,-5.99999999999983));
#1041=CARTESIAN_POINT('',(-22.000000000026,-0.500000000044921,6.00000000000017));
#1042=CARTESIAN_POINT('',(-22.000000000026,-0.500000000044921,-5.99999999999983));
#1043=CARTESIAN_POINT('',(-22.000000000026,0.499999999955094,-5.99999999999983));
#1044=CARTESIAN_POINT('',(-22.000000000026,0.499999999955079,6.00000000000017));
#1045=CARTESIAN_POINT('',(-12.9580398915758,-0.500000000044921,6.00000000000017));
#1046=CARTESIAN_POINT('',(-22.000000000026,-0.500000000044921,6.00000000000017));
#1047=CARTESIAN_POINT('',(-12.9580398915758,0.499999999955136,6.00000000000017));
#1048=CARTESIAN_POINT('',(-22.000000000026,0.499999999955079,6.00000000000017));
#1049=CARTESIAN_POINT('',(-12.9580398915758,-0.500000000044921,-5.99999999999982));
#1050=CARTESIAN_POINT('',(-12.9580398915758,-0.500000000044921,6.00000000000017));
#1051=CARTESIAN_POINT('',(-12.9580398915758,0.499999999955136,6.00000000000017));
#1052=CARTESIAN_POINT('',(-12.9580398915758,0.499999999955079,-5.99999999999982));
#1053=CARTESIAN_POINT('',(-17.000000000026,-0.500000000044921,2.50000000000016));
#1054=CARTESIAN_POINT('',(-15.500000000026,-0.500000000044921,2.50000000000017));
#1055=CARTESIAN_POINT('',(-18.500000000026,-0.500000000044921,2.50000000000017));
#1056=CARTESIAN_POINT('',(-17.000000000026,0.499999999955079,2.50000000000017));
#1057=CARTESIAN_POINT('',(-15.500000000026,0.499999999955079,2.50000000000017));
#1058=CARTESIAN_POINT('',(-18.500000000026,0.499999999955079,2.50000000000017));
#1059=CARTESIAN_POINT('',(-17.000000000026,-0.500000000044921,-2.49999999999983));
#1060=CARTESIAN_POINT('',(-15.500000000026,-0.500000000044921,-2.49999999999983));
#1061=CARTESIAN_POINT('',(-18.500000000026,-0.500000000044921,-2.49999999999983));
#1062=CARTESIAN_POINT('',(-17.000000000026,0.499999999955079,-2.49999999999983));
#1063=CARTESIAN_POINT('',(-15.500000000026,0.499999999955079,-2.49999999999983));
#1064=CARTESIAN_POINT('',(-18.500000000026,0.499999999955079,-2.49999999999983));
#1065=CARTESIAN_POINT('',(-22.000000000026,-0.500000000044921,-5.99999999999983));
#1066=CARTESIAN_POINT('',(-22.000000000026,-6.,-5.99999999999983));
#1067=CARTESIAN_POINT('',(-22.000000000026,-0.500000000044921,6.00000000000017));
#1068=CARTESIAN_POINT('',(-22.000000000026,-6.,6.00000000000017));
#1069=CARTESIAN_POINT('',(-10.000000000026,-4.49209843562791E-11,6.00000000000017));
#1070=CARTESIAN_POINT('',(-12.9580398915758,-0.500000000044938,6.00000000000017));
#1071=CARTESIAN_POINT('',(-7.00000000002598,-4.49202341989974E-11,6.00000000000017));
#1072=CARTESIAN_POINT('',(-10.000000000026,-4.49202801331592E-11,-5.99999999999982));
#1073=CARTESIAN_POINT('',(-12.9580398915759,0.499999999955085,-5.99999999999982));
#1074=CARTESIAN_POINT('',(-7.00000000002598,-4.49201231766949E-11,-5.99999999999982));
#1075=CARTESIAN_POINT('',(-15.500000000026,0.499999999955079,2.50000000000017));
#1076=CARTESIAN_POINT('',(-15.500000000026,6.,2.50000000000017));
#1077=CARTESIAN_POINT('',(-15.500000000026,0.499999999955079,-2.49999999999984));
#1078=CARTESIAN_POINT('',(-15.500000000026,6.,-2.49999999999983));
#1079=CARTESIAN_POINT('',(11.999999999974,-6.,-0.499999999999834));
#1080=CARTESIAN_POINT('',(2.95803989155081,-6.,-0.499999999999829));
#1081=CARTESIAN_POINT('',(2.95803989155081,-6.,0.500000000000168));
#1082=CARTESIAN_POINT('',(11.999999999974,-6.,0.500000000000166));
#1083=CARTESIAN_POINT('',(11.999999999974,6.,-0.499999999999834));
#1084=CARTESIAN_POINT('',(11.999999999974,-6.,-0.499999999999834));
#1085=CARTESIAN_POINT('',(11.999999999974,-6.,0.500000000000166));
#1086=CARTESIAN_POINT('',(11.999999999974,6.,0.500000000000166));
#1087=CARTESIAN_POINT('',(2.95803989155081,6.,-0.499999999999832));
#1088=CARTESIAN_POINT('',(11.999999999974,6.,-0.499999999999834));
#1089=CARTESIAN_POINT('',(11.999999999974,6.,0.500000000000166));
#1090=CARTESIAN_POINT('',(2.9580398915507,6.,0.500000000000167));
#1091=CARTESIAN_POINT('',(2.95803989155081,-6.,-0.499999999999829));
#1092=CARTESIAN_POINT('',(2.95803989155081,6.,-0.499999999999832));
#1093=CARTESIAN_POINT('',(2.9580398915507,6.,0.500000000000167));
#1094=CARTESIAN_POINT('',(2.95803989155081,-6.,0.500000000000168));
#1095=CARTESIAN_POINT('',(6.99999999997397,-2.5,-0.499999999999835));
#1096=CARTESIAN_POINT('',(8.49999999997397,-2.5,-0.499999999999835));
#1097=CARTESIAN_POINT('',(5.49999999997397,-2.5,-0.499999999999835));
#1098=CARTESIAN_POINT('',(6.99999999997397,-2.5,0.500000000000167));
#1099=CARTESIAN_POINT('',(8.49999999997397,-2.5,0.500000000000167));
#1100=CARTESIAN_POINT('',(5.49999999997397,-2.5,0.500000000000167));
#1101=CARTESIAN_POINT('',(6.99999999997397,2.5,-0.499999999999835));
#1102=CARTESIAN_POINT('',(8.49999999997397,2.5,-0.499999999999835));
#1103=CARTESIAN_POINT('',(5.49999999997397,2.5,-0.499999999999835));
#1104=CARTESIAN_POINT('',(6.99999999997397,2.5,0.500000000000167));
#1105=CARTESIAN_POINT('',(8.49999999997397,2.5,0.500000000000167));
#1106=CARTESIAN_POINT('',(5.49999999997397,2.5,0.500000000000167));
#1107=CARTESIAN_POINT('',(11.999999999974,-6.,-0.499999999999834));
#1108=CARTESIAN_POINT('',(11.999999999974,-6.,-5.99999999999983));
#1109=CARTESIAN_POINT('',(11.999999999974,6.,-0.499999999999834));
#1110=CARTESIAN_POINT('',(11.999999999974,6.,-5.99999999999983));
#1111=CARTESIAN_POINT('',(-5.70240814563996E-14,-6.,3.39347248682472E-13));
#1112=CARTESIAN_POINT('',(2.95803989155081,-6.,0.500000000000167));
#1113=CARTESIAN_POINT('',(2.95803989155075,-6.,-0.499999999999822));
#1114=CARTESIAN_POINT('',(1.07930917065016E-16,6.,-4.1487529639031E-16));
#1115=CARTESIAN_POINT('',(2.95803989155081,6.,-0.499999999999833));
#1116=CARTESIAN_POINT('',(2.95803989155076,6.,0.500000000000168));
#1117=CARTESIAN_POINT('',(8.49999999997397,-2.5,-0.499999999999834));
#1118=CARTESIAN_POINT('',(8.49999999997397,-2.5,-5.99999999999983));
#1119=CARTESIAN_POINT('',(8.49999999997397,2.5,-0.499999999999834));
#1120=CARTESIAN_POINT('',(8.49999999997397,2.5,-5.99999999999983));
#1121=CARTESIAN_POINT('',(-18.500000000026,0.499999999955086,2.50000000000017));
#1122=CARTESIAN_POINT('',(-18.500000000026,6.,2.50000000000017));
#1123=CARTESIAN_POINT('',(-17.000000000026,5.99999999999999,2.50000000000017));
#1124=CARTESIAN_POINT('',(-18.500000000026,5.99999999999999,2.50000000000017));
#1125=CARTESIAN_POINT('',(-15.500000000026,5.99999999999999,2.50000000000017));
#1126=CARTESIAN_POINT('',(-17.000000000026,0.499999999955079,2.50000000000016));
#1127=CARTESIAN_POINT('',(-18.500000000026,0.499999999955079,2.50000000000017));
#1128=CARTESIAN_POINT('',(-15.500000000026,0.499999999955079,2.50000000000017));
#1129=CARTESIAN_POINT('',(-18.500000000026,-6.,2.50000000000017));
#1130=CARTESIAN_POINT('',(-18.500000000026,-0.500000000044912,2.50000000000017));
#1131=CARTESIAN_POINT('',(-17.000000000026,-6.,2.50000000000016));
#1132=CARTESIAN_POINT('',(-18.500000000026,-6.,2.50000000000017));
#1133=CARTESIAN_POINT('',(-15.500000000026,-6.,2.50000000000017));
#1134=CARTESIAN_POINT('',(-17.000000000026,-0.500000000044921,2.50000000000017));
#1135=CARTESIAN_POINT('',(-18.500000000026,-0.500000000044921,2.50000000000017));
#1136=CARTESIAN_POINT('',(-15.500000000026,-0.500000000044921,2.50000000000017));
#1137=CARTESIAN_POINT('',(-18.500000000026,0.499999999955086,-2.49999999999983));
#1138=CARTESIAN_POINT('',(-18.500000000026,6.,-2.49999999999983));
#1139=CARTESIAN_POINT('',(-17.000000000026,6.,-2.49999999999983));
#1140=CARTESIAN_POINT('',(-18.500000000026,6.,-2.49999999999983));
#1141=CARTESIAN_POINT('',(-15.500000000026,6.,-2.49999999999983));
#1142=CARTESIAN_POINT('',(-17.000000000026,0.499999999955079,-2.49999999999983));
#1143=CARTESIAN_POINT('',(-18.500000000026,0.499999999955079,-2.49999999999983));
#1144=CARTESIAN_POINT('',(-15.500000000026,0.499999999955079,-2.49999999999983));
#1145=CARTESIAN_POINT('',(-18.500000000026,-6.,-2.49999999999983));
#1146=CARTESIAN_POINT('',(-18.500000000026,-0.500000000044905,-2.49999999999983));
#1147=CARTESIAN_POINT('',(-17.000000000026,-6.,-2.49999999999983));
#1148=CARTESIAN_POINT('',(-18.500000000026,-6.,-2.49999999999983));
#1149=CARTESIAN_POINT('',(-15.500000000026,-6.,-2.49999999999983));
#1150=CARTESIAN_POINT('',(-17.000000000026,-0.500000000044921,-2.49999999999983));
#1151=CARTESIAN_POINT('',(-18.500000000026,-0.500000000044921,-2.49999999999983));
#1152=CARTESIAN_POINT('',(-15.500000000026,-0.500000000044921,-2.49999999999983));
#1153=CARTESIAN_POINT('',(5.49999999997397,-2.5,6.00000000000017));
#1154=CARTESIAN_POINT('',(5.49999999997397,-2.5,0.500000000000164));
#1155=CARTESIAN_POINT('',(6.99999999997397,-2.5,6.00000000000017));
#1156=CARTESIAN_POINT('',(5.49999999997397,-2.5,6.00000000000017));
#1157=CARTESIAN_POINT('',(8.49999999997397,-2.5,6.00000000000017));
#1158=CARTESIAN_POINT('',(6.99999999997397,-2.5,0.500000000000167));
#1159=CARTESIAN_POINT('',(5.49999999997397,-2.5,0.500000000000167));
#1160=CARTESIAN_POINT('',(8.49999999997397,-2.5,0.500000000000167));
#1161=CARTESIAN_POINT('',(5.49999999997397,-2.5,-0.499999999999833));
#1162=CARTESIAN_POINT('',(5.49999999997397,-2.5,-5.99999999999983));
#1163=CARTESIAN_POINT('',(6.99999999997397,-2.5,-5.99999999999983));
#1164=CARTESIAN_POINT('',(5.49999999997397,-2.5,-5.99999999999983));
#1165=CARTESIAN_POINT('',(8.49999999997397,-2.5,-5.99999999999983));
#1166=CARTESIAN_POINT('',(6.99999999997397,-2.5,-0.499999999999835));
#1167=CARTESIAN_POINT('',(5.49999999997397,-2.5,-0.499999999999835));
#1168=CARTESIAN_POINT('',(8.49999999997397,-2.5,-0.499999999999835));
#1169=CARTESIAN_POINT('',(5.49999999997397,2.5,6.00000000000017));
#1170=CARTESIAN_POINT('',(5.49999999997397,2.5,0.500000000000164));
#1171=CARTESIAN_POINT('',(6.99999999997397,2.5,6.00000000000017));
#1172=CARTESIAN_POINT('',(5.49999999997397,2.5,6.00000000000017));
#1173=CARTESIAN_POINT('',(8.49999999997397,2.5,6.00000000000017));
#1174=CARTESIAN_POINT('',(6.99999999997397,2.5,0.500000000000167));
#1175=CARTESIAN_POINT('',(5.49999999997397,2.5,0.500000000000167));
#1176=CARTESIAN_POINT('',(8.49999999997397,2.5,0.500000000000167));
#1177=CARTESIAN_POINT('',(5.49999999997397,2.5,-0.499999999999833));
#1178=CARTESIAN_POINT('',(5.49999999997397,2.5,-5.99999999999983));
#1179=CARTESIAN_POINT('',(6.99999999997397,2.5,-5.99999999999983));
#1180=CARTESIAN_POINT('',(5.49999999997397,2.5,-5.99999999999983));
#1181=CARTESIAN_POINT('',(8.49999999997397,2.5,-5.99999999999983));
#1182=CARTESIAN_POINT('',(6.99999999997397,2.5,-0.499999999999835));
#1183=CARTESIAN_POINT('',(5.49999999997397,2.5,-0.499999999999835));
#1184=CARTESIAN_POINT('',(8.49999999997397,2.5,-0.499999999999835));
#1185=CARTESIAN_POINT('',(0.,0.,0.));
ENDSEC;
END-ISO-10303-21;
