ISO-10303-21;
HEADER;
/* Generated by software containing ST-Developer
 * from STEP Tools, Inc. (www.steptools.com) 
 */
/* OPTION: using custom schema-name function */

FILE_DESCRIPTION(
/* description */ (''),
/* implementation_level */ '2;1');

FILE_NAME(
/* name */ 'node_T_6x6',
/* time_stamp */ '2025-11-18T13:45:27+08:00',
/* author */ (''),
/* organization */ (''),
/* preprocessor_version */ 'ST-DEVELOPER v19.2',
/* originating_system */ 'Rhino 8.7',
/* authorisation */ '');

FILE_SCHEMA (('CONFIG_CONTROL_DESIGN'));
ENDSEC;

DATA;
#10=SHAPE_REPRESENTATION_RELATIONSHIP('','',#562,#12);
#11=MANIFOLD_SOLID_BREP('brep_1',#13);
#12=ADVANCED_BREP_SHAPE_REPRESENTATION('brep_rep_0',(#11,#615),#561);
#13=CLOSED_SHELL('',(#26,#27,#28,#29,#30,#31,#32,#33,#34,#35,#36,#37,#38,
#39,#40,#41,#42,#43,#44,#45,#46,#47,#48,#49,#50));
#14=FACE_BOUND('',#84,.T.);
#15=FACE_BOUND('',#85,.T.);
#16=FACE_BOUND('',#87,.T.);
#17=FACE_BOUND('',#88,.T.);
#18=FACE_BOUND('',#90,.T.);
#19=FACE_BOUND('',#92,.T.);
#20=FACE_BOUND('',#93,.T.);
#21=FACE_BOUND('',#95,.T.);
#22=FACE_BOUND('',#96,.T.);
#23=FACE_BOUND('',#97,.T.);
#24=FACE_BOUND('',#100,.T.);
#25=FACE_BOUND('',#110,.T.);
#26=ADVANCED_FACE('',(#51),#466,.T.);
#27=ADVANCED_FACE('',(#52),#467,.T.);
#28=ADVANCED_FACE('',(#53),#451,.F.);
#29=ADVANCED_FACE('',(#54),#452,.F.);
#30=ADVANCED_FACE('',(#55),#453,.F.);
#31=ADVANCED_FACE('',(#56),#454,.F.);
#32=ADVANCED_FACE('',(#57),#455,.F.);
#33=ADVANCED_FACE('',(#58,#14,#15),#468,.T.);
#34=ADVANCED_FACE('',(#59,#16,#17),#469,.T.);
#35=ADVANCED_FACE('',(#60,#18),#470,.T.);
#36=ADVANCED_FACE('',(#61,#19,#20),#471,.T.);
#37=ADVANCED_FACE('',(#62,#21,#22,#23),#472,.T.);
#38=ADVANCED_FACE('',(#63),#473,.T.);
#39=ADVANCED_FACE('',(#64,#24),#474,.T.);
#40=ADVANCED_FACE('',(#65),#456,.F.);
#41=ADVANCED_FACE('',(#66),#475,.T.);
#42=ADVANCED_FACE('',(#67),#457,.F.);
#43=ADVANCED_FACE('',(#68),#458,.F.);
#44=ADVANCED_FACE('',(#69),#459,.F.);
#45=ADVANCED_FACE('',(#70),#460,.F.);
#46=ADVANCED_FACE('',(#71),#461,.F.);
#47=ADVANCED_FACE('',(#72),#462,.F.);
#48=ADVANCED_FACE('',(#73,#25),#463,.F.);
#49=ADVANCED_FACE('',(#74),#464,.F.);
#50=ADVANCED_FACE('',(#75),#465,.F.);
#51=FACE_OUTER_BOUND('',#76,.T.);
#52=FACE_OUTER_BOUND('',#77,.T.);
#53=FACE_OUTER_BOUND('',#78,.T.);
#54=FACE_OUTER_BOUND('',#79,.T.);
#55=FACE_OUTER_BOUND('',#80,.T.);
#56=FACE_OUTER_BOUND('',#81,.T.);
#57=FACE_OUTER_BOUND('',#82,.T.);
#58=FACE_OUTER_BOUND('',#83,.T.);
#59=FACE_OUTER_BOUND('',#86,.T.);
#60=FACE_OUTER_BOUND('',#89,.T.);
#61=FACE_OUTER_BOUND('',#91,.T.);
#62=FACE_OUTER_BOUND('',#94,.T.);
#63=FACE_OUTER_BOUND('',#98,.T.);
#64=FACE_OUTER_BOUND('',#99,.T.);
#65=FACE_OUTER_BOUND('',#101,.T.);
#66=FACE_OUTER_BOUND('',#102,.T.);
#67=FACE_OUTER_BOUND('',#103,.T.);
#68=FACE_OUTER_BOUND('',#104,.T.);
#69=FACE_OUTER_BOUND('',#105,.T.);
#70=FACE_OUTER_BOUND('',#106,.T.);
#71=FACE_OUTER_BOUND('',#107,.T.);
#72=FACE_OUTER_BOUND('',#108,.T.);
#73=FACE_OUTER_BOUND('',#109,.T.);
#74=FACE_OUTER_BOUND('',#111,.T.);
#75=FACE_OUTER_BOUND('',#112,.T.);
#76=EDGE_LOOP('',(#113,#114,#115,#116));
#77=EDGE_LOOP('',(#117,#118,#119,#120));
#78=EDGE_LOOP('',(#121,#122,#123,#124));
#79=EDGE_LOOP('',(#125,#126,#127,#128));
#80=EDGE_LOOP('',(#129,#130,#131,#132));
#81=EDGE_LOOP('',(#133,#134,#135,#136));
#82=EDGE_LOOP('',(#137,#138,#139,#140));
#83=EDGE_LOOP('',(#141,#142,#143,#144));
#84=EDGE_LOOP('',(#145,#146));
#85=EDGE_LOOP('',(#147,#148));
#86=EDGE_LOOP('',(#149,#150,#151,#152));
#87=EDGE_LOOP('',(#153,#154));
#88=EDGE_LOOP('',(#155,#156));
#89=EDGE_LOOP('',(#157,#158,#159,#160));
#90=EDGE_LOOP('',(#161,#162));
#91=EDGE_LOOP('',(#163,#164,#165,#166));
#92=EDGE_LOOP('',(#167,#168));
#93=EDGE_LOOP('',(#169,#170));
#94=EDGE_LOOP('',(#171,#172,#173,#174));
#95=EDGE_LOOP('',(#175,#176));
#96=EDGE_LOOP('',(#177,#178));
#97=EDGE_LOOP('',(#179,#180));
#98=EDGE_LOOP('',(#181,#182,#183,#184,#185,#186,#187,#188));
#99=EDGE_LOOP('',(#189,#190,#191,#192,#193,#194,#195,#196));
#100=EDGE_LOOP('',(#197,#198));
#101=EDGE_LOOP('',(#199,#200,#201,#202,#203,#204));
#102=EDGE_LOOP('',(#205,#206));
#103=EDGE_LOOP('',(#207,#208,#209,#210));
#104=EDGE_LOOP('',(#211,#212,#213,#214));
#105=EDGE_LOOP('',(#215,#216,#217,#218));
#106=EDGE_LOOP('',(#219,#220,#221,#222));
#107=EDGE_LOOP('',(#223,#224,#225,#226));
#108=EDGE_LOOP('',(#227,#228,#229,#230));
#109=EDGE_LOOP('',(#231,#232,#233,#234,#235,#236));
#110=EDGE_LOOP('',(#237,#238));
#111=EDGE_LOOP('',(#239,#240,#241,#242));
#112=EDGE_LOOP('',(#243,#244,#245,#246));
#113=ORIENTED_EDGE('',*,*,#260,.T.);
#114=ORIENTED_EDGE('',*,*,#250,.F.);
#115=ORIENTED_EDGE('',*,*,#249,.F.);
#116=ORIENTED_EDGE('',*,*,#248,.T.);
#117=ORIENTED_EDGE('',*,*,#259,.T.);
#118=ORIENTED_EDGE('',*,*,#269,.T.);
#119=ORIENTED_EDGE('',*,*,#247,.T.);
#120=ORIENTED_EDGE('',*,*,#270,.F.);
#121=ORIENTED_EDGE('',*,*,#264,.T.);
#122=ORIENTED_EDGE('',*,*,#271,.T.);
#123=ORIENTED_EDGE('',*,*,#263,.T.);
#124=ORIENTED_EDGE('',*,*,#272,.T.);
#125=ORIENTED_EDGE('',*,*,#295,.T.);
#126=ORIENTED_EDGE('',*,*,#252,.T.);
#127=ORIENTED_EDGE('',*,*,#266,.T.);
#128=ORIENTED_EDGE('',*,*,#294,.F.);
#129=ORIENTED_EDGE('',*,*,#299,.T.);
#130=ORIENTED_EDGE('',*,*,#273,.T.);
#131=ORIENTED_EDGE('',*,*,#253,.T.);
#132=ORIENTED_EDGE('',*,*,#297,.F.);
#133=ORIENTED_EDGE('',*,*,#301,.T.);
#134=ORIENTED_EDGE('',*,*,#255,.T.);
#135=ORIENTED_EDGE('',*,*,#268,.T.);
#136=ORIENTED_EDGE('',*,*,#300,.F.);
#137=ORIENTED_EDGE('',*,*,#305,.T.);
#138=ORIENTED_EDGE('',*,*,#274,.T.);
#139=ORIENTED_EDGE('',*,*,#256,.T.);
#140=ORIENTED_EDGE('',*,*,#303,.F.);
#141=ORIENTED_EDGE('',*,*,#257,.F.);
#142=ORIENTED_EDGE('',*,*,#259,.F.);
#143=ORIENTED_EDGE('',*,*,#261,.F.);
#144=ORIENTED_EDGE('',*,*,#263,.F.);
#145=ORIENTED_EDGE('',*,*,#305,.F.);
#146=ORIENTED_EDGE('',*,*,#267,.F.);
#147=ORIENTED_EDGE('',*,*,#299,.F.);
#148=ORIENTED_EDGE('',*,*,#265,.F.);
#149=ORIENTED_EDGE('',*,*,#264,.F.);
#150=ORIENTED_EDGE('',*,*,#262,.F.);
#151=ORIENTED_EDGE('',*,*,#260,.F.);
#152=ORIENTED_EDGE('',*,*,#258,.F.);
#153=ORIENTED_EDGE('',*,*,#302,.F.);
#154=ORIENTED_EDGE('',*,*,#268,.F.);
#155=ORIENTED_EDGE('',*,*,#296,.F.);
#156=ORIENTED_EDGE('',*,*,#266,.F.);
#157=ORIENTED_EDGE('',*,*,#275,.F.);
#158=ORIENTED_EDGE('',*,*,#277,.F.);
#159=ORIENTED_EDGE('',*,*,#278,.T.);
#160=ORIENTED_EDGE('',*,*,#276,.F.);
#161=ORIENTED_EDGE('',*,*,#307,.F.);
#162=ORIENTED_EDGE('',*,*,#283,.F.);
#163=ORIENTED_EDGE('',*,*,#279,.T.);
#164=ORIENTED_EDGE('',*,*,#249,.T.);
#165=ORIENTED_EDGE('',*,*,#282,.T.);
#166=ORIENTED_EDGE('',*,*,#275,.T.);
#167=ORIENTED_EDGE('',*,*,#295,.F.);
#168=ORIENTED_EDGE('',*,*,#251,.F.);
#169=ORIENTED_EDGE('',*,*,#301,.F.);
#170=ORIENTED_EDGE('',*,*,#254,.F.);
#171=ORIENTED_EDGE('',*,*,#278,.F.);
#172=ORIENTED_EDGE('',*,*,#281,.F.);
#173=ORIENTED_EDGE('',*,*,#247,.F.);
#174=ORIENTED_EDGE('',*,*,#280,.F.);
#175=ORIENTED_EDGE('',*,*,#298,.F.);
#176=ORIENTED_EDGE('',*,*,#253,.F.);
#177=ORIENTED_EDGE('',*,*,#304,.F.);
#178=ORIENTED_EDGE('',*,*,#256,.F.);
#179=ORIENTED_EDGE('',*,*,#286,.T.);
#180=ORIENTED_EDGE('',*,*,#310,.T.);
#181=ORIENTED_EDGE('',*,*,#276,.T.);
#182=ORIENTED_EDGE('',*,*,#280,.T.);
#183=ORIENTED_EDGE('',*,*,#269,.F.);
#184=ORIENTED_EDGE('',*,*,#257,.T.);
#185=ORIENTED_EDGE('',*,*,#271,.F.);
#186=ORIENTED_EDGE('',*,*,#258,.T.);
#187=ORIENTED_EDGE('',*,*,#248,.F.);
#188=ORIENTED_EDGE('',*,*,#279,.F.);
#189=ORIENTED_EDGE('',*,*,#277,.T.);
#190=ORIENTED_EDGE('',*,*,#282,.F.);
#191=ORIENTED_EDGE('',*,*,#250,.T.);
#192=ORIENTED_EDGE('',*,*,#262,.T.);
#193=ORIENTED_EDGE('',*,*,#272,.F.);
#194=ORIENTED_EDGE('',*,*,#261,.T.);
#195=ORIENTED_EDGE('',*,*,#270,.T.);
#196=ORIENTED_EDGE('',*,*,#281,.T.);
#197=ORIENTED_EDGE('',*,*,#313,.F.);
#198=ORIENTED_EDGE('',*,*,#289,.F.);
#199=ORIENTED_EDGE('',*,*,#307,.T.);
#200=ORIENTED_EDGE('',*,*,#284,.T.);
#201=ORIENTED_EDGE('',*,*,#291,.F.);
#202=ORIENTED_EDGE('',*,*,#293,.T.);
#203=ORIENTED_EDGE('',*,*,#308,.F.);
#204=ORIENTED_EDGE('',*,*,#306,.F.);
#205=ORIENTED_EDGE('',*,*,#285,.T.);
#206=ORIENTED_EDGE('',*,*,#308,.T.);
#207=ORIENTED_EDGE('',*,*,#311,.T.);
#208=ORIENTED_EDGE('',*,*,#288,.T.);
#209=ORIENTED_EDGE('',*,*,#310,.F.);
#210=ORIENTED_EDGE('',*,*,#309,.F.);
#211=ORIENTED_EDGE('',*,*,#313,.T.);
#212=ORIENTED_EDGE('',*,*,#290,.T.);
#213=ORIENTED_EDGE('',*,*,#291,.T.);
#214=ORIENTED_EDGE('',*,*,#312,.F.);
#215=ORIENTED_EDGE('',*,*,#294,.T.);
#216=ORIENTED_EDGE('',*,*,#296,.T.);
#217=ORIENTED_EDGE('',*,*,#252,.F.);
#218=ORIENTED_EDGE('',*,*,#251,.T.);
#219=ORIENTED_EDGE('',*,*,#297,.T.);
#220=ORIENTED_EDGE('',*,*,#298,.T.);
#221=ORIENTED_EDGE('',*,*,#273,.F.);
#222=ORIENTED_EDGE('',*,*,#265,.T.);
#223=ORIENTED_EDGE('',*,*,#300,.T.);
#224=ORIENTED_EDGE('',*,*,#302,.T.);
#225=ORIENTED_EDGE('',*,*,#255,.F.);
#226=ORIENTED_EDGE('',*,*,#254,.T.);
#227=ORIENTED_EDGE('',*,*,#303,.T.);
#228=ORIENTED_EDGE('',*,*,#304,.T.);
#229=ORIENTED_EDGE('',*,*,#274,.F.);
#230=ORIENTED_EDGE('',*,*,#267,.T.);
#231=ORIENTED_EDGE('',*,*,#306,.T.);
#232=ORIENTED_EDGE('',*,*,#285,.F.);
#233=ORIENTED_EDGE('',*,*,#293,.F.);
#234=ORIENTED_EDGE('',*,*,#292,.F.);
#235=ORIENTED_EDGE('',*,*,#284,.F.);
#236=ORIENTED_EDGE('',*,*,#283,.T.);
#237=ORIENTED_EDGE('',*,*,#311,.F.);
#238=ORIENTED_EDGE('',*,*,#287,.F.);
#239=ORIENTED_EDGE('',*,*,#309,.T.);
#240=ORIENTED_EDGE('',*,*,#286,.F.);
#241=ORIENTED_EDGE('',*,*,#288,.F.);
#242=ORIENTED_EDGE('',*,*,#287,.T.);
#243=ORIENTED_EDGE('',*,*,#312,.T.);
#244=ORIENTED_EDGE('',*,*,#292,.T.);
#245=ORIENTED_EDGE('',*,*,#290,.F.);
#246=ORIENTED_EDGE('',*,*,#289,.T.);
#247=EDGE_CURVE('',#407,#408,#368,.T.);
#248=EDGE_CURVE('',#409,#418,#369,.T.);
#249=EDGE_CURVE('',#409,#410,#370,.T.);
#250=EDGE_CURVE('',#410,#420,#371,.T.);
#251=EDGE_CURVE('',#412,#438,#316,.T.);
#252=EDGE_CURVE('',#412,#424,#372,.T.);
#253=EDGE_CURVE('',#411,#441,#317,.T.);
#254=EDGE_CURVE('',#414,#442,#318,.T.);
#255=EDGE_CURVE('',#414,#426,#373,.T.);
#256=EDGE_CURVE('',#413,#445,#319,.T.);
#257=EDGE_CURVE('',#415,#416,#374,.T.);
#258=EDGE_CURVE('',#417,#418,#375,.T.);
#259=EDGE_CURVE('',#419,#415,#376,.T.);
#260=EDGE_CURVE('',#418,#420,#377,.T.);
#261=EDGE_CURVE('',#421,#419,#378,.T.);
#262=EDGE_CURVE('',#420,#422,#379,.T.);
#263=EDGE_CURVE('',#416,#421,#380,.T.);
#264=EDGE_CURVE('',#422,#417,#381,.T.);
#265=EDGE_CURVE('',#423,#440,#320,.T.);
#266=EDGE_CURVE('',#424,#439,#321,.T.);
#267=EDGE_CURVE('',#425,#444,#322,.T.);
#268=EDGE_CURVE('',#426,#443,#323,.T.);
#269=EDGE_CURVE('',#415,#407,#382,.T.);
#270=EDGE_CURVE('',#419,#408,#383,.T.);
#271=EDGE_CURVE('',#417,#416,#324,.T.);
#272=EDGE_CURVE('',#421,#422,#325,.T.);
#273=EDGE_CURVE('',#423,#411,#384,.T.);
#274=EDGE_CURVE('',#425,#413,#385,.T.);
#275=EDGE_CURVE('',#428,#427,#386,.T.);
#276=EDGE_CURVE('',#427,#429,#387,.T.);
#277=EDGE_CURVE('',#430,#428,#388,.T.);
#278=EDGE_CURVE('',#430,#429,#389,.T.);
#279=EDGE_CURVE('',#427,#409,#390,.T.);
#280=EDGE_CURVE('',#429,#407,#391,.T.);
#281=EDGE_CURVE('',#408,#430,#392,.T.);
#282=EDGE_CURVE('',#410,#428,#393,.T.);
#283=EDGE_CURVE('',#432,#446,#326,.T.);
#284=EDGE_CURVE('',#432,#437,#394,.T.);
#285=EDGE_CURVE('',#431,#447,#327,.T.);
#286=EDGE_CURVE('',#433,#449,#328,.T.);
#287=EDGE_CURVE('',#434,#448,#395,.T.);
#288=EDGE_CURVE('',#434,#433,#396,.T.);
#289=EDGE_CURVE('',#435,#450,#329,.T.);
#290=EDGE_CURVE('',#435,#436,#397,.T.);
#291=EDGE_CURVE('',#436,#437,#398,.T.);
#292=EDGE_CURVE('',#437,#436,#399,.T.);
#293=EDGE_CURVE('',#436,#431,#400,.T.);
#294=EDGE_CURVE('',#438,#439,#401,.T.);
#295=EDGE_CURVE('',#438,#412,#330,.T.);
#296=EDGE_CURVE('',#439,#424,#331,.T.);
#297=EDGE_CURVE('',#440,#441,#402,.T.);
#298=EDGE_CURVE('',#441,#411,#332,.T.);
#299=EDGE_CURVE('',#440,#423,#333,.T.);
#300=EDGE_CURVE('',#442,#443,#403,.T.);
#301=EDGE_CURVE('',#442,#414,#334,.T.);
#302=EDGE_CURVE('',#443,#426,#335,.T.);
#303=EDGE_CURVE('',#444,#445,#404,.T.);
#304=EDGE_CURVE('',#445,#413,#336,.T.);
#305=EDGE_CURVE('',#444,#425,#337,.T.);
#306=EDGE_CURVE('',#446,#447,#405,.T.);
#307=EDGE_CURVE('',#446,#432,#338,.T.);
#308=EDGE_CURVE('',#447,#431,#339,.T.);
#309=EDGE_CURVE('',#448,#449,#314,.T.);
#310=EDGE_CURVE('',#449,#433,#340,.T.);
#311=EDGE_CURVE('',#448,#434,#406,.T.);
#312=EDGE_CURVE('',#450,#437,#315,.T.);
#313=EDGE_CURVE('',#450,#435,#341,.T.);
#314=(
BOUNDED_CURVE()
B_SPLINE_CURVE(1,(#966,#967),.UNSPECIFIED.,.F.,.F.)
B_SPLINE_CURVE_WITH_KNOTS((2,2),(6.,12.),.UNSPECIFIED.)
CURVE()
GEOMETRIC_REPRESENTATION_ITEM()
RATIONAL_B_SPLINE_CURVE((1.,1.))
REPRESENTATION_ITEM('')
);
#315=(
BOUNDED_CURVE()
B_SPLINE_CURVE(1,(#990,#991),.UNSPECIFIED.,.F.,.F.)
B_SPLINE_CURVE_WITH_KNOTS((2,2),(0.,5.99999998257884),.UNSPECIFIED.)
CURVE()
GEOMETRIC_REPRESENTATION_ITEM()
RATIONAL_B_SPLINE_CURVE((1.,1.))
REPRESENTATION_ITEM('')
);
#316=TRIMMED_CURVE($,#342,(#776),(#777),.T.,.CARTESIAN.);
#317=TRIMMED_CURVE($,#343,(#781),(#782),.T.,.CARTESIAN.);
#318=TRIMMED_CURVE($,#344,(#784),(#785),.T.,.CARTESIAN.);
#319=TRIMMED_CURVE($,#345,(#789),(#790),.T.,.CARTESIAN.);
#320=TRIMMED_CURVE($,#346,(#808),(#809),.T.,.CARTESIAN.);
#321=TRIMMED_CURVE($,#347,(#811),(#812),.T.,.CARTESIAN.);
#322=TRIMMED_CURVE($,#348,(#814),(#815),.T.,.CARTESIAN.);
#323=TRIMMED_CURVE($,#349,(#817),(#818),.T.,.CARTESIAN.);
#324=TRIMMED_CURVE($,#350,(#824),(#825),.T.,.CARTESIAN.);
#325=TRIMMED_CURVE($,#351,(#827),(#828),.T.,.CARTESIAN.);
#326=TRIMMED_CURVE($,#352,(#850),(#851),.T.,.CARTESIAN.);
#327=TRIMMED_CURVE($,#353,(#855),(#856),.T.,.CARTESIAN.);
#328=TRIMMED_CURVE($,#354,(#858),(#859),.T.,.CARTESIAN.);
#329=TRIMMED_CURVE($,#355,(#882),(#883),.T.,.CARTESIAN.);
#330=TRIMMED_CURVE($,#356,(#929),(#930),.T.,.CARTESIAN.);
#331=TRIMMED_CURVE($,#357,(#932),(#933),.T.,.CARTESIAN.);
#332=TRIMMED_CURVE($,#358,(#937),(#938),.T.,.CARTESIAN.);
#333=TRIMMED_CURVE($,#359,(#940),(#941),.T.,.CARTESIAN.);
#334=TRIMMED_CURVE($,#360,(#945),(#946),.T.,.CARTESIAN.);
#335=TRIMMED_CURVE($,#361,(#948),(#949),.T.,.CARTESIAN.);
#336=TRIMMED_CURVE($,#362,(#953),(#954),.T.,.CARTESIAN.);
#337=TRIMMED_CURVE($,#363,(#956),(#957),.T.,.CARTESIAN.);
#338=TRIMMED_CURVE($,#364,(#961),(#962),.T.,.CARTESIAN.);
#339=TRIMMED_CURVE($,#365,(#964),(#965),.T.,.CARTESIAN.);
#340=TRIMMED_CURVE($,#366,(#969),(#970),.T.,.CARTESIAN.);
#341=TRIMMED_CURVE($,#367,(#993),(#994),.T.,.CARTESIAN.);
#342=CIRCLE('',#589,1.5);
#343=CIRCLE('',#590,1.5);
#344=CIRCLE('',#591,1.5);
#345=CIRCLE('',#592,1.5);
#346=CIRCLE('',#593,1.5);
#347=CIRCLE('',#594,1.5);
#348=CIRCLE('',#595,1.5);
#349=CIRCLE('',#596,1.5);
#350=CIRCLE('',#597,3.00000000000102);
#351=CIRCLE('',#598,3.00000000000096);
#352=CIRCLE('',#599,3.);
#353=CIRCLE('',#600,3.);
#354=CIRCLE('',#601,1.5);
#355=CIRCLE('',#602,1.5);
#356=CIRCLE('',#603,1.5);
#357=CIRCLE('',#604,1.5);
#358=CIRCLE('',#605,1.5);
#359=CIRCLE('',#606,1.5);
#360=CIRCLE('',#607,1.5);
#361=CIRCLE('',#608,1.5);
#362=CIRCLE('',#609,1.5);
#363=CIRCLE('',#610,1.5);
#364=CIRCLE('',#611,3.);
#365=CIRCLE('',#612,3.);
#366=CIRCLE('',#613,1.5);
#367=CIRCLE('',#614,1.5);
#368=B_SPLINE_CURVE_WITH_KNOTS('',1,(#767,#768),.UNSPECIFIED.,.F.,.F.,(2,
2),(0.,12.),.UNSPECIFIED.);
#369=B_SPLINE_CURVE_WITH_KNOTS('',1,(#769,#770),.UNSPECIFIED.,.F.,.F.,(2,
2),(-12.,-6.5),.UNSPECIFIED.);
#370=B_SPLINE_CURVE_WITH_KNOTS('',1,(#771,#772),.UNSPECIFIED.,.F.,.F.,(2,
2),(0.,12.),.UNSPECIFIED.);
#371=B_SPLINE_CURVE_WITH_KNOTS('',1,(#773,#774),.UNSPECIFIED.,.F.,.F.,(2,
2),(-12.,-6.5),.UNSPECIFIED.);
#372=B_SPLINE_CURVE_WITH_KNOTS('',1,(#778,#779),.UNSPECIFIED.,.F.,.F.,(2,
2),(0.,5.5),.UNSPECIFIED.);
#373=B_SPLINE_CURVE_WITH_KNOTS('',1,(#786,#787),.UNSPECIFIED.,.F.,.F.,(2,
2),(0.,5.5),.UNSPECIFIED.);
#374=B_SPLINE_CURVE_WITH_KNOTS('',1,(#791,#792),.UNSPECIFIED.,.F.,.F.,(2,
2),(6.27272727272731,8.73871639320632),.UNSPECIFIED.);
#375=B_SPLINE_CURVE_WITH_KNOTS('',1,(#793,#794),.UNSPECIFIED.,.F.,.F.,(2,
2),(-8.73871639320632,-6.27272727272731),.UNSPECIFIED.);
#376=B_SPLINE_CURVE_WITH_KNOTS('',1,(#795,#796),.UNSPECIFIED.,.F.,.F.,(2,
2),(-12.,0.),.UNSPECIFIED.);
#377=B_SPLINE_CURVE_WITH_KNOTS('',1,(#797,#798),.UNSPECIFIED.,.F.,.F.,(2,
2),(3.,15.),.UNSPECIFIED.);
#378=B_SPLINE_CURVE_WITH_KNOTS('',1,(#799,#800),.UNSPECIFIED.,.F.,.F.,(2,
2),(-9.04196010842296,0.),.UNSPECIFIED.);
#379=B_SPLINE_CURVE_WITH_KNOTS('',1,(#801,#802),.UNSPECIFIED.,.F.,.F.,(2,
2),(0.,9.04196010842296),.UNSPECIFIED.);
#380=B_SPLINE_CURVE_WITH_KNOTS('',1,(#803,#804),.UNSPECIFIED.,.F.,.F.,(2,
2),(2.99999999999998,15.),.UNSPECIFIED.);
#381=B_SPLINE_CURVE_WITH_KNOTS('',1,(#805,#806),.UNSPECIFIED.,.F.,.F.,(2,
2),(-12.,0.),.UNSPECIFIED.);
#382=B_SPLINE_CURVE_WITH_KNOTS('',1,(#819,#820),.UNSPECIFIED.,.F.,.F.,(2,
2),(-5.5,0.),.UNSPECIFIED.);
#383=B_SPLINE_CURVE_WITH_KNOTS('',1,(#821,#822),.UNSPECIFIED.,.F.,.F.,(2,
2),(-5.5,0.),.UNSPECIFIED.);
#384=B_SPLINE_CURVE_WITH_KNOTS('',1,(#829,#830),.UNSPECIFIED.,.F.,.F.,(2,
2),(6.5,12.),.UNSPECIFIED.);
#385=B_SPLINE_CURVE_WITH_KNOTS('',1,(#831,#832),.UNSPECIFIED.,.F.,.F.,(2,
2),(6.5,12.),.UNSPECIFIED.);
#386=B_SPLINE_CURVE_WITH_KNOTS('',1,(#833,#834),.UNSPECIFIED.,.F.,.F.,(2,
2),(-12.,0.),.UNSPECIFIED.);
#387=B_SPLINE_CURVE_WITH_KNOTS('',1,(#835,#836),.UNSPECIFIED.,.F.,.F.,(2,
2),(0.,12.),.UNSPECIFIED.);
#388=B_SPLINE_CURVE_WITH_KNOTS('',1,(#837,#838),.UNSPECIFIED.,.F.,.F.,(2,
2),(-12.,0.),.UNSPECIFIED.);
#389=B_SPLINE_CURVE_WITH_KNOTS('',1,(#839,#840),.UNSPECIFIED.,.F.,.F.,(2,
2),(-12.,0.),.UNSPECIFIED.);
#390=B_SPLINE_CURVE_WITH_KNOTS('',1,(#841,#842),.UNSPECIFIED.,.F.,.F.,(2,
2),(0.,34.),.UNSPECIFIED.);
#391=B_SPLINE_CURVE_WITH_KNOTS('',1,(#843,#844),.UNSPECIFIED.,.F.,.F.,(2,
2),(0.,34.),.UNSPECIFIED.);
#392=B_SPLINE_CURVE_WITH_KNOTS('',1,(#845,#846),.UNSPECIFIED.,.F.,.F.,(2,
2),(0.,34.),.UNSPECIFIED.);
#393=B_SPLINE_CURVE_WITH_KNOTS('',1,(#847,#848),.UNSPECIFIED.,.F.,.F.,(2,
2),(0.,34.),.UNSPECIFIED.);
#394=B_SPLINE_CURVE_WITH_KNOTS('',1,(#852,#853),.UNSPECIFIED.,.F.,.F.,(2,
2),(0.,5.00000000000003),.UNSPECIFIED.);
#395=B_SPLINE_CURVE_WITH_KNOTS('',3,(#860,#861,#862,#863,#864,#865,#866,
#867,#868,#869,#870,#871,#872,#873,#874,#875,#876,#877,#878),
 .UNSPECIFIED.,.F.,.F.,(4,2,2,2,3,2,2,2,4),(0.,0.60549046082384,1.20777090214936,
1.80904768456033,2.41509068808234,3.02113369160395,3.62241047401492,4.22469091534119,
4.83018137616469),.UNSPECIFIED.);
#396=B_SPLINE_CURVE_WITH_KNOTS('',1,(#879,#880),.UNSPECIFIED.,.F.,.F.,(2,
2),(6.,12.),.UNSPECIFIED.);
#397=B_SPLINE_CURVE_WITH_KNOTS('',1,(#884,#885),.UNSPECIFIED.,.F.,.F.,(2,
2),(0.,5.99999998257884),.UNSPECIFIED.);
#398=B_SPLINE_CURVE_WITH_KNOTS('',3,(#886,#887,#888,#889,#890,#891,#892,
#893,#894,#895,#896,#897,#898,#899,#900,#901,#902,#903,#904),
 .UNSPECIFIED.,.F.,.F.,(4,2,2,2,3,2,2,2,4),(0.,0.605490453981837,1.20777089408899,
1.80904767529521,2.41509067745081,3.02113367960643,3.62241046081249,4.22469090091912,
4.83018135490161),.UNSPECIFIED.);
#399=B_SPLINE_CURVE_WITH_KNOTS('',3,(#905,#906,#907,#908,#909,#910,#911,
#912,#913,#914,#915,#916,#917,#918,#919,#920,#921,#922,#923),
 .UNSPECIFIED.,.F.,.F.,(4,2,2,2,3,2,2,2,4),(0.,0.605524022419309,1.20772487312399,
1.80894418034532,2.41509030476863,3.02123642919586,3.62245573642125,4.22465658712193,
4.83018060953744),.UNSPECIFIED.);
#400=B_SPLINE_CURVE_WITH_KNOTS('',1,(#924,#925),.UNSPECIFIED.,.F.,.F.,(2,
2),(8.,12.),.UNSPECIFIED.);
#401=B_SPLINE_CURVE_WITH_KNOTS('',1,(#926,#927),.UNSPECIFIED.,.F.,.F.,(2,
2),(0.,5.5),.UNSPECIFIED.);
#402=B_SPLINE_CURVE_WITH_KNOTS('',1,(#934,#935),.UNSPECIFIED.,.F.,.F.,(2,
2),(6.5,12.),.UNSPECIFIED.);
#403=B_SPLINE_CURVE_WITH_KNOTS('',1,(#942,#943),.UNSPECIFIED.,.F.,.F.,(2,
2),(0.,5.5),.UNSPECIFIED.);
#404=B_SPLINE_CURVE_WITH_KNOTS('',1,(#950,#951),.UNSPECIFIED.,.F.,.F.,(2,
2),(6.5,12.),.UNSPECIFIED.);
#405=B_SPLINE_CURVE_WITH_KNOTS('',1,(#958,#959),.UNSPECIFIED.,.F.,.F.,(2,
2),(0.,12.),.UNSPECIFIED.);
#406=B_SPLINE_CURVE_WITH_KNOTS('',3,(#971,#972,#973,#974,#975,#976,#977,
#978,#979,#980,#981,#982,#983,#984,#985,#986,#987,#988,#989),
 .UNSPECIFIED.,.F.,.F.,(4,2,2,2,3,2,2,2,4),(4.83018137616469,5.43567183697825,
6.03795227830089,6.6392290607098,7.24527206422937,7.85131506774764,8.45259185015656,
9.05487229147958,9.66036275229406),.UNSPECIFIED.);
#407=VERTEX_POINT('',#723);
#408=VERTEX_POINT('',#724);
#409=VERTEX_POINT('',#725);
#410=VERTEX_POINT('',#726);
#411=VERTEX_POINT('',#727);
#412=VERTEX_POINT('',#728);
#413=VERTEX_POINT('',#729);
#414=VERTEX_POINT('',#730);
#415=VERTEX_POINT('',#731);
#416=VERTEX_POINT('',#732);
#417=VERTEX_POINT('',#733);
#418=VERTEX_POINT('',#734);
#419=VERTEX_POINT('',#735);
#420=VERTEX_POINT('',#736);
#421=VERTEX_POINT('',#737);
#422=VERTEX_POINT('',#738);
#423=VERTEX_POINT('',#739);
#424=VERTEX_POINT('',#740);
#425=VERTEX_POINT('',#741);
#426=VERTEX_POINT('',#742);
#427=VERTEX_POINT('',#743);
#428=VERTEX_POINT('',#744);
#429=VERTEX_POINT('',#745);
#430=VERTEX_POINT('',#746);
#431=VERTEX_POINT('',#747);
#432=VERTEX_POINT('',#748);
#433=VERTEX_POINT('',#749);
#434=VERTEX_POINT('',#750);
#435=VERTEX_POINT('',#751);
#436=VERTEX_POINT('',#752);
#437=VERTEX_POINT('',#753);
#438=VERTEX_POINT('',#754);
#439=VERTEX_POINT('',#755);
#440=VERTEX_POINT('',#756);
#441=VERTEX_POINT('',#757);
#442=VERTEX_POINT('',#758);
#443=VERTEX_POINT('',#759);
#444=VERTEX_POINT('',#760);
#445=VERTEX_POINT('',#761);
#446=VERTEX_POINT('',#762);
#447=VERTEX_POINT('',#763);
#448=VERTEX_POINT('',#764);
#449=VERTEX_POINT('',#765);
#450=VERTEX_POINT('',#766);
#451=CYLINDRICAL_SURFACE('',#566,3.);
#452=CYLINDRICAL_SURFACE('',#567,1.5);
#453=CYLINDRICAL_SURFACE('',#568,1.5);
#454=CYLINDRICAL_SURFACE('',#569,1.5);
#455=CYLINDRICAL_SURFACE('',#570,1.5);
#456=CYLINDRICAL_SURFACE('',#578,3.);
#457=CYLINDRICAL_SURFACE('',#580,1.5);
#458=CYLINDRICAL_SURFACE('',#581,1.5);
#459=CYLINDRICAL_SURFACE('',#582,1.5);
#460=CYLINDRICAL_SURFACE('',#583,1.5);
#461=CYLINDRICAL_SURFACE('',#584,1.5);
#462=CYLINDRICAL_SURFACE('',#585,1.5);
#463=CYLINDRICAL_SURFACE('',#586,3.);
#464=CYLINDRICAL_SURFACE('',#587,1.5);
#465=CYLINDRICAL_SURFACE('',#588,1.5);
#466=PLANE('',#564);
#467=PLANE('',#565);
#468=PLANE('',#571);
#469=PLANE('',#572);
#470=PLANE('',#573);
#471=PLANE('',#574);
#472=PLANE('',#575);
#473=PLANE('',#576);
#474=PLANE('',#577);
#475=PLANE('',#579);
#476=SHAPE_DEFINITION_REPRESENTATION(#477,#562);
#477=PRODUCT_DEFINITION_SHAPE($,$,#479);
#478=PRODUCT_DEFINITION_CONTEXT('3D Mechanical Parts',#551,'design');
#479=PRODUCT_DEFINITION('A','First version',#521,#478);
#480=DATE_TIME_ROLE('classification_date');
#481=DATE_TIME_ROLE('creation_date');
#482=APPLIED_DATE_AND_TIME_ASSIGNMENT(#506,#480,(#485));
#483=APPLIED_DATE_AND_TIME_ASSIGNMENT(#508,#481,(#479));
#484=SECURITY_CLASSIFICATION_LEVEL('unclassified');
#485=SECURITY_CLASSIFICATION('A','Security for version',#484);
#486=APPLIED_SECURITY_CLASSIFICATION_ASSIGNMENT(#485,(#521));
#487=APPROVAL_ROLE('Version approval');
#488=APPROVAL_ROLE('Version Security approval');
#489=APPROVAL_ROLE('Definition approval');
#490=APPROVAL_PERSON_ORGANIZATION(#539,#515,#487);
#491=APPROVAL_PERSON_ORGANIZATION(#540,#516,#488);
#492=APPROVAL_PERSON_ORGANIZATION(#543,#517,#489);
#493=COORDINATED_UNIVERSAL_TIME_OFFSET(5,0,.BEHIND.);
#494=LOCAL_TIME(0,0,0.,#493);
#495=LOCAL_TIME(0,0,0.,#493);
#496=LOCAL_TIME(0,0,0.,#493);
#497=LOCAL_TIME(0,0,0.,#493);
#498=LOCAL_TIME(0,0,0.,#493);
#499=CALENDAR_DATE(1999,1,1);
#500=CALENDAR_DATE(1999,1,1);
#501=CALENDAR_DATE(1999,1,1);
#502=CALENDAR_DATE(1999,1,1);
#503=CALENDAR_DATE(1999,1,1);
#504=DATE_AND_TIME(#499,#494);
#505=DATE_AND_TIME(#500,#495);
#506=DATE_AND_TIME(#501,#496);
#507=DATE_AND_TIME(#502,#497);
#508=DATE_AND_TIME(#503,#498);
#509=APPROVAL_DATE_TIME(#504,#515);
#510=APPROVAL_DATE_TIME(#505,#516);
#511=APPROVAL_DATE_TIME(#507,#517);
#512=APPROVAL_STATUS('not_yet_approved');
#513=APPROVAL_STATUS('not_yet_approved');
#514=APPROVAL_STATUS('approved');
#515=APPROVAL(#512,'Version approval');
#516=APPROVAL(#513,'Version Security approval');
#517=APPROVAL(#514,'Definition approval');
#518=APPLIED_APPROVAL_ASSIGNMENT(#515,(#521));
#519=APPLIED_APPROVAL_ASSIGNMENT(#516,(#485));
#520=APPLIED_APPROVAL_ASSIGNMENT(#517,(#479));
#521=PRODUCT_DEFINITION_FORMATION_WITH_SPECIFIED_SOURCE('A',
'First version',#553,.MADE.);
#522=PERSON_AND_ORGANIZATION_ROLE('design_owner');
#523=PERSON_AND_ORGANIZATION_ROLE('creator');
#524=PERSON_AND_ORGANIZATION_ROLE('design_supplier');
#525=PERSON_AND_ORGANIZATION_ROLE('classification_officer');
#526=PERSON_AND_ORGANIZATION_ROLE('creator');
#527=ORGANIZATION('STI','lab','lab');
#528=ORGANIZATION('STI','unknown','unknown');
#529=ORGANIZATION('STI','unknown','unknown');
#530=ORGANIZATION('STI','unknown','unknown');
#531=ORGANIZATION('STI','unknown','unknown');
#532=ORGANIZATION('STI','unknown','unknown');
#533=ORGANIZATION('STI','unknown','unknown');
#534=PERSON('1','Box','vc60',$,$,$);
#535=PERSON('2','last','first',$,$,$);
#536=PERSON('3','President','Mr.',$,$,$);
#537=PERSON_AND_ORGANIZATION(#534,#527);
#538=PERSON_AND_ORGANIZATION(#535,#528);
#539=PERSON_AND_ORGANIZATION(#536,#529);
#540=PERSON_AND_ORGANIZATION(#536,#530);
#541=PERSON_AND_ORGANIZATION(#536,#531);
#542=PERSON_AND_ORGANIZATION(#535,#532);
#543=PERSON_AND_ORGANIZATION(#536,#533);
#544=APPLIED_PERSON_AND_ORGANIZATION_ASSIGNMENT(#537,#522,(#553));
#545=APPLIED_PERSON_AND_ORGANIZATION_ASSIGNMENT(#538,#523,(#521));
#546=APPLIED_PERSON_AND_ORGANIZATION_ASSIGNMENT(#538,#524,(#521));
#547=APPLIED_PERSON_AND_ORGANIZATION_ASSIGNMENT(#541,#525,(#485));
#548=APPLIED_PERSON_AND_ORGANIZATION_ASSIGNMENT(#542,#526,(#479));
#549=PRODUCT_RELATED_PRODUCT_CATEGORY('detail','detail',(#553));
#550=APPLICATION_PROTOCOL_DEFINITION('International Standard',
'config_control_design',1994,#551);
#551=APPLICATION_CONTEXT(
'configuration controlled 3d designs of mechanical parts and assemblie
s');
#552=PRODUCT_CONTEXT('3D Mechanical Parts',#551,'mechanical');
#553=PRODUCT('Document','Document','',(#552));
#554=(
LENGTH_UNIT()
NAMED_UNIT(*)
SI_UNIT(.MILLI.,.METRE.)
);
#555=(
NAMED_UNIT(*)
PLANE_ANGLE_UNIT()
SI_UNIT($,.RADIAN.)
);
#556=DIMENSIONAL_EXPONENTS(0.,0.,0.,0.,0.,0.,0.);
#557=PLANE_ANGLE_MEASURE_WITH_UNIT(PLANE_ANGLE_MEASURE(0.01745329252),#555);
#558=(
CONVERSION_BASED_UNIT('DEGREES',#557)
NAMED_UNIT(#556)
PLANE_ANGLE_UNIT()
);
#559=(
NAMED_UNIT(*)
SI_UNIT($,.STERADIAN.)
SOLID_ANGLE_UNIT()
);
#560=UNCERTAINTY_MEASURE_WITH_UNIT(LENGTH_MEASURE(0.001),#554,
'DISTANCE_ACCURACY_VALUE',
'Maximum model space distance between geometric entities at asserted c
onnectivities');
#561=(
GEOMETRIC_REPRESENTATION_CONTEXT(3)
GLOBAL_UNCERTAINTY_ASSIGNED_CONTEXT((#560))
GLOBAL_UNIT_ASSIGNED_CONTEXT((#559,#558,#554))
REPRESENTATION_CONTEXT('ID1','3D')
);
#562=SHAPE_REPRESENTATION('Document',(#563,#615),#561);
#563=AXIS2_PLACEMENT_3D($,#697,#616,#617);
#564=AXIS2_PLACEMENT_3D('',#698,#618,$);
#565=AXIS2_PLACEMENT_3D('',#699,#619,$);
#566=AXIS2_PLACEMENT_3D('',#700,#620,$);
#567=AXIS2_PLACEMENT_3D('',#701,#621,$);
#568=AXIS2_PLACEMENT_3D('',#702,#622,$);
#569=AXIS2_PLACEMENT_3D('',#703,#623,$);
#570=AXIS2_PLACEMENT_3D('',#704,#624,$);
#571=AXIS2_PLACEMENT_3D('',#705,#625,$);
#572=AXIS2_PLACEMENT_3D('',#706,#626,$);
#573=AXIS2_PLACEMENT_3D('',#707,#627,$);
#574=AXIS2_PLACEMENT_3D('',#708,#628,$);
#575=AXIS2_PLACEMENT_3D('',#709,#629,$);
#576=AXIS2_PLACEMENT_3D('',#710,#630,$);
#577=AXIS2_PLACEMENT_3D('',#711,#631,$);
#578=AXIS2_PLACEMENT_3D('',#712,#632,$);
#579=AXIS2_PLACEMENT_3D('',#713,#633,$);
#580=AXIS2_PLACEMENT_3D('',#714,#634,$);
#581=AXIS2_PLACEMENT_3D('',#715,#635,$);
#582=AXIS2_PLACEMENT_3D('',#716,#636,$);
#583=AXIS2_PLACEMENT_3D('',#717,#637,$);
#584=AXIS2_PLACEMENT_3D('',#718,#638,$);
#585=AXIS2_PLACEMENT_3D('',#719,#639,$);
#586=AXIS2_PLACEMENT_3D('',#720,#640,$);
#587=AXIS2_PLACEMENT_3D('',#721,#641,$);
#588=AXIS2_PLACEMENT_3D('',#722,#642,$);
#589=AXIS2_PLACEMENT_3D($,#775,#643,#644);
#590=AXIS2_PLACEMENT_3D($,#780,#645,#646);
#591=AXIS2_PLACEMENT_3D($,#783,#647,#648);
#592=AXIS2_PLACEMENT_3D($,#788,#649,#650);
#593=AXIS2_PLACEMENT_3D($,#807,#651,#652);
#594=AXIS2_PLACEMENT_3D($,#810,#653,#654);
#595=AXIS2_PLACEMENT_3D($,#813,#655,#656);
#596=AXIS2_PLACEMENT_3D($,#816,#657,#658);
#597=AXIS2_PLACEMENT_3D($,#823,#659,#660);
#598=AXIS2_PLACEMENT_3D($,#826,#661,#662);
#599=AXIS2_PLACEMENT_3D($,#849,#663,#664);
#600=AXIS2_PLACEMENT_3D($,#854,#665,#666);
#601=AXIS2_PLACEMENT_3D($,#857,#667,#668);
#602=AXIS2_PLACEMENT_3D($,#881,#669,#670);
#603=AXIS2_PLACEMENT_3D($,#928,#671,#672);
#604=AXIS2_PLACEMENT_3D($,#931,#673,#674);
#605=AXIS2_PLACEMENT_3D($,#936,#675,#676);
#606=AXIS2_PLACEMENT_3D($,#939,#677,#678);
#607=AXIS2_PLACEMENT_3D($,#944,#679,#680);
#608=AXIS2_PLACEMENT_3D($,#947,#681,#682);
#609=AXIS2_PLACEMENT_3D($,#952,#683,#684);
#610=AXIS2_PLACEMENT_3D($,#955,#685,#686);
#611=AXIS2_PLACEMENT_3D($,#960,#687,#688);
#612=AXIS2_PLACEMENT_3D($,#963,#689,#690);
#613=AXIS2_PLACEMENT_3D($,#968,#691,#692);
#614=AXIS2_PLACEMENT_3D($,#992,#693,#694);
#615=AXIS2_PLACEMENT_3D($,#995,#695,#696);
#616=DIRECTION('',(0.,0.,1.));
#617=DIRECTION('',(1.,0.,0.));
#618=DIRECTION('',(1.,0.,0.));
#619=DIRECTION('',(1.,0.,0.));
#620=DIRECTION('',(0.,1.,0.));
#621=DIRECTION('',(0.,0.,-1.));
#622=DIRECTION('',(0.,0.,-1.));
#623=DIRECTION('',(0.,0.,-1.));
#624=DIRECTION('',(0.,0.,-1.));
#625=DIRECTION('',(0.,0.,1.));
#626=DIRECTION('',(0.,0.,-1.));
#627=DIRECTION('',(-1.,0.,0.));
#628=DIRECTION('',(0.,0.,1.));
#629=DIRECTION('',(0.,0.,-1.));
#630=DIRECTION('',(0.,-1.,0.));
#631=DIRECTION('',(0.,1.,0.));
#632=DIRECTION('',(1.,0.,0.));
#633=DIRECTION('',(-1.,0.,0.));
#634=DIRECTION('',(0.,2.06442270685631E-12,-1.));
#635=DIRECTION('',(0.,-1.,0.));
#636=DIRECTION('',(0.,0.,-1.));
#637=DIRECTION('',(0.,0.,-1.));
#638=DIRECTION('',(0.,0.,-1.));
#639=DIRECTION('',(0.,0.,-1.));
#640=DIRECTION('',(1.,0.,0.));
#641=DIRECTION('',(0.,2.06442270685632E-12,-1.));
#642=DIRECTION('',(0.,-1.,0.));
#643=DIRECTION('',(0.,0.,1.));
#644=DIRECTION('',(1.,-5.9211894646675E-16,0.));
#645=DIRECTION('',(0.,0.,-1.));
#646=DIRECTION('',(1.,5.9211894646675E-16,0.));
#647=DIRECTION('',(0.,0.,1.));
#648=DIRECTION('',(1.,-5.9211894646675E-16,0.));
#649=DIRECTION('',(0.,0.,-1.));
#650=DIRECTION('',(1.,5.9211894646675E-16,0.));
#651=DIRECTION('',(0.,0.,1.));
#652=DIRECTION('',(1.,-5.9211894646675E-16,0.));
#653=DIRECTION('',(0.,0.,-1.));
#654=DIRECTION('',(1.,5.9211894646675E-16,0.));
#655=DIRECTION('',(0.,0.,1.));
#656=DIRECTION('',(1.,-5.9211894646675E-16,0.));
#657=DIRECTION('',(0.,0.,-1.));
#658=DIRECTION('',(1.,5.9211894646675E-16,0.));
#659=DIRECTION('',(0.,-1.,0.));
#660=DIRECTION('',(0.986013297183289,0.,0.166666666666552));
#661=DIRECTION('',(0.,1.,0.));
#662=DIRECTION('',(0.986013297183288,0.,-0.166666666666557));
#663=DIRECTION('',(-1.,0.,0.));
#664=DIRECTION('',(0.,1.,-2.09495945173683E-17));
#665=DIRECTION('',(-1.,0.,0.));
#666=DIRECTION('',(0.,1.,-2.09495945173683E-17));
#667=DIRECTION('',(0.,-2.06412664738309E-12,1.));
#668=DIRECTION('',(1.,-2.368475785867E-15,0.));
#669=DIRECTION('',(0.,1.,0.));
#670=DIRECTION('',(1.,0.,1.889653963545E-16));
#671=DIRECTION('',(0.,0.,1.));
#672=DIRECTION('',(-1.,0.,0.));
#673=DIRECTION('',(0.,0.,-1.));
#674=DIRECTION('',(-1.,0.,0.));
#675=DIRECTION('',(0.,0.,-1.));
#676=DIRECTION('',(-1.,0.,0.));
#677=DIRECTION('',(0.,0.,1.));
#678=DIRECTION('',(-1.,0.,0.));
#679=DIRECTION('',(0.,0.,1.));
#680=DIRECTION('',(-1.,0.,0.));
#681=DIRECTION('',(0.,0.,-1.));
#682=DIRECTION('',(-1.,0.,0.));
#683=DIRECTION('',(0.,0.,-1.));
#684=DIRECTION('',(-1.,0.,0.));
#685=DIRECTION('',(0.,0.,1.));
#686=DIRECTION('',(-1.,0.,0.));
#687=DIRECTION('',(-1.,0.,0.));
#688=DIRECTION('',(0.,-1.,-2.09495945173683E-17));
#689=DIRECTION('',(-1.,0.,0.));
#690=DIRECTION('',(0.,-1.,-2.09495945173683E-17));
#691=DIRECTION('',(0.,-2.06471876632956E-12,1.));
#692=DIRECTION('',(-1.,0.,0.));
#693=DIRECTION('',(0.,1.,0.));
#694=DIRECTION('',(-1.,0.,1.889653963545E-16));
#695=DIRECTION('',(0.,0.,1.));
#696=DIRECTION('',(1.,0.,0.));
#697=CARTESIAN_POINT('',(0.,0.,0.));
#698=CARTESIAN_POINT('',(11.999999999974,6.,-6.00000000000017));
#699=CARTESIAN_POINT('',(11.999999999974,6.,-6.00000000000017));
#700=CARTESIAN_POINT('',(1.02307224607835E-12,14.5,-1.74908299897373E-13));
#701=CARTESIAN_POINT('',(6.99999999997402,-2.5,-4.50000000000017));
#702=CARTESIAN_POINT('',(6.99999999997402,-2.5,-4.50000000000017));
#703=CARTESIAN_POINT('',(6.99999999997402,2.5,-4.50000000000017));
#704=CARTESIAN_POINT('',(6.99999999997402,2.5,-4.50000000000017));
#705=CARTESIAN_POINT('',(1.99999999997402,-9.,-0.500000000000175));
#706=CARTESIAN_POINT('',(34.999999999974,-9.,0.499999999999825));
#707=CARTESIAN_POINT('',(-22.000000000026,-6.,5.99999999999983));
#708=CARTESIAN_POINT('',(-22.000000000026,-6.,5.99999999999983));
#709=CARTESIAN_POINT('',(-22.000000000026,-6.,-6.00000000000017));
#710=CARTESIAN_POINT('',(11.999999999974,-6.,-6.00000000000017));
#711=CARTESIAN_POINT('',(-22.000000000026,6.,-6.00000000000017));
#712=CARTESIAN_POINT('',(-16.000000000026,0.,-1.74908299897373E-13));
#713=CARTESIAN_POINT('',(-10.000000000026,-3.06,3.05999999999983));
#714=CARTESIAN_POINT('',(-15.500000000026,1.23758781001015E-11,-3.00000000000017));
#715=CARTESIAN_POINT('',(-15.500000000026,2.99999999128941,-1.74213402096638E-8));
#716=CARTESIAN_POINT('',(6.99999999997402,-2.5,-4.50000000000017));
#717=CARTESIAN_POINT('',(6.99999999997402,-2.5,-4.50000000000017));
#718=CARTESIAN_POINT('',(6.99999999997402,2.5,-4.50000000000017));
#719=CARTESIAN_POINT('',(6.99999999997402,2.5,-4.50000000000017));
#720=CARTESIAN_POINT('',(-16.000000000026,0.,-1.74908299897373E-13));
#721=CARTESIAN_POINT('',(-15.500000000026,1.23847598842985E-11,-3.00000000000017));
#722=CARTESIAN_POINT('',(-15.500000000026,2.99999999128941,-1.74213402096638E-8));
#723=CARTESIAN_POINT('',(11.999999999974,-6.,-6.00000000000017));
#724=CARTESIAN_POINT('',(11.999999999974,6.,-6.00000000000017));
#725=CARTESIAN_POINT('',(11.999999999974,-6.,5.99999999999983));
#726=CARTESIAN_POINT('',(11.999999999974,6.,5.99999999999983));
#727=CARTESIAN_POINT('',(8.49999999997402,-2.5,-6.00000000000017));
#728=CARTESIAN_POINT('',(8.49999999997402,-2.5,5.99999999999983));
#729=CARTESIAN_POINT('',(8.49999999997402,2.5,-6.00000000000017));
#730=CARTESIAN_POINT('',(8.49999999997402,2.5,5.99999999999983));
#731=CARTESIAN_POINT('',(11.999999999974,-6.,-0.500000000000175));
#732=CARTESIAN_POINT('',(2.95803989155087,-6.,-0.50000000000017));
#733=CARTESIAN_POINT('',(2.95803989155087,-6.,0.499999999999827));
#734=CARTESIAN_POINT('',(11.999999999974,-6.,0.499999999999825));
#735=CARTESIAN_POINT('',(11.999999999974,6.,-0.500000000000175));
#736=CARTESIAN_POINT('',(11.999999999974,6.,0.499999999999825));
#737=CARTESIAN_POINT('',(2.95803989155087,6.,-0.500000000000173));
#738=CARTESIAN_POINT('',(2.95803989155075,6.,0.499999999999826));
#739=CARTESIAN_POINT('',(8.49999999997402,-2.5,-0.500000000000175));
#740=CARTESIAN_POINT('',(8.49999999997402,-2.5,0.499999999999825));
#741=CARTESIAN_POINT('',(8.49999999997402,2.5,-0.500000000000175));
#742=CARTESIAN_POINT('',(8.49999999997402,2.5,0.499999999999825));
#743=CARTESIAN_POINT('',(-22.000000000026,-6.,5.99999999999983));
#744=CARTESIAN_POINT('',(-22.000000000026,6.,5.99999999999983));
#745=CARTESIAN_POINT('',(-22.000000000026,-6.,-6.00000000000017));
#746=CARTESIAN_POINT('',(-22.000000000026,6.,-6.00000000000017));
#747=CARTESIAN_POINT('',(-10.000000000026,3.,-1.74971148680925E-13));
#748=CARTESIAN_POINT('',(-22.000000000026,3.,-1.74971148680925E-13));
#749=CARTESIAN_POINT('',(-14.000000000026,0.,-6.00000000000017));
#750=CARTESIAN_POINT('',(-14.000000000026,1.23776544569409E-11,-3.00000000000017));
#751=CARTESIAN_POINT('',(-14.000000000026,5.99999998257883,-1.74213399262158E-8));
#752=CARTESIAN_POINT('',(-14.000000000026,3.,-8.71075744868222E-9));
#753=CARTESIAN_POINT('',(-17.000000000026,3.,-1.74971148680925E-13));
#754=CARTESIAN_POINT('',(5.49999999997402,-2.5,5.99999999999983));
#755=CARTESIAN_POINT('',(5.49999999997402,-2.5,0.499999999999826));
#756=CARTESIAN_POINT('',(5.49999999997402,-2.5,-0.500000000000176));
#757=CARTESIAN_POINT('',(5.49999999997402,-2.5,-6.00000000000017));
#758=CARTESIAN_POINT('',(5.49999999997402,2.5,5.99999999999983));
#759=CARTESIAN_POINT('',(5.49999999997402,2.5,0.499999999999826));
#760=CARTESIAN_POINT('',(5.49999999997402,2.5,-0.500000000000176));
#761=CARTESIAN_POINT('',(5.49999999997402,2.5,-6.00000000000017));
#762=CARTESIAN_POINT('',(-22.000000000026,-3.,-1.74971148680925E-13));
#763=CARTESIAN_POINT('',(-10.000000000026,-3.,-1.74971148680925E-13));
#764=CARTESIAN_POINT('',(-17.000000000026,6.18172180111287E-12,-3.00000000000017));
#765=CARTESIAN_POINT('',(-17.000000000026,0.,-6.00000000000017));
#766=CARTESIAN_POINT('',(-17.000000000026,5.99999998257883,-1.74213399262158E-8));
#767=CARTESIAN_POINT('',(11.999999999974,-6.,-6.00000000000017));
#768=CARTESIAN_POINT('',(11.999999999974,6.,-6.00000000000017));
#769=CARTESIAN_POINT('',(11.999999999974,-6.,5.99999999999983));
#770=CARTESIAN_POINT('',(11.999999999974,-6.,0.499999999999825));
#771=CARTESIAN_POINT('',(11.999999999974,-6.,5.99999999999983));
#772=CARTESIAN_POINT('',(11.999999999974,6.,5.99999999999983));
#773=CARTESIAN_POINT('',(11.999999999974,6.,5.99999999999983));
#774=CARTESIAN_POINT('',(11.999999999974,6.,0.499999999999825));
#775=CARTESIAN_POINT('',(6.99999999997402,-2.5,5.99999999999983));
#776=CARTESIAN_POINT('',(8.49999999997402,-2.5,5.99999999999983));
#777=CARTESIAN_POINT('',(5.49999999997402,-2.5,5.99999999999983));
#778=CARTESIAN_POINT('',(8.49999999997402,-2.5,5.99999999999983));
#779=CARTESIAN_POINT('',(8.49999999997402,-2.5,0.499999999999825));
#780=CARTESIAN_POINT('',(6.99999999997402,-2.5,-6.00000000000017));
#781=CARTESIAN_POINT('',(8.49999999997402,-2.5,-6.00000000000017));
#782=CARTESIAN_POINT('',(5.49999999997402,-2.5,-6.00000000000017));
#783=CARTESIAN_POINT('',(6.99999999997402,2.5,5.99999999999983));
#784=CARTESIAN_POINT('',(8.49999999997402,2.5,5.99999999999983));
#785=CARTESIAN_POINT('',(5.49999999997402,2.5,5.99999999999983));
#786=CARTESIAN_POINT('',(8.49999999997402,2.5,5.99999999999983));
#787=CARTESIAN_POINT('',(8.49999999997402,2.5,0.499999999999825));
#788=CARTESIAN_POINT('',(6.99999999997402,2.5,-6.00000000000017));
#789=CARTESIAN_POINT('',(8.49999999997402,2.5,-6.00000000000017));
#790=CARTESIAN_POINT('',(5.49999999997402,2.5,-6.00000000000017));
#791=CARTESIAN_POINT('',(11.999999999974,-6.,-0.500000000000175));
#792=CARTESIAN_POINT('',(2.95803989155087,-6.,-0.50000000000017));
#793=CARTESIAN_POINT('',(2.95803989155087,-6.,0.499999999999827));
#794=CARTESIAN_POINT('',(11.999999999974,-6.,0.499999999999825));
#795=CARTESIAN_POINT('',(11.999999999974,6.,-0.500000000000175));
#796=CARTESIAN_POINT('',(11.999999999974,-6.,-0.500000000000175));
#797=CARTESIAN_POINT('',(11.999999999974,-6.,0.499999999999825));
#798=CARTESIAN_POINT('',(11.999999999974,6.,0.499999999999825));
#799=CARTESIAN_POINT('',(2.95803989155087,6.,-0.500000000000173));
#800=CARTESIAN_POINT('',(11.999999999974,6.,-0.500000000000175));
#801=CARTESIAN_POINT('',(11.999999999974,6.,0.499999999999825));
#802=CARTESIAN_POINT('',(2.95803989155075,6.,0.499999999999826));
#803=CARTESIAN_POINT('',(2.95803989155087,-6.,-0.50000000000017));
#804=CARTESIAN_POINT('',(2.95803989155087,6.,-0.500000000000173));
#805=CARTESIAN_POINT('',(2.95803989155075,6.,0.499999999999826));
#806=CARTESIAN_POINT('',(2.95803989155087,-6.,0.499999999999827));
#807=CARTESIAN_POINT('',(6.99999999997402,-2.5,-0.500000000000176));
#808=CARTESIAN_POINT('',(8.49999999997402,-2.5,-0.500000000000176));
#809=CARTESIAN_POINT('',(5.49999999997402,-2.5,-0.500000000000176));
#810=CARTESIAN_POINT('',(6.99999999997402,-2.5,0.499999999999826));
#811=CARTESIAN_POINT('',(8.49999999997402,-2.5,0.499999999999826));
#812=CARTESIAN_POINT('',(5.49999999997402,-2.5,0.499999999999826));
#813=CARTESIAN_POINT('',(6.99999999997402,2.5,-0.500000000000176));
#814=CARTESIAN_POINT('',(8.49999999997402,2.5,-0.500000000000176));
#815=CARTESIAN_POINT('',(5.49999999997402,2.5,-0.500000000000176));
#816=CARTESIAN_POINT('',(6.99999999997402,2.5,0.499999999999826));
#817=CARTESIAN_POINT('',(8.49999999997402,2.5,0.499999999999826));
#818=CARTESIAN_POINT('',(5.49999999997402,2.5,0.499999999999826));
#819=CARTESIAN_POINT('',(11.999999999974,-6.,-0.500000000000175));
#820=CARTESIAN_POINT('',(11.999999999974,-6.,-6.00000000000017));
#821=CARTESIAN_POINT('',(11.999999999974,6.,-0.500000000000175));
#822=CARTESIAN_POINT('',(11.999999999974,6.,-6.00000000000017));
#823=CARTESIAN_POINT('',(-3.40330553003325E-15,-6.,-1.86693883375458E-16));
#824=CARTESIAN_POINT('',(2.95803989155087,-6.,0.499999999999827));
#825=CARTESIAN_POINT('',(2.95803989155081,-6.,-0.500000000000164));
#826=CARTESIAN_POINT('',(5.42439899313931E-14,6.,-3.4135939386995E-13));
#827=CARTESIAN_POINT('',(2.95803989155087,6.,-0.500000000000173));
#828=CARTESIAN_POINT('',(2.95803989155081,6.,0.499999999999828));
#829=CARTESIAN_POINT('',(8.49999999997402,-2.5,-0.500000000000175));
#830=CARTESIAN_POINT('',(8.49999999997402,-2.5,-6.00000000000017));
#831=CARTESIAN_POINT('',(8.49999999997402,2.5,-0.500000000000175));
#832=CARTESIAN_POINT('',(8.49999999997402,2.5,-6.00000000000017));
#833=CARTESIAN_POINT('',(-22.000000000026,6.,5.99999999999983));
#834=CARTESIAN_POINT('',(-22.000000000026,-6.,5.99999999999983));
#835=CARTESIAN_POINT('',(-22.000000000026,-6.,5.99999999999983));
#836=CARTESIAN_POINT('',(-22.000000000026,-6.,-6.00000000000017));
#837=CARTESIAN_POINT('',(-22.000000000026,6.,-6.00000000000017));
#838=CARTESIAN_POINT('',(-22.000000000026,6.,5.99999999999983));
#839=CARTESIAN_POINT('',(-22.000000000026,6.,-6.00000000000017));
#840=CARTESIAN_POINT('',(-22.000000000026,-6.,-6.00000000000017));
#841=CARTESIAN_POINT('',(-22.000000000026,-6.,5.99999999999983));
#842=CARTESIAN_POINT('',(11.999999999974,-6.,5.99999999999983));
#843=CARTESIAN_POINT('',(-22.000000000026,-6.,-6.00000000000017));
#844=CARTESIAN_POINT('',(11.999999999974,-6.,-6.00000000000017));
#845=CARTESIAN_POINT('',(11.999999999974,6.,-6.00000000000017));
#846=CARTESIAN_POINT('',(-22.000000000026,6.,-6.00000000000017));
#847=CARTESIAN_POINT('',(11.999999999974,6.,5.99999999999983));
#848=CARTESIAN_POINT('',(-22.000000000026,6.,5.99999999999983));
#849=CARTESIAN_POINT('',(-22.000000000026,0.,-1.74908299897373E-13));
#850=CARTESIAN_POINT('',(-22.000000000026,3.,-1.74971148680925E-13));
#851=CARTESIAN_POINT('',(-22.000000000026,-3.,-1.75212845153565E-13));
#852=CARTESIAN_POINT('',(-22.000000000026,3.,-1.74971148680925E-13));
#853=CARTESIAN_POINT('',(-17.000000000026,3.,-1.74971148680925E-13));
#854=CARTESIAN_POINT('',(-10.000000000026,0.,-1.74908299897373E-13));
#855=CARTESIAN_POINT('',(-10.000000000026,3.,-1.74971148680925E-13));
#856=CARTESIAN_POINT('',(-10.000000000026,-3.,-1.75212845153565E-13));
#857=CARTESIAN_POINT('',(-15.500000000026,3.5527136788005E-15,-6.00000000000017));
#858=CARTESIAN_POINT('',(-14.000000000026,3.94430452610506E-31,-6.00000000000017));
#859=CARTESIAN_POINT('',(-17.000000000026,6.27786229722173E-16,-6.00000000000017));
#860=CARTESIAN_POINT('',(-14.000000000026,1.23776544569409E-11,-3.00000000000017));
#861=CARTESIAN_POINT('',(-14.000000000026,0.201578970764132,-3.00000000000017));
#862=CARTESIAN_POINT('',(-14.040400507151,0.398424958027761,-2.9792369390116));
#863=CARTESIAN_POINT('',(-14.1932920245462,0.762412710032478,-2.90739680878965));
#864=CARTESIAN_POINT('',(-14.3035841227951,0.925140243272608,-2.85751562468475));
#865=CARTESIAN_POINT('',(-14.5767060740622,1.19778944325049,-2.75436192255308));
#866=CARTESIAN_POINT('',(-14.7392950993781,1.30754755324034,-2.70140786901779));
#867=CARTESIAN_POINT('',(-15.1019265862113,1.45962342592853,-2.62238450388753));
#868=CARTESIAN_POINT('',(-15.2980819440264,1.50000000001404,-2.59807621134538));
#869=CARTESIAN_POINT('',(-15.500000000026,1.50000000001404,-2.59807621134538));
#870=CARTESIAN_POINT('',(-15.7019180560256,1.50000000001404,-2.59807621134538));
#871=CARTESIAN_POINT('',(-15.8980734138407,1.4596234259285,-2.62238450388755));
#872=CARTESIAN_POINT('',(-16.260704900674,1.30754755324024,-2.70140786901784));
#873=CARTESIAN_POINT('',(-16.4232939259897,1.1977894432506,-2.75436192255305));
#874=CARTESIAN_POINT('',(-16.6964158772571,0.925140243272352,-2.85751562468485));
#875=CARTESIAN_POINT('',(-16.8067079755056,0.762412710032848,-2.90739680878958));
#876=CARTESIAN_POINT('',(-16.959599492901,0.398424958027647,-2.97923693901162));
#877=CARTESIAN_POINT('',(-17.000000000026,0.201578970764217,-3.00000000000017));
#878=CARTESIAN_POINT('',(-17.000000000026,6.18172180111287E-12,-3.00000000000017));
#879=CARTESIAN_POINT('',(-14.000000000026,1.23776544569409E-11,-3.00000000000017));
#880=CARTESIAN_POINT('',(-14.000000000026,0.,-6.00000000000017));
#881=CARTESIAN_POINT('',(-15.500000000026,5.99999998257883,-1.74213402096638E-8));
#882=CARTESIAN_POINT('',(-14.000000000026,5.99999998257883,-1.74213399262158E-8));
#883=CARTESIAN_POINT('',(-17.000000000026,5.99999998257883,-1.74213400106751E-8));
#884=CARTESIAN_POINT('',(-14.000000000026,5.99999998257883,-1.74213399262158E-8));
#885=CARTESIAN_POINT('',(-14.000000000026,3.,-8.71075744868222E-9));
#886=CARTESIAN_POINT('',(-14.000000000026,3.,-8.71075744868222E-9));
#887=CARTESIAN_POINT('',(-14.000000000026,3.,0.201578959398051));
#888=CARTESIAN_POINT('',(-14.0404005098164,2.97923694002719,0.398424949093663));
#889=CARTESIAN_POINT('',(-14.1932920274863,2.90739681201535,0.762412697455159));
#890=CARTESIAN_POINT('',(-14.3035841259289,2.8575156289978,0.925140229767533));
#891=CARTESIAN_POINT('',(-14.5767060771634,2.75436192907523,1.19778942811186));
#892=CARTESIAN_POINT('',(-14.7392951021882,2.70140787668677,1.30754753733581));
#893=CARTESIAN_POINT('',(-15.1019265879361,2.6223845133556,1.45962340886187));
#894=CARTESIAN_POINT('',(-15.2980819449699,2.59807622141142,1.49999998257866));
#895=CARTESIAN_POINT('',(-15.500000000026,2.59807622141142,1.49999998257866));
#896=CARTESIAN_POINT('',(-15.7019180550819,2.59807622141142,1.49999998257866));
#897=CARTESIAN_POINT('',(-15.8980734121159,2.6223845133556,1.45962340886185));
#898=CARTESIAN_POINT('',(-16.2607048978634,2.70140787668669,1.30754753733596));
#899=CARTESIAN_POINT('',(-16.4232939228887,2.75436192907526,1.19778942811178));
#900=CARTESIAN_POINT('',(-16.6964158741229,2.85751562899772,0.925140229767755));
#901=CARTESIAN_POINT('',(-16.8067079725657,2.90739681201539,0.762412697454968));
#902=CARTESIAN_POINT('',(-16.9595994902356,2.97923694002723,0.398424949093558));
#903=CARTESIAN_POINT('',(-17.000000000026,3.,0.201578959398232));
#904=CARTESIAN_POINT('',(-17.000000000026,3.,-1.74971148680925E-13));
#905=CARTESIAN_POINT('',(-17.000000000026,3.,-1.74971148680925E-13));
#906=CARTESIAN_POINT('',(-17.000000000026,3.,-0.20151205274301));
#907=CARTESIAN_POINT('',(-16.959625786346,2.9792492914186,-0.398362376666564));
#908=CARTESIAN_POINT('',(-16.8066961318422,2.90739123912951,-0.762440925707068));
#909=CARTESIAN_POINT('',(-16.6963936725584,2.85750723284367,-0.925162426145304));
#910=CARTESIAN_POINT('',(-16.4233111115216,2.75436840556605,-1.1977723056717));
#911=CARTESIAN_POINT('',(-16.2607270002539,2.70141267661104,-1.30753830245026));
#912=CARTESIAN_POINT('',(-15.898002759526,2.62236909732147,-1.45965307381598));
#913=CARTESIAN_POINT('',(-15.7018455020987,2.59807620129519,-1.50000001742134));
#914=CARTESIAN_POINT('',(-15.500000000026,2.59807620129519,-1.50000001742134));
#915=CARTESIAN_POINT('',(-15.2981544979535,2.59807620129519,-1.50000001742134));
#916=CARTESIAN_POINT('',(-15.1019972405257,2.6223690973215,-1.45965307381593));
#917=CARTESIAN_POINT('',(-14.7392729997981,2.70141267661103,-1.3075383024503));
#918=CARTESIAN_POINT('',(-14.5766888885303,2.75436840556608,-1.19777230567164));
#919=CARTESIAN_POINT('',(-14.3036063274955,2.85750723284298,-0.925162426147161));
#920=CARTESIAN_POINT('',(-14.1933038682084,2.9073912391307,-0.762440925705359));
#921=CARTESIAN_POINT('',(-14.0403742137065,2.97924929141897,-0.398362376669612));
#922=CARTESIAN_POINT('',(-14.000000000026,3.,-0.201512052740288));
#923=CARTESIAN_POINT('',(-14.000000000026,3.,-8.71075744868222E-9));
#924=CARTESIAN_POINT('',(-14.000000000026,3.,-8.71075744868222E-9));
#925=CARTESIAN_POINT('',(-10.000000000026,3.,-1.74971148680925E-13));
#926=CARTESIAN_POINT('',(5.49999999997402,-2.5,5.99999999999983));
#927=CARTESIAN_POINT('',(5.49999999997402,-2.5,0.499999999999823));
#928=CARTESIAN_POINT('',(6.99999999997402,-2.5,5.99999999999983));
#929=CARTESIAN_POINT('',(5.49999999997402,-2.5,5.99999999999983));
#930=CARTESIAN_POINT('',(8.49999999997402,-2.5,5.99999999999983));
#931=CARTESIAN_POINT('',(6.99999999997402,-2.5,0.499999999999826));
#932=CARTESIAN_POINT('',(5.49999999997402,-2.5,0.499999999999826));
#933=CARTESIAN_POINT('',(8.49999999997402,-2.5,0.499999999999826));
#934=CARTESIAN_POINT('',(5.49999999997402,-2.5,-0.500000000000174));
#935=CARTESIAN_POINT('',(5.49999999997402,-2.5,-6.00000000000017));
#936=CARTESIAN_POINT('',(6.99999999997402,-2.5,-6.00000000000017));
#937=CARTESIAN_POINT('',(5.49999999997402,-2.5,-6.00000000000017));
#938=CARTESIAN_POINT('',(8.49999999997402,-2.5,-6.00000000000017));
#939=CARTESIAN_POINT('',(6.99999999997402,-2.5,-0.500000000000176));
#940=CARTESIAN_POINT('',(5.49999999997402,-2.5,-0.500000000000176));
#941=CARTESIAN_POINT('',(8.49999999997402,-2.5,-0.500000000000176));
#942=CARTESIAN_POINT('',(5.49999999997402,2.5,5.99999999999983));
#943=CARTESIAN_POINT('',(5.49999999997402,2.5,0.499999999999823));
#944=CARTESIAN_POINT('',(6.99999999997402,2.5,5.99999999999983));
#945=CARTESIAN_POINT('',(5.49999999997402,2.5,5.99999999999983));
#946=CARTESIAN_POINT('',(8.49999999997402,2.5,5.99999999999983));
#947=CARTESIAN_POINT('',(6.99999999997402,2.5,0.499999999999826));
#948=CARTESIAN_POINT('',(5.49999999997402,2.5,0.499999999999826));
#949=CARTESIAN_POINT('',(8.49999999997402,2.5,0.499999999999826));
#950=CARTESIAN_POINT('',(5.49999999997402,2.5,-0.500000000000174));
#951=CARTESIAN_POINT('',(5.49999999997402,2.5,-6.00000000000017));
#952=CARTESIAN_POINT('',(6.99999999997402,2.5,-6.00000000000017));
#953=CARTESIAN_POINT('',(5.49999999997402,2.5,-6.00000000000017));
#954=CARTESIAN_POINT('',(8.49999999997402,2.5,-6.00000000000017));
#955=CARTESIAN_POINT('',(6.99999999997402,2.5,-0.500000000000176));
#956=CARTESIAN_POINT('',(5.49999999997402,2.5,-0.500000000000176));
#957=CARTESIAN_POINT('',(8.49999999997402,2.5,-0.500000000000176));
#958=CARTESIAN_POINT('',(-22.000000000026,-3.,-1.74971148680925E-13));
#959=CARTESIAN_POINT('',(-10.000000000026,-3.,-1.74971148680925E-13));
#960=CARTESIAN_POINT('',(-22.000000000026,0.,-1.74908299897373E-13));
#961=CARTESIAN_POINT('',(-22.000000000026,-3.,-1.74971148680925E-13));
#962=CARTESIAN_POINT('',(-22.000000000026,3.,-1.74478057074076E-13));
#963=CARTESIAN_POINT('',(-10.000000000026,0.,-1.74908299897373E-13));
#964=CARTESIAN_POINT('',(-10.000000000026,-3.,-1.74971148680925E-13));
#965=CARTESIAN_POINT('',(-10.000000000026,3.,-1.74478057074076E-13));
#966=CARTESIAN_POINT('',(-17.000000000026,1.23918653116561E-11,-3.00000000000017));
#967=CARTESIAN_POINT('',(-17.000000000026,0.,-6.00000000000017));
#968=CARTESIAN_POINT('',(-15.500000000026,0.,-6.00000000000017));
#969=CARTESIAN_POINT('',(-17.000000000026,0.,-6.00000000000017));
#970=CARTESIAN_POINT('',(-14.000000000026,-1.83697019872103E-16,-6.00000000000017));
#971=CARTESIAN_POINT('',(-17.000000000026,6.18172180111287E-12,-3.00000000000017));
#972=CARTESIAN_POINT('',(-17.000000000026,-0.201578970747775,-3.00000000000017));
#973=CARTESIAN_POINT('',(-16.9595994928973,-0.398424958014715,-2.97923693901308));
#974=CARTESIAN_POINT('',(-16.8067079755017,-0.762412710013649,-2.90739680879447));
#975=CARTESIAN_POINT('',(-16.6964158772521,-0.925140243252628,-2.85751562469111));
#976=CARTESIAN_POINT('',(-16.4232939259849,-1.19778944322732,-2.75436192256306));
#977=CARTESIAN_POINT('',(-16.2607049006695,-1.30754755321553,-2.70140786902975));
#978=CARTESIAN_POINT('',(-15.8980734138379,-1.45962342590126,-2.62238450390266));
#979=CARTESIAN_POINT('',(-15.7019180560243,-1.49999999998596,-2.5980762113616));
#980=CARTESIAN_POINT('',(-15.500000000026,-1.49999999998596,-2.5980762113616));
#981=CARTESIAN_POINT('',(-15.2980819440279,-1.49999999998596,-2.5980762113616));
#982=CARTESIAN_POINT('',(-15.1019265862142,-1.4596234259013,-2.62238450390264));
#983=CARTESIAN_POINT('',(-14.7392950993822,-1.30754755321541,-2.70140786902982));
#984=CARTESIAN_POINT('',(-14.5767060740673,-1.19778944322752,-2.75436192256298));
#985=CARTESIAN_POINT('',(-14.3035841227996,-0.925140243252315,-2.85751562469123));
#986=CARTESIAN_POINT('',(-14.1932920245505,-0.762412710014047,-2.90739680879439));
#987=CARTESIAN_POINT('',(-14.0404005071545,-0.398424958014147,-2.97923693901319));
#988=CARTESIAN_POINT('',(-14.000000000026,-0.201578970748415,-3.00000000000017));
#989=CARTESIAN_POINT('',(-14.000000000026,1.23776544569409E-11,-3.00000000000017));
#990=CARTESIAN_POINT('',(-17.000000000026,5.99999998257883,-1.74213399262158E-8));
#991=CARTESIAN_POINT('',(-17.000000000026,3.,-1.74213399262158E-8));
#992=CARTESIAN_POINT('',(-15.500000000026,5.99999998257883,-1.74213402096638E-8));
#993=CARTESIAN_POINT('',(-17.000000000026,5.99999998257883,-1.74213399262158E-8));
#994=CARTESIAN_POINT('',(-14.000000000026,5.99999998257883,-1.74213396432811E-8));
#995=CARTESIAN_POINT('',(0.,0.,0.));
ENDSEC;
END-ISO-10303-21;
